<?xml version="1.0" standalone="no"?>
<!DOCTYPE svg PUBLIC "-//W3C//DTD SVG 1.1//EN" "http://www.w3.org/Graphics/SVG/1.1/DTD/svg11.dtd" >
<svg xmlns="http://www.w3.org/2000/svg" xmlns:xlink="http://www.w3.org/1999/xlink" version="1.1">
<metadata>
Created by FontForge 20201107 at Fri Jan 23 15:19:05 2004
 By Jimmy Wärting
Copyright (c) House Industries, 2004. All rights reserved.
</metadata>
<defs>
<font id="HouseMovementsTT-Custom" horiz-adv-x="376" >
  <font-face 
    font-family="HouseMovementsTT-Custom"
    font-weight="400"
    font-stretch="normal"
    units-per-em="1000"
    panose-1="0 0 0 0 0 0 0 0 0 0"
    ascent="800"
    descent="-200"
    x-height="694"
    cap-height="699"
    bbox="-36 -302 687.25 937"
    underline-thickness="50"
    underline-position="-100"
    unicode-range="U+0020-FB02"
  />
<missing-glyph horiz-adv-x="150" 
 />
    <glyph glyph-name=".notdef" horiz-adv-x="150" 
 />
    <glyph glyph-name=".null" horiz-adv-x="0" 
 />
    <glyph glyph-name="nonmarkingreturn" horiz-adv-x="150" 
 />
    <glyph glyph-name="space" unicode=" " horiz-adv-x="150" 
 />
    <glyph glyph-name="C" unicode="C" horiz-adv-x="343" 
d="M332 440q-20 -1 -41.5 -1.5t-39.5 -1.5q-21 -1 -41 -3q1 29 0.5 61t-2.5 54q-2 23 -21 23q-25 0 -28 -31q-5 -41 -8 -95t-3 -109q0 -54 3 -104.5t9 -84.5q4 -19 12 -25.5t20 -6.5q19 0 22 20q3 24 2 59.5t-3 65.5q20 -1 40 -0.5t37 1.5q19 1 37 1q-4 -42 -2 -91t-2 -94
q-5 -50 -37.5 -74t-86.5 -24q-35 0 -61 7t-45 22.5t-31.5 39.5t-21.5 58q-12 49 -18 115t-6.5 134t3.5 131t11 105q6 38 18 63.5t31.5 41t47 22t65.5 6.5q66 0 97 -27.5t35 -90.5q2 -41 2.5 -83.5t5.5 -83.5z" />
    <glyph glyph-name="D" unicode="D" horiz-adv-x="377" 
d="M20 699q29 11 68 17t74 6q40 0 70 -7t52.5 -24.5t37.5 -47.5t24 -75q7 -38 11 -90.5t4.5 -108t-2 -109.5t-7.5 -95q-7 -52 -18.5 -86.5t-32 -55t-51 -29t-74.5 -8.5q-37 0 -77.5 6t-74.5 17q1 66 1.5 154.5t0 183t-2 187t-3.5 165.5zM152 575q-1 -47 -2 -108.5t-1 -125.5
q0 -63 1 -123t3 -103q20 -2 33 -0.5t21 8t12.5 19t6.5 33.5q4 35 6 84.5t1.5 100.5t-3.5 97t-9 75q-5 26 -20 36t-49 7z" />
    <glyph glyph-name="F" unicode="F" horiz-adv-x="290" 
d="M286 707q-1 -23 -3 -49q-2 -22 -4 -49t-5 -55q-32 7 -67 7q-26 0 -38.5 -7.5t-17.5 -28.5q-3 -10 -4.5 -24.5t-2 -30.5t0 -31.5t2.5 -27.5q2 -16 9 -26t25 -14q14 -3 34 -4t39 0q-2 -17 -2 -35q-1 -16 -0.5 -36.5t2.5 -43.5q-18 1 -38 -0.5t-34 -6.5q-17 -5 -23.5 -16.5
t-6.5 -28.5t2 -41t5.5 -51t8.5 -55t10 -52q-26 -2 -50.5 -3.5t-44.5 -3.5q-23 -2 -44 -3q-4 45 -7.5 96.5t-6.5 105t-5 106.5t-2.5 101.5t0.5 89.5t3 71q3 44 14 74.5t30 49.5t47.5 27.5t66.5 8.5q25 0 54.5 -4t52.5 -10z" />
    <glyph glyph-name="I" unicode="I" horiz-adv-x="194" 
d="M28 699q24 -2 48.5 -3t44.5 -1q23 -1 44 0q-1 -48 -1.5 -108t-1 -125t-0.5 -132q0 -66 1 -127t2.5 -113.5t3.5 -88.5q-26 -1 -52 -1.5t-46 -2.5q-24 -2 -46 -4q1 37 2.5 93t2.5 121.5t1 135.5v136t-1 123.5t-2 96.5z" />
    <glyph glyph-name="J" unicode="J" horiz-adv-x="332" 
d="M186 147q4 29 5 59.5t1 78.5q0 51 -1.5 108.5t-4.5 112.5t-7.5 105t-9.5 86q27 1 53.5 2t47.5 3q25 2 47 4q-3 -49 -3.5 -103t-0.5 -110q0 -55 1 -109.5t1 -105.5q0 -84 -6 -142t-24.5 -93.5t-53 -51.5t-92.5 -16q-45 0 -71 13t-39 39.5t-16.5 67t-3.5 94.5q0 24 -0.5 48
t-3.5 49q16 -1 36 -2q17 -1 40.5 -1.5t52.5 -0.5q-3 -22 -3.5 -56.5t2.5 -69.5q4 -43 27 -43q11 0 17.5 7t8.5 27z" />
    <glyph glyph-name="j" unicode="j" horiz-adv-x="298" 
d="M128 697l54 2t48 3q25 2 48 4q-2 -56 -1 -125t2.5 -141t2 -141t-2.5 -123q-5 -103 -42.5 -146.5t-117.5 -43.5q-58 0 -114 17q2 26 4 52.5t4 46.5l5 45q39 -15 76 -15q24 0 36 12t15 36q5 40 5 106q0 67 -3 141.5t-8 146.5t-11 123z" />
    <glyph glyph-name="K" unicode="K" 
d="M163 715q-3 -31 -4.5 -72t-2.5 -82t-0.5 -77.5t2.5 -59.5q5 -1 9 -2t8.5 -1.5t9.5 0.5q17 1 24 11.5t9 33.5q1 22 2 50.5t1.5 59.5t-0.5 62t-2 60q21 -2 45 -3q20 -2 44.5 -2.5t49.5 0.5q-3 -25 -4.5 -57t-2 -64.5t-1.5 -63t-3 -53.5q-4 -34 -24 -59t-63 -33
q44 -8 65.5 -31.5t26.5 -71.5q3 -31 4 -67.5t2 -73.5t2.5 -71.5t5.5 -60.5q-22 0 -47 -1q-21 -1 -47 -2.5t-52 -3.5q2 34 2 75t-0.5 80.5t-2 74t-3.5 57.5q-2 17 -8 29t-24 13q-26 1 -28 -27q-2 -27 -1.5 -63.5t1.5 -75.5t3.5 -77.5t5.5 -70.5q-22 1 -47 2q-21 1 -46.5 1.5
t-51.5 0.5q4 63 6 150.5t2 184.5t-2 194.5t-5 179.5q28 0 53.5 1t45.5 3q23 2 43 3z" />
    <glyph glyph-name="L" unicode="L" horiz-adv-x="301" 
d="M171 696q-9 -63 -14.5 -137t-8.5 -145t-2.5 -132.5t5.5 -99.5q3 -26 13.5 -36.5t36.5 -10.5q49 0 96 10v-13t-0.5 -34t-1.5 -46.5t-3 -51.5q-28 -8 -58 -12t-61 -4q-34 0 -58.5 8t-42 26t-28 47t-16.5 72q-6 42 -8.5 110.5t-1.5 148t5 161t12 150.5q26 -3 50.5 -4.5
t43.5 -3.5q22 -2 42 -3z" />
    <glyph glyph-name="M" unicode="M" horiz-adv-x="530" 
d="M504 699q-1 -46 -1.5 -104.5t-0.5 -122.5t0.5 -131t1.5 -130t2.5 -120t3.5 -101h-40q-18 0 -42 -0.5t-49 -1.5q2 57 3.5 126.5t2.5 142t1 142.5t-1 127q-11 -51 -22 -115.5t-21 -131.5t-18 -130.5t-12 -112.5q-15 -1 -33 -1q-15 -1 -34 -1h-40q-5 49 -13 115t-17.5 134.5
t-20 133t-19.5 111.5q0 -60 0.5 -128.5t2 -138.5t4.5 -137.5t6 -125.5h-12h-29t-41 0.5t-46 1.5q3 69 5 162t3 191t1.5 189.5t-0.5 157.5q29 4 61 6.5t61 2.5q31 0 45.5 -11t20.5 -45q5 -30 11.5 -73t13 -90t12.5 -92.5t12 -79.5q17 94 32 193t26 193q42 -2 90 -2.5t90 -2.5
z" />
    <glyph glyph-name="N" unicode="N" horiz-adv-x="408" 
d="M388 2q-14 -7 -40.5 -11t-49.5 -4q-54 0 -76.5 20.5t-30.5 67.5q-10 54 -17.5 108.5t-14.5 110.5t-14.5 114t-17.5 121q0 -60 1 -128.5t3 -139t5 -138t6 -125.5h-11h-27t-39 0.5t-45 1.5q3 69 5 162t3 191t1.5 189.5t-0.5 157.5q14 2 38.5 3.5t51 2t51 1t39.5 0.5
q11 -72 20 -138.5t18 -134.5t20 -141t26 -159q-2 65 -4 142t-5.5 153t-8 146t-9.5 122h44t37.5 -1t26.5 -1h10q-1 -68 -1.5 -156t0 -181.5t1.5 -186t4 -169.5z" />
    <glyph glyph-name="P" unicode="P" horiz-adv-x="348" 
d="M148 319q43 -3 51 28q3 11 5 31.5t3 45.5t0.5 52t-2.5 51q-2 23 -15.5 30t-41.5 5q-1 -50 -1 -113q0 -62 1 -130zM149 204q1 -63 2 -117.5t3 -99.5q-26 1 -49.5 1.5t-41.5 0.5h-40q3 44 4.5 101.5t2 121.5t0.5 132t-1.5 133.5t-3.5 125t-5 106.5q12 3 28.5 5.5t34.5 4
t34 2.5t27 1q42 0 72 -5.5t51 -18t34 -33t21 -50.5q10 -38 14.5 -82.5t4.5 -89.5t-5.5 -86t-16.5 -72q-14 -38 -54.5 -59t-115.5 -22z" />
    <glyph glyph-name="Q" unicode="Q" horiz-adv-x="355" 
d="M151 560q-2 -19 -3.5 -52.5t-1.5 -71.5q0 -37 1 -74.5t3 -64.5q2 -17 8 -26t22 -9q31 0 34 34q3 25 4.5 58t2 68l1 70t0.5 66q0 22 -11.5 29.5t-24.5 7.5q-31 0 -35 -35zM333 270q-6 -64 -40 -92.5t-99 -30.5q14 -15 24 -28.5t22 -13.5q8 0 13.5 7t0.5 27q14 1 37 1
q24 0 39 -2q4 -18 6.5 -39.5t0.5 -44.5q-5 -79 -72 -79q-24 0 -41 14t-30.5 31t-25 31t-25.5 14q-15 0 -13.5 -21t9.5 -48q-17 -5 -42.5 -8t-40.5 -5q-14 44 -14 86q-1 31 12.5 55t36.5 38q-28 13 -42.5 37.5t-19.5 65.5q-5 38 -8 83t-4.5 91t-0.5 89t5 76t14 56.5
t28.5 38.5t47.5 22t70 7q78 0 115 -30.5t40 -81.5t4.5 -94.5t1 -85t-2.5 -82t-6 -84.5z" />
    <glyph glyph-name="R" unicode="R" horiz-adv-x="386" 
d="M161 563q-2 -46 -2 -84v-76q35 -5 53.5 1.5t26.5 25.5q3 8 5 22.5t2.5 31t-0.5 31t-4 22.5q-14 41 -81 26zM226 235q-5 24 -22.5 36t-43.5 14q2 -56 4.5 -127t7.5 -173q-35 2 -60.5 3.5t-43.5 1.5h-36q3 90 2.5 188.5t-2.5 192.5t-5.5 177.5t-6.5 144.5q47 14 102.5 22.5
t97.5 8.5t70.5 -7.5t46 -28.5t25.5 -59.5t8 -101.5q0 -51 -6 -86t-18.5 -57t-33 -32.5t-48.5 -13.5q19 -3 31.5 -9.5t23.5 -16.5q17 -16 23.5 -52t4.5 -98q-1 -43 34 -40q-4 -38 -5.5 -71t-0.5 -70q-62 -10 -99.5 5t-45.5 60q-4 24 -4 49q0 26 1.5 51t2 48t-3.5 41z" />
    <glyph glyph-name="S" unicode="S" horiz-adv-x="345" 
d="M28 87q-2 23 -0.5 55.5t-0.5 70.5q32 -3 61 -3t70 4q-3 -26 -3.5 -49.5t3.5 -49.5q3 -19 11 -23.5t16 -4.5q11 0 19 5.5t9 22.5q2 13 1.5 36.5t-3.5 40.5q-3 18 -14.5 30t-36.5 21q-50 18 -87 41t-51 67q-5 16 -8 44t-3.5 61t0.5 67t4 62q5 44 18.5 71t36.5 42t56 20
t77 5q39 0 63 -6.5t38 -21.5t19 -39.5t5 -60.5q0 -48 1 -88.5t6 -91.5q-28 2 -52.5 2.5t-44.5 -0.5q-23 -1 -43 -2q3 36 3 66q0 31 -2 63q-2 19 -7 26t-16 7q-8 0 -14 -6t-9 -21q-5 -24 -7 -59.5t1 -67.5q2 -23 12.5 -37t31.5 -23q36 -15 60.5 -27.5t40.5 -26.5t24.5 -30.5
t13.5 -39.5q7 -33 8 -74t-2 -88q-4 -59 -38.5 -82t-97.5 -23q-47 0 -78 7t-50.5 21t-28.5 35.5t-12 51.5z" />
    <glyph glyph-name="t" unicode="t" horiz-adv-x="275" 
d="M258 611q-2 -26 -2.5 -50.5t-0.5 -43.5v-41q-36 3 -63.5 4.5t-43.5 1.5q-2 -42 -3 -83.5t-1 -79.5q0 -37 1.5 -69.5t4.5 -55.5t15 -34.5t39 -11.5q16 0 29.5 4t24.5 9q-1 1 2 -39t5 -112q-20 -9 -49 -17.5t-61 -8.5q-42 0 -70 10t-44 35t-21.5 67.5t-3.5 107.5
q5 125 5 248q0 124 -5 253q26 1 52.5 2t47.5 3q25 2 47 4q-2 -23 -4.5 -51t-4.5 -59q17 1 44.5 2.5t59.5 4.5z" />
    <glyph glyph-name="T" unicode="T" horiz-adv-x="341" 
d="M11 700q161 6 323 0q1 -22 2 -46q1 -20 1 -46t-1 -53q-22 2 -37 2t-32 -2q-18 -2 -24 -9t-6 -24q-1 -64 -0.5 -133t2 -137.5t4.5 -134.5t6 -124l-15.5 -0.5t-38.5 -0.5t-49.5 0.5t-49.5 1.5q3 51 5 115t3 133.5t1.5 141t0.5 138.5q0 17 -6 24t-24 9q-15 2 -31 2t-39 -2
q-1 27 -0.5 53t2.5 46q1 24 3 46z" />
    <glyph glyph-name="U" unicode="U" horiz-adv-x="359" 
d="M15 696q15 -2 34 -3.5t38 -2.5t36.5 -1.5t30.5 -0.5q-9 -129 -10.5 -253.5t3.5 -249.5q2 -34 9.5 -48.5t24.5 -13.5q17 0 25 14t8 36q-1 72 -2.5 140t-4.5 134t-7 131.5t-10 134.5q65 -2 106 0q23 1 42 2q-4 -71 -3 -143.5t3 -145t4.5 -143t1.5 -135.5q-1 -50 -11 -84
t-31 -54.5t-53 -29t-76 -8.5q-47 0 -77.5 12t-48.5 37.5t-25 66t-6 97.5q2 115 3 242.5t-4 268.5z" />
    <glyph glyph-name="V" unicode="V" horiz-adv-x="355" 
d="M232 700q23 -2 43.5 -3t37.5 -1q19 -1 37 0q-9 -69 -18.5 -150.5t-19 -171.5t-19 -185.5t-17.5 -191.5q-25 0 -47 -1t-43.5 -2.5t-44.5 -4t-49 -5.5q-34 363 -87 721q29 1 54.5 2.5t44.5 3.5q22 2 41 5q8 -132 21.5 -271t33.5 -270q6 55 11.5 127t10 145.5t7.5 140.5
t3 112z" />
    <glyph glyph-name="W" unicode="W" horiz-adv-x="528" 
d="M174 708q-11 -130 -13 -263t3 -264q1 -20 6.5 -31.5t19.5 -11.5q9 0 15.5 8t7.5 31q2 52 2 115t-1 128t-3.5 128t-5.5 116q31 -2 60 -3.5t61 -0.5q-4 -58 -5.5 -121t-1.5 -128q0 -64 2 -128t6 -122q2 -18 7.5 -28t19.5 -10q11 0 15.5 9t5.5 26q2 65 2.5 135.5t-1 141
t-5 138.5t-7.5 128q13 -1 32 -1q20 0 41 1t40 2t31 2q-6 -134 -5 -285.5t8 -313.5q1 -34 -7.5 -59t-24.5 -41t-37.5 -23.5t-46.5 -7.5q-47 0 -78.5 24t-43.5 75q-12 -36 -38.5 -56.5t-66.5 -20.5q-69 0 -100.5 39t-35.5 103q-5 82 -7 155.5t-2.5 141t-1.5 132t-4 129.5
q35 2 63.5 3.5t49.5 3.5q25 2 44 4z" />
    <glyph glyph-name="X" unicode="X" horiz-adv-x="382" 
d="M370 -5q-24 1 -50 2q-22 1 -48.5 0t-52.5 -3q3 36 4.5 73.5t2 73.5t-0.5 68.5t-4 58.5q-2 17 -8.5 23t-14.5 6q-11 0 -16.5 -6.5t-9.5 -18.5q-6 -19 -8.5 -52.5t-3.5 -74t1 -84t5 -80.5l-154 9q3 34 3.5 75.5t2 84t7 83t18.5 73.5q11 26 29.5 40t44.5 20q-63 17 -79 79
q-12 51 -12 117q0 67 -6 142q28 0 54.5 1t47.5 2q25 1 46 2q-7 -64 -9 -123t5 -126q2 -14 7.5 -23t20.5 -9q14 0 18.5 9.5t6.5 30.5q4 64 4.5 116.5t-5.5 111.5q21 -1 44 -3q20 -2 45 -3t53 0q-3 -27 -4.5 -58t-2.5 -62.5t-3 -61t-6 -53.5q-6 -34 -26.5 -54t-52.5 -29
q35 -8 58 -29.5t32 -54.5q7 -26 8 -57.5t1 -68.5q0 -36 1 -78t7 -89z" />
    <glyph glyph-name="Y" unicode="Y" horiz-adv-x="361" 
d="M12 708q40 -1 74 0t72 5q-4 -35 -6 -70.5t-2.5 -74.5t0.5 -82t4 -94q2 -26 9.5 -35.5t22.5 -8.5q7 0 11 5t6 12.5t3 16t1 15.5q4 79 2.5 149t-9.5 146q33 -3 70.5 -3.5t69.5 1.5q-3 -69 -2 -136.5t2.5 -134t3 -132t-0.5 -128.5q-2 -48 -11 -81.5t-28.5 -53.5t-52 -29
t-82.5 -9q-17 0 -37.5 1.5t-41.5 4.5t-41 7.5t-36 10.5q9 73 12 108q2 20 3 34q32 -10 70 -13.5t69 1.5q32 5 43 31t5 72q-14 -3 -33 -5.5t-39 -3t-39 1t-32 6.5q-29 10 -43.5 41t-12.5 88q4 89 2.5 172t-6.5 165z" />
    <glyph glyph-name="B" unicode="B" horiz-adv-x="356" 
d="M20 694q35 13 76 20.5t76 7.5q51 0 84 -11.5t52.5 -37.5t27.5 -69t8 -107q0 -82 -23 -125t-69 -55q42 -9 64 -46t22 -107q0 -93 -36.5 -136t-127.5 -43q-37 0 -70.5 5t-77.5 16q0 81 0.5 168.5t-0.5 176t-2 175.5t-4 168zM224 485q0 57 -16.5 78.5t-62.5 13.5
q-2 -47 -2.5 -98t-1.5 -104q48 1 65.5 25.5t17.5 84.5zM146 110q40 -4 56 13t16 59q0 39 -16.5 59.5t-60.5 16.5q1 -38 2 -75.5t3 -72.5z" />
    <glyph glyph-name="Z" unicode="Z" horiz-adv-x="316" 
d="M29 536q0 13 -1 35q-1 19 -2.5 48.5t-4.5 74.5q133 16 273 -5q1 0 2 -7t2.5 -18t2 -24.5t-0.5 -26.5q-2 -34 -9 -63t-20 -70q-23 -76 -48.5 -147t-57.5 -153q-9 -23 -4.5 -33.5t27.5 -12.5q20 -2 40 -1t37 3q18 2 36 5l5 -138q-75 -8 -150 -8q-74 0 -143 9l-2 24
q-2 22 0 51t7 53t15 50q16 41 30.5 78.5t28.5 75t28 77.5t29 86q9 28 3.5 37t-23.5 10t-36 -0.5t-32 -3.5q-17 -3 -32 -6z" />
    <glyph glyph-name="one" unicode="1" horiz-adv-x="237" 
d="M212 -9q-76 2 -150 -6q10 139 13 251t-2 212q-2 33 -20.5 42.5t-47.5 5.5q14 45 22.5 103.5t13.5 109.5q45 -8 80 -10.5t79 -2.5q-2 -178 1 -352.5t11 -352.5z" />
    <glyph glyph-name="zero" unicode="0" horiz-adv-x="362" 
d="M141 553q-2 -17 -3 -50t-1.5 -74t0.5 -85t2.5 -84t3.5 -71t5 -45q4 -17 11 -23t18 -6q25 0 29 27q2 13 4 44.5t3 72.5t1 87t-1 88t-4 76t-8 51q-6 24 -31 24q-14 0 -20.5 -7.5t-8.5 -24.5zM331 591q6 -40 10.5 -102t5.5 -130.5t-2 -135t-10 -116.5q-11 -73 -47.5 -100.5
t-94.5 -27.5q-40 0 -68 7t-46.5 23t-30 43t-17.5 68q-7 41 -11 99.5t-4.5 122t2 125.5t7.5 109q9 82 48.5 116.5t99.5 34.5q39 0 66.5 -8.5t46 -25t29.5 -42.5t16 -60z" />
    <glyph glyph-name="two" unicode="2" horiz-adv-x="320" 
d="M296 635q8 -29 11.5 -65.5t2 -73t-7 -69.5t-14.5 -55q-15 -37 -37.5 -66t-46 -55.5t-43 -54t-28.5 -60.5q41 1 80 4t84 8q3 -40 3.5 -75t-1.5 -72q-62 -5 -131 -7t-135 1q-9 21 -13 44.5t-4.5 46.5t3 43.5t10.5 36.5q13 31 29.5 55t34.5 47t37.5 49.5t40.5 63.5
q25 43 17 141q-2 21 -7 32t-18 11q-21 0 -25 -32q-4 -35 -4.5 -67t2.5 -65q-37 2 -64.5 1.5t-61.5 -1.5q4 36 4.5 71t0.5 67t1 60t7 51q10 41 41 58.5t85 17.5q69 0 102 -24t45 -67z" />
    <glyph glyph-name="three" unicode="3" horiz-adv-x="341" 
d="M139 425q-31 2 -64 2t-65 -3q3 36 2.5 71t0 65.5t4 55.5t15.5 43q10 15 28 26.5t40 20t47 12.5t50 4q59 0 86.5 -18.5t39.5 -67.5q4 -17 6 -43.5t2 -58.5q0 -31 -2.5 -65t-7.5 -66q-7 -43 -28.5 -61.5t-66.5 -25.5q50 -8 75 -48.5t24 -107.5q-1 -53 -9.5 -85.5t-27 -51.5
t-49 -26.5t-75.5 -10.5q-73 -5 -107 21.5t-39 86.5q-2 32 -2 57t-2 58q34 -3 62 -3t60 2q-2 -12 -2.5 -22.5t1.5 -24.5q2 -17 9 -23t17 -6q26 0 28 35q1 36 -1.5 57t-11.5 31.5t-24.5 13t-40.5 0.5q2 23 0.5 46.5t-3.5 52.5q31 -2 49 3t29 19q11 15 13 48.5t-5 102.5
q-2 17 -7.5 28t-22.5 11q-12 0 -20.5 -8.5t-8.5 -37.5q0 -26 0.5 -53t3.5 -56z" />
    <glyph glyph-name="four" unicode="4" horiz-adv-x="372" 
d="M352 -12q-42 2 -77 2t-72 -2q6 56 9 96.5t1 77.5q-1 11 -2.5 25.5t-10.5 24.5q-8 9 -24.5 8.5t-33.5 -2.5q-40 -3 -66.5 2.5t-41.5 20.5t-20.5 39.5t-2.5 60.5q4 49 6.5 93.5t4.5 87.5t3 85.5t1 86.5q37 -2 66 -3t67 1q-11 -72 -14.5 -153.5t1.5 -161.5q2 -21 8.5 -31.5
t22.5 -10.5q14 0 21.5 9t9.5 31q2 28 3 68.5t1 82.5t-1 81t-4 64q36 -4 68 -5.5t71 -1.5q-3 -85 -4.5 -167.5t-1 -165.5t3.5 -168t8 -175z" />
    <glyph glyph-name="five" unicode="5" horiz-adv-x="352" 
d="M150 240q-2 -29 -2 -54q0 -24 2 -52q2 -17 7 -25t19 -8q17 0 21.5 11t6.5 32q2 26 2 55t-3 52q-4 27 -14.5 39.5t-28.5 15.5q-10 1 -26.5 1.5t-35.5 -0.5t-38 -2.5t-33 -3.5q5 102 5 195q0 94 -5 193q41 4 78 7t72.5 3.5t71 -0.5t74.5 -5q-5 -79 0 -157q-44 5 -82.5 4.5
t-81.5 -7.5q-5 -32 -5.5 -54.5t1.5 -39.5q2 -13 8 -19t24 -6q34 1 58 -2t39.5 -11.5t24 -22t13.5 -33.5q7 -33 11 -73t5 -79t-1.5 -74t-6.5 -59q-8 -41 -43.5 -60.5t-111.5 -19.5q-48 0 -78.5 6t-47.5 19.5t-23 34.5t-5 50q2 45 2 78t-2 70q36 -4 65 -4t64 5z" />
    <glyph glyph-name="six" unicode="6" horiz-adv-x="355" 
d="M149 126q4 -20 13 -28t24 -8q16 0 23.5 7.5t8.5 25.5q2 34 0.5 64t-4.5 53q-3 21 -11 35.5t-25 15.5q-21 2 -29.5 -9t-8.5 -31q0 -40 2 -70t7 -55zM218 431q4 32 3.5 63.5t-3.5 57.5q-3 33 -32 33q-16 0 -25 -7t-11 -25q-3 -28 -4 -56.5t2 -65.5q2 -22 9.5 -32.5
t30.5 -9.5q38 1 64.5 -4t44 -17.5t26 -32t10.5 -46.5q3 -33 4 -66.5t-0.5 -65t-5 -58.5t-8.5 -47q-12 -45 -46.5 -62t-100.5 -17q-40 0 -67.5 6.5t-45 22t-26.5 41.5t-12 66q-11 135 -9.5 257t15.5 234q15 115 156 115q62 0 96 -16.5t47 -58.5q7 -23 8.5 -48t1 -51t-1 -53.5
t1.5 -55.5q-30 2 -59.5 1.5t-62.5 -2.5z" />
    <glyph glyph-name="seven" unicode="7" horiz-adv-x="295" 
d="M19 499q-2 49 -5 93t-9 100q31 5 68 9t74.5 6t74 1t66.5 -5q1 -5 1 -14v-19t1 -28q1 -39 -1.5 -71.5t-9.5 -67.5q-14 -74 -25.5 -135.5t-22.5 -122.5t-21.5 -125.5t-23.5 -142.5q-36 7 -67 10.5t-69 5.5q16 59 33 130t32 142.5t26.5 137t17.5 113.5q-35 1 -68.5 -4
t-71.5 -13z" />
    <glyph glyph-name="eight" unicode="8" horiz-adv-x="362" 
d="M153 457q2 -15 8.5 -21t19.5 -6q14 0 20 5.5t8 18.5q4 33 4 57t-2 58q-1 13 -7.5 21t-19.5 8q-15 0 -21.5 -5.5t-8.5 -17.5q-4 -23 -4.5 -54.5t3.5 -63.5zM157 292q-1 -26 -1.5 -47t0.5 -40.5t3 -38.5t5 -41q4 -31 30 -31q12 0 17.5 5.5t7.5 21.5q1 16 2 41t0.5 51
t-2.5 50t-5 38q-3 13 -11.5 17.5t-20.5 4.5q-11 0 -17.5 -7t-7.5 -24zM17 308q7 35 22 53t50 25q-56 19 -62 78q-5 37 -3 80.5t10 76.5q4 17 15.5 32.5t32 27.5t52.5 19t78 7q55 0 84 -21t40 -56q6 -21 10 -45.5t5 -49.5t0 -48.5t-5 -41.5q-5 -27 -22 -46t-55 -26
q35 -15 54 -38t25 -58q3 -21 4.5 -49t0.5 -57t-3 -55.5t-6 -44.5q-11 -51 -50.5 -74t-101.5 -23q-47 0 -78.5 10t-51.5 27.5t-30.5 42t-14.5 53.5q-3 22 -4.5 51t-1.5 57t1.5 53t4.5 40z" />
    <glyph glyph-name="nine" unicode="9" horiz-adv-x="336" 
d="M190 538q-3 34 -30 34q-29 0 -32 -35q-1 -15 -1.5 -33t-0.5 -38q0 -19 1 -37.5t3 -34.5q2 -19 10 -32t27 -13q14 0 21 11t8 40q1 44 -0.5 74t-5.5 64zM192 245q-46 3 -78.5 9t-54 18t-32 30t-13.5 44q-4 36 -5 77t0.5 80.5t6 75t11.5 60.5q12 42 42 59.5t93 16.5
q38 0 65.5 -6.5t46.5 -21.5t29 -40t13 -64q3 -47 4.5 -113.5t1 -138.5t-4.5 -143t-11 -127q-6 -48 -39.5 -69t-95.5 -21q-57 0 -89.5 15.5t-45.5 36.5q-10 16 -13.5 34t-4 39.5t-0.5 47.5t-3 59q33 -1 59 0.5t58 5.5q-2 -21 -1 -42.5t3 -41.5q2 -18 9 -25.5t20 -7.5
t18.5 8.5t7.5 28.5q2 19 3 52t0 64z" />
    <glyph glyph-name="ampersand" unicode="&#x26;" horiz-adv-x="397" 
d="M31 456q-8 51 -5.5 98t12.5 77q13 42 39 58.5t70 20.5q21 2 48 1t53.5 -4.5t50 -8t38.5 -10.5q-4 -37 -5.5 -74.5t-2.5 -75.5q-38 6 -79 6q-26 0 -41.5 -3.5t-24.5 -11.5t-12.5 -21t-4.5 -34q-2 -42 10 -57t28 -15q11 0 17.5 6.5t5.5 23.5q-2 22 -3 52q0 1 29.5 0.5
t71.5 1.5q-2 -21 -3 -41l-2 -40q17 2 34 4.5t35 5.5q-3 -28 -3.5 -62t2.5 -60q-35 6 -69 6q1 -34 2.5 -64.5t4.5 -57.5q3 -35 16.5 -49t48.5 -8q-3 -37 -3.5 -74t1.5 -75q-23 -7 -47.5 -6t-39.5 8q-17 8 -28.5 23t-13.5 38q-20 -26 -51 -41.5t-71 -14.5q-76 0 -101 56
q-11 24 -17.5 59.5t-9 73t-0.5 72.5t10 57q18 56 89 68q-39 11 -56.5 35.5t-22.5 56.5zM207 295q-26 -2 -36.5 -11t-12.5 -30q-2 -25 -2 -47q0 -21 3 -49q2 -18 9 -29.5t24 -11.5q12 0 21.5 9.5t11.5 33.5q3 28 4 63.5t1 73.5q-5 -1 -11 -1.5t-12 -0.5z" />
    <glyph glyph-name="at" unicode="@" horiz-adv-x="541" 
d="M386 531q-2 -23 -3.5 -51.5t-2.5 -58.5t-1 -59q0 -28 2 -51q3 -48 26 -48q26 0 30 44q7 65 8.5 123.5t-6.5 112.5q-5 35 -21.5 50.5t-59.5 17.5q-40 2 -80 0t-75 -9q-36 -8 -53 -24t-25 -52q-6 -26 -9.5 -67t-5 -87t0 -93.5t6.5 -86.5q3 -27 8.5 -43.5t14.5 -26t23 -14
t35 -7.5q54 -7 111 -0.5t97 17.5q-2 -31 -1.5 -57.5t3.5 -57.5q-28 -10 -65.5 -16.5t-77 -9t-77 -1t-65.5 8.5q-34 8 -53.5 31.5t-31.5 65.5q-6 20 -10.5 54t-7.5 77.5t-4 92.5t1 98t7 96t14 85q11 47 33 73.5t61 37.5q30 9 66.5 14t75 5.5t77.5 -3t75 -11.5
q49 -11 70 -41.5t27 -86.5q3 -33 4 -77.5t-0.5 -89.5t-5.5 -85t-10 -62q-8 -30 -16 -48.5t-19 -29t-26.5 -15t-39.5 -6.5q-29 -3 -49.5 8t-28.5 37q-10 -21 -31 -34q-17 -10 -43.5 -12.5t-47.5 1.5q-29 6 -40 22t-16 49q-7 61 -3.5 124.5t14.5 111.5q6 25 19 40t46 25
q15 4 36 6t43 2t42.5 -2.5t34.5 -6.5zM303 466q-20 3 -28.5 -5.5t-11.5 -21.5q-7 -30 -9.5 -74t1.5 -84q2 -16 7.5 -21.5t11.5 -5.5q14 0 17 23q2 21 4 45t3.5 49t3 49.5t1.5 45.5z" />
    <glyph glyph-name="question" unicode="?" horiz-adv-x="326" 
d="M186 170q-27 -4 -53.5 -6.5t-53.5 -4.5q-5 25 -7 49.5t0 49.5q3 49 43 75q26 17 42.5 29.5t26 23.5t13.5 23t4 29q1 19 0.5 35.5t-2.5 36.5q-2 11 -7.5 23.5t-17.5 11.5q-21 -1 -25 -44q-2 -19 -2 -35q0 -15 2 -41q-38 -2 -66.5 -2.5t-59.5 0.5q0 53 -5 100.5t0 89.5
q5 39 20.5 58t39.5 27q18 6 41 9t45 3t41 -2.5t30 -6.5q32 -11 47 -28t21 -52q8 -46 12 -95t1 -107q-1 -24 -6.5 -42.5t-17.5 -34t-30.5 -30t-43.5 -30.5q-17 -11 -26.5 -25.5t-11.5 -35.5q-2 -13 0.5 -26t5.5 -25zM141 121q-42 0 -65 -23.5t-23 -62.5q0 -35 20 -56.5
t59 -21.5t61.5 23t22.5 61q0 35 -19.5 57.5t-55.5 22.5z" />
    <glyph glyph-name="dollar" unicode="$" horiz-adv-x="301" 
d="M171 394q2 20 1.5 37.5t-2.5 34.5q-2 16 -6.5 21.5t-13.5 5.5q-19 0 -23 -23q-2 -12 -2 -32t2 -34q2 -13 8.5 -19.5t29.5 -14.5t39.5 -13.5t31.5 -11.5q28 -11 39.5 -27.5t13.5 -42.5q4 -44 2.5 -82.5t-9.5 -55.5q-9 -21 -30.5 -33.5t-50.5 -18.5q1 -28 3.5 -55t7.5 -54
q-25 2 -48 2.5t-49 -1.5q2 28 3 53t1 51q-41 4 -61 23t-22 54q-2 30 -2 54q0 25 -3 50q29 -2 55 -3.5t59 -1.5q-3 -32 0 -55q3 -22 25 -22q16 0 19 20q2 14 1.5 29t-2.5 32q-2 14 -11.5 21.5t-30.5 12.5q-42 10 -68.5 21t-41 25.5t-19.5 32t-6 41.5q-1 20 0 51t4 55
q4 33 23.5 54t70.5 29q-2 21 -4 41.5t-5 40.5q28 1 50 3t50 5q-2 -22 -2 -44v-43q42 -5 63.5 -22.5t20.5 -55.5q-1 -37 0 -68.5t5 -61.5q-33 1 -60 -0.5t-56 -4.5z" />
    <glyph glyph-name="cent" unicode="&#xa2;" horiz-adv-x="280" 
d="M268 372q-26 1 -49.5 0t-50.5 -4q2 27 1.5 56.5t-3.5 56.5q-2 11 -5 16t-11 5q-19 0 -20 -21q-4 -56 -3 -128.5t7 -148.5q1 -10 4.5 -15.5t14.5 -5.5q9 0 12.5 5t5.5 18q2 12 1 32t-3 32q26 -2 48.5 -1.5t49.5 3.5q2 -30 3.5 -64t-2.5 -66q-4 -31 -22 -45.5t-53 -18.5
q4 -48 15 -101q-25 1 -50.5 1.5t-51.5 -1.5q3 28 4 53t2 51q-34 6 -55.5 24.5t-26.5 53.5q-6 40 -9.5 89t-4.5 100t1.5 101.5t7.5 92.5q5 36 27 52.5t56 21.5q-1 16 -2 32.5t-4 39.5q29 2 50.5 3.5t49.5 4.5q-3 -20 -4.5 -40t-2.5 -40q30 -5 45.5 -22.5t19.5 -54.5
q4 -42 4 -84t4 -83z" />
    <glyph glyph-name="Euro" unicode="&#x20ac;" horiz-adv-x="291" 
d="M9 286q-1 22 -1.5 44.5t-2.5 44.5q10 -1 19 -1t19 -1q0 45 2 84.5t7 70.5q4 26 10.5 44.5t21 30.5t40 18t67.5 6q20 0 40.5 -2t37.5 -5q0 -35 -1.5 -70t-5.5 -71q-23 2 -46 1t-32 -3q-16 -4 -23.5 -15t-9.5 -36q-1 -11 -1.5 -24.5t-0.5 -29.5q20 1 39 1q20 0 41 2
q-2 -24 -3.5 -46t-1.5 -45q-19 2 -36.5 2.5t-34.5 1.5q1 -27 6 -45q4 -22 14 -32t36 -9q19 1 34.5 4.5t30.5 8.5q3 -29 4.5 -56.5t2.5 -59.5q-7 -3 -20 -5t-28 -4t-31 -3t-28 -1q-29 0 -49 5t-33.5 17.5t-22 33t-13.5 51.5q-4 23 -6 46.5t-4 48.5q-10 -1 -19 -1.5t-18 -0.5z
" />
    <glyph glyph-name="sterling" unicode="&#xa3;" horiz-adv-x="273" 
d="M231 393q-3 -26 -4 -52.5t-1 -52.5q-23 2 -44 3t-41 1q0 -7 0.5 -13.5t0.5 -13.5q0 -17 -4 -31.5t-14 -25.5q33 1 66.5 4.5t71.5 9.5q-1 -32 -1 -65q0 -32 2 -65q-48 -6 -105.5 -7.5t-111.5 1.5q-2 29 -6 57.5t-9 50.5q19 4 26 20t3 58q-1 5 -1.5 10t-1.5 10
q-11 -1 -22 -1.5t-22 -1.5q-1 23 -2.5 48.5t-5.5 48.5q10 0 19.5 -0.5t18.5 -0.5q-2 6 -2.5 12t-1.5 12q-8 41 -10 77t4 64.5t22.5 47t45.5 25.5q14 3 35.5 4.5t44.5 0.5t44.5 -4t36.5 -7q-9 -65 -12 -135q-14 3 -34 4.5t-36 1.5q-29 0 -40.5 -11.5t-13.5 -35.5
q-2 -23 3 -55q23 1 48 3t54 4z" />
    <glyph glyph-name="yen" unicode="&#xa5;" horiz-adv-x="290" 
d="M272 187q-17 1 -34 1h-34l4 -44t4 -47q-29 -3 -61 -3t-59 3q2 19 3.5 32.5t1.5 28.5q0 17 -8.5 22t-16.5 5q-12 0 -21.5 -0.5t-20.5 -2.5q2 23 0 51t-4 48q19 -2 37.5 -2.5t37.5 -1.5v25q-1 17 -6.5 23.5t-18.5 9.5q-20 6 -35.5 18t-19.5 32q-5 25 -6 51t-1.5 53t-0.5 57
t-3 64q33 -2 58 -1t58 4q-2 -55 -2.5 -98.5t3.5 -93.5q1 -11 5 -18.5t17 -7.5q19 0 21 24q3 43 2.5 88.5t-4.5 91.5q28 -2 54 -1.5t56 3.5q-2 -22 -1.5 -47t1.5 -50.5t1 -50.5t-3 -47q-6 -49 -54 -66q-12 -5 -15 -12.5t-4 -24.5q-1 -7 -1 -14v-12q17 0 35 0.5t36 1.5
q-2 -19 -2.5 -45.5t1.5 -46.5z" />
    <glyph glyph-name="period" unicode="." horiz-adv-x="175" 
d="M94 128q35 0 53 -21.5t18 -53.5q0 -37 -21.5 -59t-58.5 -22q-36 0 -55.5 21t-19.5 53q0 37 22.5 59.5t61.5 22.5z" />
    <glyph glyph-name="A" unicode="A" 
d="M225 154q-46 4 -63 -5t-22 -41q-4 -22 -5.5 -50.5t0.5 -51.5q-18 -1 -38 0q-17 0 -40 1t-49 3q5 39 10.5 86t11.5 96.5t11.5 99.5t10.5 95t9.5 83.5t6.5 64.5t-6 34.5t-37 3.5q-2 24 -2.5 46t-1.5 39q-1 20 -1 38q67 7 142.5 11t137.5 5q4 -40 10 -97t12.5 -122
t13.5 -134.5t13 -134t11 -120.5t8 -95q-20 -2 -42 -4q-19 -2 -43.5 -3.5t-50.5 -2.5q0 15 -0.5 35t-1.5 41.5t-2.5 42.5t-2.5 36zM179 562q-5 -24 -10.5 -59t-9 -72t-5.5 -71.5t-1 -55.5q2 -22 10 -30.5t26 -8.5q28 0 28 28q0 24 -2 61t-5 76t-7 75t-8 58q-2 10 -8 10
t-8 -11z" />
    <glyph glyph-name="E" unicode="E" horiz-adv-x="303" 
d="M153 250q-2 -21 -1.5 -48t2.5 -44t9 -23t24 -7q21 -1 51 2.5t54 8.5q1 -21 2 -45q1 -20 0.5 -45.5t-1.5 -52.5q-29 -7 -65.5 -11.5t-66.5 -4.5q-39 0 -64.5 9t-41 27t-23 44t-9.5 60q-3 50 -4.5 123t-0.5 153.5t3.5 160t6.5 142.5q63 4 128.5 4.5t128.5 -3.5q1 -20 2 -43
q1 -20 1 -47v-55q-29 2 -61.5 2.5t-52.5 -2.5q-17 -2 -22.5 -10.5t-7.5 -22.5q-2 -24 -2.5 -53.5t1.5 -53.5q1 -31 30 -39q16 -5 44 -7t53 0v-36v-36q0 -19 1 -38q-18 0 -38 -1q-37 -2 -80 -8z" />
    <glyph glyph-name="e" unicode="e" horiz-adv-x="353" 
d="M180 -20q-37 0 -62.5 7t-43 21.5t-27.5 37t-16 53.5q-9 48 -12.5 110.5t-3 128.5t5.5 130t14 115q14 81 48 113.5t91 32.5q90 0 126 -44.5t38 -127.5q1 -39 0 -78.5t-2.5 -77t-1.5 -72.5t3 -64q-42 -6 -94 -8.5t-96 -1.5q1 -31 3 -56t5 -42q4 -20 15.5 -28t35.5 -8
q29 0 61.5 6.5t62.5 18.5q-1 -22 -2 -47q-1 -21 -1.5 -46.5t0.5 -49.5q-31 -11 -68.5 -17t-78.5 -6zM184 367q14 2 21 8.5t9 23.5q3 32 4 68t-1 69q-2 26 -6.5 37.5t-24.5 11.5q-10 0 -16 -5.5t-9 -21.5q-7 -34 -10 -85.5t-5 -107.5q8 0 18 0.5t20 1.5z" />
    <glyph glyph-name="trademark" unicode="&#x2122;" horiz-adv-x="518" 
d="M8 706q49 1 88 2t75.5 2.5t75.5 3.5t87 5q0 -12 1 -25q0 -11 0.5 -25.5t0.5 -28.5h-29t-45.5 -1t-48 -1.5t-36.5 -1.5q-26 -1 -26 -26q0 -32 0.5 -60.5t1.5 -55.5t2.5 -54.5t3.5 -58.5h-32h-29t-27 1q1 27 2 52t1.5 51t0.5 55v65q0 23 -21 24q-20 1 -49 0v28t1 25z
M500 679q-11 0 -29 0.5t-37 0.5q-18 0 -35.5 0.5t-28.5 0.5q-5 -57 -12 -120.5t-18 -122.5q-8 32 -12.5 58t-7.5 55q-4 38 -18 48t-45 10q-14 0 -30 -1.5t-30 -3.5q1 -30 0.5 -60t-1.5 -58t-3 -52.5t-5 -42.5q-2 -14 -5.5 -23t-9.5 -14t-15.5 -7t-23.5 -2q-16 0 -28 1t-26 3
q0 -22 -0.5 -36.5t-1.5 -33.5q23 -2 42 -2.5t44 2.5q47 6 66.5 29t23.5 68q2 21 2 39v38q0 20 -0.5 41.5t-0.5 47.5q14 -55 23.5 -105.5t17.5 -112.5q12 -1 26.5 -0.5t26.5 1.5q14 1 28 1q2 26 6.5 59.5t10 68.5t12.5 69.5t14 62.5q1 -30 1 -68q0 -37 -0.5 -75t-1.5 -75.5
t-2 -67.5q14 1 28.5 1.5t27.5 0.5h30q-2 35 -2.5 84.5t-1 102t-0.5 102.5q0 51 1 88z" />
    <glyph glyph-name="copyright" unicode="&#xa9;" horiz-adv-x="552" 
d="M401 337q-20 -1 -37 -1t-29 -1q-14 -1 -26 -1q1 15 1.5 36.5t0.5 39.5q0 37 -3.5 47t-16.5 10q-10 0 -14.5 -4.5t-6.5 -17.5q-7 -40 -6.5 -85.5t6.5 -87.5q2 -14 5.5 -23.5t11 -16.5t20 -10t32.5 -3q24 0 39.5 1.5t25 7t15.5 15t10 26.5q6 22 8.5 59t2.5 78q0 42 -3 82
t-9 67q-9 39 -34.5 48t-71.5 9q-55 0 -90.5 -6.5t-57 -20t-31.5 -35t-15 -51.5q-6 -37 -8.5 -86t-1 -99t6.5 -94.5t14 -72.5q6 -18 13.5 -33.5t21.5 -26t37 -16.5t60 -6q28 0 53.5 1.5t54 5.5t61 11t74.5 18q1 -19 2 -34t2.5 -28.5t3 -27.5t4.5 -31q-63 -14 -124 -22.5
t-118 -8.5q-54 0 -96 5.5t-72.5 22t-50 46.5t-28.5 78q-9 50 -14.5 106t-7 113t1.5 111.5t9 102.5q4 32 13 57.5t25 46t41 35.5t62 26q39 11 88 18t94 7q81 0 125 -30.5t53 -106.5q6 -47 8.5 -101.5t1 -107t-7.5 -99t-16 -77.5q-8 -26 -23.5 -41.5t-38.5 -24t-53.5 -11
t-68.5 -2.5q-33 0 -56.5 3.5t-39.5 10t-26.5 17t-18.5 25.5q-11 20 -18 61.5t-9.5 89t0.5 92.5t12 72q9 29 37.5 44.5t88.5 15.5q27 0 45 -3.5t29 -11.5t15.5 -21t6.5 -32q1 -14 1.5 -33.5t1 -41t1 -41.5t2.5 -33z" />
    <glyph glyph-name="registered" unicode="&#xae;" horiz-adv-x="413" 
d="M187 370h-50q-11 0 -19 1q1 19 1 50t-1 64.5t-3 64.5t-4 50q32 7 55 10.5t51 3.5q46 0 65 -17.5t19 -62.5q0 -41 -10 -57t-38 -19q17 -6 21.5 -19t4.5 -43q0 -17 5 -24t16 -7q8 0 14 4.5t10 21.5q6 26 8.5 61.5t1 69.5t-8.5 62.5t-20 40.5t-31.5 17t-48.5 5q-41 0 -87 -9
q-27 -5 -38.5 -17.5t-14.5 -38.5q-8 -48 -7.5 -103.5t9.5 -101.5q5 -23 17 -31t36 -8q13 0 29.5 2.5t27.5 5.5q2 -17 4.5 -35.5t7.5 -34.5q-24 -6 -42 -8.5t-44 -2.5q-79 0 -96 65q-14 51 -16.5 119t7.5 141q4 25 10 42.5t17 30t27 21t39 15.5q24 7 57.5 11t67.5 4
q47 0 74 -7t48 -26t31.5 -62.5t12.5 -93.5t-3.5 -98t-16.5 -75q-11 -26 -33 -41t-53 -15q-42 0 -60.5 15t-18.5 44v36t-2 23q-3 9 -10 14t-21 7q1 -14 1.5 -30t1.5 -35zM203 484q16 0 23.5 6.5t7.5 32.5q0 20 -8.5 25.5t-19.5 5.5h-11q-4 0 -10 -1q-1 -20 -1 -36v-32
q5 -1 9 -1h10z" />
    <glyph glyph-name="paragraph" unicode="&#xb6;" horiz-adv-x="505" 
d="M144 293q-35 -2 -55.5 0.5t-32.5 12t-18.5 27t-11.5 44.5q-5 23 -7 53.5t-3 61t0 57t3 41.5q4 35 17 59t37.5 39t64 21.5t98.5 6.5t122.5 -4t142.5 -14q-3 -23 -4.5 -40t-3 -32t-2.5 -30.5t-2 -36.5q-23 2 -30.5 -7.5t-8.5 -35.5q-2 -35 -3 -85t-1 -98v-84v-47
q-1 -62 -15.5 -103t-41.5 -65.5t-66 -34.5t-88 -10q-28 0 -50 1.5t-41.5 4.5t-37 7t-35.5 10q7 40 12 72.5t10 76.5q39 -17 73.5 -24t74.5 -7t57 15.5t19 51.5q0 5 1.5 41.5t2.5 85.5t2 101t1 89q0 29 -5.5 39t-22.5 10t-21 -13.5t-6 -40.5q-2 -25 -2.5 -66t-1 -87.5
t-0.5 -93.5q0 -46 1 -82q-24 -2 -56.5 -3.5t-64.5 -0.5q0 11 0.5 25.5t0.5 30.5t-0.5 32t-1.5 29z" />
    <glyph glyph-name="braceleft" unicode="{" horiz-adv-x="318" 
d="M296 618l-18 4t-20 2q-18 0 -27 -14.5t-9 -48.5q0 -33 3.5 -69.5t2.5 -71.5q-1 -34 -25.5 -55t-69.5 -21q52 -8 72.5 -33.5t20.5 -55.5q0 -26 -2.5 -62.5t-2.5 -62.5q0 -53 37 -53q11 0 21 1t25 5q2 -32 4.5 -64.5t4.5 -56.5q-95 -21 -154 -11.5t-70 64.5q-5 27 -4 56.5
t4 59t5 56.5t-1 49q-4 28 -36 38q-7 2 -22.5 3t-24.5 -1q1 32 1.5 67t-1.5 65q14 -2 26 -2.5t24 0.5q17 1 26.5 12t9.5 34q0 7 -2 31.5t-4 55t-3 60.5t0 49q2 34 14.5 56t38.5 33.5t67 12.5t100 -7q-5 -34 -7 -63.5t-4 -61.5z" />
    <glyph glyph-name="bracketleft" unicode="[" horiz-adv-x="260" 
d="M249 742q-1 -29 -1 -55t2 -60q-11 1 -24 1.5t-28 -0.5q-18 -1 -25 -10.5t-9 -33.5q-3 -66 -4.5 -123.5t-1.5 -113.5q0 -55 2 -111.5t5 -120.5q1 -20 8 -32t33 -12q17 0 38 3q0 -18 0.5 -31t1.5 -25.5t1.5 -26t2.5 -33.5q-35 1 -60 2t-47.5 1.5t-46.5 0.5h-55
q-5 86 -7.5 189t-3 208t1.5 203t6 174q28 0 53 0.5t50 1.5t51 1.5t57 2.5z" />
    <glyph glyph-name="parenleft" unicode="(" horiz-adv-x="262" 
d="M257 733q-5 -32 -8 -58.5t-3 -59.5q-45 7 -64 -5t-24 -50q-7 -51 -11 -106.5t-4.5 -110.5t2.5 -108.5t10 -99.5q5 -39 23 -53.5t61 -5.5q0 -19 0.5 -32.5t1.5 -26.5t2.5 -27.5t3.5 -34.5q-100 -16 -156.5 15t-67.5 123q-14 120 -12.5 232.5t15.5 227.5q7 60 21 101.5
t40 63.5t67 26t103 -11z" />
    <glyph glyph-name="bullet" unicode="&#x2022;" horiz-adv-x="216" 
d="M13 355q3 44 22.5 60t51.5 18q13 1 29 0.5t26 -1.5q58 -3 62 -65q0 -6 0.5 -17t0.5 -24q0 -12 -0.5 -24t-1.5 -21q-6 -60 -70 -63q-10 -1 -27 -0.5t-27 1.5q-29 2 -45.5 14.5t-18.5 44.5q-2 20 -2.5 41.5t0.5 35.5z" />
    <glyph glyph-name="section" unicode="&#xa7;" horiz-adv-x="392" 
d="M233 279q14 2 19.5 11.5t1.5 20.5q-3 7 -11 13.5t-19.5 10.5t-24 5.5t-22.5 -0.5t-17.5 -8t-6.5 -16q1 -16 22.5 -29t57.5 -8zM365 272q-9 -16 -23 -27t-31 -16q32 -10 48.5 -34.5t14.5 -56.5q-2 -26 -4.5 -45.5t-7.5 -39.5q-11 -41 -45 -60t-97 -21q-59 -1 -97 5
t-60.5 19.5t-32 34t-12.5 47.5q-2 15 -1.5 27t0.5 23v23t-2 24q67 -6 105 -6q21 0 36 1q-2 -12 -2.5 -21.5t0.5 -22.5q3 -49 38 -50q20 -1 30.5 12.5t10.5 52.5q0 23 -8 33.5t-30 15.5q-25 5 -50.5 8t-51.5 10q-38 11 -53.5 31t-17.5 46t3 43t15 28q7 8 18.5 14t24.5 10
q-22 12 -37 33.5t-19 47.5q-3 17 -4.5 38.5t-1 42.5t2.5 39.5t4 29.5q7 31 21 53t38.5 35.5t61 19.5t87.5 6q65 0 94 -24t35 -69q3 -24 2 -65t5 -81q-67 2 -106 0q-23 -1 -41 -3q2 17 2.5 43t-2.5 42q-2 10 -7 18t-19 8q-15 0 -22.5 -7t-9.5 -21q-5 -37 -2 -69q2 -21 13 -35
t37 -20q22 -5 49.5 -9t52.5 -12q27 -9 42 -23.5t18 -38.5q2 -29 -1.5 -52t-10.5 -35z" />
    <glyph glyph-name="quotedblleft" unicode="&#x201c;" horiz-adv-x="299" 
d="M188 712q20 -5 37 -7t29 -4q14 -2 25 -2q-5 -12 -9 -27.5t-6 -30.5t-2 -29q0 -13 2 -21q5 -17 25 -20q-1 -14 -4 -30q-2 -14 -5.5 -32t-7.5 -38q-24 -2 -42.5 2t-29.5 10q-18 11 -27 29.5t-11 43.5q-4 38 3.5 79.5t22.5 76.5zM50 713q21 -5 38 -9t28 -8l24 -8
q-12 -20 -19 -51.5t-2 -53.5q2 -9 7 -15t19 -8l-7 -28q-3 -14 -6.5 -34.5t-7.5 -48.5q-50 1 -73 16q-18 11 -29.5 36t-11.5 60q0 42 11 79.5t29 72.5z" />
    <glyph glyph-name="semicolon" unicode=";" horiz-adv-x="175" 
d="M94 395q35 0 53 -21.5t18 -53.5q0 -37 -21.5 -59t-58.5 -22q-36 0 -55.5 21t-19.5 53q0 37 22.5 59.5t61.5 22.5zM111 -116q19 33 33 82t13 97q-1 28 -11 52t-31 38q-11 8 -29 13.5t-47 7.5q-5 -32 -9.5 -55t-8.5 -38q-4 -18 -9 -30q15 -3 23.5 -13.5t10.5 -21.5
q3 -19 -4 -45t-23 -52q9 -6 22 -12q11 -5 28.5 -11.5t41.5 -11.5z" />
    <glyph glyph-name="dagger" unicode="&#x2020;" horiz-adv-x="260" 
d="M184 706q-5 -23 -6 -50t1 -50q1 -11 4 -16.5t14 -7.5q10 -2 26 -0.5t32 4.5q-2 -28 -2.5 -46.5t-0.5 -29.5v-21q-31 6 -53 2q-17 -3 -18 -23q-2 -29 -2 -52t1.5 -44t4 -41.5t6.5 -42.5q-27 1 -47.5 0.5t-34.5 -0.5q-17 -1 -29 -1q3 25 4.5 45.5t1.5 40.5q0 21 -1 43
t-3 50q-1 11 -4.5 15t-13.5 6q-28 3 -57 -4v45t-1 31q-1 14 -1 24q11 -3 26 -3.5t29 1.5q8 2 11.5 6t4.5 15q1 17 0 47t-5 59q12 0 29 -1q14 -1 35 -1.5t49 0.5z" />
    <glyph glyph-name="daggerdbl" unicode="&#x2021;" horiz-adv-x="260" 
d="M181 494q0 -10 1 -20t3 -17q16 -2 38 -2t32 3q0 -10 -1 -24q-1 -12 -1.5 -31t0.5 -45q-15 4 -25.5 5t-23.5 -1q-20 -3 -20 -26q0 -9 2 -22t5 -26q-27 1 -47.5 0.5t-34.5 -0.5q-17 -1 -29 -1q2 14 3.5 26.5t1.5 26.5q0 22 -19 26q-11 2 -27.5 1.5t-30.5 -3.5v21
q0 20 -3 76q14 -3 26 -4t23 -1q26 0 29 25q2 22 -3 44q-16 2 -35 1t-38 -3v45t-1 31q-1 14 -1 24q11 -3 26 -3.5t26 1.5q8 2 13 6t6 15q1 13 -0.5 29t-4.5 37q12 0 29 -1q14 -1 35 -1.5t49 0.5q-3 -15 -5 -32t0 -28t7 -16.5t17 -7.5q10 -2 23 -0.5t29 4.5q-2 -28 -2.5 -46.5
t-0.5 -29.5v-21q-14 3 -25 3.5t-22 -1.5q-14 -2 -19 -11.5t-5 -25.5z" />
    <glyph glyph-name="acute" unicode="&#xb4;" horiz-adv-x="251" 
d="M221 690q-4 -14 -10.5 -29.5t-15.5 -31.5t-18.5 -30t-19.5 -24q-30 -32 -73 -23q-10 2 -25 9.5t-29 18.5q11 20 20 34.5t14 24.5q6 11 10 19q8 -6 19.5 -7t20.5 7q10 8 20 24.5t17 36.5q6 -4 17 -8q9 -4 22 -9.5t31 -11.5z" />
    <glyph glyph-name="dieresis" unicode="&#xa8;" horiz-adv-x="329" 
d="M98 678q28 0 42 -17t14 -43q0 -29 -17.5 -47t-46.5 -18t-44.5 16.5t-15.5 42.5q0 29 18 47.5t50 18.5zM243 677q27 0 41.5 -17t14.5 -43q0 -29 -17.5 -47t-46.5 -18t-44.5 16.5t-15.5 42.5q0 29 18 47.5t50 18.5z" />
    <glyph glyph-name="circumflex" unicode="&#x2c6;" horiz-adv-x="325" 
d="M30 592q9 9 22 23q11 12 28 31t40 45q10 -1 23 -1h27t37 1q5 -8 16 -21q10 -11 27 -31t45 -50q-8 -4 -19 -10q-10 -5 -25.5 -14.5t-36.5 -22.5q-6 8 -14 19q-7 9 -16.5 21t-21.5 28q-5 -4 -14 -13q-8 -8 -19.5 -21t-29.5 -33q-6 5 -16 12q-8 6 -21.5 15t-31.5 22z" />
    <glyph glyph-name="tilde" unicode="&#x2dc;" horiz-adv-x="335" 
d="M111 678q21 0 35.5 -7t26 -16t21 -16t20.5 -7q7 0 11.5 6t-0.5 23h15h19q11 0 21 -0.5t17 -0.5q5 -13 7.5 -29.5t0.5 -33.5q-2 -27 -21 -42t-50 -15q-21 0 -36.5 10t-27.5 22l-22 22t-20 10q-14 0 -16.5 -16t3.5 -34q-15 -3 -38 -4t-37 -3q-4 14 -6.5 31.5t-1.5 31.5
q2 32 21.5 50t57.5 18z" />
    <glyph glyph-name="macron" unicode="&#xaf;" horiz-adv-x="280" 
d="M79 657q26 0 67.5 0.5t103.5 2.5q-1 -11 -1 -21v-23q0 -26 -18 -36.5t-49 -9.5q-40 1 -76.5 0t-75.5 -3q0 8 1 20q0 11 0.5 28t-0.5 42h48z" />
    <glyph glyph-name="macron" unicode="&#x2c9;" horiz-adv-x="280" 
d="M79 657q26 0 67.5 0.5t103.5 2.5q-1 -11 -1 -21v-23q0 -26 -18 -36.5t-49 -9.5q-40 1 -76.5 0t-75.5 -3q0 8 1 20q0 11 0.5 28t-0.5 42h48z" />
    <glyph glyph-name="breve" unicode="&#x2d8;" horiz-adv-x="303" 
d="M113 660q1 -17 7.5 -25.5t26.5 -8.5t25.5 11t4.5 36h44q19 0 31 1q13 0 22 1q-1 -63 -23.5 -88t-70.5 -28q-16 -1 -35 -1t-30 2q-25 3 -41 9t-25.5 18t-13 29.5t-3.5 42.5q37 -2 59 0q12 0 22 1z" />
    <glyph glyph-name="dotaccent" unicode="&#x2d9;" horiz-adv-x="202" 
d="M107 696q32 0 48.5 -19.5t16.5 -49.5q0 -34 -19.5 -54t-53.5 -20q-33 0 -51 19t-18 49q0 34 20.5 54.5t56.5 20.5z" />
    <glyph glyph-name="ring" unicode="&#x2da;" horiz-adv-x="246" 
d="M115 549q-46 0 -65.5 21t-19.5 57q0 45 22.5 66t73.5 21t70.5 -18.5t19.5 -59.5q0 -51 -22.5 -69t-78.5 -18zM128 656q-21 0 -29.5 -8t-8.5 -27q0 -14 7 -22t27 -8q17 0 26.5 7.5t9.5 27.5q0 14 -6 22t-26 8z" />
    <glyph glyph-name="cedilla" unicode="&#xb8;" horiz-adv-x="242" 
d="M30 -95q7 6 16 13q8 6 18 14t24 17q23 16 49.5 14t43.5 -21q6 -8 11.5 -15t10.5 -13q5 -7 9 -14q-29 -20 -51 -36.5t-37 -27.5q-18 -13 -30 -23q-14 20 -25 37t-20 29q-11 14 -19 26z" />
    <glyph glyph-name="ogonek" unicode="&#x2db;" horiz-adv-x="238" 
d="M55 11h16h21t31 1q-4 -17 -5.5 -31t0.5 -30q1 -8 5 -13t16 -7q8 -1 20 1t23 7q1 -13 5 -31q3 -15 8 -36t13 -46q-26 -11 -60.5 -15.5t-59.5 0.5q-31 7 -44.5 26.5t-13.5 50.5q0 12 2 28t6 33t8 33t9 29z" />
    <glyph glyph-name="fi" unicode="&#xfb01;" horiz-adv-x="450" 
d="M436 693q-1 -19 -3 -37q-2 -16 -4.5 -33t-5.5 -30q-8 -30 -30.5 -41t-70.5 -3q-9 1 -22 3.5t-28 5t-30.5 4t-27.5 1.5q-30 0 -44 -11.5t-19 -31.5q-3 -10 -4.5 -24t-2 -29t0 -29.5t2.5 -26.5q2 -16 9 -26t25 -14q14 -3 37 -4t42 0q-2 -17 -2 -35q-1 -16 -0.5 -36.5
t2.5 -43.5q-18 1 -41 -0.5t-37 -6.5q-17 -5 -23.5 -16.5t-6.5 -28.5t2.5 -43t6.5 -55.5t9 -59.5t10 -54q-26 -2 -50.5 -3.5t-44.5 -3.5q-23 -2 -44 -3q-6 67 -11.5 147.5t-8.5 158.5t-3 146q0 69 3 113q3 43 14.5 76.5t36 55.5t63.5 32.5t98 9.5q16 0 45.5 -3t60.5 -6.5
t58 -7.5t39 -7zM294 488q24 -2 47.5 -2.5t42.5 -0.5h41q0 -54 -0.5 -114t0 -121.5t2 -121.5t4.5 -114q-26 -1 -52 -1.5t-46 -1.5q-24 -1 -46 -2q2 56 4 117t3 122.5t1 122.5t-1 117z" />
    <glyph glyph-name="fl" unicode="&#xfb02;" horiz-adv-x="579" 
d="M503 691q-3 -20 -7 -44q-3 -20 -7 -47t-6 -56q-36 6 -72.5 10t-70.5 6t-64 1t-52 -4q-36 -5 -53 -16.5t-23 -33.5q-5 -19 -5.5 -43t2.5 -47q2 -18 9.5 -30t25.5 -16q14 -3 34 -4t39 0q-2 -17 -2 -35q-1 -16 -0.5 -36.5t2.5 -43.5q-18 1 -38 -0.5t-34 -6.5
q-17 -5 -23.5 -16.5t-6.5 -28.5t2 -41t5.5 -51t8.5 -55t10 -52q-26 -2 -50.5 -3.5t-44.5 -3.5q-23 -2 -44 -3q-6 67 -11 145t-7.5 153t-2.5 140q0 66 3 109q6 88 63.5 133t182.5 46q17 0 47 -2t64 -5.5t68 -8.5t58 -10zM435 503q-11 -88 -13 -168t6 -153q3 -26 13.5 -36.5
t36.5 -10.5q49 0 96 10v-13t-0.5 -34t-1.5 -46.5t-3 -51.5q-28 -8 -58 -12t-61 -4q-34 0 -58.5 8t-42 26t-28 47t-16.5 72q-11 84 -10 174t9 203q26 -3 50 -4.5t42 -3.5q21 -2 39 -3z" />
    <glyph glyph-name="degree" unicode="&#xb0;" horiz-adv-x="240" 
d="M111 482q-55 0 -78 29t-23 82q0 68 27 97t86 29q60 0 83.5 -26.5t23.5 -85.5q0 -39 -6.5 -63t-21 -38t-37 -19t-54.5 -5zM123 641q-26 0 -35 -11t-9 -40q0 -23 8 -33.5t34 -10.5q21 0 32 9t11 40q0 26 -9 36t-32 10z" />
    <glyph glyph-name="colon" unicode=":" horiz-adv-x="176" 
d="M91 240q-39 0 -59.5 21.5t-20.5 58.5q0 32 20 54t56 22q37 0 58 -22t21 -59q0 -34 -21.5 -54.5t-53.5 -20.5zM94 -28q-40 0 -62 21t-22 60q0 35 20.5 55.5t56.5 20.5q37 0 57.5 -22.5t20.5 -59.5q0 -32 -18 -53.5t-53 -21.5z" />
    <glyph glyph-name="exclam" unicode="!" horiz-adv-x="205" 
d="M102 -23q-42 0 -61 23t-19 55q0 38 22.5 61t61.5 23t59 -21.5t20 -56.5q0 -44 -22 -64t-61 -20zM20 696l28 6q12 2 26 4t27 2q24 0 39 -6.5t23 -21.5t10 -39t2 -58q-1 -66 -3 -136.5t-4 -130.5q-3 -70 -6 -135q-55 0 -83 -3q-17 -2 -29 -4q-2 118 -6.5 213.5t-9.5 164.5
q-6 80 -14 144z" />
    <glyph glyph-name="numbersign" unicode="#" horiz-adv-x="374" 
d="M223 441q2 16 2 36t-2 37q-7 3 -15 4t-13 1q-17 0 -24 -8.5t-9 -25.5q-3 -14 -2 -39q3 -35 33 -35q28 0 30 30zM71 628q0 14 -0.5 25t-1.5 19q-1 10 -3 17q10 -1 25 0q13 0 31 1t43 3q-2 -10 -2 -21q-1 -10 -0.5 -22t2.5 -26q1 -13 11 -18q5 -3 14 -3t15 3q8 4 10 15
q1 12 1 23v19q0 10 -1 19q26 -2 43 -2h28q12 0 20 1q-1 -8 -1 -17v-18q0 -9 1 -17q1 -14 3.5 -18t9.5 -6q8 -2 16 -2q9 0 17 1q9 1 17 2q-2 -26 -1.5 -44t0.5 -29q0 -13 1 -20h-16h-15t-13 -1q-9 -2 -12 -12q-3 -13 -4 -30t1 -33q1 -13 11 -16q14 -4 26 -2q7 0 15 2
q-2 -28 -2 -46v-28q0 -12 1 -18q-7 1 -14 1h-13q-6 0 -11 -1q-6 -1 -9.5 -6t-5.5 -19q-3 -28 0 -47q1 -11 4 -19q-10 -2 -24 -2q-24 -2 -75 3q1 9 2 20q1 9 1.5 21.5t-0.5 26.5q-2 17 -10 22q-5 3 -14.5 2.5t-14.5 -2.5q-9 -3 -10 -18q-2 -10 -2 -19v-17q0 -9 1 -17
q-11 1 -26 1q-13 0 -32.5 -1t-44.5 -3q1 6 2 13q1 6 1.5 15t0.5 20q0 17 -4 21.5t-12 5.5q-9 1 -17 1h-13q-7 0 -13 -1q1 10 1 23v66q5 -1 12 -2q11 -2 31 0q19 1 20 20q1 27 0 52q-1 11 -5 14.5t-13 4.5q-17 2 -32 0q-9 -1 -17 -2q0 7 1 20q1 11 1 29v46q5 -1 12 -1
q6 0 13.5 -0.5t18.5 1.5q12 2 16 8t4 19z" />
    <glyph glyph-name="percent" unicode="%" horiz-adv-x="434" 
d="M316 222q20 0 20 -23q0 -20 0.5 -35t0 -29t-1.5 -29.5t-3 -36.5q-2 -14 -7.5 -19t-16.5 -5q-18 0 -20 25q-2 36 -1 69.5t4 57.5q2 11 6.5 18t18.5 7zM330 297q-62 0 -88.5 -22.5t-32.5 -63.5q-2 -15 -3 -37.5t-1 -46.5t1.5 -46t4.5 -35q7 -34 32 -50.5t73 -16.5
q51 0 72 18.5t29 51.5q17 78 6 174q-5 40 -30 57t-63 17zM273 718q11 -2 28 -3q14 -1 34 -1q21 0 48 2v-86q0 -37 -1 -79.5t-3 -79.5q-2 -31 -7.5 -51t-16 -33.5t-27 -23.5t-40.5 -21q-20 -9 -33.5 -15.5t-24.5 -12.5q-41 -22 -58.5 -52t-21.5 -79q-2 -19 -1 -50.5t3 -62.5
q2 -36 4 -76q-17 0 -37 1q-17 1 -39.5 2t-46.5 4v77q0 32 1 69.5t4 66.5q3 32 8.5 54.5t16.5 39t30 28.5t48 24q26 10 67 29q20 9 33.5 20t21.5 25.5t11.5 33.5t4.5 46q2 34 1 70t-3 66q-2 35 -4 68zM123 659q-20 0 -21 -24q-1 -20 -1 -36q0 -15 0.5 -30t2 -31t3.5 -37
q3 -22 24 -22q19 0 20 22q2 38 1 73.5t-4 59.5q-2 11 -6.5 18t-18.5 7zM112 728q31 0 51.5 -5t34 -14.5t21 -24.5t10.5 -35q3 -15 4 -39t1 -49t-1.5 -47.5t-4.5 -35.5q-6 -30 -31.5 -48t-73.5 -18q-39 0 -65.5 17t-35.5 52q-10 39 -11.5 85.5t5.5 88.5q6 38 29 55.5t67 17.5
z" />
    <glyph glyph-name="slash" unicode="/" horiz-adv-x="285" 
d="M172 726q27 -8 48 -13t35 -7q17 -3 30 -4q-51 -197 -84 -334.5t-52 -223.5q-23 -101 -34 -164q-26 8 -47 14t-36 9q-18 4 -32 6q39 145 70.5 274.5t54.5 228.5q26 115 47 214z" />
    <glyph glyph-name="less" unicode="&#x3c;" horiz-adv-x="262" 
d="M246 385q-13 -5 -30 -13q-14 -7 -34 -16.5t-46 -22.5q-10 -5 -10.5 -11t7.5 -11q14 -8 27 -14t27.5 -12.5t31.5 -13.5t39 -16q-2 -14 -4 -32q-2 -16 -2.5 -38t0.5 -51q-24 13 -59 31q-30 15 -75.5 37.5t-107.5 51.5q-2 15 -3 33q-1 16 -1.5 39t0.5 53q23 12 56 31
q29 17 71.5 43t102.5 64q0 -11 1 -29q1 -16 3 -40.5t6 -62.5z" />
    <glyph glyph-name="hyphen" unicode="-" horiz-adv-x="197" 
d="M11 377q11 -1 34 0q20 0 54 1t88 3q-1 -15 -1 -27v-31q0 -38 -14.5 -51t-43.5 -13q-17 0 -30.5 0.5t-27.5 0.5q-13 0 -27.5 -0.5t-32.5 -1.5q0 11 1 28q0 14 0.5 36.5t-0.5 54.5z" />
    <glyph glyph-name="hyphen" unicode="&#xad;" horiz-adv-x="197" 
d="M11 377q11 -1 34 0q20 0 54 1t88 3q-1 -15 -1 -27v-31q0 -38 -14.5 -51t-43.5 -13q-17 0 -30.5 0.5t-27.5 0.5q-13 0 -27.5 -0.5t-32.5 -1.5q0 11 1 28q0 14 0.5 36.5t-0.5 54.5z" />
    <glyph glyph-name="a" unicode="a" horiz-adv-x="365" 
d="M31 365q1 24 0.5 52t-1.5 56.5t-1 56.5t2 52q7 77 53.5 109.5t118.5 32.5q56 0 86.5 -28t37.5 -89q3 -33 4 -74t0.5 -85t-2 -87.5t-3 -82.5t-2 -70.5t1.5 -49.5q2 -20 9.5 -27.5t25.5 -5.5l-1 -12.5t-2 -32t-1.5 -44.5t0.5 -52q-49 -6 -82.5 9.5t-44.5 64.5
q-19 -33 -49.5 -52t-70.5 -19q-84 0 -99 88q-4 23 -5 51t1 52q3 27 9 47.5t19 36.5t34 27.5t53 20.5q26 7 42.5 15.5t26.5 19t14.5 23.5t6.5 30q1 12 1.5 28t0.5 33t-0.5 34t-1.5 31q-3 45 -32 45q-13 0 -19 -9.5t-7 -25.5q-2 -35 -2 -78q0 -42 4 -76q-19 -1 -39 -3
q-17 -2 -39.5 -4.5t-46.5 -7.5zM173 220q-27 -13 -35 -27t-8 -39q0 -20 8.5 -27t19.5 -7q58 0 54 129q-14 -17 -39 -29z" />
    <glyph glyph-name="quotesingle" unicode="'" horiz-adv-x="129" 
d="M16 713q23 -2 41 -2h33q16 0 29 1q-2 -66 -2.5 -111t-0.5 -72q0 -32 1 -50q-23 2 -42.5 3.5t-33.5 1.5q-17 0 -31 -1q3 76 4.5 121.5t1.5 69.5v39z" />
    <glyph glyph-name="asterisk" unicode="*" horiz-adv-x="262" 
d="M25 641q17 -7 30.5 -11t30.5 -8q2 21 1.5 41t-1.5 41q9 -2 23 -3q11 -1 28.5 -2t40.5 -1q-3 -19 -5 -38t-2 -41q27 7 54 21q1 -5 5 -15q6 -17 27 -60q-18 -5 -29.5 -9t-25.5 -11q10 -22 19.5 -39t26.5 -37q-8 -5 -19 -11q-10 -5 -24.5 -13t-34.5 -17q-5 17 -10.5 32
t-11.5 25q-14 24 -29 -5q-10 -19 -18 -47q-6 4 -17 10q-9 5 -23.5 12.5t-36.5 18.5q12 17 21 33.5t17 36.5q-14 7 -26.5 11t-30.5 8q1 7 4 18q2 9 6 24t10 36z" />
    <glyph glyph-name="plus" unicode="+" horiz-adv-x="257" 
d="M248 352q0 -14 1 -35t3 -51q-9 1 -19 2q-18 2 -39 0q-11 -1 -14.5 -7t-4.5 -18q-1 -15 -0.5 -28t1.5 -24q1 -12 3 -22q-8 1 -22 2q-23 1 -82 0q1 9 2 20q2 19 0 50q-1 22 -21 25q-11 1 -20 1h-16q-8 0 -15 -1q0 12 1 29q1 14 1 36v51q5 -1 13 -1q13 -2 35 0q21 1 22 20
q2 27 0 55q-1 15 -2 29q9 -1 24 -1h31q20 0 47 2q-1 -14 -2 -29q-1 -13 -1 -28t2 -28t5.5 -18.5t13.5 -6.5q11 -2 21 -1.5t17 1.5q8 1 15 2v-26z" />
    <glyph glyph-name="ae" unicode="&#xe6;" horiz-adv-x="545" 
d="M158 120q58 0 54 129q-14 -17 -39 -29q-27 -13 -35 -27t-8 -39q0 -20 8.5 -27t19.5 -7zM354 557q-7 -34 -10 -85.5t-5 -106.5q8 0 17.5 0.5t20.5 1.5q14 2 21 8.5t9 23.5q3 32 4 68t-1 69q-2 31 -8 40t-23 9q-11 0 -16.5 -6t-8.5 -22zM188 725q44 0 64.5 -18t29.5 -56
q14 39 39 58t67 19q74 0 107.5 -44t35.5 -127q1 -39 0 -78.5t-2.5 -77t-1.5 -72.5t3 -64q-42 -6 -94 -8.5t-96 -1.5q1 -30 3 -55.5t5 -42.5q4 -20 15.5 -28t35.5 -8q29 0 61.5 6.5t62.5 18.5q-1 -22 -2 -47q-1 -21 -1.5 -46.5t0.5 -49.5q-31 -11 -68.5 -17t-78.5 -6
q-25 0 -48 3t-42 12t-32.5 24.5t-19.5 39.5q-20 -33 -50.5 -52.5t-70.5 -19.5q-84 0 -99 88q-4 23 -5 51t1 52q3 27 9 47.5t19 36.5t34 27.5t53 20.5q30 9 48 18t28 25.5t13.5 44t3.5 71.5q0 57 -6.5 78.5t-26.5 21.5q-19 0 -24.5 -21t-5.5 -69q0 -28 1 -52.5t3 -46.5
q-19 -1 -39 -3q-17 -2 -39.5 -4.5t-46.5 -7.5q1 24 1 45q0 22 -1 42t-1.5 41.5t-0.5 45.5q0 54 12 90t33 57.5t50 30t64 8.5z" />
    <glyph glyph-name="equal" unicode="=" horiz-adv-x="227" 
d="M10 300q14 -1 41 -2q23 -1 62 -0.5t101 3.5q-1 -12 -1 -29q0 -14 0.5 -35t3.5 -47q-18 1 -47 2q-25 1 -64 0.5t-95 -2.5q1 10 1 26q0 14 -0.5 34.5t-1.5 49.5zM214 433q0 -14 0.5 -35t2.5 -50q-21 0 -51 1q-26 0 -64 0.5t-89 -1.5q1 9 1 25q0 13 -0.5 34t-1.5 51
q19 -1 48 -1h63t91 2v-26z" />
    <glyph glyph-name="asciicircum" unicode="^" horiz-adv-x="291" 
d="M181 394q-5 27 -11 57q-5 26 -13 58.5t-18 67.5q-5 -19 -10 -45q-5 -23 -12 -58t-15 -85q-13 3 -28 5q-13 2 -30.5 3t-38.5 2q10 32 23 77q11 38 26.5 95.5t35.5 134.5q12 1 27 2q13 1 30.5 1.5t40.5 -0.5q9 -31 22 -76q11 -38 29.5 -95.5t46.5 -133.5q-11 0 -26 -1
q-27 -2 -79 -9z" />
    <glyph glyph-name="underscore" unicode="_" horiz-adv-x="416" 
d="M11 -16q40 -2 98 -3q49 -1 122 -1q74 0 173 2q-1 -9 -1 -23q0 -12 0.5 -30.5t2.5 -43.5q-38 1 -94 1q-48 0 -123 -1t-179 -3q0 11 1 26q0 13 0.5 32t-0.5 44z" />
    <glyph glyph-name="asciitilde" unicode="~" horiz-adv-x="316" 
d="M91 706q22 0 38.5 -10.5t30 -23t25 -23t23.5 -10.5q9 0 12.5 9.5t-1.5 32.5q7 0 17 0.5t21 0.5q12 0 22.5 -0.5t18.5 -1.5q4 -18 6.5 -33.5t0.5 -38.5q-4 -76 -71 -76q-24 0 -41 11.5t-29.5 26t-24 26t-24.5 11.5t-16 -15.5t5 -41.5q-18 -5 -39.5 -8t-40.5 -5
q-8 20 -11 38.5t-3 35.5q0 44 21 69.5t60 25.5z" />
    <glyph glyph-name="ordmasculine" unicode="&#xba;" horiz-adv-x="286" 
d="M142 638q-11 0 -18 -7t-7 -27v-37t0.5 -29.5t2 -30.5t3.5 -40q2 -12 7.5 -19.5t22.5 -7.5q12 0 17 6.5t6 20.5q2 42 0.5 78t-4.5 63q-2 13 -8 21.5t-22 8.5zM132 728q35 0 59 -5.5t39.5 -16.5t23.5 -28t12 -41q3 -18 4.5 -45t1 -56t-2 -55t-4.5 -41q-7 -35 -36.5 -55.5
t-83.5 -20.5q-45 0 -75 19t-41 60q-11 45 -13 98.5t6 102.5q7 44 33 64t77 20z" />
    <glyph glyph-name="ordfeminine" unicode="&#xaa;" horiz-adv-x="287" 
d="M23 562q2 26 1 53.5t4 46.5q8 31 34.5 48.5t87.5 17.5q99 0 110 -91q3 -29 2.5 -52.5t-2 -45t-3 -42t-0.5 -43.5q1 -16 9 -20t17 -3l-2 -22q-1 -10 -1.5 -22.5t0.5 -26.5q-38 -10 -65 2t-32 44q-13 -23 -34 -34t-54 -11q-37 0 -57 16t-25 44q-2 11 -2.5 23t0.5 21
q3 31 21.5 52t68.5 30q35 7 47 13.5t16 24.5q2 8 2.5 17t-0.5 20q-1 17 -7.5 23t-17.5 6q-23 0 -26 -26q-2 -12 -1 -28.5t3 -27.5q-13 0 -28 -1q-13 -1 -30 -2.5t-36 -3.5zM134 488q-33 -9 -33 -31q0 -12 6.5 -18.5t17.5 -6.5q23 0 36 19t12 57q-7 -7 -18 -12t-21 -8z" />
    <glyph glyph-name="florin" unicode="&#x192;" horiz-adv-x="275" 
d="M258 313q-17 1 -35 1h-36q5 -14 10 -32.5t7 -31.5q6 -37 7 -73.5t-14 -58.5q-15 -23 -46.5 -31t-64.5 -6q-20 1 -42 7t-39 15q2 8 4 23q2 13 3.5 34t3.5 53q9 -5 24.5 -7t26.5 0q21 2 31.5 12.5t8.5 38.5q-1 11 -3 23t-4 17q-7 15 -27 15q-17 0 -29 -1t-28 -3q2 23 0 51
t-4 48q13 -1 25 -1.5t25 -1.5q-6 16 -10 37.5t-6 39.5q-2 19 -0.5 38.5t7.5 36t17.5 30t30.5 20.5q16 6 36.5 8.5t43 1.5t45.5 -5t44 -11q-5 -26 -7 -47.5t-3 -36.5q-1 -18 -1 -32q-38 9 -68 4.5t-38 -29.5q-3 -9 -3 -25q0 -15 5 -29q51 -3 104 0q-2 -19 -2.5 -45.5
t1.5 -46.5z" />
    <glyph glyph-name="guillemotleft" unicode="&#xab;" horiz-adv-x="304" 
d="M144 307q6 13 16 35q16 36 47 122q10 -3 24 -7q12 -4 29 -9.5t39 -13.5q-5 -8 -13 -25q-13 -27 -42 -100q2 -9 8 -25q5 -14 16 -36t29 -57q-11 -4 -25 -9q-12 -5 -28 -12t-36 -16q-5 15 -14 38q-8 19 -20 48t-30 67zM5 307q7 15 18 39q18 41 49 126l24 -9
q12 -5 30.5 -10.5t42.5 -10.5q-6 -10 -14 -28q-8 -16 -18.5 -41.5t-26.5 -63.5q3 -13 10 -31q6 -16 17 -40t29 -58l-27 -9q-27 -10 -67 -28q-5 19 -15 44q-8 21 -21 51.5t-31 68.5z" />
    <glyph glyph-name="Oslash" unicode="&#xd8;" horiz-adv-x="365" 
d="M170 611q-14 0 -19.5 -6t-8.5 -25q-3 -24 -4.5 -58.5t-2 -74t1 -81.5t3.5 -80t5.5 -70t7.5 -51q3 -15 11 -25t24 -10q14 0 20 5.5t8 19.5t3 44t1.5 69t-0.5 82.5t-2.5 83.5t-3.5 73.5t-4 51.5q-4 29 -12 40.5t-28 11.5zM198 -20q-41 0 -68 7q-5 -17 -10.5 -39.5
t-11.5 -51.5q-14 6 -32 13q-16 6 -39 14t-52 16q7 13 16 31q8 15 18 37.5t22 51.5q-16 35 -22 90q-3 24 -4.5 61.5t-2 81t0.5 90.5t2.5 89.5t3.5 77.5t5 56q5 36 14.5 60t26 38t42 20t61.5 6q14 0 26 -1.5t23 -3.5q6 18 13.5 41.5t15.5 53.5q13 -7 31 -16q15 -8 37 -17.5
t51 -20.5q-7 -11 -17 -26q-8 -13 -19.5 -32.5t-24.5 -44.5q14 -24 22 -61q9 -47 15 -108t8 -126.5t-0.5 -129.5t-9.5 -116q-5 -39 -15 -66t-26.5 -43.5t-41 -24t-58.5 -7.5z" />
    <glyph glyph-name="i" unicode="i" horiz-adv-x="197" 
d="M35 512q24 -2 47.5 -2.5t42.5 -0.5h41q0 -54 -0.5 -119.5t0 -133.5t2 -133.5t4.5 -119.5q-26 -1 -52 -1.5t-46 -1.5q-24 -1 -46 -2q2 56 4 122.5t3 134.5t1 134q0 67 -1 123zM106 735q42 0 64 -26t22 -65q0 -44 -26 -70.5t-71 -26.5q-44 0 -67 25t-23 64q0 45 27 72
t74 27z" />
    <glyph glyph-name="guillemotright" unicode="&#xbb;" horiz-adv-x="304" 
d="M299 307q-17 -39 -29.5 -69.5t-20.5 -51.5q-10 -25 -17 -43q-20 9 -37 16t-30 12l-27 9q17 32 28.5 55.5t17.5 40.5q7 19 10 33q-13 32 -23.5 57t-18.5 42l-17 34q22 5 40 10.5t31 10.5q15 5 26 9q13 -40 24.5 -70.5t21.5 -51.5q11 -25 21 -43zM160 307q-14 -35 -26 -63
t-20 -48q-11 -24 -18 -42q-37 19 -63 29q-14 5 -26 8q18 35 28.5 57t15.5 36q6 16 9 25q-15 37 -25.5 61.5t-17.5 38.5q-8 17 -12 25q20 7 37 12.5t29 9.5q14 4 26 8q15 -44 27 -73.5t20 -48.5q10 -22 16 -35z" />
    <glyph glyph-name="quotedblright" unicode="&#x201d;" horiz-adv-x="300" 
d="M112 452q-20 5 -36 8t-27 5q-13 2 -23 3q5 12 8.5 26.5t5 29.5t1 29t-3.5 24q-2 10 -10 15.5t-17 4.5l5 30q2 14 4 32t4 38q20 3 41.5 0.5t36.5 -12.5q17 -11 26.5 -31t11.5 -42q4 -37 -4 -81t-23 -79zM244 454q-20 4 -35.5 8t-25.5 6l-20 5q7 11 13 25.5t9 29.5t3.5 30
t-3.5 26q-3 9 -10.5 15.5t-17.5 7.5q2 11 6 28q3 14 6 34.5t7 49.5q21 0 39.5 -4.5t28.5 -11.5q17 -12 31 -34.5t15 -58.5q1 -41 -10 -80t-36 -76z" />
    <glyph glyph-name="parenright" unicode=")" horiz-adv-x="266" 
d="M5 734q55 12 96 10.5t69 -21.5t45 -61.5t25 -108.5q14 -115 15.5 -228t-14.5 -232q-6 -49 -23.5 -79.5t-45.5 -46t-67 -18t-89 5.5q4 35 6 62.5t3 58.5q38 -8 59.5 4.5t26.5 54.5q7 46 10 99t2 108t-4.5 110.5t-10.5 107.5q-5 36 -27.5 48.5t-63.5 6.5q-1 33 -4 60t-8 59
z" />
    <glyph glyph-name="greater" unicode="&#x3e;" horiz-adv-x="271" 
d="M21 385q4 35 5 60.5t1 42.5q0 19 -1 32q60 -38 104.5 -65t74.5 -44q35 -20 61 -32q1 -30 0.5 -54t-1.5 -41q-1 -20 -3 -36q-58 -26 -103.5 -47t-77.5 -36q-38 -18 -66 -31q1 29 -0.5 51t-3.5 37q-3 18 -6 31q25 9 43 15.5t32.5 12.5t28.5 12.5t32 15.5q8 4 8.5 10
t-7.5 10q-23 12 -44.5 22t-38.5 18q-20 9 -38 16z" />
    <glyph glyph-name="bracketright" unicode="]" horiz-adv-x="263" 
d="M15 738q29 -2 55 -3t51 -1q26 0 51 0.5t53 1.5q4 -84 6 -183t1.5 -201t-3 -202t-7.5 -186q-26 0 -49.5 -0.5t-48 -1t-52.5 -1t-62 -1.5q1 20 2 33t2 24.5t1.5 24t0.5 30.5q21 -3 38 -3q19 0 29 9.5t12 34.5q8 121 9 236.5t-8 227.5q-2 24 -11 37.5t-27 14.5
q-15 1 -24.5 0t-20.5 -2q2 34 2.5 58t-0.5 53z" />
    <glyph glyph-name="braceright" unicode="}" horiz-adv-x="317" 
d="M23 615q-2 32 -4 63t-7 65q51 7 89.5 5.5t64 -13.5t39.5 -36.5t16 -64.5q1 -21 1 -45q0 -23 -1 -46t-1 -44t1 -38q2 -22 8.5 -33t27.5 -13q12 -1 24 -0.5t26 2.5q-1 -15 -1 -34v-38q0 -19 0.5 -38t0.5 -35q-9 2 -24.5 1t-22.5 -3q-18 -6 -25.5 -15t-10.5 -23
q-6 -26 -3.5 -51.5t6 -52.5t5.5 -55t-4 -58q-10 -49 -62 -65t-156 12l4.5 54t4.5 62q15 -4 22 -5t18 -1q37 0 37 53q0 13 -2 29.5t-5 34.5t-5 35.5t-2 32.5q0 42 23.5 60.5t74.5 26.5q-45 0 -65.5 22.5t-21.5 54.5q-1 35 2.5 70t3.5 68q0 34 -11 48t-29 14q-11 0 -19 -2
t-17 -4z" />
    <glyph glyph-name="quoteleft" unicode="&#x2018;" horiz-adv-x="153" 
d="M57 719q20 -5 35 -8.5t26 -5.5q11 -3 20 -5q-7 -11 -13 -25.5t-9 -29.5t-3.5 -30t3.5 -26q3 -9 10.5 -15.5t17.5 -7.5q-2 -11 -6 -28q-3 -14 -6.5 -35t-6.5 -49q-21 0 -39.5 4.5t-28.5 11.5q-17 12 -31 34.5t-15 58.5q-1 41 10 80t36 76z" />
    <glyph glyph-name="quoteright" unicode="&#x2019;" horiz-adv-x="155" 
d="M102 450q-22 5 -38 9t-27 8q-13 4 -22 8q12 20 19 51.5t2 53.5q-2 9 -7 15t-19 8q3 11 7 28q3 14 6.5 34.5t7.5 48.5q50 -1 73 -16q22 -14 31 -36t10 -51q1 -46 -11.5 -87t-31.5 -74z" />
    <glyph glyph-name="guilsinglleft" unicode="&#x2039;" horiz-adv-x="175" 
d="M5 304q10 19 21 44q10 21 21.5 51t25.5 67l24 -9q12 -5 30.5 -10.5t42.5 -10.5q-7 -11 -17 -29q-8 -16 -20 -40.5t-27 -59.5q5 -12 13 -30q7 -16 18.5 -39.5t29.5 -57.5l-27 -9q-27 -10 -67 -28q-6 20 -16 45q-16 42 -52 116z" />
    <glyph glyph-name="guilsinglright" unicode="&#x203a;" horiz-adv-x="183" 
d="M178 305q-20 -32 -35.5 -59.5t-26.5 -48.5q-13 -25 -24 -45q-20 10 -35.5 17.5t-26.5 12.5q-13 5 -23 9q20 26 33.5 47t21.5 35q10 17 16 29q-18 35 -31.5 60t-22.5 41q-11 18 -19 31q20 7 36.5 13.5t28.5 11.5q14 5 25 10q13 -32 28 -61.5t27 -52.5q14 -26 28 -50z" />
    <glyph glyph-name="periodcentered" unicode="&#xb7;" horiz-adv-x="169" 
d="M91 242q-40 0 -62 21t-22 60q0 35 20.5 55.5t56.5 20.5q37 0 57.5 -22.5t20.5 -59.5q0 -32 -18 -53.5t-53 -21.5z" />
    <glyph glyph-name="periodcentered" unicode="&#x2219;" horiz-adv-x="169" 
d="M91 242q-40 0 -62 21t-22 60q0 35 20.5 55.5t56.5 20.5q37 0 57.5 -22.5t20.5 -59.5q0 -32 -18 -53.5t-53 -21.5z" />
    <glyph glyph-name="quotedblbase" unicode="&#x201e;" horiz-adv-x="301" 
d="M112 -89q-20 5 -36 8t-27 5q-13 2 -23 3q5 12 8.5 26.5t5 29.5t1 29t-3.5 24q-2 10 -10 15.5t-17 4.5l5 30q2 14 4 32t4 38q20 3 41.5 0.5t36.5 -12.5q17 -11 26.5 -31t11.5 -42q4 -37 -4 -81t-23 -79zM244 -112q-20 4 -35.5 8t-25.5 6l-20 5q7 11 13 25.5t9 29.5t3.5 30
t-3.5 26q-3 9 -10.5 15.5t-17.5 7.5q2 11 6 28q3 14 6 34.5t7 49.5q21 0 39.5 -4.5t28.5 -11.5q17 -12 31 -34.5t15 -58.5q1 -41 -10 -80t-36 -76z" />
    <glyph glyph-name="comma" unicode="," horiz-adv-x="162" 
d="M100 -115q-44 13 -67 26q-12 6 -21 13q17 25 24.5 50t5.5 45q-2 11 -9.5 21.5t-22.5 14.5q5 12 10 30q9 31 21 91q29 -3 46 -9.5t28 -14.5q20 -14 29 -38.5t8 -52.5q0 -24 -4.5 -48.5t-11.5 -47.5t-16.5 -43.5t-19.5 -36.5z" />
    <glyph glyph-name="perthousand" unicode="&#x2030;" horiz-adv-x="676" 
d="M316 222q20 0 20 -23q0 -20 0.5 -35t0 -29t-1.5 -29.5t-3 -36.5q-2 -14 -7.5 -19t-16.5 -5q-18 0 -20 25q-2 36 -1 69.5t4 57.5q2 11 6.5 18t18.5 7zM330 297q-62 0 -88.5 -22.5t-32.5 -63.5q-2 -15 -3 -37.5t-1 -46.5t1.5 -46t4.5 -35q7 -34 32 -50.5t73 -16.5
q51 0 72 18.5t29 51.5q17 78 6 174q-5 40 -30 57t-63 17zM273 718q11 -2 28 -3q14 -1 34 -1q21 0 48 2v-86q0 -37 -1 -79.5t-3 -79.5q-2 -31 -7.5 -51t-16 -33.5t-27 -23.5t-40.5 -21q-20 -9 -33.5 -15.5t-24.5 -12.5q-41 -22 -58.5 -52t-21.5 -79q-2 -19 -1 -50.5t3 -62.5
q2 -36 4 -76q-17 0 -37 1q-17 1 -39.5 2t-46.5 4v77q0 32 1 69.5t4 66.5q3 32 8.5 54.5t16.5 39t30 28.5t48 24q26 10 67 29q20 9 33.5 20t21.5 25.5t11.5 33.5t4.5 46q2 34 1 70t-3 66q-2 35 -4 68zM123 659q-20 0 -21 -24q-1 -20 -1 -36q0 -15 0.5 -30t2 -31t3.5 -37
q3 -22 24 -22q19 0 20 22q2 38 1 73.5t-4 59.5q-2 11 -6.5 18t-18.5 7zM112 728q31 0 51.5 -5t34 -14.5t21 -24.5t10.5 -35q3 -15 4 -39t1 -49t-1.5 -47.5t-4.5 -35.5q-6 -30 -31.5 -48t-73.5 -18q-39 0 -65.5 17t-35.5 52q-10 39 -11.5 85.5t5.5 88.5q6 38 29 55.5t67 17.5
zM568 221q20 0 20 -22q0 -19 0.5 -33.5t0 -28.5t-1.5 -29t-3 -34q-3 -23 -24 -23q-11 0 -15.5 6.5t-5.5 17.5q-2 34 -1 66.5t4 55.5q2 10 7 17t19 7zM559 300q-52 0 -71.5 -20.5t-26.5 -64.5q-2 -14 -3.5 -36t-1.5 -46q0 -23 1.5 -45t4.5 -36q7 -32 28.5 -49.5t69.5 -17.5
q43 0 71.5 17.5t34.5 59.5q6 41 7 79.5t-4 86.5q-4 37 -30 54.5t-80 17.5z" />
    <glyph glyph-name="threesuperior" unicode="&#xb3;" horiz-adv-x="235" 
d="M100 559q-10 1 -22 1h-24h-24q-11 0 -20 -1q3 38 2.5 69.5t11.5 51.5q7 10 19 17t27 10.5t31 5t31 1.5q34 0 58 -11.5t30 -37.5q5 -17 5.5 -46t-5.5 -63q-5 -26 -24.5 -38t-45.5 -15q16 -2 29 -7.5t23 -15t15 -24t5 -35.5q0 -27 -7.5 -44.5t-21.5 -27t-34 -13.5t-45 -5
q-43 -2 -70 12t-30 46q-2 17 -0.5 29t-0.5 31q20 -2 41 -1.5t41 1.5q-2 -23 3 -32.5t15 -9.5q16 0 16 22q0 29 -8.5 40t-37.5 9q1 14 0.5 28t-2.5 28q35 -2 46 11q7 8 7.5 24t-2.5 49q-1 10 -4.5 16.5t-13.5 6.5q-7 0 -12 -6t-5 -21q0 -14 0.5 -27t2.5 -28z" />
    <glyph glyph-name="quotedbl" unicode="&#x22;" horiz-adv-x="264" 
d="M16 713q23 -2 41 -2h33q16 0 29 1q-2 -66 -2.5 -111t-0.5 -72q0 -32 1 -50q-23 2 -42.5 3.5t-33.5 1.5q-17 0 -31 -1q3 76 4.5 121.5t1.5 69.5v39zM248 492q-23 2 -42 2h-32q-16 0 -29 -1q2 64 2.5 108t0.5 70q0 31 -1 49q23 -3 42.5 -4t33.5 -1q17 0 31 1
q-4 -65 -5.5 -107.5t-1.5 -68.5q0 -31 1 -48z" />
    <glyph glyph-name="quotesinglbase" unicode="&#x201a;" horiz-adv-x="156" 
d="M102 -102q-22 5 -38 9t-27 8q-13 4 -22 8q12 20 19 51.5t2 53.5q-2 9 -7 15t-19 8q3 11 7 28q3 14 6.5 34.5t7.5 48.5q50 -1 73 -16q22 -14 31 -36t10 -51q1 -46 -11.5 -87t-31.5 -74z" />
    <glyph glyph-name="Eth" unicode="&#xd0;" horiz-adv-x="397" 
d="M40 699q29 11 68 17t74 6q40 0 70 -7t52.5 -24.5t37.5 -47.5t24 -75q7 -38 11 -90.5t4.5 -108t-2 -109.5t-7.5 -95q-7 -52 -18.5 -86.5t-32 -55t-51 -29t-74.5 -8.5q-37 0 -77.5 6t-74.5 17q1 54 1.5 123.5t0.5 145.5q-11 0 -21.5 -0.5t-19.5 -0.5q0 11 1 28
q0 14 0.5 36.5t-0.5 54.5h39q-1 83 -2 161t-3 142zM216 401q-1 -15 -1 -33v-39t2 -51h-48q1 -47 1.5 -89t2.5 -74q20 -2 33 -0.5t21 8t12.5 19t6.5 33.5q4 35 6 84.5t1.5 100.5t-3.5 97t-9 75q-5 26 -20 36t-49 7q-1 -37 -1.5 -82t-1.5 -94q13 0 24.5 0.5t22.5 1.5z" />
    <glyph glyph-name="Thorn" unicode="&#xde;" horiz-adv-x="344" 
d="M20 704q14 0 32 1q16 1 39.5 3t53.5 5q-1 -10 -2 -22q-1 -11 -1.5 -27t0.5 -38q39 4 72 -0.5t58 -19t40.5 -39t19.5 -61.5q7 -61 7 -131q0 -69 -9 -127q-17 -110 -181 -99q0 -31 0.5 -52t1.5 -38t1.5 -33.5t1.5 -38.5q-26 1 -49.5 1.5t-41.5 0.5h-40q3 44 4.5 101
t2 120.5t0.5 130.5q0 68 -1.5 133t-3.5 124t-5 106zM148 264q26 -2 40.5 4t19.5 27q6 27 8.5 72.5t-2.5 92.5q-2 23 -19.5 31.5t-46.5 3.5q-1 -98 0 -231z" />
    <glyph glyph-name="Lslash" unicode="&#x141;" horiz-adv-x="327" 
d="M230 453q-1 -15 -1 -34v-40q0 -22 2 -49q-7 -2 -16 -4q-8 -2 -19.5 -4t-25.5 -5q0 -42 1.5 -76.5t4.5 -58.5q3 -26 13.5 -36.5t36.5 -10.5q49 0 96 10v-13t-0.5 -34t-1.5 -46.5t-3 -51.5q-28 -8 -58 -12t-61 -4q-34 0 -58.5 8t-42 26t-28 47t-16.5 72q-4 27 -6 66t-4 87
q-9 -2 -18.5 -4.5t-19.5 -4.5q1 12 2 30q1 15 0.5 37.5t-1.5 51.5q4 1 9 2t12 2.5t16 3.5q1 77 5 155t12 144q26 -3 50.5 -4.5t43.5 -3.5q22 -2 42 -3q-8 -58 -13.5 -124.5t-8.5 -132.5q13 3 27 6.5t29 7.5z" />
    <glyph glyph-name="backslash" unicode="\" horiz-adv-x="285" 
d="M113 726q21 -99 47 -214q23 -99 54.5 -228.5t70.5 -274.5q-14 -2 -32 -6q-31 -6 -83 -23q-12 63 -34 164q-20 86 -52.5 223.5t-83.5 334.5q12 1 29 4q14 2 35.5 7t48.5 13z" />
    <glyph glyph-name="AE" unicode="&#xc6;" horiz-adv-x="507" 
d="M218 274q-2 68 -0.5 127.5t4.5 120.5q2 39 -2 51t-12 12q-11 0 -19.5 -17.5t-18.5 -68.5q-4 -20 -7.5 -46.5t-6 -53t-3.5 -50.5t0 -40q2 -22 10 -30.5t26 -8.5q8 0 16 1t13 3zM347 527q-2 -22 -2.5 -61t2.5 -77q32 -1 63.5 1t62.5 5v-37v-37t1 -39q-12 0 -25 -1
q-12 -1 -27.5 -1.5t-32.5 -2.5q-22 -2 -30 -13.5t-7 -37.5q1 -16 2 -31.5t3 -29.5q3 -18 9.5 -24.5t23.5 -7.5q21 -1 51 2.5t54 8.5q1 -21 2 -45q1 -20 0.5 -45.5t-1.5 -52.5q-29 -7 -65.5 -11.5t-66.5 -4.5q-39 0 -64 9t-40.5 27t-23 44t-10.5 60q-2 11 -2.5 20t-1.5 17
q-32 2 -54 -5.5t-28 -33.5q-3 -11 -4 -25.5t-1.5 -30t-0.5 -30.5q0 -14 1 -26q-18 -1 -38 0q-17 0 -40 1t-49 3q5 39 10.5 86t11.5 96.5t11.5 99.5t10.5 95t9 83.5t7 64.5q2 26 -6 34.5t-37 3.5q-2 24 -2.5 46t-1.5 39q-1 20 -1 38q33 3 92 5.5t126 3t133.5 -0.5t116.5 -4
q1 -20 2 -43q1 -20 1 -47v-55q-29 2 -61.5 2.5t-52.5 -2.5q-17 -2 -22.5 -10.5t-7.5 -22.5z" />
    <glyph glyph-name="OE" unicode="&#x152;" horiz-adv-x="515" 
d="M192 107q14 0 19.5 6t8.5 25q4 24 6 58.5t3 74t0.5 81.5t-2.5 80t-4.5 69.5t-6.5 51.5q-3 15 -11 25t-24 10q-14 0 -20 -5.5t-8 -19.5t-4 -44t-2.5 -69t-0.5 -83q0 -43 1 -83t2.5 -73.5t3.5 -51.5q3 -29 11 -40.5t28 -11.5zM505 5q-29 -7 -64 -11.5t-61 -4.5
q-35 0 -60.5 14.5t-35.5 37.5q-20 -61 -117 -61q-110 0 -130 115q-9 54 -14.5 121t-6.5 136t2 135.5t10 119.5q8 62 40.5 92t101.5 30q31 0 54 -10.5t40 -29.5q50 8 111.5 11t121.5 0q1 -20 2 -43q1 -20 1 -47v-55q-29 2 -61.5 2.5t-52.5 -2.5q-17 -2 -22.5 -10.5
t-7.5 -22.5q-2 -22 -2.5 -61t2.5 -77q32 -1 63.5 1t62.5 5v-37v-37t1 -39q-12 0 -25 -1q-12 -1 -27.5 -1.5t-32.5 -2.5q-22 -2 -30 -13.5t-7 -37.5q1 -16 2 -27t3 -25q3 -18 9.5 -24.5t23.5 -7.5q21 -1 51 2.5t54 8.5q1 -21 2 -45q1 -20 0.5 -45.5t-1.5 -52.5z" />
    <glyph glyph-name="oe" unicode="&#x153;" horiz-adv-x="569" 
d="M377 559q-7 -35 -10.5 -84.5t-5.5 -102.5q8 0 18 0.5t21 1.5q14 2 21 8.5t9 23.5q3 32 4 67.5t-1 69.5q-2 32 -10.5 41.5t-19.5 9.5t-17.5 -9.5t-8.5 -25.5zM180 587q-14 0 -19.5 -6t-8.5 -25q-4 -24 -6 -58.5t-3 -74t-0.5 -81.5t2.5 -80t4.5 -70t6.5 -51q3 -15 11 -25
t24 -10q14 0 20 5.5t8 19.5t4 44t2.5 69t0.5 82q0 44 -1 84t-2.5 73.5t-3.5 51.5q-3 29 -11 40.5t-28 11.5zM408 -20q-45 0 -75 18.5t-41 49.5q-11 -38 -36 -53t-75 -15q-72 0 -112 38t-50 131q-3 24 -3.5 61.5t0 81t2 90.5t3.5 89.5t4.5 77.5t5.5 56q4 34 13.5 57.5
t26 38.5t41.5 22t60 7q87 0 111 -80q14 42 44 60.5t77 18.5q74 0 111 -42t39 -130q2 -78 -2.5 -152t1.5 -133q-42 -6 -94.5 -8.5t-96.5 -1.5q1 -26 2.5 -47.5t4.5 -36.5q5 -26 20.5 -41t46.5 -15q29 0 53 4t55 12q-1 -21 -1 -44q-2 -41 0 -93q-31 -10 -67 -15.5t-68 -5.5z
" />
    <glyph glyph-name="emdash" unicode="&#x2014;" horiz-adv-x="378" 
d="M367 260q-31 1 -80 1h-110q-67 0 -165 -2v33v36q0 21 -2 47q28 -1 77 -1q42 0 110 1t171 3q-1 -16 -1 -34q-2 -33 0 -84z" />
    <glyph glyph-name="endash" unicode="&#x2013;" horiz-adv-x="286" 
d="M74 376q62 0 200 3q-1 -15 -1 -33q0 -34 3 -83h-76q-36 -1 -84.5 -2t-105.5 -3q0 16 1 34q0 16 0.5 37.5t-0.5 46.5h63z" />
    <glyph glyph-name="ellipsis" unicode="&#x2026;" horiz-adv-x="535" 
d="M93 132q34 0 52 -21t18 -53q0 -36 -21.5 -58t-57.5 -22q-35 0 -54.5 20.5t-19.5 52.5q0 36 22.5 58.5t60.5 22.5zM264 -20q-35 0 -53.5 21.5t-18.5 54.5q0 38 21.5 60t59.5 22q37 0 56.5 -21t19.5 -54q0 -38 -22.5 -60.5t-62.5 -22.5zM452 -29q34 0 53.5 20.5t19.5 52.5
q0 36 -20 57t-56 21t-56 -21t-20 -53q0 -36 20.5 -56.5t58.5 -20.5z" />
    <glyph glyph-name="questiondown" unicode="&#xbf;" horiz-adv-x="326" 
d="M187 559q-36 0 -55.5 22.5t-19.5 57.5q0 38 22.5 61t61.5 23t59 -21.5t20 -56.5q0 -39 -23 -62.5t-65 -23.5zM142 510q3 -12 5.5 -25t0.5 -26q-2 -21 -11.5 -35.5t-26.5 -25.5q-26 -16 -44 -30.5t-30 -30t-17.5 -34t-6.5 -42.5q-3 -58 1 -107t12 -95q6 -35 21 -52t47 -28
q11 -4 30 -6.5t41 -2.5t45 3t41 9q24 8 39.5 27t20.5 58q5 42 0 89.5t-5 100.5q-31 1 -59.5 0.5t-66.5 -2.5q2 -26 2 -42q0 -15 -2 -34q-4 -43 -25 -44q-12 -1 -17.5 11.5t-7.5 23.5q-2 20 -2.5 36.5t0.5 35.5q0 16 4 28.5t13.5 23.5t26 23.5t42.5 29.5q40 26 43 75
q2 25 0 49.5t-7 49.5q-27 -2 -53.5 -4.5t-53.5 -6.5z" />
    <glyph glyph-name="bar" unicode="|" horiz-adv-x="207" 
d="M166 -30q-28 2 -51.5 3t-40.5 1h-37q2 197 1.5 339.5t-1.5 237.5q-1 110 -2 186q30 -2 55 -2.5t43 -0.5h39q-4 -145 -5 -281.5t-1 -244.5v-238z" />
    <glyph glyph-name="exclamdown" unicode="&#xa1;" horiz-adv-x="203" 
d="M103 717q42 0 61 -23t19 -55q0 -38 -22.5 -61t-61.5 -23t-59 21.5t-20 56.5q0 44 22 64t61 20zM162 -10q-5 102 -6.5 196t-2.5 167q-1 85 0 161q-27 -1 -48.5 -0.5t-36.5 1.5q-18 1 -31 2q-1 -118 -3.5 -213.5t-5.5 -164.5q-4 -80 -8 -143q19 -1 42 -3q20 -2 45.5 -3
t54.5 0z" />
    <glyph glyph-name="fraction" unicode="&#x2044;" horiz-adv-x="285" 
d="M172 726q27 -8 48 -13t35 -7q17 -3 30 -4q-51 -197 -84 -334.5t-52 -223.5q-23 -101 -34 -164q-26 8 -47 14t-36 9q-18 4 -32 6q39 145 70.5 274.5t54.5 228.5q26 115 47 214z" />
    <glyph glyph-name="fraction" unicode="&#x2215;" horiz-adv-x="285" 
d="M172 726q27 -8 48 -13t35 -7q17 -3 30 -4q-51 -197 -84 -334.5t-52 -223.5q-23 -101 -34 -164q-26 8 -47 14t-36 9q-18 4 -32 6q39 145 70.5 274.5t54.5 228.5q26 115 47 214z" />
    <glyph glyph-name="twosuperior" unicode="&#xb2;" horiz-adv-x="227" 
d="M208 669q5 -15 7.5 -34t2 -38.5t-4 -37t-9.5 -29.5q-9 -18 -22.5 -32t-27 -26.5t-25.5 -25.5t-18 -30q25 2 52 4.5t47 6.5q2 -20 2.5 -44.5t-0.5 -44.5q-20 -2 -44 -3t-49.5 -1.5t-50.5 -0.5h-45q-10 22 -9.5 47t8.5 42q8 15 19.5 27.5t24.5 24.5t27 26t26 34
q8 13 11 32.5t1 42.5q-2 24 -14 24q-8 0 -11 -4.5t-5 -16.5q-3 -19 -3 -35q0 -15 2 -31q-47 3 -90 0q4 37 3 69.5t4 49.5q9 29 35 41t61 12q78 0 95 -49z" />
    <glyph glyph-name="onesuperior" unicode="&#xb9;" horiz-adv-x="160" 
d="M140 332q-23 1 -51 0t-52 -3q8 72 10.5 132t-2.5 110q-2 17 -12.5 22.5t-27.5 3.5q8 24 13 52t9 57q26 -3 53.5 -5t53.5 -2q-3 -184 6 -367z" />
    <glyph glyph-name="onehalf" unicode="&#xbd;" horiz-adv-x="407" 
d="M207 409q-26 1 -49.5 1.5t-45.5 0t-43.5 -2t-45.5 -3.5q2 14 2.5 32.5t-0.5 44.5q29 1 37.5 8.5t10.5 27.5q2 29 1.5 57.5t-3.5 52.5q-23 5 -47 2q7 39 9 89q29 -3 64 -4t63 0q-3 -55 -3.5 -104.5t2.5 -97.5q2 -20 14.5 -25t35.5 -3q-2 -19 -3 -37.5t1 -38.5zM388 259
q6 -13 8 -28.5t1.5 -31.5t-4 -30t-9.5 -23q-9 -16 -23 -27.5t-28.5 -22t-27 -21.5t-19.5 -25q26 2 55 4.5t49 4.5q2 -17 2.5 -37t-0.5 -37q-20 -1 -45.5 -2t-53 -1.5t-54.5 -0.5h-46q-10 18 -9.5 39.5t8.5 35.5q8 13 20 23t26.5 20t29 21.5t26.5 27.5q8 11 10.5 27t1.5 36
t-14 20t-16 -17q-2 -16 -2.5 -29t1.5 -27q-49 3 -95 0q3 33 2 55.5t4 37.5q9 28 37 39.5t65 11.5q40 0 66 -11.5t34 -31.5zM244 714q12 -1 29 -1q29 -2 85 0q1 -35 2 -72q1 -32 1.5 -70.5t-1.5 -75.5q-2 -44 -6 -71.5t-13 -44.5t-25 -27t-42 -17q-11 -3 -26.5 -5.5t-32 -5.5
t-32 -6t-25.5 -7q-11 -5 -16.5 -16.5t-8.5 -28t-3.5 -37.5t-0.5 -44q-1 -23 1 -56t4 -62q3 -35 6 -71q-18 -1 -37 -1q-17 0 -38.5 1t-45.5 4q-2 36 -3 72q-1 31 -0.5 67.5t3.5 68.5t6.5 56.5t10.5 43t19.5 31.5t34.5 22q13 6 30.5 9.5t35.5 6.5t35 6.5t28 8.5
q13 6 19.5 14.5t9.5 20.5t3.5 27.5t1.5 35.5q1 23 -0.5 61t-3.5 74q-3 42 -5 89z" />
    <glyph glyph-name="threequarters" unicode="&#xbe;" horiz-adv-x="442" 
d="M268 705q3 -44 5 -84q2 -35 3 -71.5t0 -59.5q-1 -27 -2.5 -44t-5 -26.5t-9.5 -14.5t-17 -9q-12 -5 -28.5 -8t-34 -6.5l-35 -7t-31.5 -9.5q-22 -9 -35 -22.5t-20 -32.5t-10 -44.5t-6 -57.5t-3.5 -68t0.5 -66q1 -35 3 -70q24 -3 45.5 -4t38.5 -1q19 0 37 1q-3 35 -6 69
q-2 29 -4 61t-1 55q1 47 4 81.5t25 44.5q10 4 25.5 7.5t32 6.5t32 5t26.5 5q26 6 42 15.5t25 27t13 45.5t6 72q2 37 2 74q0 38 -1 68q-1 35 -2 67q-56 -2 -85 0q-17 0 -29 1zM432 -12h-50q-23 0 -46 -1q8 46 3 75q-3 17 -11.5 21t-31.5 2q-89 -7 -90 52q0 20 1 37t2.5 34.5
t2.5 36.5t1 43q21 -1 45 -1.5t47 0.5q-6 -30 -7.5 -65.5t0.5 -64.5q1 -11 4.5 -17t14.5 -6q10 0 14 6.5t5 17.5q1 12 1.5 28.5t0.5 33.5t-0.5 32.5t-1.5 26.5q20 -2 40 -2.5t52 -0.5q-2 -37 -2.5 -71t0 -68.5t2 -71t4.5 -77.5zM100 596q-20 1 -47 1q-26 0 -43 -1
q3 33 2.5 60.5t11.5 44.5q7 9 19 15t27 9.5t31 4.5t31 1q34 0 58 -10t30 -33q5 -15 5.5 -40.5t-5.5 -55.5q-5 -22 -24.5 -33t-45.5 -13q32 -4 52.5 -20t19.5 -52q-1 -47 -29.5 -62t-78.5 -16q-43 -2 -70 10t-30 41q-2 14 -0.5 24.5t-0.5 27.5q20 -2 41 -1.5t41 1.5
q-3 -37 18 -37q16 0 16 20q0 26 -8.5 35t-37.5 7q1 13 0.5 25t-2.5 25q34 -1 46 9q7 7 7.5 21t-2.5 43q-1 9 -4.5 14.5t-13.5 5.5q-7 0 -12 -5t-5 -19q0 -12 0.5 -23t2.5 -24z" />
    <glyph glyph-name="onequarter" unicode="&#xbc;" horiz-adv-x="419" 
d="M205 409q-26 1 -49.5 1.5t-45.5 0t-43.5 -2t-45.5 -3.5q2 14 2.5 32.5t-0.5 44.5q29 1 37.5 8.5t10.5 27.5q2 29 1.5 57.5t-3.5 52.5q-23 5 -47 2q7 39 9 89q29 -3 64 -4t63 0q-3 -55 -3.5 -104.5t2.5 -97.5q2 -20 14.5 -25t35.5 -3q-2 -19 -3 -37.5t1 -38.5zM409 -12
q-3 41 -4.5 77.5t-2 71t0 68.5t2.5 71q-32 0 -52 0.5t-40 2.5q1 -11 1.5 -26.5t0.5 -32.5t-0.5 -33.5t-1.5 -28.5q-1 -11 -5 -17.5t-14 -6.5q-11 0 -14.5 6t-4.5 17q-2 29 -0.5 64.5t7.5 65.5q-23 -1 -47 -0.5t-45 1.5q0 -24 -1 -43t-2.5 -36.5t-2.5 -34.5t-1 -37
q1 -59 90 -52q23 2 31.5 -2t11.5 -21q5 -29 -3 -75q23 1 46 1h50zM243 707q12 -1 29 -1q29 -2 85 0q2 -33 3 -68q1 -30 1.5 -68t-1.5 -75q-2 -44 -6 -71.5t-13 -44.5t-25 -27t-42 -17q-11 -3 -26.5 -5.5t-32 -5.5t-32 -6t-25.5 -7q-11 -5 -16.5 -16.5t-8.5 -28t-3.5 -37.5
t-0.5 -44q-1 -23 1 -54t4 -58q3 -33 5 -65q-18 -1 -37 -1q-17 0 -38.5 1t-45.5 4q-2 33 -3 66q-1 29 0 63.5t4 66.5t6.5 56.5t10.5 43t19.5 31.5t34.5 22q13 6 30.5 9.5t35.5 6.5t35 6.5t28 8.5q13 6 19.5 14.5t9.5 20.5t3.5 27.5t1.5 35.5q1 23 -0.5 60t-3.5 72
q-3 40 -6 85z" />
    <glyph glyph-name="caron" unicode="&#x2c7;" horiz-adv-x="325" 
d="M295 641q-10 -9 -23 -23q-22 -23 -67 -76q-10 1 -23 1h-28q-16 0 -36 -1q-5 8 -16 21q-10 11 -27 30.5t-45 50.5q8 4 19 10q18 10 62 37q6 -8 14 -19q7 -9 16 -21.5t22 -27.5l13 13q8 8 20 20.5t30 33.5q6 -5 16 -12q8 -6 21 -15.5t32 -21.5z" />
    <glyph glyph-name="hungarumlaut" unicode="&#x2dd;" horiz-adv-x="321" 
d="M137 574q8 12 19 30q10 16 23.5 40t33.5 59q8 -6 19 -14q10 -7 24.5 -17t34.5 -23q-11 -11 -25 -28q-13 -14 -31 -35.5t-43 -51.5q-5 5 -13 11l-17.5 12.5t-24.5 16.5zM30 578q5 13 14 33q7 17 18 43t25 63q9 -5 21 -11q11 -5 26.5 -13t38.5 -18q-9 -13 -21 -31
q-11 -16 -26 -40t-34 -57l-15 9q-8 4 -19.5 9.5t-27.5 12.5z" />
    <glyph glyph-name="b" unicode="b" horiz-adv-x="356" 
d="M20 694q35 13 76 20.5t76 7.5q51 0 84 -11.5t52.5 -37.5t27.5 -69t8 -107q0 -82 -23 -125t-69 -55q42 -9 64 -46t22 -107q0 -93 -36.5 -136t-127.5 -43q-37 0 -70.5 5t-77.5 16q0 81 0.5 168.5t-0.5 176t-2 175.5t-4 168zM224 485q0 57 -16.5 78.5t-62.5 13.5
q-2 -47 -2.5 -98t-1.5 -104q48 1 65.5 25.5t17.5 84.5zM146 110q40 -4 56 13t16 59q0 39 -16.5 59.5t-60.5 16.5q1 -38 2 -75.5t3 -72.5z" />
    <glyph glyph-name="c" unicode="c" horiz-adv-x="343" 
d="M332 440q-20 -1 -41.5 -1.5t-39.5 -1.5q-21 -1 -41 -3q1 29 0.5 61t-2.5 54q-2 23 -21 23q-25 0 -28 -31q-5 -41 -8 -95t-3 -109q0 -54 3 -104.5t9 -84.5q4 -19 12 -25.5t20 -6.5q19 0 22 20q3 24 2 59.5t-3 65.5q20 -1 40 -0.5t37 1.5q19 1 37 1q-4 -42 -2 -91t-2 -94
q-5 -50 -37.5 -74t-86.5 -24q-35 0 -61 7t-45 22.5t-31.5 39.5t-21.5 58q-12 49 -18 115t-6.5 134t3.5 131t11 105q6 38 18 63.5t31.5 41t47 22t65.5 6.5q66 0 97 -27.5t35 -90.5q2 -41 2.5 -83.5t5.5 -83.5z" />
    <glyph glyph-name="d" unicode="d" horiz-adv-x="377" 
d="M20 699q29 11 68 17t74 6q40 0 70 -7t52.5 -24.5t37.5 -47.5t24 -75q7 -38 11 -90.5t4.5 -108t-2 -109.5t-7.5 -95q-7 -52 -18.5 -86.5t-32 -55t-51 -29t-74.5 -8.5q-37 0 -77.5 6t-74.5 17q1 66 1.5 154.5t0 183t-2 187t-3.5 165.5zM152 575q-1 -47 -2 -108.5t-1 -125.5
q0 -63 1 -123t3 -103q20 -2 33 -0.5t21 8t12.5 19t6.5 33.5q4 35 6 84.5t1.5 100.5t-3.5 97t-9 75q-5 26 -20 36t-49 7z" />
    <glyph glyph-name="f" unicode="f" horiz-adv-x="290" 
d="M286 707q-1 -23 -3 -49q-2 -22 -4 -49t-5 -55q-32 7 -67 7q-26 0 -38.5 -7.5t-17.5 -28.5q-3 -10 -4.5 -24.5t-2 -30.5t0 -31.5t2.5 -27.5q2 -16 9 -26t25 -14q14 -3 34 -4t39 0q-2 -17 -2 -35q-1 -16 -0.5 -36.5t2.5 -43.5q-18 1 -38 -0.5t-34 -6.5q-17 -5 -23.5 -16.5
t-6.5 -28.5t2 -41t5.5 -51t8.5 -55t10 -52q-26 -2 -50.5 -3.5t-44.5 -3.5q-23 -2 -44 -3q-4 45 -7.5 96.5t-6.5 105t-5 106.5t-2.5 101.5t0.5 89.5t3 71q3 44 14 74.5t30 49.5t47.5 27.5t66.5 8.5q25 0 54.5 -4t52.5 -10z" />
    <glyph glyph-name="g" unicode="g" horiz-adv-x="375" 
d="M211 727q36 0 60.5 -6.5t39 -19.5t21 -33.5t8.5 -48.5q3 -50 0 -102.5t2 -110.5q-20 2 -40 2q-18 0 -39.5 -1t-44.5 -3q1 16 2 36t1 40q0 21 -0.5 39t-1.5 32q-1 23 -22 23q-23 0 -29 -29q-7 -34 -11.5 -88t-6 -112t0.5 -111.5t8 -86.5q5 -26 13 -34.5t25 -8.5
q31 0 33 65q1 26 -7.5 35t-31.5 4v37t-1 33q-1 17 -1 33q77 5 158 3q-3 -21 -4.5 -45t-2.5 -47.5t-1 -44.5q0 -20 2 -34q3 -29 30 -24q-2 -18 -3 -38q-2 -17 -2.5 -38.5t-1.5 -42.5q-48 -11 -75 -0.5t-36 41.5q-7 -31 -30 -48.5t-70 -17.5q-53 0 -82.5 33.5t-40.5 95.5
q-8 44 -11.5 104.5t-3 125.5t6 128t16.5 112q9 42 23 71t35 47.5t49 26.5t66 8z" />
    <glyph glyph-name="h" unicode="h" horiz-adv-x="379" 
d="M359 698q-3 -78 -4.5 -172.5t-1.5 -191.5q0 -96 1.5 -187t3.5 -160h-40q-18 0 -41.5 -0.5t-49.5 -2.5q1 34 2 69.5t1 68.5q0 34 -1 63t-3 52q-2 17 -9.5 26.5t-25.5 10.5q-27 1 -29 -26q-2 -54 -0.5 -122t4.5 -132q-22 1 -47 3q-21 1 -47 2t-52 1q3 63 5 151t3 185t0 195
t-2 180q25 0 49 0.5t44 1.5q23 1 44 3q-2 -38 -3.5 -78.5t-2 -78.5t0 -71.5t2.5 -58.5q2 -24 15.5 -36t53.5 -8q1 24 1.5 63t0 83t-1.5 89.5t-3 82.5q20 -2 42 -3q19 -1 42.5 -1.5t48.5 -0.5z" />
    <glyph glyph-name="k" unicode="k" 
d="M163 715q-3 -31 -4.5 -72t-2.5 -82t-0.5 -77.5t2.5 -59.5q5 -1 9 -2t8.5 -1.5t9.5 0.5q17 1 24 11.5t9 33.5q1 22 2 50.5t1.5 59.5t-0.5 62t-2 60q21 -2 45 -3q20 -2 44.5 -2.5t49.5 0.5q-3 -25 -4.5 -57t-2 -64.5t-1.5 -63t-3 -53.5q-4 -34 -24 -59t-63 -33
q44 -8 65.5 -31.5t26.5 -71.5q3 -31 4 -67.5t2 -73.5t2.5 -71.5t5.5 -60.5q-22 0 -47 -1q-21 -1 -47 -2.5t-52 -3.5q2 34 2 75t-0.5 80.5t-2 74t-3.5 57.5q-2 17 -8 29t-24 13q-26 1 -28 -27q-2 -27 -1.5 -63.5t1.5 -75.5t3.5 -77.5t5.5 -70.5q-22 1 -47 2q-21 1 -46.5 1.5
t-51.5 0.5q4 63 6 150.5t2 184.5t-2 194.5t-5 179.5q28 0 53.5 1t45.5 3q23 2 43 3z" />
    <glyph glyph-name="l" unicode="l" horiz-adv-x="301" 
d="M171 696q-9 -63 -14.5 -137t-8.5 -145t-2.5 -132.5t5.5 -99.5q3 -26 13.5 -36.5t36.5 -10.5q49 0 96 10v-13t-0.5 -34t-1.5 -46.5t-3 -51.5q-28 -8 -58 -12t-61 -4q-34 0 -58.5 8t-42 26t-28 47t-16.5 72q-6 42 -8.5 110.5t-1.5 148t5 161t12 150.5q26 -3 50.5 -4.5
t43.5 -3.5q22 -2 42 -3z" />
    <glyph glyph-name="m" unicode="m" horiz-adv-x="530" 
d="M504 699q-1 -46 -1.5 -104.5t-0.5 -122.5t0.5 -131t1.5 -130t2.5 -120t3.5 -101h-40q-18 0 -42 -0.5t-49 -1.5q2 57 3.5 126.5t2.5 142t1 142.5t-1 127q-11 -51 -22 -115.5t-21 -131.5t-18 -130.5t-12 -112.5q-15 -1 -33 -1q-15 -1 -34 -1h-40q-5 49 -13 115t-17.5 134.5
t-20 133t-19.5 111.5q0 -60 0.5 -128.5t2 -138.5t4.5 -137.5t6 -125.5h-12h-29t-41 0.5t-46 1.5q3 69 5 162t3 191t1.5 189.5t-0.5 157.5q29 4 61 6.5t61 2.5q31 0 45.5 -11t20.5 -45q5 -30 11.5 -73t13 -90t12.5 -92.5t12 -79.5q17 94 32 193t26 193q42 -2 90 -2.5t90 -2.5
z" />
    <glyph glyph-name="n" unicode="n" horiz-adv-x="408" 
d="M388 2q-14 -7 -40.5 -11t-49.5 -4q-54 0 -76.5 20.5t-30.5 67.5q-10 54 -17.5 108.5t-14.5 110.5t-14.5 114t-17.5 121q0 -60 1 -128.5t3 -139t5 -138t6 -125.5h-11h-27t-39 0.5t-45 1.5q3 69 5 162t3 191t1.5 189.5t-0.5 157.5q14 2 38.5 3.5t51 2t51 1t39.5 0.5
q11 -72 20 -138.5t18 -134.5t20 -141t26 -159q-2 65 -4 142t-5.5 153t-8 146t-9.5 122h44t37.5 -1t26.5 -1h10q-1 -68 -1.5 -156t0 -181.5t1.5 -186t4 -169.5z" />
    <glyph glyph-name="o" unicode="o" horiz-adv-x="367" 
d="M188 588q-14 0 -19.5 -6t-8.5 -25q-4 -24 -6 -58.5t-3 -74t-0.5 -81.5t2.5 -80t4.5 -70t6.5 -51q3 -15 11 -25t24 -10q14 0 20 5.5t8 19.5t4 44t2.5 69t0.5 82q0 44 -1 84t-2.5 73.5t-3.5 51.5q-3 29 -11 40.5t-28 11.5zM172 729q46 0 78 -10t52 -31t31 -53t16 -75
q3 -24 3.5 -61.5t0 -81t-2 -90.5t-3.5 -89.5t-4.5 -77.5t-5.5 -56q-5 -36 -14.5 -59.5t-26.5 -38t-43 -20.5t-62 -6q-75 0 -110 34t-46 94q-9 46 -13.5 107.5t-5.5 127t2 129.5t11 116q6 39 16 66t27 43.5t41.5 24t58.5 7.5z" />
    <glyph glyph-name="p" unicode="p" horiz-adv-x="348" 
d="M148 319q43 -3 51 28q3 11 5 31.5t3 45.5t0.5 52t-2.5 51q-2 23 -15.5 30t-41.5 5q-1 -50 -1 -113q0 -62 1 -130zM149 204q1 -63 2 -117.5t3 -99.5q-26 1 -49.5 1.5t-41.5 0.5h-40q3 44 4.5 101.5t2 121.5t0.5 132t-1.5 133.5t-3.5 125t-5 106.5q12 3 28.5 5.5t34.5 4
t34 2.5t27 1q42 0 72 -5.5t51 -18t34 -33t21 -50.5q10 -38 14.5 -82.5t4.5 -89.5t-5.5 -86t-16.5 -72q-14 -38 -54.5 -59t-115.5 -22z" />
    <glyph glyph-name="q" unicode="q" horiz-adv-x="355" 
d="M151 560q-2 -19 -3.5 -52.5t-1.5 -71.5q0 -37 1 -74.5t3 -64.5q2 -17 8 -26t22 -9q31 0 34 34q3 25 4.5 58t2 68l1 70t0.5 66q0 22 -11.5 29.5t-24.5 7.5q-31 0 -35 -35zM333 270q-6 -64 -40 -92.5t-99 -30.5q14 -15 24 -28.5t22 -13.5q8 0 13.5 7t0.5 27q14 1 37 1
q24 0 39 -2q4 -18 6.5 -39.5t0.5 -44.5q-5 -79 -72 -79q-24 0 -41 14t-30.5 31t-25 31t-25.5 14q-15 0 -13.5 -21t9.5 -48q-17 -5 -42.5 -8t-40.5 -5q-14 44 -14 86q-1 31 12.5 55t36.5 38q-28 13 -42.5 37.5t-19.5 65.5q-5 38 -8 83t-4.5 91t-0.5 89t5 76t14 56.5
t28.5 38.5t47.5 22t70 7q78 0 115 -30.5t40 -81.5t4.5 -94.5t1 -85t-2.5 -82t-6 -84.5z" />
    <glyph glyph-name="r" unicode="r" horiz-adv-x="386" 
d="M161 563q-2 -46 -2 -84v-76q35 -5 53.5 1.5t26.5 25.5q3 8 5 22.5t2.5 31t-0.5 31t-4 22.5q-14 41 -81 26zM226 235q-5 24 -22.5 36t-43.5 14q2 -56 4.5 -127t7.5 -173q-35 2 -60.5 3.5t-43.5 1.5h-36q3 90 2.5 188.5t-2.5 192.5t-5.5 177.5t-6.5 144.5q47 14 102.5 22.5
t97.5 8.5t70.5 -7.5t46 -28.5t25.5 -59.5t8 -101.5q0 -51 -6 -86t-18.5 -57t-33 -32.5t-48.5 -13.5q19 -3 31.5 -9.5t23.5 -16.5q17 -16 23.5 -52t4.5 -98q-1 -43 34 -40q-4 -38 -5.5 -71t-0.5 -70q-62 -10 -99.5 5t-45.5 60q-4 24 -4 49q0 26 1.5 51t2 48t-3.5 41z" />
    <glyph glyph-name="s" unicode="s" horiz-adv-x="345" 
d="M28 87q-2 23 -0.5 55.5t-0.5 70.5q32 -3 61 -3t70 4q-3 -26 -3.5 -49.5t3.5 -49.5q3 -19 11 -23.5t16 -4.5q11 0 19 5.5t9 22.5q2 13 1.5 36.5t-3.5 40.5q-3 18 -14.5 30t-36.5 21q-50 18 -87 41t-51 67q-5 16 -8 44t-3.5 61t0.5 67t4 62q5 44 18.5 71t36.5 42t56 20
t77 5q39 0 63 -6.5t38 -21.5t19 -39.5t5 -60.5q0 -48 1 -88.5t6 -91.5q-28 2 -52.5 2.5t-44.5 -0.5q-23 -1 -43 -2q3 36 3 66q0 31 -2 63q-2 19 -7 26t-16 7q-8 0 -14 -6t-9 -21q-5 -24 -7 -59.5t1 -67.5q2 -23 12.5 -37t31.5 -23q36 -15 60.5 -27.5t40.5 -26.5t24.5 -30.5
t13.5 -39.5q7 -33 8 -74t-2 -88q-4 -59 -38.5 -82t-97.5 -23q-47 0 -78 7t-50.5 21t-28.5 35.5t-12 51.5z" />
    <glyph glyph-name="u" unicode="u" horiz-adv-x="359" 
d="M15 696q15 -2 34 -3.5t38 -2.5t36.5 -1.5t30.5 -0.5q-9 -129 -10.5 -253.5t3.5 -249.5q2 -34 9.5 -48.5t24.5 -13.5q17 0 25 14t8 36q-1 72 -2.5 140t-4.5 134t-7 131.5t-10 134.5q65 -2 106 0q23 1 42 2q-4 -71 -3 -143.5t3 -145t4.5 -143t1.5 -135.5q-1 -50 -11 -84
t-31 -54.5t-53 -29t-76 -8.5q-47 0 -77.5 12t-48.5 37.5t-25 66t-6 97.5q2 115 3 242.5t-4 268.5z" />
    <glyph glyph-name="v" unicode="v" horiz-adv-x="355" 
d="M232 700q23 -2 43.5 -3t37.5 -1q19 -1 37 0q-9 -69 -18.5 -150.5t-19 -171.5t-19 -185.5t-17.5 -191.5q-25 0 -47 -1t-43.5 -2.5t-44.5 -4t-49 -5.5q-34 363 -87 721q29 1 54.5 2.5t44.5 3.5q22 2 41 5q8 -132 21.5 -271t33.5 -270q6 55 11.5 127t10 145.5t7.5 140.5
t3 112z" />
    <glyph glyph-name="w" unicode="w" horiz-adv-x="528" 
d="M174 708q-11 -130 -13 -263t3 -264q1 -20 6.5 -31.5t19.5 -11.5q9 0 15.5 8t7.5 31q2 52 2 115t-1 128t-3.5 128t-5.5 116q31 -2 60 -3.5t61 -0.5q-4 -58 -5.5 -121t-1.5 -128q0 -64 2 -128t6 -122q2 -18 7.5 -28t19.5 -10q11 0 15.5 9t5.5 26q2 65 2.5 135.5t-1 141
t-5 138.5t-7.5 128q13 -1 32 -1q20 0 41 1t40 2t31 2q-6 -134 -5 -285.5t8 -313.5q1 -34 -7.5 -59t-24.5 -41t-37.5 -23.5t-46.5 -7.5q-47 0 -78.5 24t-43.5 75q-12 -36 -38.5 -56.5t-66.5 -20.5q-69 0 -100.5 39t-35.5 103q-5 82 -7 155.5t-2.5 141t-1.5 132t-4 129.5
q35 2 63.5 3.5t49.5 3.5q25 2 44 4z" />
    <glyph glyph-name="x" unicode="x" horiz-adv-x="382" 
d="M370 -5q-24 1 -50 2q-22 1 -48.5 0t-52.5 -3q3 36 4.5 73.5t2 73.5t-0.5 68.5t-4 58.5q-2 17 -8.5 23t-14.5 6q-11 0 -16.5 -6.5t-9.5 -18.5q-6 -19 -8.5 -52.5t-3.5 -74t1 -84t5 -80.5l-154 9q3 34 3.5 75.5t2 84t7 83t18.5 73.5q11 26 29.5 40t44.5 20q-63 17 -79 79
q-12 51 -12 117q0 67 -6 142q28 0 54.5 1t47.5 2q25 1 46 2q-7 -64 -9 -123t5 -126q2 -14 7.5 -23t20.5 -9q14 0 18.5 9.5t6.5 30.5q4 64 4.5 116.5t-5.5 111.5q21 -1 44 -3q20 -2 45 -3t53 0q-3 -27 -4.5 -58t-2.5 -62.5t-3 -61t-6 -53.5q-6 -34 -26.5 -54t-52.5 -29
q35 -8 58 -29.5t32 -54.5q7 -26 8 -57.5t1 -68.5q0 -36 1 -78t7 -89z" />
    <glyph glyph-name="y" unicode="y" horiz-adv-x="361" 
d="M12 708q40 -1 74 0t72 5q-4 -35 -6 -70.5t-2.5 -74.5t0.5 -82t4 -94q2 -26 9.5 -35.5t22.5 -8.5q7 0 11 5t6 12.5t3 16t1 15.5q4 79 2.5 149t-9.5 146q33 -3 70.5 -3.5t69.5 1.5q-3 -69 -2 -136.5t2.5 -134t3 -132t-0.5 -128.5q-2 -48 -11 -81.5t-28.5 -53.5t-52 -29
t-82.5 -9q-17 0 -37.5 1.5t-41.5 4.5t-41 7.5t-36 10.5q9 73 12 108q2 20 3 34q32 -10 70 -13.5t69 1.5q32 5 43 31t5 72q-14 -3 -33 -5.5t-39 -3t-39 1t-32 6.5q-29 10 -43.5 41t-12.5 88q4 89 2.5 172t-6.5 165z" />
    <glyph glyph-name="z" unicode="z" horiz-adv-x="316" 
d="M29 536q0 13 -1 35q-1 19 -2.5 48.5t-4.5 74.5q133 16 273 -5q1 0 2 -7t2.5 -18t2 -24.5t-0.5 -26.5q-2 -34 -9 -63t-20 -70q-23 -76 -48.5 -147t-57.5 -153q-9 -23 -4.5 -33.5t27.5 -12.5q20 -2 40 -1t37 3q18 2 36 5l5 -138q-75 -8 -150 -8q-74 0 -143 9l-2 24
q-2 22 0 51t7 53t15 50q16 41 30.5 78.5t28.5 75t28 77.5t29 86q9 28 3.5 37t-23.5 10t-36 -0.5t-32 -3.5q-17 -3 -32 -6z" />
    <glyph glyph-name="oslash" unicode="&#xf8;" horiz-adv-x="365" 
d="M170 611q-14 0 -19.5 -6t-8.5 -25q-3 -24 -4.5 -58.5t-2 -74t1 -81.5t3.5 -80t5.5 -70t7.5 -51q3 -15 11 -25t24 -10q14 0 20 5.5t8 19.5t3 44t1.5 69t-0.5 82.5t-2.5 83.5t-3.5 73.5t-4 51.5q-4 29 -12 40.5t-28 11.5zM198 -20q-41 0 -68 7q-5 -17 -10.5 -39.5
t-11.5 -51.5q-14 6 -32 13q-16 6 -39 14t-52 16q7 13 16 31q8 15 18 37.5t22 51.5q-16 35 -22 90q-3 24 -4.5 61.5t-2 81t0.5 90.5t2.5 89.5t3.5 77.5t5 56q5 36 14.5 60t26 38t42 20t61.5 6q14 0 26 -1.5t23 -3.5q6 18 13.5 41.5t15.5 53.5q13 -7 31 -16q15 -8 37 -17.5
t51 -20.5q-7 -11 -17 -26q-8 -13 -19.5 -32.5t-24.5 -44.5q14 -24 22 -61q9 -47 15 -108t8 -126.5t-0.5 -129.5t-9.5 -116q-5 -39 -15 -66t-26.5 -43.5t-41 -24t-58.5 -7.5z" />
    <glyph glyph-name="thorn" unicode="&#xfe;" horiz-adv-x="344" 
d="M20 704q14 0 32 1q16 1 39.5 3t53.5 5q-1 -10 -2 -22q-1 -11 -1.5 -27t0.5 -38q39 4 72 -0.5t58 -19t40.5 -39t19.5 -61.5q7 -61 7 -131q0 -69 -9 -127q-17 -110 -181 -99q0 -31 0.5 -52t1.5 -38t1.5 -33.5t1.5 -38.5q-26 1 -49.5 1.5t-41.5 0.5h-40q3 44 4.5 101
t2 120.5t0.5 130.5q0 68 -1.5 133t-3.5 124t-5 106zM148 264q26 -2 40.5 4t19.5 27q6 27 8.5 72.5t-2.5 92.5q-2 23 -19.5 31.5t-46.5 3.5q-1 -98 0 -231z" />
    <glyph glyph-name="eth" unicode="&#xf0;" horiz-adv-x="397" 
d="M40 699q29 11 68 17t74 6q40 0 70 -7t52.5 -24.5t37.5 -47.5t24 -75q7 -38 11 -90.5t4.5 -108t-2 -109.5t-7.5 -95q-7 -52 -18.5 -86.5t-32 -55t-51 -29t-74.5 -8.5q-37 0 -77.5 6t-74.5 17q1 54 1.5 123.5t0.5 145.5q-11 0 -21.5 -0.5t-19.5 -0.5q0 11 1 28
q0 14 0.5 36.5t-0.5 54.5h39q-1 83 -2 161t-3 142zM216 401q-1 -15 -1 -33v-39t2 -51h-48q1 -47 1.5 -89t2.5 -74q20 -2 33 -0.5t21 8t12.5 19t6.5 33.5q4 35 6 84.5t1.5 100.5t-3.5 97t-9 75q-5 26 -20 36t-49 7q-1 -37 -1.5 -82t-1.5 -94q13 0 24.5 0.5t22.5 1.5z" />
    <glyph glyph-name="lslash" unicode="&#x142;" horiz-adv-x="327" 
d="M230 453q-1 -15 -1 -34v-40q0 -22 2 -49q-7 -2 -16 -4q-8 -2 -19.5 -4t-25.5 -5q0 -42 1.5 -76.5t4.5 -58.5q3 -26 13.5 -36.5t36.5 -10.5q49 0 96 10v-13t-0.5 -34t-1.5 -46.5t-3 -51.5q-28 -8 -58 -12t-61 -4q-34 0 -58.5 8t-42 26t-28 47t-16.5 72q-4 27 -6 66t-4 87
q-9 -2 -18.5 -4.5t-19.5 -4.5q1 12 2 30q1 15 0.5 37.5t-1.5 51.5q4 1 9 2t12 2.5t16 3.5q1 77 5 155t12 144q26 -3 50.5 -4.5t43.5 -3.5q22 -2 42 -3q-8 -58 -13.5 -124.5t-8.5 -132.5q13 3 27 6.5t29 7.5z" />
    <glyph glyph-name="grave" unicode="`" horiz-adv-x="251" 
d="M30 690q17 6 30.5 11.5t22.5 9.5q11 4 17 8q7 -20 17 -36.5t20 -24.5q9 -8 20.5 -7t19.5 7q4 -8 10 -19q5 -10 13.5 -24.5t20.5 -34.5q-14 -11 -29 -18.5t-25 -9.5q-43 -9 -73 23q-10 10 -19.5 24t-18.5 30t-15.5 31.5t-10.5 29.5z" />
    <glyph glyph-name="Scaron" unicode="&#x160;" horiz-adv-x="345" 
d="M27 87q-2 23 -0.5 55.5t-0.5 70.5q32 -3 61 -3t70 4q-3 -26 -3.5 -49.5t3.5 -49.5q3 -19 11 -23.5t16 -4.5q11 0 19 5.5t9 22.5q2 13 1.5 36.5t-3.5 40.5q-3 18 -14.5 30t-36.5 21q-50 18 -87 41t-51 67q-5 16 -8 44t-3.5 61t0.5 67t4 62q5 44 18.5 71t36.5 42t56 20
t77 5q39 0 63 -6.5t38 -21.5t19 -39.5t5 -60.5q0 -48 1 -88.5t6 -91.5q-28 2 -52.5 2.5t-44.5 -0.5q-23 -1 -43 -2q3 36 3 66q0 31 -2 63q-2 19 -7 26t-16 7q-8 0 -14 -6t-9 -21q-5 -24 -7 -59.5t1 -67.5q2 -23 12.5 -37t31.5 -23q36 -15 60.5 -27.5t40.5 -26.5t24.5 -30.5
t13.5 -39.5q7 -33 8 -74t-2 -88q-4 -59 -38.5 -82t-97.5 -23q-47 0 -78 7t-50.5 21t-28.5 35.5t-12 51.5zM307 847q-10 -9 -23 -23q-22 -23 -67 -76q-10 1 -23 1h-28q-16 0 -36 -1q-5 8 -16 21q-10 11 -27 30.5t-45 50.5q8 4 19 10q18 10 62 37q6 -8 14 -19q7 -9 16 -21.5
t22 -27.5l13 13q8 8 20 20.5t30 33.5q6 -5 16 -12q8 -6 21 -15.5t32 -21.5z" />
    <glyph glyph-name="Yacute" unicode="&#xdd;" horiz-adv-x="361" 
d="M10 708q40 -1 74 0t72 5q-4 -35 -6 -70.5t-2.5 -74.5t0.5 -82t4 -94q2 -26 9.5 -35.5t22.5 -8.5q7 0 11 5t6 12.5t3 16t1 15.5q4 79 2.5 149t-9.5 146q33 -3 70.5 -3.5t69.5 1.5q-3 -69 -2 -136.5t2.5 -134t3 -132t-0.5 -128.5q-2 -48 -11 -81.5t-28.5 -53.5t-52 -29
t-82.5 -9q-17 0 -37.5 1.5t-41.5 4.5t-41 7.5t-36 10.5q9 73 12 108q2 20 3 34q32 -10 70 -13.5t69 1.5q32 5 43 31t5 72q-14 -3 -33 -5.5t-39 -3t-39 1t-32 6.5q-29 10 -43.5 41t-12.5 88q4 89 2.5 172t-6.5 165zM294 878q-4 -14 -10.5 -29.5t-15.5 -31.5t-18.5 -30
t-19.5 -24q-30 -32 -73 -23q-10 2 -25 9.5t-29 18.5q11 20 20 34.5t14 24.5q6 11 10 19q8 -6 19.5 -7t20.5 7q10 8 20 24.5t17 36.5q6 -4 17 -8q9 -4 22 -9.5t31 -11.5z" />
    <glyph glyph-name="Zcaron" unicode="&#x17d;" horiz-adv-x="315" 
d="M25 536q0 13 -1 35q-1 19 -2.5 48.5t-4.5 74.5q133 16 273 -5q1 0 2 -7t2.5 -18t2 -24.5t-0.5 -26.5q-2 -34 -9 -63t-20 -70q-23 -76 -48.5 -147t-57.5 -153q-9 -23 -4.5 -33.5t27.5 -12.5q20 -2 40 -1t37 3q18 2 36 5l5 -138q-75 -8 -150 -8q-74 0 -143 9l-2 24
q-2 22 0 51t7 53t15 50q16 41 30.5 78.5t28.5 75t28 77.5t29 86q9 28 3.5 37t-23.5 10t-36 -0.5t-32 -3.5q-17 -3 -32 -6zM292 826q-10 -9 -23 -23q-22 -23 -67 -76q-10 1 -23 1h-28q-16 0 -36 -1q-5 8 -16 21q-10 11 -27 30.5t-45 50.5q8 4 19 10q18 10 62 37q6 -8 14 -19
q7 -9 16 -21.5t22 -27.5l13 13q8 8 20 20.5t30 33.5q6 -5 16 -12q8 -6 21 -15.5t32 -21.5z" />
    <glyph glyph-name="scaron" unicode="&#x161;" horiz-adv-x="345" 
d="M28 87q-2 23 -0.5 55.5t-0.5 70.5q32 -3 61 -3t70 4q-3 -26 -3.5 -49.5t3.5 -49.5q3 -19 11 -23.5t16 -4.5q11 0 19 5.5t9 22.5q2 13 1.5 36.5t-3.5 40.5q-3 18 -14.5 30t-36.5 21q-50 18 -87 41t-51 67q-5 16 -8 44t-3.5 61t0.5 67t4 62q5 44 18.5 71t36.5 42t56 20
t77 5q39 0 63 -6.5t38 -21.5t19 -39.5t5 -60.5q0 -48 1 -88.5t6 -91.5q-28 2 -52.5 2.5t-44.5 -0.5q-23 -1 -43 -2q3 36 3 66q0 31 -2 63q-2 19 -7 26t-16 7q-8 0 -14 -6t-9 -21q-5 -24 -7 -59.5t1 -67.5q2 -23 12.5 -37t31.5 -23q36 -15 60.5 -27.5t40.5 -26.5t24.5 -30.5
t13.5 -39.5q7 -33 8 -74t-2 -88q-4 -59 -38.5 -82t-97.5 -23q-47 0 -78 7t-50.5 21t-28.5 35.5t-12 51.5zM309 847q-10 -9 -23 -23q-22 -23 -67 -76q-10 1 -23 1h-28q-16 0 -36 -1q-5 8 -16 21q-10 11 -27 30.5t-45 50.5q8 4 19 10q18 10 62 37q6 -8 14 -19q7 -9 16 -21.5
t22 -27.5l13 13q8 8 20 20.5t30 33.5q6 -5 16 -12q8 -6 21 -15.5t32 -21.5z" />
    <glyph glyph-name="yacute" unicode="&#xfd;" horiz-adv-x="361" 
d="M10 708q40 -1 74 0t72 5q-4 -35 -6 -70.5t-2.5 -74.5t0.5 -82t4 -94q2 -26 9.5 -35.5t22.5 -8.5q7 0 11 5t6 12.5t3 16t1 15.5q4 79 2.5 149t-9.5 146q33 -3 70.5 -3.5t69.5 1.5q-3 -69 -2 -136.5t2.5 -134t3 -132t-0.5 -128.5q-2 -48 -11 -81.5t-28.5 -53.5t-52 -29
t-82.5 -9q-17 0 -37.5 1.5t-41.5 4.5t-41 7.5t-36 10.5q9 73 12 108q2 20 3 34q32 -10 70 -13.5t69 1.5q32 5 43 31t5 72q-14 -3 -33 -5.5t-39 -3t-39 1t-32 6.5q-29 10 -43.5 41t-12.5 88q4 89 2.5 172t-6.5 165zM294 878q-4 -14 -10.5 -29.5t-15.5 -31.5t-18.5 -30
t-19.5 -24q-30 -32 -73 -23q-10 2 -25 9.5t-29 18.5q11 20 20 34.5t14 24.5q6 11 10 19q8 -6 19.5 -7t20.5 7q10 8 20 24.5t17 36.5q6 -4 17 -8q9 -4 22 -9.5t31 -11.5z" />
    <glyph glyph-name="zcaron" unicode="&#x17e;" horiz-adv-x="315" 
d="M25 536q0 13 -1 35q-1 19 -2.5 48.5t-4.5 74.5q133 16 273 -5q1 0 2 -7t2.5 -18t2 -24.5t-0.5 -26.5q-2 -34 -9 -63t-20 -70q-23 -76 -48.5 -147t-57.5 -153q-9 -23 -4.5 -33.5t27.5 -12.5q20 -2 40 -1t37 3q18 2 36 5l5 -138q-75 -8 -150 -8q-74 0 -143 9l-2 24
q-2 22 0 51t7 53t15 50q16 41 30.5 78.5t28.5 75t28 77.5t29 86q9 28 3.5 37t-23.5 10t-36 -0.5t-32 -3.5q-17 -3 -32 -6zM292 826q-10 -9 -23 -23q-22 -23 -67 -76q-10 1 -23 1h-28q-16 0 -36 -1q-5 8 -16 21q-10 11 -27 30.5t-45 50.5q8 4 19 10q18 10 62 37q6 -8 14 -19
q7 -9 16 -21.5t22 -27.5l13 13q8 8 20 20.5t30 33.5q6 -5 16 -12q8 -6 21 -15.5t32 -21.5z" />
    <glyph glyph-name="dotlessi" unicode="&#x131;" horiz-adv-x="197" 
d="M35 512q24 -2 47.5 -2.5t42.5 -0.5h41q0 -54 -0.5 -119.5t0 -133.5t2 -133.5t4.5 -119.5q-26 -1 -52 -1.5t-46 -1.5q-24 -1 -46 -2q2 56 4 122.5t3 134.5t1 134q0 67 -1 123zM106 735q42 0 64 -26t22 -65q0 -44 -26 -70.5t-71 -26.5q-44 0 -67 25t-23 64q0 45 27 72
t74 27z" />
    <glyph glyph-name="dotlessj" unicode="&#xf6be;" horiz-adv-x="298" 
d="M128 697l54 2t48 3q25 2 48 4q-2 -56 -1 -125t2.5 -141t2 -141t-2.5 -123q-5 -103 -42.5 -146.5t-117.5 -43.5q-58 0 -114 17q2 26 4 52.5t4 46.5l5 45q39 -15 76 -15q24 0 36 12t15 36q5 40 5 106q0 67 -3 141.5t-8 146.5t-11 123z" />
    <glyph glyph-name="Aacute" unicode="&#xc1;" 
d="M228 154q-46 4 -63 -5t-22 -41q-4 -22 -5.5 -50.5t0.5 -51.5q-18 -1 -38 0q-17 0 -40 1t-49 3q5 39 10.5 86t11.5 96.5t11.5 99.5t10.5 95t9.5 83.5t6.5 64.5t-6 34.5t-37 3.5q-2 24 -2.5 46t-1.5 39q-1 20 -1 38q67 7 142.5 11t137.5 5q4 -40 10 -97t12.5 -122
t13.5 -134.5t13 -134t11 -120.5t8 -95q-20 -2 -42 -4q-19 -2 -43.5 -3.5t-50.5 -2.5q0 15 -0.5 35t-1.5 41.5t-2.5 42.5t-2.5 36zM182 562q-5 -24 -10.5 -59t-9 -72t-5.5 -71.5t-1 -55.5q2 -22 10 -30.5t26 -8.5q28 0 28 28q0 24 -2 61t-5 76t-7 75t-8 58q-2 10 -8 10
t-8 -11zM304 877q-4 -14 -10.5 -29.5t-15.5 -31.5t-18.5 -30t-19.5 -24q-30 -32 -73 -23q-10 2 -25 9.5t-29 18.5q11 20 20 34.5t14 24.5q6 11 10 19q8 -6 19.5 -7t20.5 7q10 8 20 24.5t17 36.5q6 -4 17 -8q9 -4 22 -9.5t31 -11.5z" />
    <glyph glyph-name="Agrave" unicode="&#xc0;" 
d="M225 154q-46 4 -63 -5t-22 -41q-4 -22 -5.5 -50.5t0.5 -51.5q-18 -1 -38 0q-17 0 -40 1t-49 3q5 39 10.5 86t11.5 96.5t11.5 99.5t10.5 95t9.5 83.5t6.5 64.5t-6 34.5t-37 3.5q-2 24 -2.5 46t-1.5 39q-1 20 -1 38q67 7 142.5 11t137.5 5q4 -40 10 -97t12.5 -122
t13.5 -134.5t13 -134t11 -120.5t8 -95q-20 -2 -42 -4q-19 -2 -43.5 -3.5t-50.5 -2.5q0 15 -0.5 35t-1.5 41.5t-2.5 42.5t-2.5 36zM179 562q-5 -24 -10.5 -59t-9 -72t-5.5 -71.5t-1 -55.5q2 -22 10 -30.5t26 -8.5q28 0 28 28q0 24 -2 61t-5 76t-7 75t-8 58q-2 10 -8 10
t-8 -11zM70 877q17 6 30.5 11.5t22.5 9.5q11 4 17 8q7 -20 17 -36.5t20 -24.5q9 -8 20.5 -7t19.5 7q4 -8 10 -19q5 -10 13.5 -24.5t20.5 -34.5q-14 -11 -29 -18.5t-25 -9.5q-43 -9 -73 23q-10 10 -19.5 24t-18.5 30t-15.5 31.5t-10.5 29.5z" />
    <glyph glyph-name="Acircumflex" unicode="&#xc2;" 
d="M228 154q-46 4 -63 -5t-22 -41q-4 -22 -5.5 -50.5t0.5 -51.5q-18 -1 -38 0q-17 0 -40 1t-49 3q5 39 10.5 86t11.5 96.5t11.5 99.5t10.5 95t9.5 83.5t6.5 64.5t-6 34.5t-37 3.5q-2 24 -2.5 46t-1.5 39q-1 20 -1 38q67 7 142.5 11t137.5 5q4 -40 10 -97t12.5 -122
t13.5 -134.5t13 -134t11 -120.5t8 -95q-20 -2 -42 -4q-19 -2 -43.5 -3.5t-50.5 -2.5q0 15 -0.5 35t-1.5 41.5t-2.5 42.5t-2.5 36zM182 562q-5 -24 -10.5 -59t-9 -72t-5.5 -71.5t-1 -55.5q2 -22 10 -30.5t26 -8.5q28 0 28 28q0 24 -2 61t-5 76t-7 75t-8 58q-2 10 -8 10
t-8 -11zM56 787q9 9 22 23q11 12 28 31t40 45q10 -1 23 -1h27t37 1q5 -8 16 -21q10 -11 27 -31t45 -50q-8 -4 -19 -10q-10 -5 -25.5 -14.5t-36.5 -22.5q-6 8 -14 19q-7 9 -16.5 21t-21.5 28q-5 -4 -14 -13q-8 -8 -19.5 -21t-29.5 -33q-6 5 -16 12q-8 6 -21.5 15t-31.5 22z
" />
    <glyph glyph-name="Adieresis" unicode="&#xc4;" 
d="M228 154q-46 4 -63 -5t-22 -41q-4 -22 -5.5 -50.5t0.5 -51.5q-18 -1 -38 0q-17 0 -40 1t-49 3q5 39 10.5 86t11.5 96.5t11.5 99.5t10.5 95t9.5 83.5t6.5 64.5t-6 34.5t-37 3.5q-2 24 -2.5 46t-1.5 39q-1 20 -1 38q67 7 142.5 11t137.5 5q4 -40 10 -97t12.5 -122
t13.5 -134.5t13 -134t11 -120.5t8 -95q-20 -2 -42 -4q-19 -2 -43.5 -3.5t-50.5 -2.5q0 15 -0.5 35t-1.5 41.5t-2.5 42.5t-2.5 36zM182 562q-5 -24 -10.5 -59t-9 -72t-5.5 -71.5t-1 -55.5q2 -22 10 -30.5t26 -8.5q28 0 28 28q0 24 -2 61t-5 76t-7 75t-8 58q-2 10 -8 10
t-8 -11zM122 863q28 0 42 -17t14 -43q0 -29 -17.5 -47t-46.5 -18t-44.5 16.5t-15.5 42.5q0 29 18 47.5t50 18.5zM267 862q27 0 41.5 -17t14.5 -43q0 -29 -17.5 -47t-46.5 -18t-44.5 16.5t-15.5 42.5q0 29 18 47.5t50 18.5z" />
    <glyph glyph-name="Atilde" unicode="&#xc3;" 
d="M228 154q-46 4 -63 -5t-22 -41q-4 -22 -5.5 -50.5t0.5 -51.5q-18 -1 -38 0q-17 0 -40 1t-49 3q5 39 10.5 86t11.5 96.5t11.5 99.5t10.5 95t9.5 83.5t6.5 64.5t-6 34.5t-37 3.5q-2 24 -2.5 46t-1.5 39q-1 20 -1 38q67 7 142.5 11t137.5 5q4 -40 10 -97t12.5 -122
t13.5 -134.5t13 -134t11 -120.5t8 -95q-20 -2 -42 -4q-19 -2 -43.5 -3.5t-50.5 -2.5q0 15 -0.5 35t-1.5 41.5t-2.5 42.5t-2.5 36zM182 562q-5 -24 -10.5 -59t-9 -72t-5.5 -71.5t-1 -55.5q2 -22 10 -30.5t26 -8.5q28 0 28 28q0 24 -2 61t-5 76t-7 75t-8 58q-2 10 -8 10
t-8 -11zM132 875q21 0 35.5 -7t26 -16t21 -16t20.5 -7q7 0 11.5 6t-0.5 23h15h19q11 0 21 -0.5t17 -0.5q5 -13 7.5 -29.5t0.5 -33.5q-2 -27 -21 -42t-50 -15q-21 0 -36.5 10t-27.5 22l-22 22t-20 10q-14 0 -16.5 -16t3.5 -34q-15 -3 -38 -4t-37 -3q-4 14 -6.5 31.5
t-1.5 31.5q2 32 21.5 50t57.5 18z" />
    <glyph glyph-name="Aring" unicode="&#xc5;" 
d="M228 154q-46 4 -63 -5t-22 -41q-4 -22 -5.5 -50.5t0.5 -51.5q-18 -1 -38 0q-17 0 -40 1t-49 3q5 39 10.5 86t11.5 96.5t11.5 99.5t10.5 95t9.5 83.5t6.5 64.5t-6 34.5t-37 3.5q-2 24 -2.5 46t-1.5 39q-1 20 -1 38q67 7 142.5 11t137.5 5q4 -40 10 -97t12.5 -122
t13.5 -134.5t13 -134t11 -120.5t8 -95q-20 -2 -42 -4q-19 -2 -43.5 -3.5t-50.5 -2.5q0 15 -0.5 35t-1.5 41.5t-2.5 42.5t-2.5 36zM182 562q-5 -24 -10.5 -59t-9 -72t-5.5 -71.5t-1 -55.5q2 -22 10 -30.5t26 -8.5q28 0 28 28q0 24 -2 61t-5 76t-7 75t-8 58q-2 10 -8 10
t-8 -11zM180 737q-46 0 -65.5 21t-19.5 57q0 45 22.5 66t73.5 21t70.5 -18.5t19.5 -59.5q0 -51 -22.5 -69t-78.5 -18zM193 844q-21 0 -29.5 -8t-8.5 -27q0 -14 7 -22t27 -8q17 0 26.5 7.5t9.5 27.5q0 14 -6 22t-26 8z" />
    <glyph glyph-name="Ccedilla" unicode="&#xc7;" horiz-adv-x="342" 
d="M332 440q-20 -1 -41.5 -1.5t-39.5 -1.5q-21 -1 -41 -3q1 29 0.5 61t-2.5 54q-2 23 -21 23q-25 0 -28 -31q-5 -41 -8 -95t-3 -109q0 -54 3 -104.5t9 -84.5q4 -19 12 -25.5t20 -6.5q19 0 22 20q3 24 2 59.5t-3 65.5q20 -1 40 -0.5t37 1.5q19 1 37 1q-4 -42 -2 -91t-2 -94
q-5 -50 -37.5 -74t-86.5 -24q-35 0 -61 7t-45 22.5t-31.5 39.5t-21.5 58q-12 49 -18 115t-6.5 134t3.5 131t11 105q6 38 18 63.5t31.5 41t47 22t65.5 6.5q66 0 97 -27.5t35 -90.5q2 -41 2.5 -83.5t5.5 -83.5zM102 -102q7 6 16 13q8 6 18 14t24 17q23 16 49.5 14t43.5 -21
q6 -8 11.5 -15t10.5 -13q5 -7 9 -14q-29 -20 -51 -36.5t-37 -27.5q-18 -13 -30 -23q-14 20 -25 37t-20 29q-11 14 -19 26z" />
    <glyph glyph-name="Eacute" unicode="&#xc9;" horiz-adv-x="304" 
d="M151 250q-2 -21 -1.5 -48t2.5 -44t9 -23t24 -7q21 -1 51 2.5t54 8.5q1 -21 2 -45q1 -20 0.5 -45.5t-1.5 -52.5q-29 -7 -65.5 -11.5t-66.5 -4.5q-39 0 -64.5 9t-41 27t-23 44t-9.5 60q-3 50 -4.5 123t-0.5 153.5t3.5 160t6.5 142.5q63 4 128.5 4.5t128.5 -3.5q1 -20 2 -43
q1 -20 1 -47v-55q-29 2 -61.5 2.5t-52.5 -2.5q-17 -2 -22.5 -10.5t-7.5 -22.5q-2 -24 -2.5 -53.5t1.5 -53.5q1 -31 30 -39q16 -5 44 -7t53 0v-36v-36q0 -19 1 -38q-18 0 -38 -1q-37 -2 -80 -8zM269 869q-4 -14 -10.5 -29.5t-15.5 -31.5t-18.5 -30t-19.5 -24q-30 -32 -73 -23
q-10 2 -25 9.5t-29 18.5q11 20 20 34.5t14 24.5q6 11 10 19q8 -6 19.5 -7t20.5 7q10 8 20 24.5t17 36.5q6 -4 17 -8q9 -4 22 -9.5t31 -11.5z" />
    <glyph glyph-name="Egrave" unicode="&#xc8;" horiz-adv-x="304" 
d="M151 250q-2 -21 -1.5 -48t2.5 -44t9 -23t24 -7q21 -1 51 2.5t54 8.5q1 -21 2 -45q1 -20 0.5 -45.5t-1.5 -52.5q-29 -7 -65.5 -11.5t-66.5 -4.5q-39 0 -64.5 9t-41 27t-23 44t-9.5 60q-3 50 -4.5 123t-0.5 153.5t3.5 160t6.5 142.5q63 4 128.5 4.5t128.5 -3.5q1 -20 2 -43
q1 -20 1 -47v-55q-29 2 -61.5 2.5t-52.5 -2.5q-17 -2 -22.5 -10.5t-7.5 -22.5q-2 -24 -2.5 -53.5t1.5 -53.5q1 -31 30 -39q16 -5 44 -7t53 0v-36v-36q0 -19 1 -38q-18 0 -38 -1q-37 -2 -80 -8zM38 869q17 6 30.5 11.5t22.5 9.5q11 4 17 8q7 -20 17 -36.5t20 -24.5
q9 -8 20.5 -7t19.5 7q4 -8 10 -19q5 -10 13.5 -24.5t20.5 -34.5q-14 -11 -29 -18.5t-25 -9.5q-43 -9 -73 23q-10 10 -19.5 24t-18.5 30t-15.5 31.5t-10.5 29.5z" />
    <glyph glyph-name="Ecircumflex" unicode="&#xca;" horiz-adv-x="304" 
d="M151 250q-2 -21 -1.5 -48t2.5 -44t9 -23t24 -7q21 -1 51 2.5t54 8.5q1 -21 2 -45q1 -20 0.5 -45.5t-1.5 -52.5q-29 -7 -65.5 -11.5t-66.5 -4.5q-39 0 -64.5 9t-41 27t-23 44t-9.5 60q-3 50 -4.5 123t-0.5 153.5t3.5 160t6.5 142.5q63 4 128.5 4.5t128.5 -3.5q1 -20 2 -43
q1 -20 1 -47v-55q-29 2 -61.5 2.5t-52.5 -2.5q-17 -2 -22.5 -10.5t-7.5 -22.5q-2 -24 -2.5 -53.5t1.5 -53.5q1 -31 30 -39q16 -5 44 -7t53 0v-36v-36q0 -19 1 -38q-18 0 -38 -1q-37 -2 -80 -8zM22 779q9 9 22 23q11 12 28 31t40 45q10 -1 23 -1h27t37 1q5 -8 16 -21
q10 -11 27 -31t45 -50q-8 -4 -19 -10q-10 -5 -25.5 -14.5t-36.5 -22.5q-6 8 -14 19q-7 9 -16.5 21t-21.5 28q-5 -4 -14 -13q-8 -8 -19.5 -21t-29.5 -33q-6 5 -16 12q-8 6 -21.5 15t-31.5 22z" />
    <glyph glyph-name="Edieresis" unicode="&#xcb;" horiz-adv-x="304" 
d="M151 250q-2 -21 -1.5 -48t2.5 -44t9 -23t24 -7q21 -1 51 2.5t54 8.5q1 -21 2 -45q1 -20 0.5 -45.5t-1.5 -52.5q-29 -7 -65.5 -11.5t-66.5 -4.5q-39 0 -64.5 9t-41 27t-23 44t-9.5 60q-3 50 -4.5 123t-0.5 153.5t3.5 160t6.5 142.5q63 4 128.5 4.5t128.5 -3.5q1 -20 2 -43
q1 -20 1 -47v-55q-29 2 -61.5 2.5t-52.5 -2.5q-17 -2 -22.5 -10.5t-7.5 -22.5q-2 -24 -2.5 -53.5t1.5 -53.5q1 -31 30 -39q16 -5 44 -7t53 0v-36v-36q0 -19 1 -38q-18 0 -38 -1q-37 -2 -80 -8zM88 855q28 0 42 -17t14 -43q0 -29 -17.5 -47t-46.5 -18t-44.5 16.5t-15.5 42.5
q0 29 18 47.5t50 18.5zM233 854q27 0 41.5 -17t14.5 -43q0 -29 -17.5 -47t-46.5 -18t-44.5 16.5t-15.5 42.5q0 29 18 47.5t50 18.5z" />
    <glyph glyph-name="Iacute" unicode="&#xcd;" horiz-adv-x="197" 
d="M31 699q24 -2 48.5 -3t44.5 -1q23 -1 44 0q-1 -48 -1.5 -108t-1 -125t-0.5 -132q0 -66 1 -127t2.5 -113.5t3.5 -88.5q-26 -1 -52 -1.5t-46 -2.5q-24 -2 -46 -4q1 37 2.5 93t2.5 121.5t1 135.5v136t-1 123.5t-2 96.5zM217 864q-4 -14 -10.5 -29.5t-15.5 -31.5t-18.5 -30
t-19.5 -24q-30 -32 -73 -23q-10 2 -25 9.5t-29 18.5q11 20 20 34.5t14 24.5q6 11 10 19q8 -6 19.5 -7t20.5 7q10 8 20 24.5t17 36.5q6 -4 17 -8q9 -4 22 -9.5t31 -11.5z" />
    <glyph glyph-name="Igrave" unicode="&#xcc;" horiz-adv-x="201" 
d="M31 699q24 -2 48.5 -3t44.5 -1q23 -1 44 0q-1 -48 -1.5 -108t-1 -125t-0.5 -132q0 -66 1 -127t2.5 -113.5t3.5 -88.5q-26 -1 -52 -1.5t-46 -2.5q-24 -2 -46 -4q1 37 2.5 93t2.5 121.5t1 135.5v136t-1 123.5t-2 96.5zM-14 864q17 6 30.5 11.5t22.5 9.5q11 4 17 8
q7 -20 17 -36.5t20 -24.5q9 -8 20.5 -7t19.5 7q4 -8 10 -19q5 -10 13.5 -24.5t20.5 -34.5q-14 -11 -29 -18.5t-25 -9.5q-43 -9 -73 23q-10 10 -19.5 24t-18.5 30t-15.5 31.5t-10.5 29.5z" />
    <glyph glyph-name="Icircumflex" unicode="&#xce;" horiz-adv-x="194" 
d="M28 699q24 -2 48.5 -3t44.5 -1q23 -1 44 0q-1 -48 -1.5 -108t-1 -125t-0.5 -132q0 -66 1 -127t2.5 -113.5t3.5 -88.5q-26 -1 -52 -1.5t-46 -2.5q-24 -2 -46 -4q1 37 2.5 93t2.5 121.5t1 135.5v136t-1 123.5t-2 96.5zM-34 774q9 9 22 23q11 12 28 31t40 45q10 -1 23 -1h27
t37 1q5 -8 16 -21q10 -11 27 -31t45 -50q-8 -4 -19 -10q-10 -5 -25.5 -14.5t-36.5 -22.5q-6 8 -14 19q-7 9 -16.5 21t-21.5 28q-5 -4 -14 -13q-8 -8 -19.5 -21t-29.5 -33q-6 5 -16 12q-8 6 -21.5 15t-31.5 22z" />
    <glyph glyph-name="Idieresis" unicode="&#xcf;" horiz-adv-x="194" 
d="M28 699q24 -2 48.5 -3t44.5 -1q23 -1 44 0q-1 -48 -1.5 -108t-1 -125t-0.5 -132q0 -66 1 -127t2.5 -113.5t3.5 -88.5q-26 -1 -52 -1.5t-46 -2.5q-24 -2 -46 -4q1 37 2.5 93t2.5 121.5t1 135.5v136t-1 123.5t-2 96.5zM32 850q28 0 42 -17t14 -43q0 -29 -17.5 -47
t-46.5 -18t-44.5 16.5t-15.5 42.5q0 29 18 47.5t50 18.5zM177 849q27 0 41.5 -17t14.5 -43q0 -29 -17.5 -47t-46.5 -18t-44.5 16.5t-15.5 42.5q0 29 18 47.5t50 18.5z" />
    <glyph glyph-name="Ntilde" unicode="&#xd1;" horiz-adv-x="408" 
d="M384 2q-14 -7 -40.5 -11t-49.5 -4q-54 0 -76.5 20.5t-30.5 67.5q-10 54 -17.5 108.5t-14.5 110.5t-14.5 114t-17.5 121q0 -60 1 -128.5t3 -139t5 -138t6 -125.5h-11h-27t-39 0.5t-45 1.5q3 69 5 162t3 191t1.5 189.5t-0.5 157.5q14 2 38.5 3.5t51 2t51 1t39.5 0.5
q11 -72 20 -138.5t18 -134.5t20 -141t26 -159q-2 65 -4 142t-5.5 153t-8 146t-9.5 122h44t37.5 -1t26.5 -1h10q-1 -68 -1.5 -156t0 -181.5t1.5 -186t4 -169.5zM148 870q21 0 35.5 -7t26 -16t21 -16t20.5 -7q7 0 11.5 6t-0.5 23h15h19q11 0 21 -0.5t17 -0.5q5 -13 7.5 -29.5
t0.5 -33.5q-2 -27 -21 -42t-50 -15q-21 0 -36.5 10t-27.5 22l-22 22t-20 10q-14 0 -16.5 -16t3.5 -34q-15 -3 -38 -4t-37 -3q-4 14 -6.5 31.5t-1.5 31.5q2 32 21.5 50t57.5 18z" />
    <glyph glyph-name="Oacute" unicode="&#xd3;" horiz-adv-x="367" 
d="M188 588q-14 0 -19.5 -6t-8.5 -25q-4 -24 -6 -58.5t-3 -74t-0.5 -81.5t2.5 -80t4.5 -70t6.5 -51q3 -15 11 -25t24 -10q14 0 20 5.5t8 19.5t4 44t2.5 69t0.5 82q0 44 -1 84t-2.5 73.5t-3.5 51.5q-3 29 -11 40.5t-28 11.5zM172 729q46 0 78 -10t52 -31t31 -53t16 -75
q3 -24 3.5 -61.5t0 -81t-2 -90.5t-3.5 -89.5t-4.5 -77.5t-5.5 -56q-5 -36 -14.5 -59.5t-26.5 -38t-43 -20.5t-62 -6q-75 0 -110 34t-46 94q-9 46 -13.5 107.5t-5.5 127t2 129.5t11 116q6 39 16 66t27 43.5t41.5 24t58.5 7.5zM300 894q-4 -14 -10.5 -29.5t-15.5 -31.5
t-18.5 -30t-19.5 -24q-30 -32 -73 -23q-10 2 -25 9.5t-29 18.5q11 20 20 34.5t14 24.5q6 11 10 19q8 -6 19.5 -7t20.5 7q10 8 20 24.5t17 36.5q6 -4 17 -8q9 -4 22 -9.5t31 -11.5z" />
    <glyph glyph-name="Ograve" unicode="&#xd2;" horiz-adv-x="367" 
d="M188 588q-14 0 -19.5 -6t-8.5 -25q-4 -24 -6 -58.5t-3 -74t-0.5 -81.5t2.5 -80t4.5 -70t6.5 -51q3 -15 11 -25t24 -10q14 0 20 5.5t8 19.5t4 44t2.5 69t0.5 82q0 44 -1 84t-2.5 73.5t-3.5 51.5q-3 29 -11 40.5t-28 11.5zM172 729q46 0 78 -10t52 -31t31 -53t16 -75
q3 -24 3.5 -61.5t0 -81t-2 -90.5t-3.5 -89.5t-4.5 -77.5t-5.5 -56q-5 -36 -14.5 -59.5t-26.5 -38t-43 -20.5t-62 -6q-75 0 -110 34t-46 94q-9 46 -13.5 107.5t-5.5 127t2 129.5t11 116q6 39 16 66t27 43.5t41.5 24t58.5 7.5zM69 894q17 6 30.5 11.5t22.5 9.5q11 4 17 8
q7 -20 17 -36.5t20 -24.5q9 -8 20.5 -7t19.5 7q4 -8 10 -19q5 -10 13.5 -24.5t20.5 -34.5q-14 -11 -29 -18.5t-25 -9.5q-43 -9 -73 23q-10 10 -19.5 24t-18.5 30t-15.5 31.5t-10.5 29.5z" />
    <glyph glyph-name="Ocircumflex" unicode="&#xd4;" horiz-adv-x="367" 
d="M188 588q-14 0 -19.5 -6t-8.5 -25q-4 -24 -6 -58.5t-3 -74t-0.5 -81.5t2.5 -80t4.5 -70t6.5 -51q3 -15 11 -25t24 -10q14 0 20 5.5t8 19.5t4 44t2.5 69t0.5 82q0 44 -1 84t-2.5 73.5t-3.5 51.5q-3 29 -11 40.5t-28 11.5zM172 729q46 0 78 -10t52 -31t31 -53t16 -75
q3 -24 3.5 -61.5t0 -81t-2 -90.5t-3.5 -89.5t-4.5 -77.5t-5.5 -56q-5 -36 -14.5 -59.5t-26.5 -38t-43 -20.5t-62 -6q-75 0 -110 34t-46 94q-9 46 -13.5 107.5t-5.5 127t2 129.5t11 116q6 39 16 66t27 43.5t41.5 24t58.5 7.5zM52 804q9 9 22 23q11 12 28 31t40 45
q10 -1 23 -1h27t37 1q5 -8 16 -21q10 -11 27 -31t45 -50q-8 -4 -19 -10q-10 -5 -25.5 -14.5t-36.5 -22.5q-6 8 -14 19q-7 9 -16.5 21t-21.5 28q-5 -4 -14 -13q-8 -8 -19.5 -21t-29.5 -33q-6 5 -16 12q-8 6 -21.5 15t-31.5 22z" />
    <glyph glyph-name="Odieresis" unicode="&#xd6;" horiz-adv-x="367" 
d="M188 588q-14 0 -19.5 -6t-8.5 -25q-4 -24 -6 -58.5t-3 -74t-0.5 -81.5t2.5 -80t4.5 -70t6.5 -51q3 -15 11 -25t24 -10q14 0 20 5.5t8 19.5t4 44t2.5 69t0.5 82q0 44 -1 84t-2.5 73.5t-3.5 51.5q-3 29 -11 40.5t-28 11.5zM172 729q46 0 78 -10t52 -31t31 -53t16 -75
q3 -24 3.5 -61.5t0 -81t-2 -90.5t-3.5 -89.5t-4.5 -77.5t-5.5 -56q-5 -36 -14.5 -59.5t-26.5 -38t-43 -20.5t-62 -6q-75 0 -110 34t-46 94q-9 46 -13.5 107.5t-5.5 127t2 129.5t11 116q6 39 16 66t27 43.5t41.5 24t58.5 7.5zM118 880q28 0 42 -17t14 -43q0 -29 -17.5 -47
t-46.5 -18t-44.5 16.5t-15.5 42.5q0 29 18 47.5t50 18.5zM263 879q27 0 41.5 -17t14.5 -43q0 -29 -17.5 -47t-46.5 -18t-44.5 16.5t-15.5 42.5q0 29 18 47.5t50 18.5z" />
    <glyph glyph-name="Otilde" unicode="&#xd5;" horiz-adv-x="367" 
d="M188 588q-14 0 -19.5 -6t-8.5 -25q-4 -24 -6 -58.5t-3 -74t-0.5 -81.5t2.5 -80t4.5 -70t6.5 -51q3 -15 11 -25t24 -10q14 0 20 5.5t8 19.5t4 44t2.5 69t0.5 82q0 44 -1 84t-2.5 73.5t-3.5 51.5q-3 29 -11 40.5t-28 11.5zM172 729q46 0 78 -10t52 -31t31 -53t16 -75
q3 -24 3.5 -61.5t0 -81t-2 -90.5t-3.5 -89.5t-4.5 -77.5t-5.5 -56q-5 -36 -14.5 -59.5t-26.5 -38t-43 -20.5t-62 -6q-75 0 -110 34t-46 94q-9 46 -13.5 107.5t-5.5 127t2 129.5t11 116q6 39 16 66t27 43.5t41.5 24t58.5 7.5zM128 892q21 0 35.5 -7t26 -16t21 -16t20.5 -7
q7 0 11.5 6t-0.5 23h15h19q11 0 21 -0.5t17 -0.5q5 -13 7.5 -29.5t0.5 -33.5q-2 -27 -21 -42t-50 -15q-21 0 -36.5 10t-27.5 22l-22 22t-20 10q-14 0 -16.5 -16t3.5 -34q-15 -3 -38 -4t-37 -3q-4 14 -6.5 31.5t-1.5 31.5q2 32 21.5 50t57.5 18z" />
    <glyph glyph-name="Uacute" unicode="&#xda;" horiz-adv-x="359" 
d="M15 696q15 -2 34 -3.5t38 -2.5t36.5 -1.5t30.5 -0.5q-9 -129 -10.5 -253.5t3.5 -249.5q2 -34 9.5 -48.5t24.5 -13.5q17 0 25 14t8 36q-1 72 -2.5 140t-4.5 134t-7 131.5t-10 134.5q65 -2 106 0q23 1 42 2q-4 -71 -3 -143.5t3 -145t4.5 -143t1.5 -135.5q-1 -50 -11 -84
t-31 -54.5t-53 -29t-76 -8.5q-47 0 -77.5 12t-48.5 37.5t-25 66t-6 97.5q2 115 3 242.5t-4 268.5zM295 880q-4 -14 -10.5 -29.5t-15.5 -31.5t-18.5 -30t-19.5 -24q-30 -32 -73 -23q-10 2 -25 9.5t-29 18.5q11 20 20 34.5t14 24.5q6 11 10 19q8 -6 19.5 -7t20.5 7
q10 8 20 24.5t17 36.5q6 -4 17 -8q9 -4 22 -9.5t31 -11.5z" />
    <glyph glyph-name="Ugrave" unicode="&#xd9;" horiz-adv-x="359" 
d="M15 696q15 -2 34 -3.5t38 -2.5t36.5 -1.5t30.5 -0.5q-9 -129 -10.5 -253.5t3.5 -249.5q2 -34 9.5 -48.5t24.5 -13.5q17 0 25 14t8 36q-1 72 -2.5 140t-4.5 134t-7 131.5t-10 134.5q65 -2 106 0q23 1 42 2q-4 -71 -3 -143.5t3 -145t4.5 -143t1.5 -135.5q-1 -50 -11 -84
t-31 -54.5t-53 -29t-76 -8.5q-47 0 -77.5 12t-48.5 37.5t-25 66t-6 97.5q2 115 3 242.5t-4 268.5zM64 880q17 6 30.5 11.5t22.5 9.5q11 4 17 8q7 -20 17 -36.5t20 -24.5q9 -8 20.5 -7t19.5 7q4 -8 10 -19q5 -10 13.5 -24.5t20.5 -34.5q-14 -11 -29 -18.5t-25 -9.5
q-43 -9 -73 23q-10 10 -19.5 24t-18.5 30t-15.5 31.5t-10.5 29.5z" />
    <glyph glyph-name="Ucircumflex" unicode="&#xdb;" horiz-adv-x="359" 
d="M15 696q15 -2 34 -3.5t38 -2.5t36.5 -1.5t30.5 -0.5q-9 -129 -10.5 -253.5t3.5 -249.5q2 -34 9.5 -48.5t24.5 -13.5q17 0 25 14t8 36q-1 72 -2.5 140t-4.5 134t-7 131.5t-10 134.5q65 -2 106 0q23 1 42 2q-4 -71 -3 -143.5t3 -145t4.5 -143t1.5 -135.5q-1 -50 -11 -84
t-31 -54.5t-53 -29t-76 -8.5q-47 0 -77.5 12t-48.5 37.5t-25 66t-6 97.5q2 115 3 242.5t-4 268.5zM47 790q9 9 22 23q11 12 28 31t40 45q10 -1 23 -1h27t37 1q5 -8 16 -21q10 -11 27 -31t45 -50q-8 -4 -19 -10q-10 -5 -25.5 -14.5t-36.5 -22.5q-6 8 -14 19q-7 9 -16.5 21
t-21.5 28q-5 -4 -14 -13q-8 -8 -19.5 -21t-29.5 -33q-6 5 -16 12q-8 6 -21.5 15t-31.5 22z" />
    <glyph glyph-name="Udieresis" unicode="&#xdc;" horiz-adv-x="359" 
d="M15 696q15 -2 34 -3.5t38 -2.5t36.5 -1.5t30.5 -0.5q-9 -129 -10.5 -253.5t3.5 -249.5q2 -34 9.5 -48.5t24.5 -13.5q17 0 25 14t8 36q-1 72 -2.5 140t-4.5 134t-7 131.5t-10 134.5q65 -2 106 0q23 1 42 2q-4 -71 -3 -143.5t3 -145t4.5 -143t1.5 -135.5q-1 -50 -11 -84
t-31 -54.5t-53 -29t-76 -8.5q-47 0 -77.5 12t-48.5 37.5t-25 66t-6 97.5q2 115 3 242.5t-4 268.5zM113 866q28 0 42 -17t14 -43q0 -29 -17.5 -47t-46.5 -18t-44.5 16.5t-15.5 42.5q0 29 18 47.5t50 18.5zM258 865q27 0 41.5 -17t14.5 -43q0 -29 -17.5 -47t-46.5 -18
t-44.5 16.5t-15.5 42.5q0 29 18 47.5t50 18.5z" />
    <glyph glyph-name="Ydieresis" unicode="&#x178;" horiz-adv-x="361" 
d="M12 708q40 -1 74 0t72 5q-4 -35 -6 -70.5t-2.5 -74.5t0.5 -82t4 -94q2 -26 9.5 -35.5t22.5 -8.5q7 0 11 5t6 12.5t3 16t1 15.5q4 79 2.5 149t-9.5 146q33 -3 70.5 -3.5t69.5 1.5q-3 -69 -2 -136.5t2.5 -134t3 -132t-0.5 -128.5q-2 -48 -11 -81.5t-28.5 -53.5t-52 -29
t-82.5 -9q-17 0 -37.5 1.5t-41.5 4.5t-41 7.5t-36 10.5q9 73 12 108q2 20 3 34q32 -10 70 -13.5t69 1.5q32 5 43 31t5 72q-14 -3 -33 -5.5t-39 -3t-39 1t-32 6.5q-29 10 -43.5 41t-12.5 88q4 89 2.5 172t-6.5 165zM115 864q28 0 42 -17t14 -43q0 -29 -17.5 -47t-46.5 -18
t-44.5 16.5t-15.5 42.5q0 29 18 47.5t50 18.5zM260 863q27 0 41.5 -17t14.5 -43q0 -29 -17.5 -47t-46.5 -18t-44.5 16.5t-15.5 42.5q0 29 18 47.5t50 18.5z" />
    <glyph glyph-name="aacute" unicode="&#xe1;" horiz-adv-x="365" 
d="M31 365q1 24 0.5 52t-1.5 56.5t-1 56.5t2 52q7 77 53.5 109.5t118.5 32.5q56 0 86.5 -28t37.5 -89q3 -33 4 -74t0.5 -85t-2 -87.5t-3 -82.5t-2 -70.5t1.5 -49.5q2 -20 9.5 -27.5t25.5 -5.5l-1 -12.5t-2 -32t-1.5 -44.5t0.5 -52q-49 -6 -82.5 9.5t-44.5 64.5
q-19 -33 -49.5 -52t-70.5 -19q-84 0 -99 88q-4 23 -5 51t1 52q3 27 9 47.5t19 36.5t34 27.5t53 20.5q26 7 42.5 15.5t26.5 19t14.5 23.5t6.5 30q1 12 1.5 28t0.5 33t-0.5 34t-1.5 31q-3 45 -32 45q-13 0 -19 -9.5t-7 -25.5q-2 -35 -2 -78q0 -42 4 -76q-19 -1 -39 -3
q-17 -2 -39.5 -4.5t-46.5 -7.5zM173 220q-27 -13 -35 -27t-8 -39q0 -20 8.5 -27t19.5 -7q58 0 54 129q-14 -17 -39 -29zM298 889q-4 -14 -10.5 -29.5t-15.5 -31.5t-18.5 -30t-19.5 -24q-30 -32 -73 -23q-10 2 -25 9.5t-29 18.5q11 20 20 34.5t14 24.5q6 11 10 19
q8 -6 19.5 -7t20.5 7q10 8 20 24.5t17 36.5q6 -4 17 -8q9 -4 22 -9.5t31 -11.5z" />
    <glyph glyph-name="agrave" unicode="&#xe0;" horiz-adv-x="365" 
d="M31 365q1 24 0.5 52t-1.5 56.5t-1 56.5t2 52q7 77 53.5 109.5t118.5 32.5q56 0 86.5 -28t37.5 -89q3 -33 4 -74t0.5 -85t-2 -87.5t-3 -82.5t-2 -70.5t1.5 -49.5q2 -20 9.5 -27.5t25.5 -5.5l-1 -12.5t-2 -32t-1.5 -44.5t0.5 -52q-49 -6 -82.5 9.5t-44.5 64.5
q-19 -33 -49.5 -52t-70.5 -19q-84 0 -99 88q-4 23 -5 51t1 52q3 27 9 47.5t19 36.5t34 27.5t53 20.5q26 7 42.5 15.5t26.5 19t14.5 23.5t6.5 30q1 12 1.5 28t0.5 33t-0.5 34t-1.5 31q-3 45 -32 45q-13 0 -19 -9.5t-7 -25.5q-2 -35 -2 -78q0 -42 4 -76q-19 -1 -39 -3
q-17 -2 -39.5 -4.5t-46.5 -7.5zM173 220q-27 -13 -35 -27t-8 -39q0 -20 8.5 -27t19.5 -7q58 0 54 129q-14 -17 -39 -29zM67 889q17 6 30.5 11.5t22.5 9.5q11 4 17 8q7 -20 17 -36.5t20 -24.5q9 -8 20.5 -7t19.5 7q4 -8 10 -19q5 -10 13.5 -24.5t20.5 -34.5
q-14 -11 -29 -18.5t-25 -9.5q-43 -9 -73 23q-10 10 -19.5 24t-18.5 30t-15.5 31.5t-10.5 29.5z" />
    <glyph glyph-name="acircumflex" unicode="&#xe2;" horiz-adv-x="365" 
d="M31 365q1 24 0.5 52t-1.5 56.5t-1 56.5t2 52q7 77 53.5 109.5t118.5 32.5q56 0 86.5 -28t37.5 -89q3 -33 4 -74t0.5 -85t-2 -87.5t-3 -82.5t-2 -70.5t1.5 -49.5q2 -20 9.5 -27.5t25.5 -5.5l-1 -12.5t-2 -32t-1.5 -44.5t0.5 -52q-49 -6 -82.5 9.5t-44.5 64.5
q-19 -33 -49.5 -52t-70.5 -19q-84 0 -99 88q-4 23 -5 51t1 52q3 27 9 47.5t19 36.5t34 27.5t53 20.5q26 7 42.5 15.5t26.5 19t14.5 23.5t6.5 30q1 12 1.5 28t0.5 33t-0.5 34t-1.5 31q-3 45 -32 45q-13 0 -19 -9.5t-7 -25.5q-2 -35 -2 -78q0 -42 4 -76q-19 -1 -39 -3
q-17 -2 -39.5 -4.5t-46.5 -7.5zM173 220q-27 -13 -35 -27t-8 -39q0 -20 8.5 -27t19.5 -7q58 0 54 129q-14 -17 -39 -29zM50 799q9 9 22 23q11 12 28 31t40 45q10 -1 23 -1h27t37 1q5 -8 16 -21q10 -11 27 -31t45 -50q-8 -4 -19 -10q-10 -5 -25.5 -14.5t-36.5 -22.5
q-6 8 -14 19q-7 9 -16.5 21t-21.5 28q-5 -4 -14 -13q-8 -8 -19.5 -21t-29.5 -33q-6 5 -16 12q-8 6 -21.5 15t-31.5 22z" />
    <glyph glyph-name="adieresis" unicode="&#xe4;" horiz-adv-x="365" 
d="M31 365q1 24 0.5 52t-1.5 56.5t-1 56.5t2 52q7 77 53.5 109.5t118.5 32.5q56 0 86.5 -28t37.5 -89q3 -33 4 -74t0.5 -85t-2 -87.5t-3 -82.5t-2 -70.5t1.5 -49.5q2 -20 9.5 -27.5t25.5 -5.5l-1 -12.5t-2 -32t-1.5 -44.5t0.5 -52q-49 -6 -82.5 9.5t-44.5 64.5
q-19 -33 -49.5 -52t-70.5 -19q-84 0 -99 88q-4 23 -5 51t1 52q3 27 9 47.5t19 36.5t34 27.5t53 20.5q26 7 42.5 15.5t26.5 19t14.5 23.5t6.5 30q1 12 1.5 28t0.5 33t-0.5 34t-1.5 31q-3 45 -32 45q-13 0 -19 -9.5t-7 -25.5q-2 -35 -2 -78q0 -42 4 -76q-19 -1 -39 -3
q-17 -2 -39.5 -4.5t-46.5 -7.5zM173 220q-27 -13 -35 -27t-8 -39q0 -20 8.5 -27t19.5 -7q58 0 54 129q-14 -17 -39 -29zM116 875q28 0 42 -17t14 -43q0 -29 -17.5 -47t-46.5 -18t-44.5 16.5t-15.5 42.5q0 29 18 47.5t50 18.5zM261 874q27 0 41.5 -17t14.5 -43
q0 -29 -17.5 -47t-46.5 -18t-44.5 16.5t-15.5 42.5q0 29 18 47.5t50 18.5z" />
    <glyph glyph-name="atilde" unicode="&#xe3;" horiz-adv-x="365" 
d="M31 365q1 24 0.5 52t-1.5 56.5t-1 56.5t2 52q7 77 53.5 109.5t118.5 32.5q56 0 86.5 -28t37.5 -89q3 -33 4 -74t0.5 -85t-2 -87.5t-3 -82.5t-2 -70.5t1.5 -49.5q2 -20 9.5 -27.5t25.5 -5.5l-1 -12.5t-2 -32t-1.5 -44.5t0.5 -52q-49 -6 -82.5 9.5t-44.5 64.5
q-19 -33 -49.5 -52t-70.5 -19q-84 0 -99 88q-4 23 -5 51t1 52q3 27 9 47.5t19 36.5t34 27.5t53 20.5q26 7 42.5 15.5t26.5 19t14.5 23.5t6.5 30q1 12 1.5 28t0.5 33t-0.5 34t-1.5 31q-3 45 -32 45q-13 0 -19 -9.5t-7 -25.5q-2 -35 -2 -78q0 -42 4 -76q-19 -1 -39 -3
q-17 -2 -39.5 -4.5t-46.5 -7.5zM173 220q-27 -13 -35 -27t-8 -39q0 -20 8.5 -27t19.5 -7q58 0 54 129q-14 -17 -39 -29zM126 887q21 0 35.5 -7t26 -16t21 -16t20.5 -7q7 0 11.5 6t-0.5 23h15h19q11 0 21 -0.5t17 -0.5q5 -13 7.5 -29.5t0.5 -33.5q-2 -27 -21 -42t-50 -15
q-21 0 -36.5 10t-27.5 22l-22 22t-20 10q-14 0 -16.5 -16t3.5 -34q-15 -3 -38 -4t-37 -3q-4 14 -6.5 31.5t-1.5 31.5q2 32 21.5 50t57.5 18z" />
    <glyph glyph-name="aring" unicode="&#xe5;" horiz-adv-x="365" 
d="M31 365q1 24 0.5 52t-1.5 56.5t-1 56.5t2 52q7 77 53.5 109.5t118.5 32.5q56 0 86.5 -28t37.5 -89q3 -33 4 -74t0.5 -85t-2 -87.5t-3 -82.5t-2 -70.5t1.5 -49.5q2 -20 9.5 -27.5t25.5 -5.5l-1 -12.5t-2 -32t-1.5 -44.5t0.5 -52q-49 -6 -82.5 9.5t-44.5 64.5
q-19 -33 -49.5 -52t-70.5 -19q-84 0 -99 88q-4 23 -5 51t1 52q3 27 9 47.5t19 36.5t34 27.5t53 20.5q26 7 42.5 15.5t26.5 19t14.5 23.5t6.5 30q1 12 1.5 28t0.5 33t-0.5 34t-1.5 31q-3 45 -32 45q-13 0 -19 -9.5t-7 -25.5q-2 -35 -2 -78q0 -42 4 -76q-19 -1 -39 -3
q-17 -2 -39.5 -4.5t-46.5 -7.5zM173 220q-27 -13 -35 -27t-8 -39q0 -20 8.5 -27t19.5 -7q58 0 54 129q-14 -17 -39 -29zM174 749q-46 0 -65.5 21t-19.5 57q0 45 22.5 66t73.5 21t70.5 -18.5t19.5 -59.5q0 -51 -22.5 -69t-78.5 -18zM187 856q-21 0 -29.5 -8t-8.5 -27
q0 -14 7 -22t27 -8q17 0 26.5 7.5t9.5 27.5q0 14 -6 22t-26 8z" />
    <glyph glyph-name="ccedilla" unicode="&#xe7;" horiz-adv-x="342" 
d="M332 440q-20 -1 -41.5 -1.5t-39.5 -1.5q-21 -1 -41 -3q1 29 0.5 61t-2.5 54q-2 23 -21 23q-25 0 -28 -31q-5 -41 -8 -95t-3 -109q0 -54 3 -104.5t9 -84.5q4 -19 12 -25.5t20 -6.5q19 0 22 20q3 24 2 59.5t-3 65.5q20 -1 40 -0.5t37 1.5q19 1 37 1q-4 -42 -2 -91t-2 -94
q-5 -50 -37.5 -74t-86.5 -24q-35 0 -61 7t-45 22.5t-31.5 39.5t-21.5 58q-12 49 -18 115t-6.5 134t3.5 131t11 105q6 38 18 63.5t31.5 41t47 22t65.5 6.5q66 0 97 -27.5t35 -90.5q2 -41 2.5 -83.5t5.5 -83.5zM102 -102q7 6 16 13q8 6 18 14t24 17q23 16 49.5 14t43.5 -21
q6 -8 11.5 -15t10.5 -13q5 -7 9 -14q-29 -20 -51 -36.5t-37 -27.5q-18 -13 -30 -23q-14 20 -25 37t-20 29q-11 14 -19 26z" />
    <glyph glyph-name="eacute" unicode="&#xe9;" horiz-adv-x="354" 
d="M176 -20q-37 0 -62.5 7t-43 21.5t-27.5 37t-16 53.5q-9 48 -12.5 110.5t-3 128.5t5.5 130t14 115q14 81 48 113.5t91 32.5q90 0 126 -44.5t38 -127.5q1 -39 0 -78.5t-2.5 -77t-1.5 -72.5t3 -64q-42 -6 -94 -8.5t-96 -1.5q1 -31 3 -56t5 -42q4 -20 15.5 -28t35.5 -8
q29 0 61.5 6.5t62.5 18.5q-1 -22 -2 -47q-1 -21 -1.5 -46.5t0.5 -49.5q-31 -11 -68.5 -17t-78.5 -6zM180 367q14 2 21 8.5t9 23.5q3 32 4 68t-1 69q-2 26 -6.5 37.5t-24.5 11.5q-10 0 -16 -5.5t-9 -21.5q-7 -34 -10 -85.5t-5 -107.5q8 0 18 0.5t20 1.5zM290 894
q-4 -14 -10.5 -29.5t-15.5 -31.5t-18.5 -30t-19.5 -24q-30 -32 -73 -23q-10 2 -25 9.5t-29 18.5q11 20 20 34.5t14 24.5q6 11 10 19q8 -6 19.5 -7t20.5 7q10 8 20 24.5t17 36.5q6 -4 17 -8q9 -4 22 -9.5t31 -11.5z" />
    <glyph glyph-name="egrave" unicode="&#xe8;" horiz-adv-x="354" 
d="M176 -20q-37 0 -62.5 7t-43 21.5t-27.5 37t-16 53.5q-9 48 -12.5 110.5t-3 128.5t5.5 130t14 115q14 81 48 113.5t91 32.5q90 0 126 -44.5t38 -127.5q1 -39 0 -78.5t-2.5 -77t-1.5 -72.5t3 -64q-42 -6 -94 -8.5t-96 -1.5q1 -31 3 -56t5 -42q4 -20 15.5 -28t35.5 -8
q29 0 61.5 6.5t62.5 18.5q-1 -22 -2 -47q-1 -21 -1.5 -46.5t0.5 -49.5q-31 -11 -68.5 -17t-78.5 -6zM180 367q14 2 21 8.5t9 23.5q3 32 4 68t-1 69q-2 26 -6.5 37.5t-24.5 11.5q-10 0 -16 -5.5t-9 -21.5q-7 -34 -10 -85.5t-5 -107.5q8 0 18 0.5t20 1.5zM59 894
q17 6 30.5 11.5t22.5 9.5q11 4 17 8q7 -20 17 -36.5t20 -24.5q9 -8 20.5 -7t19.5 7q4 -8 10 -19q5 -10 13.5 -24.5t20.5 -34.5q-14 -11 -29 -18.5t-25 -9.5q-43 -9 -73 23q-10 10 -19.5 24t-18.5 30t-15.5 31.5t-10.5 29.5z" />
    <glyph glyph-name="ecircumflex" unicode="&#xea;" horiz-adv-x="354" 
d="M176 -20q-37 0 -62.5 7t-43 21.5t-27.5 37t-16 53.5q-9 48 -12.5 110.5t-3 128.5t5.5 130t14 115q14 81 48 113.5t91 32.5q90 0 126 -44.5t38 -127.5q1 -39 0 -78.5t-2.5 -77t-1.5 -72.5t3 -64q-42 -6 -94 -8.5t-96 -1.5q1 -31 3 -56t5 -42q4 -20 15.5 -28t35.5 -8
q29 0 61.5 6.5t62.5 18.5q-1 -22 -2 -47q-1 -21 -1.5 -46.5t0.5 -49.5q-31 -11 -68.5 -17t-78.5 -6zM180 367q14 2 21 8.5t9 23.5q3 32 4 68t-1 69q-2 26 -6.5 37.5t-24.5 11.5q-10 0 -16 -5.5t-9 -21.5q-7 -34 -10 -85.5t-5 -107.5q8 0 18 0.5t20 1.5zM42 804q9 9 22 23
q11 12 28 31t40 45q10 -1 23 -1h27t37 1q5 -8 16 -21q10 -11 27 -31t45 -50q-8 -4 -19 -10q-10 -5 -25.5 -14.5t-36.5 -22.5q-6 8 -14 19q-7 9 -16.5 21t-21.5 28q-5 -4 -14 -13q-8 -8 -19.5 -21t-29.5 -33q-6 5 -16 12q-8 6 -21.5 15t-31.5 22z" />
    <glyph glyph-name="edieresis" unicode="&#xeb;" horiz-adv-x="354" 
d="M176 -20q-37 0 -62.5 7t-43 21.5t-27.5 37t-16 53.5q-9 48 -12.5 110.5t-3 128.5t5.5 130t14 115q14 81 48 113.5t91 32.5q90 0 126 -44.5t38 -127.5q1 -39 0 -78.5t-2.5 -77t-1.5 -72.5t3 -64q-42 -6 -94 -8.5t-96 -1.5q1 -31 3 -56t5 -42q4 -20 15.5 -28t35.5 -8
q29 0 61.5 6.5t62.5 18.5q-1 -22 -2 -47q-1 -21 -1.5 -46.5t0.5 -49.5q-31 -11 -68.5 -17t-78.5 -6zM180 367q14 2 21 8.5t9 23.5q3 32 4 68t-1 69q-2 26 -6.5 37.5t-24.5 11.5q-10 0 -16 -5.5t-9 -21.5q-7 -34 -10 -85.5t-5 -107.5q8 0 18 0.5t20 1.5zM108 880q28 0 42 -17
t14 -43q0 -29 -17.5 -47t-46.5 -18t-44.5 16.5t-15.5 42.5q0 29 18 47.5t50 18.5zM253 879q27 0 41.5 -17t14.5 -43q0 -29 -17.5 -47t-46.5 -18t-44.5 16.5t-15.5 42.5q0 29 18 47.5t50 18.5z" />
    <glyph glyph-name="iacute" unicode="&#xed;" horiz-adv-x="202" 
d="M42 512q24 -2 47.5 -2.5t42.5 -0.5h41q0 -54 -0.5 -119.5t0 -133.5t2 -133.5t4.5 -119.5q-26 -1 -52 -1.5t-46 -1.5q-24 -1 -46 -2q2 56 4 122.5t3 134.5t1 134q0 67 -1 123zM113 735q42 0 64 -26t22 -65q0 -44 -26 -70.5t-71 -26.5q-44 0 -67 25t-23 64q0 45 27 72
t74 27zM220 900q-4 -14 -10.5 -29.5t-15.5 -31.5t-18.5 -30t-19.5 -24q-30 -32 -73 -23q-10 2 -25 9.5t-29 18.5q11 20 20 34.5t14 24.5q6 11 10 19q8 -6 19.5 -7t20.5 7q10 8 20 24.5t17 36.5q6 -4 17 -8q9 -4 22 -9.5t31 -11.5z" />
    <glyph glyph-name="igrave" unicode="&#xec;" horiz-adv-x="206" 
d="M39 512q24 -2 47.5 -2.5t42.5 -0.5h41q0 -54 -0.5 -119.5t0 -133.5t2 -133.5t4.5 -119.5q-26 -1 -52 -1.5t-46 -1.5q-24 -1 -46 -2q2 56 4 122.5t3 134.5t1 134q0 67 -1 123zM110 735q42 0 64 -26t22 -65q0 -44 -26 -70.5t-71 -26.5q-44 0 -67 25t-23 64q0 45 27 72
t74 27zM-14 900q17 6 30.5 11.5t22.5 9.5q11 4 17 8q7 -20 17 -36.5t20 -24.5q9 -8 20.5 -7t19.5 7q4 -8 10 -19q5 -10 13.5 -24.5t20.5 -34.5q-14 -11 -29 -18.5t-25 -9.5q-43 -9 -73 23q-10 10 -19.5 24t-18.5 30t-15.5 31.5t-10.5 29.5z" />
    <glyph glyph-name="icircumflex" unicode="&#xee;" horiz-adv-x="199" 
d="M38 512q24 -2 47.5 -2.5t42.5 -0.5h41q0 -54 -0.5 -119.5t0 -133.5t2 -133.5t4.5 -119.5q-26 -1 -52 -1.5t-46 -1.5q-24 -1 -46 -2q2 56 4 122.5t3 134.5t1 134q0 67 -1 123zM109 735q42 0 64 -26t22 -65q0 -44 -26 -70.5t-71 -26.5q-44 0 -67 25t-23 64q0 45 27 72
t74 27zM-32 810q9 9 22 23q11 12 28 31t40 45q10 -1 23 -1h27t37 1q5 -8 16 -21q10 -11 27 -31t45 -50q-8 -4 -19 -10q-10 -5 -25.5 -14.5t-36.5 -22.5q-6 8 -14 19q-7 9 -16.5 21t-21.5 28q-5 -4 -14 -13q-8 -8 -19.5 -21t-29.5 -33q-6 5 -16 12q-8 6 -21.5 15t-31.5 22z
" />
    <glyph glyph-name="idieresis" unicode="&#xef;" horiz-adv-x="199" 
d="M38 512q24 -2 47.5 -2.5t42.5 -0.5h41q0 -54 -0.5 -119.5t0 -133.5t2 -133.5t4.5 -119.5q-26 -1 -52 -1.5t-46 -1.5q-24 -1 -46 -2q2 56 4 122.5t3 134.5t1 134q0 67 -1 123zM109 735q42 0 64 -26t22 -65q0 -44 -26 -70.5t-71 -26.5q-44 0 -67 25t-23 64q0 45 27 72
t74 27zM34 886q28 0 42 -17t14 -43q0 -29 -17.5 -47t-46.5 -18t-44.5 16.5t-15.5 42.5q0 29 18 47.5t50 18.5zM179 885q27 0 41.5 -17t14.5 -43q0 -29 -17.5 -47t-46.5 -18t-44.5 16.5t-15.5 42.5q0 29 18 47.5t50 18.5z" />
    <glyph glyph-name="ntilde" unicode="&#xf1;" horiz-adv-x="408" 
d="M384 2q-14 -7 -40.5 -11t-49.5 -4q-54 0 -76.5 20.5t-30.5 67.5q-10 54 -17.5 108.5t-14.5 110.5t-14.5 114t-17.5 121q0 -60 1 -128.5t3 -139t5 -138t6 -125.5h-11h-27t-39 0.5t-45 1.5q3 69 5 162t3 191t1.5 189.5t-0.5 157.5q14 2 38.5 3.5t51 2t51 1t39.5 0.5
q11 -72 20 -138.5t18 -134.5t20 -141t26 -159q-2 65 -4 142t-5.5 153t-8 146t-9.5 122h44t37.5 -1t26.5 -1h10q-1 -68 -1.5 -156t0 -181.5t1.5 -186t4 -169.5zM148 870q21 0 35.5 -7t26 -16t21 -16t20.5 -7q7 0 11.5 6t-0.5 23h15h19q11 0 21 -0.5t17 -0.5q5 -13 7.5 -29.5
t0.5 -33.5q-2 -27 -21 -42t-50 -15q-21 0 -36.5 10t-27.5 22l-22 22t-20 10q-14 0 -16.5 -16t3.5 -34q-15 -3 -38 -4t-37 -3q-4 14 -6.5 31.5t-1.5 31.5q2 32 21.5 50t57.5 18z" />
    <glyph glyph-name="oacute" unicode="&#xf3;" horiz-adv-x="367" 
d="M188 588q-14 0 -19.5 -6t-8.5 -25q-4 -24 -6 -58.5t-3 -74t-0.5 -81.5t2.5 -80t4.5 -70t6.5 -51q3 -15 11 -25t24 -10q14 0 20 5.5t8 19.5t4 44t2.5 69t0.5 82q0 44 -1 84t-2.5 73.5t-3.5 51.5q-3 29 -11 40.5t-28 11.5zM172 729q46 0 78 -10t52 -31t31 -53t16 -75
q3 -24 3.5 -61.5t0 -81t-2 -90.5t-3.5 -89.5t-4.5 -77.5t-5.5 -56q-5 -36 -14.5 -59.5t-26.5 -38t-43 -20.5t-62 -6q-75 0 -110 34t-46 94q-9 46 -13.5 107.5t-5.5 127t2 129.5t11 116q6 39 16 66t27 43.5t41.5 24t58.5 7.5zM300 894q-4 -14 -10.5 -29.5t-15.5 -31.5
t-18.5 -30t-19.5 -24q-30 -32 -73 -23q-10 2 -25 9.5t-29 18.5q11 20 20 34.5t14 24.5q6 11 10 19q8 -6 19.5 -7t20.5 7q10 8 20 24.5t17 36.5q6 -4 17 -8q9 -4 22 -9.5t31 -11.5z" />
    <glyph glyph-name="ograve" unicode="&#xf2;" horiz-adv-x="367" 
d="M188 588q-14 0 -19.5 -6t-8.5 -25q-4 -24 -6 -58.5t-3 -74t-0.5 -81.5t2.5 -80t4.5 -70t6.5 -51q3 -15 11 -25t24 -10q14 0 20 5.5t8 19.5t4 44t2.5 69t0.5 82q0 44 -1 84t-2.5 73.5t-3.5 51.5q-3 29 -11 40.5t-28 11.5zM172 729q46 0 78 -10t52 -31t31 -53t16 -75
q3 -24 3.5 -61.5t0 -81t-2 -90.5t-3.5 -89.5t-4.5 -77.5t-5.5 -56q-5 -36 -14.5 -59.5t-26.5 -38t-43 -20.5t-62 -6q-75 0 -110 34t-46 94q-9 46 -13.5 107.5t-5.5 127t2 129.5t11 116q6 39 16 66t27 43.5t41.5 24t58.5 7.5zM69 894q17 6 30.5 11.5t22.5 9.5q11 4 17 8
q7 -20 17 -36.5t20 -24.5q9 -8 20.5 -7t19.5 7q4 -8 10 -19q5 -10 13.5 -24.5t20.5 -34.5q-14 -11 -29 -18.5t-25 -9.5q-43 -9 -73 23q-10 10 -19.5 24t-18.5 30t-15.5 31.5t-10.5 29.5z" />
    <glyph glyph-name="ocircumflex" unicode="&#xf4;" horiz-adv-x="367" 
d="M188 588q-14 0 -19.5 -6t-8.5 -25q-4 -24 -6 -58.5t-3 -74t-0.5 -81.5t2.5 -80t4.5 -70t6.5 -51q3 -15 11 -25t24 -10q14 0 20 5.5t8 19.5t4 44t2.5 69t0.5 82q0 44 -1 84t-2.5 73.5t-3.5 51.5q-3 29 -11 40.5t-28 11.5zM172 729q46 0 78 -10t52 -31t31 -53t16 -75
q3 -24 3.5 -61.5t0 -81t-2 -90.5t-3.5 -89.5t-4.5 -77.5t-5.5 -56q-5 -36 -14.5 -59.5t-26.5 -38t-43 -20.5t-62 -6q-75 0 -110 34t-46 94q-9 46 -13.5 107.5t-5.5 127t2 129.5t11 116q6 39 16 66t27 43.5t41.5 24t58.5 7.5zM52 804q9 9 22 23q11 12 28 31t40 45
q10 -1 23 -1h27t37 1q5 -8 16 -21q10 -11 27 -31t45 -50q-8 -4 -19 -10q-10 -5 -25.5 -14.5t-36.5 -22.5q-6 8 -14 19q-7 9 -16.5 21t-21.5 28q-5 -4 -14 -13q-8 -8 -19.5 -21t-29.5 -33q-6 5 -16 12q-8 6 -21.5 15t-31.5 22z" />
    <glyph glyph-name="odieresis" unicode="&#xf6;" horiz-adv-x="367" 
d="M188 588q-14 0 -19.5 -6t-8.5 -25q-4 -24 -6 -58.5t-3 -74t-0.5 -81.5t2.5 -80t4.5 -70t6.5 -51q3 -15 11 -25t24 -10q14 0 20 5.5t8 19.5t4 44t2.5 69t0.5 82q0 44 -1 84t-2.5 73.5t-3.5 51.5q-3 29 -11 40.5t-28 11.5zM172 729q46 0 78 -10t52 -31t31 -53t16 -75
q3 -24 3.5 -61.5t0 -81t-2 -90.5t-3.5 -89.5t-4.5 -77.5t-5.5 -56q-5 -36 -14.5 -59.5t-26.5 -38t-43 -20.5t-62 -6q-75 0 -110 34t-46 94q-9 46 -13.5 107.5t-5.5 127t2 129.5t11 116q6 39 16 66t27 43.5t41.5 24t58.5 7.5zM118 880q28 0 42 -17t14 -43q0 -29 -17.5 -47
t-46.5 -18t-44.5 16.5t-15.5 42.5q0 29 18 47.5t50 18.5zM263 879q27 0 41.5 -17t14.5 -43q0 -29 -17.5 -47t-46.5 -18t-44.5 16.5t-15.5 42.5q0 29 18 47.5t50 18.5z" />
    <glyph glyph-name="otilde" unicode="&#xf5;" horiz-adv-x="367" 
d="M188 588q-14 0 -19.5 -6t-8.5 -25q-4 -24 -6 -58.5t-3 -74t-0.5 -81.5t2.5 -80t4.5 -70t6.5 -51q3 -15 11 -25t24 -10q14 0 20 5.5t8 19.5t4 44t2.5 69t0.5 82q0 44 -1 84t-2.5 73.5t-3.5 51.5q-3 29 -11 40.5t-28 11.5zM172 729q46 0 78 -10t52 -31t31 -53t16 -75
q3 -24 3.5 -61.5t0 -81t-2 -90.5t-3.5 -89.5t-4.5 -77.5t-5.5 -56q-5 -36 -14.5 -59.5t-26.5 -38t-43 -20.5t-62 -6q-75 0 -110 34t-46 94q-9 46 -13.5 107.5t-5.5 127t2 129.5t11 116q6 39 16 66t27 43.5t41.5 24t58.5 7.5zM128 892q21 0 35.5 -7t26 -16t21 -16t20.5 -7
q7 0 11.5 6t-0.5 23h15h19q11 0 21 -0.5t17 -0.5q5 -13 7.5 -29.5t0.5 -33.5q-2 -27 -21 -42t-50 -15q-21 0 -36.5 10t-27.5 22l-22 22t-20 10q-14 0 -16.5 -16t3.5 -34q-15 -3 -38 -4t-37 -3q-4 14 -6.5 31.5t-1.5 31.5q2 32 21.5 50t57.5 18z" />
    <glyph glyph-name="uacute" unicode="&#xfa;" horiz-adv-x="359" 
d="M14 696q15 -2 34 -3.5t38 -2.5t36.5 -1.5t30.5 -0.5q-9 -129 -10.5 -253.5t3.5 -249.5q2 -34 9.5 -48.5t24.5 -13.5q17 0 25 14t8 36q-1 72 -2.5 140t-4.5 134t-7 131.5t-10 134.5q65 -2 106 0q23 1 42 2q-4 -71 -3 -143.5t3 -145t4.5 -143t1.5 -135.5q-1 -50 -11 -84
t-31 -54.5t-53 -29t-76 -8.5q-47 0 -77.5 12t-48.5 37.5t-25 66t-6 97.5q2 115 3 242.5t-4 268.5zM293 880q-4 -14 -10.5 -29.5t-15.5 -31.5t-18.5 -30t-19.5 -24q-30 -32 -73 -23q-10 2 -25 9.5t-29 18.5q11 20 20 34.5t14 24.5q6 11 10 19q8 -6 19.5 -7t20.5 7
q10 8 20 24.5t17 36.5q6 -4 17 -8q9 -4 22 -9.5t31 -11.5z" />
    <glyph glyph-name="ugrave" unicode="&#xf9;" horiz-adv-x="359" 
d="M15 696q15 -2 34 -3.5t38 -2.5t36.5 -1.5t30.5 -0.5q-9 -129 -10.5 -253.5t3.5 -249.5q2 -34 9.5 -48.5t24.5 -13.5q17 0 25 14t8 36q-1 72 -2.5 140t-4.5 134t-7 131.5t-10 134.5q65 -2 106 0q23 1 42 2q-4 -71 -3 -143.5t3 -145t4.5 -143t1.5 -135.5q-1 -50 -11 -84
t-31 -54.5t-53 -29t-76 -8.5q-47 0 -77.5 12t-48.5 37.5t-25 66t-6 97.5q2 115 3 242.5t-4 268.5zM64 880q17 6 30.5 11.5t22.5 9.5q11 4 17 8q7 -20 17 -36.5t20 -24.5q9 -8 20.5 -7t19.5 7q4 -8 10 -19q5 -10 13.5 -24.5t20.5 -34.5q-14 -11 -29 -18.5t-25 -9.5
q-43 -9 -73 23q-10 10 -19.5 24t-18.5 30t-15.5 31.5t-10.5 29.5z" />
    <glyph glyph-name="ucircumflex" unicode="&#xfb;" horiz-adv-x="359" 
d="M14 696q15 -2 34 -3.5t38 -2.5t36.5 -1.5t30.5 -0.5q-9 -129 -10.5 -253.5t3.5 -249.5q2 -34 9.5 -48.5t24.5 -13.5q17 0 25 14t8 36q-1 72 -2.5 140t-4.5 134t-7 131.5t-10 134.5q65 -2 106 0q23 1 42 2q-4 -71 -3 -143.5t3 -145t4.5 -143t1.5 -135.5q-1 -50 -11 -84
t-31 -54.5t-53 -29t-76 -8.5q-47 0 -77.5 12t-48.5 37.5t-25 66t-6 97.5q2 115 3 242.5t-4 268.5zM45 790q9 9 22 23q11 12 28 31t40 45q10 -1 23 -1h27t37 1q5 -8 16 -21q10 -11 27 -31t45 -50q-8 -4 -19 -10q-10 -5 -25.5 -14.5t-36.5 -22.5q-6 8 -14 19q-7 9 -16.5 21
t-21.5 28q-5 -4 -14 -13q-8 -8 -19.5 -21t-29.5 -33q-6 5 -16 12q-8 6 -21.5 15t-31.5 22z" />
    <glyph glyph-name="udieresis" unicode="&#xfc;" horiz-adv-x="359" 
d="M15 696q15 -2 34 -3.5t38 -2.5t36.5 -1.5t30.5 -0.5q-9 -129 -10.5 -253.5t3.5 -249.5q2 -34 9.5 -48.5t24.5 -13.5q17 0 25 14t8 36q-1 72 -2.5 140t-4.5 134t-7 131.5t-10 134.5q65 -2 106 0q23 1 42 2q-4 -71 -3 -143.5t3 -145t4.5 -143t1.5 -135.5q-1 -50 -11 -84
t-31 -54.5t-53 -29t-76 -8.5q-47 0 -77.5 12t-48.5 37.5t-25 66t-6 97.5q2 115 3 242.5t-4 268.5zM113 866q28 0 42 -17t14 -43q0 -29 -17.5 -47t-46.5 -18t-44.5 16.5t-15.5 42.5q0 29 18 47.5t50 18.5zM258 865q27 0 41.5 -17t14.5 -43q0 -29 -17.5 -47t-46.5 -18
t-44.5 16.5t-15.5 42.5q0 29 18 47.5t50 18.5z" />
    <glyph glyph-name="ydieresis" unicode="&#xff;" horiz-adv-x="361" 
d="M10 708q40 -1 74 0t72 5q-4 -35 -6 -70.5t-2.5 -74.5t0.5 -82t4 -94q2 -26 9.5 -35.5t22.5 -8.5q7 0 11 5t6 12.5t3 16t1 15.5q4 79 2.5 149t-9.5 146q33 -3 70.5 -3.5t69.5 1.5q-3 -69 -2 -136.5t2.5 -134t3 -132t-0.5 -128.5q-2 -48 -11 -81.5t-28.5 -53.5t-52 -29
t-82.5 -9q-17 0 -37.5 1.5t-41.5 4.5t-41 7.5t-36 10.5q9 73 12 108q2 20 3 34q32 -10 70 -13.5t69 1.5q32 5 43 31t5 72q-14 -3 -33 -5.5t-39 -3t-39 1t-32 6.5q-29 10 -43.5 41t-12.5 88q4 89 2.5 172t-6.5 165zM112 864q28 0 42 -17t14 -43q0 -29 -17.5 -47t-46.5 -18
t-44.5 16.5t-15.5 42.5q0 29 18 47.5t50 18.5zM257 863q27 0 41.5 -17t14.5 -43q0 -29 -17.5 -47t-46.5 -18t-44.5 16.5t-15.5 42.5q0 29 18 47.5t50 18.5z" />
    <glyph glyph-name="Abreve" unicode="&#x102;" 
d="M228 154q-46 4 -63 -5t-22 -41q-4 -22 -5.5 -50.5t0.5 -51.5q-18 -1 -38 0q-17 0 -40 1t-49 3q5 39 10.5 86t11.5 96.5t11.5 99.5t10.5 95t9.5 83.5t6.5 64.5t-6 34.5t-37 3.5q-2 24 -2.5 46t-1.5 39q-1 20 -1 38q67 7 142.5 11t137.5 5q4 -40 10 -97t12.5 -122
t13.5 -134.5t13 -134t11 -120.5t8 -95q-20 -2 -42 -4q-19 -2 -43.5 -3.5t-50.5 -2.5q0 15 -0.5 35t-1.5 41.5t-2.5 42.5t-2.5 36zM182 562q-5 -24 -10.5 -59t-9 -72t-5.5 -71.5t-1 -55.5q2 -22 10 -30.5t26 -8.5q28 0 28 28q0 24 -2 61t-5 76t-7 75t-8 58q-2 10 -8 10
t-8 -11zM150 839q1 -17 7.5 -25.5t26.5 -8.5t25.5 11t4.5 36h44q19 0 31 1q13 0 22 1q-1 -63 -23.5 -88t-70.5 -28q-16 -1 -35 -1t-30 2q-25 3 -41 9t-25.5 18t-13 29.5t-3.5 42.5q37 -2 59 0q12 0 22 1z" />
    <glyph glyph-name="Amacron" unicode="&#x100;" 
d="M228 154q-46 4 -63 -5t-22 -41q-4 -22 -5.5 -50.5t0.5 -51.5q-18 -1 -38 0q-17 0 -40 1t-49 3q5 39 10.5 86t11.5 96.5t11.5 99.5t10.5 95t9.5 83.5t6.5 64.5t-6 34.5t-37 3.5q-2 24 -2.5 46t-1.5 39q-1 20 -1 38q67 7 142.5 11t137.5 5q4 -40 10 -97t12.5 -122
t13.5 -134.5t13 -134t11 -120.5t8 -95q-20 -2 -42 -4q-19 -2 -43.5 -3.5t-50.5 -2.5q0 15 -0.5 35t-1.5 41.5t-2.5 42.5t-2.5 36zM182 562q-5 -24 -10.5 -59t-9 -72t-5.5 -71.5t-1 -55.5q2 -22 10 -30.5t26 -8.5q28 0 28 28q0 24 -2 61t-5 76t-7 75t-8 58q-2 10 -8 10
t-8 -11zM127 847q26 0 67.5 0.5t103.5 2.5q-1 -11 -1 -21v-23q0 -26 -18 -36.5t-49 -9.5q-40 1 -76.5 0t-75.5 -3q0 8 1 20q0 11 0.5 28t-0.5 42h48z" />
    <glyph glyph-name="Aogonek" unicode="&#x104;" 
d="M225 154q-46 4 -63 -5t-22 -41q-4 -22 -5.5 -50.5t0.5 -51.5q-18 -1 -38 0q-17 0 -40 1t-49 3q5 39 10.5 86t11.5 96.5t11.5 99.5t10.5 95t9.5 83.5t6.5 64.5t-6 34.5t-37 3.5q-2 24 -2.5 46t-1.5 39q-1 20 -1 38q67 7 142.5 11t137.5 5q4 -40 10 -97t12.5 -122
t13.5 -134.5t13 -134t11 -120.5t8 -95q-9 -1 -20 -2q-9 -1 -22 -2t-27 -2q-5 -24 -2 -46q2 -14 13 -19.5t30 2.5q1 -13 5 -31q3 -15 8 -36t13 -46q-24 -10 -51.5 -12t-47.5 2q-31 6 -44.5 28.5t-13.5 53.5q0 53 24 103q0 15 -1 35.5t-2 42t-2.5 41t-2.5 33.5zM179 562
q-5 -24 -10.5 -59t-9 -72t-5.5 -71.5t-1 -55.5q2 -22 10 -30.5t26 -8.5q28 0 28 28q0 24 -2 61t-5 76t-7 75t-8 58q-2 10 -8 10t-8 -11z" />
    <glyph glyph-name="Cacute" unicode="&#x106;" horiz-adv-x="342" 
d="M328 440q-20 -1 -41.5 -1.5t-39.5 -1.5q-21 -1 -41 -3q1 29 0.5 61t-2.5 54q-2 23 -21 23q-25 0 -28 -31q-5 -41 -8 -95t-3 -109q0 -54 3 -104.5t9 -84.5q4 -19 12 -25.5t20 -6.5q19 0 22 20q3 24 2 59.5t-3 65.5q20 -1 40 -0.5t37 1.5q19 1 37 1q-4 -42 -2 -91t-2 -94
q-5 -50 -37.5 -74t-86.5 -24q-35 0 -61 7t-45 22.5t-31.5 39.5t-21.5 58q-12 49 -18 115t-6.5 134t3.5 131t11 105q6 38 18 63.5t31.5 41t47 22t65.5 6.5q66 0 97 -27.5t35 -90.5q2 -41 2.5 -83.5t5.5 -83.5zM284 890q-4 -14 -10.5 -29.5t-15.5 -31.5t-18.5 -30t-19.5 -24
q-30 -32 -73 -23q-10 2 -25 9.5t-29 18.5q11 20 20 34.5t14 24.5q6 11 10 19q8 -6 19.5 -7t20.5 7q10 8 20 24.5t17 36.5q6 -4 17 -8q9 -4 22 -9.5t31 -11.5z" />
    <glyph glyph-name="Ccaron" unicode="&#x10c;" horiz-adv-x="342" 
d="M328 440q-20 -1 -41.5 -1.5t-39.5 -1.5q-21 -1 -41 -3q1 29 0.5 61t-2.5 54q-2 23 -21 23q-25 0 -28 -31q-5 -41 -8 -95t-3 -109q0 -54 3 -104.5t9 -84.5q4 -19 12 -25.5t20 -6.5q19 0 22 20q3 24 2 59.5t-3 65.5q20 -1 40 -0.5t37 1.5q19 1 37 1q-4 -42 -2 -91t-2 -94
q-5 -50 -37.5 -74t-86.5 -24q-35 0 -61 7t-45 22.5t-31.5 39.5t-21.5 58q-12 49 -18 115t-6.5 134t3.5 131t11 105q6 38 18 63.5t31.5 41t47 22t65.5 6.5q66 0 97 -27.5t35 -90.5q2 -41 2.5 -83.5t5.5 -83.5zM301 849q-10 -9 -23 -23q-22 -23 -67 -76q-10 1 -23 1h-28
q-16 0 -36 -1q-5 8 -16 21q-10 11 -27 30.5t-45 50.5q8 4 19 10q18 10 62 37q6 -8 14 -19q7 -9 16 -21.5t22 -27.5l13 13q8 8 20 20.5t30 33.5q6 -5 16 -12q8 -6 21 -15.5t32 -21.5z" />
    <glyph glyph-name="Ccircumflex" unicode="&#x108;" horiz-adv-x="342" 
d="M332 440q-20 -1 -41.5 -1.5t-39.5 -1.5q-21 -1 -41 -3q1 29 0.5 61t-2.5 54q-2 23 -21 23q-25 0 -28 -31q-5 -41 -8 -95t-3 -109q0 -54 3 -104.5t9 -84.5q4 -19 12 -25.5t20 -6.5q19 0 22 20q3 24 2 59.5t-3 65.5q20 -1 40 -0.5t37 1.5q19 1 37 1q-4 -42 -2 -91t-2 -94
q-5 -50 -37.5 -74t-86.5 -24q-35 0 -61 7t-45 22.5t-31.5 39.5t-21.5 58q-12 49 -18 115t-6.5 134t3.5 131t11 105q6 38 18 63.5t31.5 41t47 22t65.5 6.5q66 0 97 -27.5t35 -90.5q2 -41 2.5 -83.5t5.5 -83.5zM41 790q9 9 22 23q11 12 28 31t40 45q10 -1 23 -1h27t37 1
q5 -8 16 -21q10 -11 27 -31t45 -50q-8 -4 -19 -10q-10 -5 -25.5 -14.5t-36.5 -22.5q-6 8 -14 19q-7 9 -16.5 21t-21.5 28q-5 -4 -14 -13q-8 -8 -19.5 -21t-29.5 -33q-6 5 -16 12q-8 6 -21.5 15t-31.5 22z" />
    <glyph glyph-name="Dcaron" unicode="&#x10e;" horiz-adv-x="377" 
d="M20 699q29 11 68 17t74 6q40 0 70 -7t52.5 -24.5t37.5 -47.5t24 -75q7 -38 11 -90.5t4.5 -108t-2 -109.5t-7.5 -95q-7 -52 -18.5 -86.5t-32 -55t-51 -29t-74.5 -8.5q-37 0 -77.5 6t-74.5 17q1 66 1.5 154.5t0 183t-2 187t-3.5 165.5zM152 575q-1 -47 -2 -108.5t-1 -125.5
q0 -63 1 -123t3 -103q20 -2 33 -0.5t21 8t12.5 19t6.5 33.5q4 35 6 84.5t1.5 100.5t-3.5 97t-9 75q-5 26 -20 36t-49 7zM321 846q-10 -9 -23 -23q-22 -23 -67 -76q-10 1 -23 1h-28q-16 0 -36 -1q-5 8 -16 21q-10 11 -27 30.5t-45 50.5q8 4 19 10q18 10 62 37q6 -8 14 -19
q7 -9 16 -21.5t22 -27.5l13 13q8 8 20 20.5t30 33.5q6 -5 16 -12q8 -6 21 -15.5t32 -21.5z" />
    <glyph glyph-name="Ecaron" unicode="&#x11a;" horiz-adv-x="304" 
d="M153 250q-2 -21 -1.5 -48t2.5 -44t9 -23t24 -7q21 -1 51 2.5t54 8.5q1 -21 2 -45q1 -20 0.5 -45.5t-1.5 -52.5q-29 -7 -65.5 -11.5t-66.5 -4.5q-39 0 -64.5 9t-41 27t-23 44t-9.5 60q-3 50 -4.5 123t-0.5 153.5t3.5 160t6.5 142.5q63 4 128.5 4.5t128.5 -3.5q1 -20 2 -43
q1 -20 1 -47v-55q-29 2 -61.5 2.5t-52.5 -2.5q-17 -2 -22.5 -10.5t-7.5 -22.5q-2 -24 -2.5 -53.5t1.5 -53.5q1 -31 30 -39q16 -5 44 -7t53 0v-36v-36q0 -19 1 -38q-18 0 -38 -1q-37 -2 -80 -8zM290 828q-10 -9 -23 -23q-22 -23 -67 -76q-10 1 -23 1h-28q-16 0 -36 -1
q-5 8 -16 21q-10 11 -27 30.5t-45 50.5q8 4 19 10q18 10 62 37q6 -8 14 -19q7 -9 16 -21.5t22 -27.5l13 13q8 8 20 20.5t30 33.5q6 -5 16 -12q8 -6 21 -15.5t32 -21.5z" />
    <glyph glyph-name="Edotaccent" unicode="&#x116;" horiz-adv-x="304" 
d="M151 250q-2 -21 -1.5 -48t2.5 -44t9 -23t24 -7q21 -1 51 2.5t54 8.5q1 -21 2 -45q1 -20 0.5 -45.5t-1.5 -52.5q-29 -7 -65.5 -11.5t-66.5 -4.5q-39 0 -64.5 9t-41 27t-23 44t-9.5 60q-3 50 -4.5 123t-0.5 153.5t3.5 160t6.5 142.5q63 4 128.5 4.5t128.5 -3.5q1 -20 2 -43
q1 -20 1 -47v-55q-29 2 -61.5 2.5t-52.5 -2.5q-17 -2 -22.5 -10.5t-7.5 -22.5q-2 -24 -2.5 -53.5t1.5 -53.5q1 -31 30 -39q16 -5 44 -7t53 0v-36v-36q0 -19 1 -38q-18 0 -38 -1q-37 -2 -80 -8zM159 872q32 0 48.5 -19.5t16.5 -49.5q0 -34 -19.5 -54t-53.5 -20q-33 0 -51 19
t-18 49q0 34 20.5 54.5t56.5 20.5z" />
    <glyph glyph-name="Emacron" unicode="&#x112;" horiz-adv-x="304" 
d="M153 250q-2 -21 -1.5 -48t2.5 -44t9 -23t24 -7q21 -1 51 2.5t54 8.5q1 -21 2 -45q1 -20 0.5 -45.5t-1.5 -52.5q-29 -7 -65.5 -11.5t-66.5 -4.5q-39 0 -64.5 9t-41 27t-23 44t-9.5 60q-3 50 -4.5 123t-0.5 153.5t3.5 160t6.5 142.5q63 4 128.5 4.5t128.5 -3.5q1 -20 2 -43
q1 -20 1 -47v-55q-29 2 -61.5 2.5t-52.5 -2.5q-17 -2 -22.5 -10.5t-7.5 -22.5q-2 -24 -2.5 -53.5t1.5 -53.5q1 -31 30 -39q16 -5 44 -7t53 0v-36v-36q0 -19 1 -38q-18 0 -38 -1q-37 -2 -80 -8zM95 839q26 0 67.5 0.5t103.5 2.5q-1 -11 -1 -21v-23q0 -26 -18 -36.5t-49 -9.5
q-40 1 -76.5 0t-75.5 -3q0 8 1 20q0 11 0.5 28t-0.5 42h48z" />
    <glyph glyph-name="Eogonek" unicode="&#x118;" horiz-adv-x="304" 
d="M153 250q-2 -21 -1.5 -48t2.5 -44t9 -23t24 -7q21 -1 51 2.5t54 8.5q1 -21 2 -45q1 -20 0.5 -45.5t-1.5 -52.5q-29 -7 -65.5 -11.5t-66.5 -4.5q-39 0 -64.5 9t-41 27t-23 44t-9.5 60q-3 50 -4.5 123t-0.5 153.5t3.5 160t6.5 142.5q63 4 128.5 4.5t128.5 -3.5q1 -20 2 -43
q1 -20 1 -47v-55q-29 2 -61.5 2.5t-52.5 -2.5q-17 -2 -22.5 -10.5t-7.5 -22.5q-2 -24 -2.5 -53.5t1.5 -53.5q1 -31 30 -39q16 -5 44 -7t53 0v-36v-36q0 -19 1 -38q-18 0 -38 -1q-37 -2 -80 -8zM133 -4h16h21t31 1q-4 -17 -5.5 -31t0.5 -30q1 -8 5 -13t16 -7q8 -1 20 1t23 7
q1 -13 5 -31q3 -15 8 -36t13 -46q-26 -11 -60.5 -15.5t-59.5 0.5q-31 7 -44.5 26.5t-13.5 50.5q0 12 2 28t6 33t8 33t9 29z" />
    <glyph glyph-name="Gbreve" unicode="&#x11e;" 
d="M211 727q36 0 60.5 -6.5t39 -19.5t21 -33.5t8.5 -48.5q3 -50 0 -102.5t2 -110.5q-20 2 -40 2q-18 0 -39.5 -1t-44.5 -3q1 16 2 36t1 40q0 21 -0.5 39t-1.5 32q-1 23 -22 23q-23 0 -29 -29q-7 -34 -11.5 -88t-6 -112t0.5 -111.5t8 -86.5q5 -26 13 -34.5t25 -8.5
q31 0 33 65q1 26 -7.5 35t-31.5 4v37t-1 33q-1 17 -1 33q77 5 158 3q-3 -21 -4.5 -45t-2.5 -47.5t-1 -44.5q0 -20 2 -34q3 -29 30 -24q-2 -18 -3 -38q-2 -17 -2.5 -38.5t-1.5 -42.5q-48 -11 -75 -0.5t-36 41.5q-7 -31 -30 -48.5t-70 -17.5q-53 0 -82.5 33.5t-40.5 95.5
q-8 44 -11.5 104.5t-3 125.5t6 128t16.5 112q9 42 23 71t35 47.5t49 26.5t66 8zM156 854q1 -17 7.5 -25.5t26.5 -8.5t25.5 11t4.5 36h44q19 0 31 1q13 0 22 1q-1 -63 -23.5 -88t-70.5 -28q-16 -1 -35 -1t-30 2q-25 3 -41 9t-25.5 18t-13 29.5t-3.5 42.5q37 -2 59 0
q12 0 22 1z" />
    <glyph glyph-name="Gcircumflex" unicode="&#x11c;" 
d="M211 727q36 0 60.5 -6.5t39 -19.5t21 -33.5t8.5 -48.5q3 -50 0 -102.5t2 -110.5q-20 2 -40 2q-18 0 -39.5 -1t-44.5 -3q1 16 2 36t1 40q0 21 -0.5 39t-1.5 32q-1 23 -22 23q-23 0 -29 -29q-7 -34 -11.5 -88t-6 -112t0.5 -111.5t8 -86.5q5 -26 13 -34.5t25 -8.5
q31 0 33 65q1 26 -7.5 35t-31.5 4v37t-1 33q-1 17 -1 33q77 5 158 3q-3 -21 -4.5 -45t-2.5 -47.5t-1 -44.5q0 -20 2 -34q3 -29 30 -24q-2 -18 -3 -38q-2 -17 -2.5 -38.5t-1.5 -42.5q-48 -11 -75 -0.5t-36 41.5q-7 -31 -30 -48.5t-70 -17.5q-53 0 -82.5 33.5t-40.5 95.5
q-8 44 -11.5 104.5t-3 125.5t6 128t16.5 112q9 42 23 71t35 47.5t49 26.5t66 8zM62 792q9 9 22 23q11 12 28 31t40 45q10 -1 23 -1h27t37 1q5 -8 16 -21q10 -11 27 -31t45 -50q-8 -4 -19 -10q-10 -5 -25.5 -14.5t-36.5 -22.5q-6 8 -14 19q-7 9 -16.5 21t-21.5 28
q-5 -4 -14 -13q-8 -8 -19.5 -21t-29.5 -33q-6 5 -16 12q-8 6 -21.5 15t-31.5 22z" />
    <glyph glyph-name="Gcommaaccent" unicode="&#x122;" 
d="M214 727q36 0 60.5 -6.5t39 -19.5t21 -33.5t8.5 -48.5q3 -50 0 -102.5t2 -110.5q-20 2 -40 2q-18 0 -39.5 -1t-44.5 -3q1 16 2 36t1 40q0 21 -0.5 39t-1.5 32q-1 23 -22 23q-23 0 -29 -29q-7 -34 -11.5 -88t-6 -112t0.5 -111.5t8 -86.5q5 -26 13 -34.5t25 -8.5
q31 0 33 65q1 26 -7.5 35t-31.5 4v37t-1 33q-1 17 -1 33q77 5 158 3q-3 -21 -4.5 -45t-2.5 -47.5t-1 -44.5q0 -20 2 -34q3 -29 30 -24q-2 -18 -3 -38q-2 -17 -2.5 -38.5t-1.5 -42.5q-48 -11 -75 -0.5t-36 41.5q-7 -31 -30 -48.5t-70 -17.5q-53 0 -82.5 33.5t-40.5 95.5
q-8 44 -11.5 104.5t-3 125.5t6 128t16.5 112q9 42 23 71t35 47.5t49 26.5t66 8zM228 -299q-23 5 -38.5 11t-25.5 11q-11 5 -19 11q15 22 22.5 44t5.5 39q-2 9 -9 18t-21 12q4 11 9 26q4 13 9.5 32.5t10.5 45.5q27 -3 43.5 -8.5t26.5 -12.5q19 -12 26.5 -33t8.5 -44
q2 -42 -13.5 -83t-35.5 -69z" />
    <glyph glyph-name="Hcircumflex" unicode="&#x124;" horiz-adv-x="379" 
d="M359 698q-3 -78 -4.5 -172.5t-1.5 -191.5q0 -96 1.5 -187t3.5 -160h-40q-18 0 -41.5 -0.5t-49.5 -2.5q1 34 2 69.5t1 68.5q0 34 -1 63t-3 52q-2 17 -9.5 26.5t-25.5 10.5q-27 1 -29 -26q-2 -54 -0.5 -122t4.5 -132q-22 1 -47 3q-21 1 -47 2t-52 1q3 63 5 151t3 185t0 195
t-2 180q25 0 49 0.5t44 1.5q23 1 44 3q-2 -38 -3.5 -78.5t-2 -78.5t0 -71.5t2.5 -58.5q2 -24 15.5 -36t53.5 -8q1 24 1.5 63t0 83t-1.5 89.5t-3 82.5q20 -2 42 -3q19 -1 42.5 -1.5t48.5 -0.5zM57 791q9 9 22 23q11 12 28 31t40 45q10 -1 23 -1h27t37 1q5 -8 16 -21
q10 -11 27 -31t45 -50q-8 -4 -19 -10q-10 -5 -25.5 -14.5t-36.5 -22.5q-6 8 -14 19q-7 9 -16.5 21t-21.5 28q-5 -4 -14 -13q-8 -8 -19.5 -21t-29.5 -33q-6 5 -16 12q-8 6 -21.5 15t-31.5 22z" />
    <glyph glyph-name="Idotaccent" unicode="&#x130;" horiz-adv-x="194" 
d="M28 699q24 -2 48.5 -3t44.5 -1q23 -1 44 0q-1 -48 -1.5 -108t-1 -125t-0.5 -132q0 -66 1 -127t2.5 -113.5t3.5 -88.5q-26 -1 -52 -1.5t-46 -2.5q-24 -2 -46 -4q1 37 2.5 93t2.5 121.5t1 135.5v136t-1 123.5t-2 96.5zM104 867q32 0 48.5 -19.5t16.5 -49.5q0 -34 -19.5 -54
t-53.5 -20q-33 0 -51 19t-18 49q0 34 20.5 54.5t56.5 20.5z" />
    <glyph glyph-name="Imacron" unicode="&#x12a;" horiz-adv-x="194" 
d="M28 699q24 -2 48.5 -3t44.5 -1q23 -1 44 0q-1 -48 -1.5 -108t-1 -125t-0.5 -132q0 -66 1 -127t2.5 -113.5t3.5 -88.5q-26 -1 -52 -1.5t-46 -2.5q-24 -2 -46 -4q1 37 2.5 93t2.5 121.5t1 135.5v136t-1 123.5t-2 96.5zM37 834q26 0 67.5 0.5t103.5 2.5q-1 -11 -1 -21v-23
q0 -26 -18 -36.5t-49 -9.5q-40 1 -76.5 0t-75.5 -3q0 8 1 20q0 11 0.5 28t-0.5 42h48z" />
    <glyph glyph-name="Iogonek" unicode="&#x12e;" horiz-adv-x="194" 
d="M28 699q24 -2 48.5 -3t44.5 -1q23 -1 44 0q-1 -48 -1.5 -108t-1 -125t-0.5 -132q0 -66 1 -127t2.5 -113.5t3.5 -88.5q-26 -1 -52 -1.5t-46 -2.5q-24 -2 -46 -4q1 37 2.5 93t2.5 121.5t1 135.5v136t-1 123.5t-2 96.5zM68 17h16h21t31 1q-4 -17 -5.5 -31t0.5 -30
q1 -8 5 -13t16 -7q8 -1 20 1t23 7q1 -13 5 -31q3 -15 8 -36t13 -46q-26 -11 -60.5 -15.5t-59.5 0.5q-31 7 -44.5 26.5t-13.5 50.5q0 12 2 28t6 33t8 33t9 29z" />
    <glyph glyph-name="Jcircumflex" unicode="&#x134;" horiz-adv-x="331" 
d="M180 147q4 29 5 59.5t1 78.5q0 51 -1.5 108.5t-4.5 112.5t-7.5 105t-9.5 86q27 1 53.5 2t47.5 3q25 2 47 4q-3 -49 -3.5 -103t-0.5 -110q0 -55 1 -109.5t1 -105.5q0 -84 -6 -142t-24.5 -93.5t-53 -51.5t-92.5 -16q-45 0 -71 13t-39 39.5t-16.5 67t-3.5 94.5q0 24 -0.5 48
t-3.5 49q16 -1 36 -2q17 -1 40.5 -1.5t52.5 -0.5q-3 -22 -3.5 -56.5t2.5 -69.5q4 -43 27 -43q11 0 17.5 7t8.5 27zM109 781q9 9 22 23q11 12 28 31t40 45q10 -1 23 -1h27t37 1q5 -8 16 -21q10 -11 27 -31t45 -50q-8 -4 -19 -10q-10 -5 -25.5 -14.5t-36.5 -22.5q-6 8 -14 19
q-7 9 -16.5 21t-21.5 28q-5 -4 -14 -13q-8 -8 -19.5 -21t-29.5 -33q-6 5 -16 12q-8 6 -21.5 15t-31.5 22z" />
    <glyph glyph-name="Kcommaaccent" unicode="&#x136;" 
d="M163 715q-3 -31 -4.5 -72t-2.5 -82t-0.5 -77.5t2.5 -59.5q5 -1 9 -2t8.5 -1.5t9.5 0.5q17 1 24 11.5t9 33.5q1 22 2 50.5t1.5 59.5t-0.5 62t-2 60q21 -2 45 -3q20 -2 44.5 -2.5t49.5 0.5q-3 -25 -4.5 -57t-2 -64.5t-1.5 -63t-3 -53.5q-4 -34 -24 -59t-63 -33
q44 -8 65.5 -31.5t26.5 -71.5q3 -31 4 -67.5t2 -73.5t2.5 -71.5t5.5 -60.5q-22 0 -47 -1q-21 -1 -47 -2.5t-52 -3.5q2 34 2 75t-0.5 80.5t-2 74t-3.5 57.5q-2 17 -8 29t-24 13q-26 1 -28 -27q-2 -27 -1.5 -63.5t1.5 -75.5t3.5 -77.5t5.5 -70.5q-22 1 -47 2q-21 1 -46.5 1.5
t-51.5 0.5q4 63 6 150.5t2 184.5t-2 194.5t-5 179.5q28 0 53.5 1t45.5 3q23 2 43 3zM189 -294q-23 5 -38.5 11t-25.5 11q-11 5 -19 11q15 22 22.5 44t5.5 39q-2 9 -9 18t-21 12q4 11 9 26q4 13 9.5 32.5t10.5 45.5q27 -3 43.5 -8.5t26.5 -12.5q19 -12 26.5 -33t8.5 -44
q2 -42 -13.5 -83t-35.5 -69z" />
    <glyph glyph-name="Lacute" unicode="&#x139;" horiz-adv-x="302" 
d="M171 696q-9 -63 -14.5 -137t-8.5 -145t-2.5 -132.5t5.5 -99.5q3 -26 13.5 -36.5t36.5 -10.5q49 0 96 10v-13t-0.5 -34t-1.5 -46.5t-3 -51.5q-28 -8 -58 -12t-61 -4q-34 0 -58.5 8t-42 26t-28 47t-16.5 72q-6 42 -8.5 110.5t-1.5 148t5 161t12 150.5q26 -3 50.5 -4.5
t43.5 -3.5q22 -2 42 -3zM230 872q-4 -14 -10.5 -29.5t-15.5 -31.5t-18.5 -30t-19.5 -24q-30 -32 -73 -23q-10 2 -25 9.5t-29 18.5q11 20 20 34.5t14 24.5q6 11 10 19q8 -6 19.5 -7t20.5 7q10 8 20 24.5t17 36.5q6 -4 17 -8q9 -4 22 -9.5t31 -11.5z" />
    <glyph glyph-name="Lcaron" unicode="&#x13d;" horiz-adv-x="343" 
d="M171 696q-9 -63 -14.5 -137t-8.5 -145t-2.5 -132.5t5.5 -99.5q3 -26 13.5 -36.5t36.5 -10.5q49 0 96 10v-13t-0.5 -34t-1.5 -46.5t-3 -51.5q-28 -8 -58 -12t-61 -4q-34 0 -58.5 8t-42 26t-28 47t-16.5 72q-6 42 -8.5 110.5t-1.5 148t5 161t12 150.5q26 -3 50.5 -4.5
t43.5 -3.5q22 -2 42 -3zM278 457q-23 5 -38.5 11t-25.5 11q-11 5 -19 11q15 22 22.5 44t5.5 39q-2 9 -9 18t-21 12q4 11 9 26q4 13 9.5 32.5t10.5 45.5q27 -3 43.5 -8.5t26.5 -12.5q19 -12 26.5 -33t8.5 -44q2 -42 -13.5 -83t-35.5 -69z" />
    <glyph glyph-name="Lcommaaccent" unicode="&#x13b;" horiz-adv-x="302" 
d="M171 696q-9 -63 -14.5 -137t-8.5 -145t-2.5 -132.5t5.5 -99.5q3 -26 13.5 -36.5t36.5 -10.5q49 0 96 10v-13t-0.5 -34t-1.5 -46.5t-3 -51.5q-28 -8 -58 -12t-61 -4q-34 0 -58.5 8t-42 26t-28 47t-16.5 72q-6 42 -8.5 110.5t-1.5 148t5 161t12 150.5q26 -3 50.5 -4.5
t43.5 -3.5q22 -2 42 -3zM152 -290q-23 5 -38.5 11t-25.5 11q-11 5 -19 11q15 22 22.5 44t5.5 39q-2 9 -9 18t-21 12q4 11 9 26q4 13 9.5 32.5t10.5 45.5q27 -3 43.5 -8.5t26.5 -12.5q19 -12 26.5 -33t8.5 -44q2 -42 -13.5 -83t-35.5 -69z" />
    <glyph glyph-name="Nacute" unicode="&#x143;" horiz-adv-x="408" 
d="M384 2q-14 -7 -40.5 -11t-49.5 -4q-54 0 -76.5 20.5t-30.5 67.5q-10 54 -17.5 108.5t-14.5 110.5t-14.5 114t-17.5 121q0 -60 1 -128.5t3 -139t5 -138t6 -125.5h-11h-27t-39 0.5t-45 1.5q3 69 5 162t3 191t1.5 189.5t-0.5 157.5q14 2 38.5 3.5t51 2t51 1t39.5 0.5
q11 -72 20 -138.5t18 -134.5t20 -141t26 -159q-2 65 -4 142t-5.5 153t-8 146t-9.5 122h44t37.5 -1t26.5 -1h10q-1 -68 -1.5 -156t0 -181.5t1.5 -186t4 -169.5zM320 872q-4 -14 -10.5 -29.5t-15.5 -31.5t-18.5 -30t-19.5 -24q-30 -32 -73 -23q-10 2 -25 9.5t-29 18.5
q11 20 20 34.5t14 24.5q6 11 10 19q8 -6 19.5 -7t20.5 7q10 8 20 24.5t17 36.5q6 -4 17 -8q9 -4 22 -9.5t31 -11.5z" />
    <glyph glyph-name="Ncaron" unicode="&#x147;" horiz-adv-x="408" 
d="M384 2q-14 -7 -40.5 -11t-49.5 -4q-54 0 -76.5 20.5t-30.5 67.5q-10 54 -17.5 108.5t-14.5 110.5t-14.5 114t-17.5 121q0 -60 1 -128.5t3 -139t5 -138t6 -125.5h-11h-27t-39 0.5t-45 1.5q3 69 5 162t3 191t1.5 189.5t-0.5 157.5q14 2 38.5 3.5t51 2t51 1t39.5 0.5
q11 -72 20 -138.5t18 -134.5t20 -141t26 -159q-2 65 -4 142t-5.5 153t-8 146t-9.5 122h44t37.5 -1t26.5 -1h10q-1 -68 -1.5 -156t0 -181.5t1.5 -186t4 -169.5zM337 831q-10 -9 -23 -23q-22 -23 -67 -76q-10 1 -23 1h-28q-16 0 -36 -1q-5 8 -16 21q-10 11 -27 30.5t-45 50.5
q8 4 19 10q18 10 62 37q6 -8 14 -19q7 -9 16 -21.5t22 -27.5l13 13q8 8 20 20.5t30 33.5q6 -5 16 -12q8 -6 21 -15.5t32 -21.5z" />
    <glyph glyph-name="Ncommaaccent" unicode="&#x145;" horiz-adv-x="408" 
d="M384 2q-14 -7 -40.5 -11t-49.5 -4q-54 0 -76.5 20.5t-30.5 67.5q-10 54 -17.5 108.5t-14.5 110.5t-14.5 114t-17.5 121q0 -60 1 -128.5t3 -139t5 -138t6 -125.5h-11h-27t-39 0.5t-45 1.5q3 69 5 162t3 191t1.5 189.5t-0.5 157.5q14 2 38.5 3.5t51 2t51 1t39.5 0.5
q11 -72 20 -138.5t18 -134.5t20 -141t26 -159q-2 65 -4 142t-5.5 153t-8 146t-9.5 122h44t37.5 -1t26.5 -1h10q-1 -68 -1.5 -156t0 -181.5t1.5 -186t4 -169.5zM205 -287q-23 5 -38.5 11t-25.5 11q-11 5 -19 11q15 22 22.5 44t5.5 39q-2 9 -9 18t-21 12q4 11 9 26
q4 13 9.5 32.5t10.5 45.5q27 -3 43.5 -8.5t26.5 -12.5q19 -12 26.5 -33t8.5 -44q2 -42 -13.5 -83t-35.5 -69z" />
    <glyph glyph-name="Ohungarumlaut" unicode="&#x150;" horiz-adv-x="367" 
d="M188 588q-14 0 -19.5 -6t-8.5 -25q-4 -24 -6 -58.5t-3 -74t-0.5 -81.5t2.5 -80t4.5 -70t6.5 -51q3 -15 11 -25t24 -10q14 0 20 5.5t8 19.5t4 44t2.5 69t0.5 82q0 44 -1 84t-2.5 73.5t-3.5 51.5q-3 29 -11 40.5t-28 11.5zM172 729q46 0 78 -10t52 -31t31 -53t16 -75
q3 -24 3.5 -61.5t0 -81t-2 -90.5t-3.5 -89.5t-4.5 -77.5t-5.5 -56q-5 -36 -14.5 -59.5t-26.5 -38t-43 -20.5t-62 -6q-75 0 -110 34t-46 94q-9 46 -13.5 107.5t-5.5 127t2 129.5t11 116q6 39 16 66t27 43.5t41.5 24t58.5 7.5zM186 794q8 12 19 30q10 16 23.5 40t33.5 59
q8 -6 19 -14q10 -7 24.5 -17t34.5 -23q-11 -11 -25 -28q-13 -14 -31 -35.5t-43 -51.5q-5 5 -13 11l-17.5 12.5t-24.5 16.5zM79 798q5 13 14 33q7 17 18 43t25 63q9 -5 21 -11q11 -5 26.5 -13t38.5 -18q-9 -13 -21 -31q-11 -16 -26 -40t-34 -57l-15 9q-8 4 -19.5 9.5
t-27.5 12.5z" />
    <glyph glyph-name="Omacron" unicode="&#x14c;" horiz-adv-x="367" 
d="M188 588q-14 0 -19.5 -6t-8.5 -25q-4 -24 -6 -58.5t-3 -74t-0.5 -81.5t2.5 -80t4.5 -70t6.5 -51q3 -15 11 -25t24 -10q14 0 20 5.5t8 19.5t4 44t2.5 69t0.5 82q0 44 -1 84t-2.5 73.5t-3.5 51.5q-3 29 -11 40.5t-28 11.5zM172 729q46 0 78 -10t52 -31t31 -53t16 -75
q3 -24 3.5 -61.5t0 -81t-2 -90.5t-3.5 -89.5t-4.5 -77.5t-5.5 -56q-5 -36 -14.5 -59.5t-26.5 -38t-43 -20.5t-62 -6q-75 0 -110 34t-46 94q-9 46 -13.5 107.5t-5.5 127t2 129.5t11 116q6 39 16 66t27 43.5t41.5 24t58.5 7.5zM123 864q26 0 67.5 0.5t103.5 2.5q-1 -11 -1 -21
v-23q0 -26 -18 -36.5t-49 -9.5q-40 1 -76.5 0t-75.5 -3q0 8 1 20q0 11 0.5 28t-0.5 42h48z" />
    <glyph glyph-name="Racute" unicode="&#x154;" horiz-adv-x="386" 
d="M161 563q-2 -46 -2 -84v-76q35 -5 53.5 1.5t26.5 25.5q3 8 5 22.5t2.5 31t-0.5 31t-4 22.5q-14 41 -81 26zM226 235q-5 24 -22.5 36t-43.5 14q2 -56 4.5 -127t7.5 -173q-35 2 -60.5 3.5t-43.5 1.5h-36q3 90 2.5 188.5t-2.5 192.5t-5.5 177.5t-6.5 144.5q47 14 102.5 22.5
t97.5 8.5t70.5 -7.5t46 -28.5t25.5 -59.5t8 -101.5q0 -51 -6 -86t-18.5 -57t-33 -32.5t-48.5 -13.5q19 -3 31.5 -9.5t23.5 -16.5q17 -16 23.5 -52t4.5 -98q-1 -43 34 -40q-4 -38 -5.5 -71t-0.5 -70q-62 -10 -99.5 5t-45.5 60q-4 24 -4 49q0 26 1.5 51t2 48t-3.5 41zM309 889
q-4 -14 -10.5 -29.5t-15.5 -31.5t-18.5 -30t-19.5 -24q-30 -32 -73 -23q-10 2 -25 9.5t-29 18.5q11 20 20 34.5t14 24.5q6 11 10 19q8 -6 19.5 -7t20.5 7q10 8 20 24.5t17 36.5q6 -4 17 -8q9 -4 22 -9.5t31 -11.5z" />
    <glyph glyph-name="Rcaron" unicode="&#x158;" horiz-adv-x="386" 
d="M161 563q-2 -46 -2 -84v-76q35 -5 53.5 1.5t26.5 25.5q3 8 5 22.5t2.5 31t-0.5 31t-4 22.5q-14 41 -81 26zM226 235q-5 24 -22.5 36t-43.5 14q2 -56 4.5 -127t7.5 -173q-35 2 -60.5 3.5t-43.5 1.5h-36q3 90 2.5 188.5t-2.5 192.5t-5.5 177.5t-6.5 144.5q47 14 102.5 22.5
t97.5 8.5t70.5 -7.5t46 -28.5t25.5 -59.5t8 -101.5q0 -51 -6 -86t-18.5 -57t-33 -32.5t-48.5 -13.5q19 -3 31.5 -9.5t23.5 -16.5q17 -16 23.5 -52t4.5 -98q-1 -43 34 -40q-4 -38 -5.5 -71t-0.5 -70q-62 -10 -99.5 5t-45.5 60q-4 24 -4 49q0 26 1.5 51t2 48t-3.5 41zM326 848
q-10 -9 -23 -23q-22 -23 -67 -76q-10 1 -23 1h-28q-16 0 -36 -1q-5 8 -16 21q-10 11 -27 30.5t-45 50.5q8 4 19 10q18 10 62 37q6 -8 14 -19q7 -9 16 -21.5t22 -27.5l13 13q8 8 20 20.5t30 33.5q6 -5 16 -12q8 -6 21 -15.5t32 -21.5z" />
    <glyph glyph-name="Rcommaaccent" unicode="&#x156;" horiz-adv-x="386" 
d="M161 563q-2 -46 -2 -84v-76q35 -5 53.5 1.5t26.5 25.5q3 8 5 22.5t2.5 31t-0.5 31t-4 22.5q-14 41 -81 26zM226 235q-5 24 -22.5 36t-43.5 14q2 -56 4.5 -127t7.5 -173q-35 2 -60.5 3.5t-43.5 1.5h-36q3 90 2.5 188.5t-2.5 192.5t-5.5 177.5t-6.5 144.5q47 14 102.5 22.5
t97.5 8.5t70.5 -7.5t46 -28.5t25.5 -59.5t8 -101.5q0 -51 -6 -86t-18.5 -57t-33 -32.5t-48.5 -13.5q19 -3 31.5 -9.5t23.5 -16.5q17 -16 23.5 -52t4.5 -98q-1 -43 34 -40q-4 -38 -5.5 -71t-0.5 -70q-62 -10 -99.5 5t-45.5 60q-4 24 -4 49q0 26 1.5 51t2 48t-3.5 41z
M218 -297q-23 5 -38.5 11t-25.5 11q-11 5 -19 11q15 22 22.5 44t5.5 39q-2 9 -9 18t-21 12q4 11 9 26q4 13 9.5 32.5t10.5 45.5q27 -3 43.5 -8.5t26.5 -12.5q19 -12 26.5 -33t8.5 -44q2 -42 -13.5 -83t-35.5 -69z" />
    <glyph glyph-name="Sacute" unicode="&#x15a;" horiz-adv-x="345" 
d="M27 87q-2 23 -0.5 55.5t-0.5 70.5q32 -3 61 -3t70 4q-3 -26 -3.5 -49.5t3.5 -49.5q3 -19 11 -23.5t16 -4.5q11 0 19 5.5t9 22.5q2 13 1.5 36.5t-3.5 40.5q-3 18 -14.5 30t-36.5 21q-50 18 -87 41t-51 67q-5 16 -8 44t-3.5 61t0.5 67t4 62q5 44 18.5 71t36.5 42t56 20
t77 5q39 0 63 -6.5t38 -21.5t19 -39.5t5 -60.5q0 -48 1 -88.5t6 -91.5q-28 2 -52.5 2.5t-44.5 -0.5q-23 -1 -43 -2q3 36 3 66q0 31 -2 63q-2 19 -7 26t-16 7q-8 0 -14 -6t-9 -21q-5 -24 -7 -59.5t1 -67.5q2 -23 12.5 -37t31.5 -23q36 -15 60.5 -27.5t40.5 -26.5t24.5 -30.5
t13.5 -39.5q7 -33 8 -74t-2 -88q-4 -59 -38.5 -82t-97.5 -23q-47 0 -78 7t-50.5 21t-28.5 35.5t-12 51.5zM290 888q-4 -14 -10.5 -29.5t-15.5 -31.5t-18.5 -30t-19.5 -24q-30 -32 -73 -23q-10 2 -25 9.5t-29 18.5q11 20 20 34.5t14 24.5q6 11 10 19q8 -6 19.5 -7t20.5 7
q10 8 20 24.5t17 36.5q6 -4 17 -8q9 -4 22 -9.5t31 -11.5z" />
    <glyph glyph-name="Scedilla" unicode="&#x15e;" horiz-adv-x="345" 
d="M28 87q-2 23 -0.5 55.5t-0.5 70.5q32 -3 61 -3t70 4q-3 -26 -3.5 -49.5t3.5 -49.5q3 -19 11 -23.5t16 -4.5q11 0 19 5.5t9 22.5q2 13 1.5 36.5t-3.5 40.5q-3 18 -14.5 30t-36.5 21q-50 18 -87 41t-51 67q-5 16 -8 44t-3.5 61t0.5 67t4 62q5 44 18.5 71t36.5 42t56 20
t77 5q39 0 63 -6.5t38 -21.5t19 -39.5t5 -60.5q0 -48 1 -88.5t6 -91.5q-28 2 -52.5 2.5t-44.5 -0.5q-23 -1 -43 -2q3 36 3 66q0 31 -2 63q-2 19 -7 26t-16 7q-8 0 -14 -6t-9 -21q-5 -24 -7 -59.5t1 -67.5q2 -23 12.5 -37t31.5 -23q36 -15 60.5 -27.5t40.5 -26.5t24.5 -30.5
t13.5 -39.5q7 -33 8 -74t-2 -88q-4 -59 -38.5 -82t-97.5 -23q-47 0 -78 7t-50.5 21t-28.5 35.5t-12 51.5zM105 -110q7 6 16 13q8 6 18 14t24 17q23 16 49.5 14t43.5 -21q6 -8 11.5 -15t10.5 -13q5 -7 9 -14q-29 -20 -51 -36.5t-37 -27.5q-18 -13 -30 -23q-14 20 -25 37
t-20 29q-11 14 -19 26z" />
    <glyph glyph-name="Scedilla" unicode="&#xf6c1;" horiz-adv-x="345" 
d="M28 87q-2 23 -0.5 55.5t-0.5 70.5q32 -3 61 -3t70 4q-3 -26 -3.5 -49.5t3.5 -49.5q3 -19 11 -23.5t16 -4.5q11 0 19 5.5t9 22.5q2 13 1.5 36.5t-3.5 40.5q-3 18 -14.5 30t-36.5 21q-50 18 -87 41t-51 67q-5 16 -8 44t-3.5 61t0.5 67t4 62q5 44 18.5 71t36.5 42t56 20
t77 5q39 0 63 -6.5t38 -21.5t19 -39.5t5 -60.5q0 -48 1 -88.5t6 -91.5q-28 2 -52.5 2.5t-44.5 -0.5q-23 -1 -43 -2q3 36 3 66q0 31 -2 63q-2 19 -7 26t-16 7q-8 0 -14 -6t-9 -21q-5 -24 -7 -59.5t1 -67.5q2 -23 12.5 -37t31.5 -23q36 -15 60.5 -27.5t40.5 -26.5t24.5 -30.5
t13.5 -39.5q7 -33 8 -74t-2 -88q-4 -59 -38.5 -82t-97.5 -23q-47 0 -78 7t-50.5 21t-28.5 35.5t-12 51.5zM105 -110q7 6 16 13q8 6 18 14t24 17q23 16 49.5 14t43.5 -21q6 -8 11.5 -15t10.5 -13q5 -7 9 -14q-29 -20 -51 -36.5t-37 -27.5q-18 -13 -30 -23q-14 20 -25 37
t-20 29q-11 14 -19 26z" />
    <glyph glyph-name="Scircumflex" unicode="&#x15c;" horiz-adv-x="345" 
d="M27 87q-2 23 -0.5 55.5t-0.5 70.5q32 -3 61 -3t70 4q-3 -26 -3.5 -49.5t3.5 -49.5q3 -19 11 -23.5t16 -4.5q11 0 19 5.5t9 22.5q2 13 1.5 36.5t-3.5 40.5q-3 18 -14.5 30t-36.5 21q-50 18 -87 41t-51 67q-5 16 -8 44t-3.5 61t0.5 67t4 62q5 44 18.5 71t36.5 42t56 20
t77 5q39 0 63 -6.5t38 -21.5t19 -39.5t5 -60.5q0 -48 1 -88.5t6 -91.5q-28 2 -52.5 2.5t-44.5 -0.5q-23 -1 -43 -2q3 36 3 66q0 31 -2 63q-2 19 -7 26t-16 7q-8 0 -14 -6t-9 -21q-5 -24 -7 -59.5t1 -67.5q2 -23 12.5 -37t31.5 -23q36 -15 60.5 -27.5t40.5 -26.5t24.5 -30.5
t13.5 -39.5q7 -33 8 -74t-2 -88q-4 -59 -38.5 -82t-97.5 -23q-47 0 -78 7t-50.5 21t-28.5 35.5t-12 51.5zM42 788q9 9 22 23q11 12 28 31t40 45q10 -1 23 -1h27t37 1q5 -8 16 -21q10 -11 27 -31t45 -50q-8 -4 -19 -10q-10 -5 -25.5 -14.5t-36.5 -22.5q-6 8 -14 19
q-7 9 -16.5 21t-21.5 28q-5 -4 -14 -13q-8 -8 -19.5 -21t-29.5 -33q-6 5 -16 12q-8 6 -21.5 15t-31.5 22z" />
    <glyph glyph-name="Scommaaccent" unicode="&#x218;" horiz-adv-x="345" 
d="M27 87q-2 23 -0.5 55.5t-0.5 70.5q32 -3 61 -3t70 4q-3 -26 -3.5 -49.5t3.5 -49.5q3 -19 11 -23.5t16 -4.5q11 0 19 5.5t9 22.5q2 13 1.5 36.5t-3.5 40.5q-3 18 -14.5 30t-36.5 21q-50 18 -87 41t-51 67q-5 16 -8 44t-3.5 61t0.5 67t4 62q5 44 18.5 71t36.5 42t56 20
t77 5q39 0 63 -6.5t38 -21.5t19 -39.5t5 -60.5q0 -48 1 -88.5t6 -91.5q-28 2 -52.5 2.5t-44.5 -0.5q-23 -1 -43 -2q3 36 3 66q0 31 -2 63q-2 19 -7 26t-16 7q-8 0 -14 -6t-9 -21q-5 -24 -7 -59.5t1 -67.5q2 -23 12.5 -37t31.5 -23q36 -15 60.5 -27.5t40.5 -26.5t24.5 -30.5
t13.5 -39.5q7 -33 8 -74t-2 -88q-4 -59 -38.5 -82t-97.5 -23q-47 0 -78 7t-50.5 21t-28.5 35.5t-12 51.5zM189 -302q-23 5 -38.5 11t-25.5 11q-11 5 -19 11q15 22 22.5 44t5.5 39q-2 9 -9 18t-21 12q4 11 9 26q4 13 9.5 32.5t10.5 45.5q27 -3 43.5 -8.5t26.5 -12.5
q19 -12 26.5 -33t8.5 -44q2 -42 -13.5 -83t-35.5 -69z" />
    <glyph glyph-name="Tcaron" unicode="&#x164;" horiz-adv-x="341" 
d="M11 700q161 6 323 0q1 -22 2 -46q1 -20 1 -46t-1 -53q-22 2 -37 2t-32 -2q-18 -2 -24 -9t-6 -24q-1 -64 -0.5 -133t2 -137.5t4.5 -134.5t6 -124l-15.5 -0.5t-38.5 -0.5t-49.5 0.5t-49.5 1.5q3 51 5 115t3 133.5t1.5 141t0.5 138.5q0 17 -6 24t-24 9q-15 2 -31 2t-39 -2
q-1 27 -0.5 53t2.5 46q1 24 3 46zM304 827q-10 -9 -23 -23q-22 -23 -67 -76q-10 1 -23 1h-28q-16 0 -36 -1q-5 8 -16 21q-10 11 -27 30.5t-45 50.5q8 4 19 10q18 10 62 37q6 -8 14 -19q7 -9 16 -21.5t22 -27.5l13 13q8 8 20 20.5t30 33.5q6 -5 16 -12q8 -6 21 -15.5
t32 -21.5z" />
    <glyph glyph-name="Tcommaaccent" unicode="&#x162;" horiz-adv-x="341" 
d="M11 700q161 6 323 0q1 -22 2 -46q1 -20 1 -46t-1 -53q-22 2 -37 2t-32 -2q-18 -2 -24 -9t-6 -24q-1 -64 -0.5 -133t2 -137.5t4.5 -134.5t6 -124l-15.5 -0.5t-38.5 -0.5t-49.5 0.5t-49.5 1.5q3 51 5 115t3 133.5t1.5 141t0.5 138.5q0 17 -6 24t-24 9q-15 2 -31 2t-39 -2
q-1 27 -0.5 53t2.5 46q1 24 3 46zM172 -282q-23 5 -38.5 11t-25.5 11q-11 5 -19 11q15 22 22.5 44t5.5 39q-2 9 -9 18t-21 12q4 11 9 26q4 13 9.5 32.5t10.5 45.5q27 -3 43.5 -8.5t26.5 -12.5q19 -12 26.5 -33t8.5 -44q2 -42 -13.5 -83t-35.5 -69z" />
    <glyph glyph-name="Tcommaaccent" unicode="&#x21a;" horiz-adv-x="341" 
d="M11 700q161 6 323 0q1 -22 2 -46q1 -20 1 -46t-1 -53q-22 2 -37 2t-32 -2q-18 -2 -24 -9t-6 -24q-1 -64 -0.5 -133t2 -137.5t4.5 -134.5t6 -124l-15.5 -0.5t-38.5 -0.5t-49.5 0.5t-49.5 1.5q3 51 5 115t3 133.5t1.5 141t0.5 138.5q0 17 -6 24t-24 9q-15 2 -31 2t-39 -2
q-1 27 -0.5 53t2.5 46q1 24 3 46zM172 -282q-23 5 -38.5 11t-25.5 11q-11 5 -19 11q15 22 22.5 44t5.5 39q-2 9 -9 18t-21 12q4 11 9 26q4 13 9.5 32.5t10.5 45.5q27 -3 43.5 -8.5t26.5 -12.5q19 -12 26.5 -33t8.5 -44q2 -42 -13.5 -83t-35.5 -69z" />
    <glyph glyph-name="Ubreve" unicode="&#x16c;" horiz-adv-x="359" 
d="M15 696q15 -2 34 -3.5t38 -2.5t36.5 -1.5t30.5 -0.5q-9 -129 -10.5 -253.5t3.5 -249.5q2 -34 9.5 -48.5t24.5 -13.5q17 0 25 14t8 36q-1 72 -2.5 140t-4.5 134t-7 131.5t-10 134.5q65 -2 106 0q23 1 42 2q-4 -71 -3 -143.5t3 -145t4.5 -143t1.5 -135.5q-1 -50 -11 -84
t-31 -54.5t-53 -29t-76 -8.5q-47 0 -77.5 12t-48.5 37.5t-25 66t-6 97.5q2 115 3 242.5t-4 268.5zM141 842q1 -17 7.5 -25.5t26.5 -8.5t25.5 11t4.5 36h44q19 0 31 1q13 0 22 1q-1 -63 -23.5 -88t-70.5 -28q-16 -1 -35 -1t-30 2q-25 3 -41 9t-25.5 18t-13 29.5t-3.5 42.5
q37 -2 59 0q12 0 22 1z" />
    <glyph glyph-name="Uhungarumlaut" unicode="&#x170;" horiz-adv-x="359" 
d="M14 696q15 -2 34 -3.5t38 -2.5t36.5 -1.5t30.5 -0.5q-9 -129 -10.5 -253.5t3.5 -249.5q2 -34 9.5 -48.5t24.5 -13.5q17 0 25 14t8 36q-1 72 -2.5 140t-4.5 134t-7 131.5t-10 134.5q65 -2 106 0q23 1 42 2q-4 -71 -3 -143.5t3 -145t4.5 -143t1.5 -135.5q-1 -50 -11 -84
t-31 -54.5t-53 -29t-76 -8.5q-47 0 -77.5 12t-48.5 37.5t-25 66t-6 97.5q2 115 3 242.5t-4 268.5zM178 780q8 12 19 30q10 16 23.5 40t33.5 59q8 -6 19 -14q10 -7 24.5 -17t34.5 -23q-11 -11 -25 -28q-13 -14 -31 -35.5t-43 -51.5q-5 5 -13 11l-17.5 12.5t-24.5 16.5z
M71 784q5 13 14 33q7 17 18 43t25 63q9 -5 21 -11q11 -5 26.5 -13t38.5 -18q-9 -13 -21 -31q-11 -16 -26 -40t-34 -57l-15 9q-8 4 -19.5 9.5t-27.5 12.5z" />
    <glyph glyph-name="Umacron" unicode="&#x16a;" horiz-adv-x="359" 
d="M15 696q15 -2 34 -3.5t38 -2.5t36.5 -1.5t30.5 -0.5q-9 -129 -10.5 -253.5t3.5 -249.5q2 -34 9.5 -48.5t24.5 -13.5q17 0 25 14t8 36q-1 72 -2.5 140t-4.5 134t-7 131.5t-10 134.5q65 -2 106 0q23 1 42 2q-4 -71 -3 -143.5t3 -145t4.5 -143t1.5 -135.5q-1 -50 -11 -84
t-31 -54.5t-53 -29t-76 -8.5q-47 0 -77.5 12t-48.5 37.5t-25 66t-6 97.5q2 115 3 242.5t-4 268.5zM118 850q26 0 67.5 0.5t103.5 2.5q-1 -11 -1 -21v-23q0 -26 -18 -36.5t-49 -9.5q-40 1 -76.5 0t-75.5 -3q0 8 1 20q0 11 0.5 28t-0.5 42h48z" />
    <glyph glyph-name="Uogonek" unicode="&#x172;" horiz-adv-x="359" 
d="M14 696q15 -2 34 -3.5t38 -2.5t36.5 -1.5t30.5 -0.5q-9 -129 -10.5 -253.5t3.5 -249.5q2 -34 9.5 -48.5t24.5 -13.5q17 0 25 14t8 36q-1 72 -2.5 140t-4.5 134t-7 131.5t-10 134.5q65 -2 106 0q23 1 42 2q-4 -71 -3 -143.5t3 -145t4.5 -143t1.5 -135.5q-1 -50 -11 -84
t-31 -54.5t-53 -29t-76 -8.5q-47 0 -77.5 12t-48.5 37.5t-25 66t-6 97.5q2 115 3 242.5t-4 268.5zM145 -6h16h21t31 1q-4 -17 -5.5 -31t0.5 -30q1 -8 5 -13t16 -7q8 -1 20 1t23 7q1 -13 5 -31q3 -15 8 -36t13 -46q-26 -11 -60.5 -15.5t-59.5 0.5q-31 7 -44.5 26.5
t-13.5 50.5q0 12 2 28t6 33t8 33t9 29z" />
    <glyph glyph-name="Uring" unicode="&#x16e;" horiz-adv-x="359" 
d="M15 696q15 -2 34 -3.5t38 -2.5t36.5 -1.5t30.5 -0.5q-9 -129 -10.5 -253.5t3.5 -249.5q2 -34 9.5 -48.5t24.5 -13.5q17 0 25 14t8 36q-1 72 -2.5 140t-4.5 134t-7 131.5t-10 134.5q65 -2 106 0q23 1 42 2q-4 -71 -3 -143.5t3 -145t4.5 -143t1.5 -135.5q-1 -50 -11 -84
t-31 -54.5t-53 -29t-76 -8.5q-47 0 -77.5 12t-48.5 37.5t-25 66t-6 97.5q2 115 3 242.5t-4 268.5zM171 740q-46 0 -65.5 21t-19.5 57q0 45 22.5 66t73.5 21t70.5 -18.5t19.5 -59.5q0 -51 -22.5 -69t-78.5 -18zM184 847q-21 0 -29.5 -8t-8.5 -27q0 -14 7 -22t27 -8
q17 0 26.5 7.5t9.5 27.5q0 14 -6 22t-26 8z" />
    <glyph glyph-name="Zacute" unicode="&#x179;" horiz-adv-x="315" 
d="M25 536q0 13 -1 35q-1 19 -2.5 48.5t-4.5 74.5q133 16 273 -5q1 0 2 -7t2.5 -18t2 -24.5t-0.5 -26.5q-2 -34 -9 -63t-20 -70q-23 -76 -48.5 -147t-57.5 -153q-9 -23 -4.5 -33.5t27.5 -12.5q20 -2 40 -1t37 3q18 2 36 5l5 -138q-75 -8 -150 -8q-74 0 -143 9l-2 24
q-2 22 0 51t7 53t15 50q16 41 30.5 78.5t28.5 75t28 77.5t29 86q9 28 3.5 37t-23.5 10t-36 -0.5t-32 -3.5q-17 -3 -32 -6zM274 867q-4 -14 -10.5 -29.5t-15.5 -31.5t-18.5 -30t-19.5 -24q-30 -32 -73 -23q-10 2 -25 9.5t-29 18.5q11 20 20 34.5t14 24.5q6 11 10 19
q8 -6 19.5 -7t20.5 7q10 8 20 24.5t17 36.5q6 -4 17 -8q9 -4 22 -9.5t31 -11.5z" />
    <glyph glyph-name="Zdotaccent" unicode="&#x17b;" horiz-adv-x="315" 
d="M29 536q0 13 -1 35q-1 19 -2.5 48.5t-4.5 74.5q133 16 273 -5q1 0 2 -7t2.5 -18t2 -24.5t-0.5 -26.5q-2 -34 -9 -63t-20 -70q-23 -76 -48.5 -147t-57.5 -153q-9 -23 -4.5 -33.5t27.5 -12.5q20 -2 40 -1t37 3q18 2 36 5l5 -138q-75 -8 -150 -8q-74 0 -143 9l-2 24
q-2 22 0 51t7 53t15 50q16 41 30.5 78.5t28.5 75t28 77.5t29 86q9 28 3.5 37t-23.5 10t-36 -0.5t-32 -3.5q-17 -3 -32 -6zM169 870q32 0 48.5 -19.5t16.5 -49.5q0 -34 -19.5 -54t-53.5 -20q-33 0 -51 19t-18 49q0 34 20.5 54.5t56.5 20.5z" />
    <glyph glyph-name="abreve" unicode="&#x103;" horiz-adv-x="365" 
d="M31 365q1 24 0.5 52t-1.5 56.5t-1 56.5t2 52q7 77 53.5 109.5t118.5 32.5q56 0 86.5 -28t37.5 -89q3 -33 4 -74t0.5 -85t-2 -87.5t-3 -82.5t-2 -70.5t1.5 -49.5q2 -20 9.5 -27.5t25.5 -5.5l-1 -12.5t-2 -32t-1.5 -44.5t0.5 -52q-49 -6 -82.5 9.5t-44.5 64.5
q-19 -33 -49.5 -52t-70.5 -19q-84 0 -99 88q-4 23 -5 51t1 52q3 27 9 47.5t19 36.5t34 27.5t53 20.5q26 7 42.5 15.5t26.5 19t14.5 23.5t6.5 30q1 12 1.5 28t0.5 33t-0.5 34t-1.5 31q-3 45 -32 45q-13 0 -19 -9.5t-7 -25.5q-2 -35 -2 -78q0 -42 4 -76q-19 -1 -39 -3
q-17 -2 -39.5 -4.5t-46.5 -7.5zM173 220q-27 -13 -35 -27t-8 -39q0 -20 8.5 -27t19.5 -7q58 0 54 129q-14 -17 -39 -29zM144 851q1 -17 7.5 -25.5t26.5 -8.5t25.5 11t4.5 36h44q19 0 31 1q13 0 22 1q-1 -63 -23.5 -88t-70.5 -28q-16 -1 -35 -1t-30 2q-25 3 -41 9t-25.5 18
t-13 29.5t-3.5 42.5q37 -2 59 0q12 0 22 1z" />
    <glyph glyph-name="amacron" unicode="&#x101;" horiz-adv-x="365" 
d="M31 365q1 24 0.5 52t-1.5 56.5t-1 56.5t2 52q7 77 53.5 109.5t118.5 32.5q56 0 86.5 -28t37.5 -89q3 -33 4 -74t0.5 -85t-2 -87.5t-3 -82.5t-2 -70.5t1.5 -49.5q2 -20 9.5 -27.5t25.5 -5.5l-1 -12.5t-2 -32t-1.5 -44.5t0.5 -52q-49 -6 -82.5 9.5t-44.5 64.5
q-19 -33 -49.5 -52t-70.5 -19q-84 0 -99 88q-4 23 -5 51t1 52q3 27 9 47.5t19 36.5t34 27.5t53 20.5q26 7 42.5 15.5t26.5 19t14.5 23.5t6.5 30q1 12 1.5 28t0.5 33t-0.5 34t-1.5 31q-3 45 -32 45q-13 0 -19 -9.5t-7 -25.5q-2 -35 -2 -78q0 -42 4 -76q-19 -1 -39 -3
q-17 -2 -39.5 -4.5t-46.5 -7.5zM173 220q-27 -13 -35 -27t-8 -39q0 -20 8.5 -27t19.5 -7q58 0 54 129q-14 -17 -39 -29zM121 859q26 0 67.5 0.5t103.5 2.5q-1 -11 -1 -21v-23q0 -26 -18 -36.5t-49 -9.5q-40 1 -76.5 0t-75.5 -3q0 8 1 20q0 11 0.5 28t-0.5 42h48z" />
    <glyph glyph-name="aogonek" unicode="&#x105;" horiz-adv-x="370" 
d="M31 365q1 24 0.5 52t-1.5 56.5t-1 56.5t2 52q7 77 53.5 109.5t118.5 32.5q56 0 86.5 -28t37.5 -89q3 -33 4 -74t0.5 -85t-2 -87.5t-3 -82.5t-2 -70.5t1.5 -49.5q2 -20 9.5 -27.5t25.5 -5.5q0 1 -1 -11t-1.5 -31t-1 -41.5t-0.5 -43.5q-6 -14 -8.5 -32.5t1.5 -29.5
q5 -17 25 -19q23 -3 41 8q1 -13 5 -31q3 -15 8 -36t13 -46q-26 -11 -60.5 -15.5t-59.5 0.5q-31 7 -44.5 26.5t-13.5 50.5q0 11 2 25.5t5 30t7 31t8 28.5q-21 7 -35.5 23.5t-20.5 45.5q-19 -32 -49.5 -51.5t-70.5 -19.5q-84 0 -99 88q-4 23 -5 51t1 52q3 27 9 47.5t19 36.5
t34 27.5t53 20.5q26 7 42.5 15.5t26.5 19t14.5 23.5t6.5 30q1 12 1.5 28t0.5 33t-0.5 34t-1.5 31q-3 45 -32 45q-13 0 -19 -9.5t-7 -25.5q-2 -35 -2 -78q0 -42 4 -76q-19 -1 -39 -3q-17 -2 -39.5 -4.5t-46.5 -7.5zM173 220q-27 -13 -35 -27t-8 -39q0 -20 8.5 -27t19.5 -7
q58 0 54 129q-14 -17 -39 -29z" />
    <glyph glyph-name="cacute" unicode="&#x107;" horiz-adv-x="342" 
d="M328 440q-20 -1 -41.5 -1.5t-39.5 -1.5q-21 -1 -41 -3q1 29 0.5 61t-2.5 54q-2 23 -21 23q-25 0 -28 -31q-5 -41 -8 -95t-3 -109q0 -54 3 -104.5t9 -84.5q4 -19 12 -25.5t20 -6.5q19 0 22 20q3 24 2 59.5t-3 65.5q20 -1 40 -0.5t37 1.5q19 1 37 1q-4 -42 -2 -91t-2 -94
q-5 -50 -37.5 -74t-86.5 -24q-35 0 -61 7t-45 22.5t-31.5 39.5t-21.5 58q-12 49 -18 115t-6.5 134t3.5 131t11 105q6 38 18 63.5t31.5 41t47 22t65.5 6.5q66 0 97 -27.5t35 -90.5q2 -41 2.5 -83.5t5.5 -83.5zM284 890q-4 -14 -10.5 -29.5t-15.5 -31.5t-18.5 -30t-19.5 -24
q-30 -32 -73 -23q-10 2 -25 9.5t-29 18.5q11 20 20 34.5t14 24.5q6 11 10 19q8 -6 19.5 -7t20.5 7q10 8 20 24.5t17 36.5q6 -4 17 -8q9 -4 22 -9.5t31 -11.5z" />
    <glyph glyph-name="ccaron" unicode="&#x10d;" horiz-adv-x="342" 
d="M328 440q-20 -1 -41.5 -1.5t-39.5 -1.5q-21 -1 -41 -3q1 29 0.5 61t-2.5 54q-2 23 -21 23q-25 0 -28 -31q-5 -41 -8 -95t-3 -109q0 -54 3 -104.5t9 -84.5q4 -19 12 -25.5t20 -6.5q19 0 22 20q3 24 2 59.5t-3 65.5q20 -1 40 -0.5t37 1.5q19 1 37 1q-4 -42 -2 -91t-2 -94
q-5 -50 -37.5 -74t-86.5 -24q-35 0 -61 7t-45 22.5t-31.5 39.5t-21.5 58q-12 49 -18 115t-6.5 134t3.5 131t11 105q6 38 18 63.5t31.5 41t47 22t65.5 6.5q66 0 97 -27.5t35 -90.5q2 -41 2.5 -83.5t5.5 -83.5zM301 849q-10 -9 -23 -23q-22 -23 -67 -76q-10 1 -23 1h-28
q-16 0 -36 -1q-5 8 -16 21q-10 11 -27 30.5t-45 50.5q8 4 19 10q18 10 62 37q6 -8 14 -19q7 -9 16 -21.5t22 -27.5l13 13q8 8 20 20.5t30 33.5q6 -5 16 -12q8 -6 21 -15.5t32 -21.5z" />
    <glyph glyph-name="ccircumflex" unicode="&#x109;" horiz-adv-x="342" 
d="M328 440q-20 -1 -41.5 -1.5t-39.5 -1.5q-21 -1 -41 -3q1 29 0.5 61t-2.5 54q-2 23 -21 23q-25 0 -28 -31q-5 -41 -8 -95t-3 -109q0 -54 3 -104.5t9 -84.5q4 -19 12 -25.5t20 -6.5q19 0 22 20q3 24 2 59.5t-3 65.5q20 -1 40 -0.5t37 1.5q19 1 37 1q-4 -42 -2 -91t-2 -94
q-5 -50 -37.5 -74t-86.5 -24q-35 0 -61 7t-45 22.5t-31.5 39.5t-21.5 58q-12 49 -18 115t-6.5 134t3.5 131t11 105q6 38 18 63.5t31.5 41t47 22t65.5 6.5q66 0 97 -27.5t35 -90.5q2 -41 2.5 -83.5t5.5 -83.5zM36 790q9 9 22 23q11 12 28 31t40 45q10 -1 23 -1h27t37 1
q5 -8 16 -21q10 -11 27 -31t45 -50q-8 -4 -19 -10q-10 -5 -25.5 -14.5t-36.5 -22.5q-6 8 -14 19q-7 9 -16.5 21t-21.5 28q-5 -4 -14 -13q-8 -8 -19.5 -21t-29.5 -33q-6 5 -16 12q-8 6 -21.5 15t-31.5 22z" />
    <glyph glyph-name="dcaron" unicode="&#x10f;" horiz-adv-x="377" 
d="M20 699q29 11 68 17t74 6q40 0 70 -7t52.5 -24.5t37.5 -47.5t24 -75q7 -38 11 -90.5t4.5 -108t-2 -109.5t-7.5 -95q-7 -52 -18.5 -86.5t-32 -55t-51 -29t-74.5 -8.5q-37 0 -77.5 6t-74.5 17q1 66 1.5 154.5t0 183t-2 187t-3.5 165.5zM152 575q-1 -47 -2 -108.5t-1 -125.5
q0 -63 1 -123t3 -103q20 -2 33 -0.5t21 8t12.5 19t6.5 33.5q4 35 6 84.5t1.5 100.5t-3.5 97t-9 75q-5 26 -20 36t-49 7zM321 846q-10 -9 -23 -23q-22 -23 -67 -76q-10 1 -23 1h-28q-16 0 -36 -1q-5 8 -16 21q-10 11 -27 30.5t-45 50.5q8 4 19 10q18 10 62 37q6 -8 14 -19
q7 -9 16 -21.5t22 -27.5l13 13q8 8 20 20.5t30 33.5q6 -5 16 -12q8 -6 21 -15.5t32 -21.5z" />
    <glyph glyph-name="ecaron" unicode="&#x11b;" horiz-adv-x="354" 
d="M176 -20q-37 0 -62.5 7t-43 21.5t-27.5 37t-16 53.5q-9 48 -12.5 110.5t-3 128.5t5.5 130t14 115q14 81 48 113.5t91 32.5q90 0 126 -44.5t38 -127.5q1 -39 0 -78.5t-2.5 -77t-1.5 -72.5t3 -64q-42 -6 -94 -8.5t-96 -1.5q1 -31 3 -56t5 -42q4 -20 15.5 -28t35.5 -8
q29 0 61.5 6.5t62.5 18.5q-1 -22 -2 -47q-1 -21 -1.5 -46.5t0.5 -49.5q-31 -11 -68.5 -17t-78.5 -6zM180 367q14 2 21 8.5t9 23.5q3 32 4 68t-1 69q-2 26 -6.5 37.5t-24.5 11.5q-10 0 -16 -5.5t-9 -21.5q-7 -34 -10 -85.5t-5 -107.5q8 0 18 0.5t20 1.5zM307 853
q-10 -9 -23 -23q-22 -23 -67 -76q-10 1 -23 1h-28q-16 0 -36 -1q-5 8 -16 21q-10 11 -27 30.5t-45 50.5q8 4 19 10q18 10 62 37q6 -8 14 -19q7 -9 16 -21.5t22 -27.5l13 13q8 8 20 20.5t30 33.5q6 -5 16 -12q8 -6 21 -15.5t32 -21.5z" />
    <glyph glyph-name="edotaccent" unicode="&#x117;" horiz-adv-x="354" 
d="M176 -20q-37 0 -62.5 7t-43 21.5t-27.5 37t-16 53.5q-9 48 -12.5 110.5t-3 128.5t5.5 130t14 115q14 81 48 113.5t91 32.5q90 0 126 -44.5t38 -127.5q1 -39 0 -78.5t-2.5 -77t-1.5 -72.5t3 -64q-42 -6 -94 -8.5t-96 -1.5q1 -31 3 -56t5 -42q4 -20 15.5 -28t35.5 -8
q29 0 61.5 6.5t62.5 18.5q-1 -22 -2 -47q-1 -21 -1.5 -46.5t0.5 -49.5q-31 -11 -68.5 -17t-78.5 -6zM180 367q14 2 21 8.5t9 23.5q3 32 4 68t-1 69q-2 26 -6.5 37.5t-24.5 11.5q-10 0 -16 -5.5t-9 -21.5q-7 -34 -10 -85.5t-5 -107.5q8 0 18 0.5t20 1.5zM180 897
q32 0 48.5 -19.5t16.5 -49.5q0 -34 -19.5 -54t-53.5 -20q-33 0 -51 19t-18 49q0 34 20.5 54.5t56.5 20.5z" />
    <glyph glyph-name="emacron" unicode="&#x113;" horiz-adv-x="354" 
d="M176 -20q-37 0 -62.5 7t-43 21.5t-27.5 37t-16 53.5q-9 48 -12.5 110.5t-3 128.5t5.5 130t14 115q14 81 48 113.5t91 32.5q90 0 126 -44.5t38 -127.5q1 -39 0 -78.5t-2.5 -77t-1.5 -72.5t3 -64q-42 -6 -94 -8.5t-96 -1.5q1 -31 3 -56t5 -42q4 -20 15.5 -28t35.5 -8
q29 0 61.5 6.5t62.5 18.5q-1 -22 -2 -47q-1 -21 -1.5 -46.5t0.5 -49.5q-31 -11 -68.5 -17t-78.5 -6zM180 367q14 2 21 8.5t9 23.5q3 32 4 68t-1 69q-2 26 -6.5 37.5t-24.5 11.5q-10 0 -16 -5.5t-9 -21.5q-7 -34 -10 -85.5t-5 -107.5q8 0 18 0.5t20 1.5zM113 864
q26 0 67.5 0.5t103.5 2.5q-1 -11 -1 -21v-23q0 -26 -18 -36.5t-49 -9.5q-40 1 -76.5 0t-75.5 -3q0 8 1 20q0 11 0.5 28t-0.5 42h48z" />
    <glyph glyph-name="eogonek" unicode="&#x119;" horiz-adv-x="354" 
d="M176 -20q-37 0 -62.5 7t-43 21.5t-27.5 37t-16 53.5q-9 48 -12.5 110.5t-3 128.5t5.5 130t14 115q14 81 48 113.5t91 32.5q90 0 126 -44.5t38 -127.5q1 -39 0 -78.5t-2.5 -77t-1.5 -72.5t3 -64q-42 -6 -94 -8.5t-96 -1.5q1 -31 3 -56t5 -42q4 -20 15.5 -28t35.5 -8
q29 0 61.5 6.5t62.5 18.5q-1 -22 -2 -47q-1 -21 -1.5 -46.5t0.5 -49.5q-31 -11 -68.5 -17t-78.5 -6zM180 367q14 2 21 8.5t9 23.5q3 32 4 68t-1 69q-2 26 -6.5 37.5t-24.5 11.5q-10 0 -16 -5.5t-9 -21.5q-7 -34 -10 -85.5t-5 -107.5q8 0 18 0.5t20 1.5zM149 -5h16h21t31 1
q-4 -17 -5.5 -31t0.5 -30q1 -8 5 -13t16 -7q8 -1 20 1t23 7q1 -13 5 -31q3 -15 8 -36t13 -46q-26 -11 -60.5 -15.5t-59.5 0.5q-31 7 -44.5 26.5t-13.5 50.5q0 12 2 28t6 33t8 33t9 29z" />
    <glyph glyph-name="gbreve" unicode="&#x11f;" 
d="M214 727q36 0 60.5 -6.5t39 -19.5t21 -33.5t8.5 -48.5q3 -50 0 -102.5t2 -110.5q-20 2 -40 2q-18 0 -39.5 -1t-44.5 -3q1 16 2 36t1 40q0 21 -0.5 39t-1.5 32q-1 23 -22 23q-23 0 -29 -29q-7 -34 -11.5 -88t-6 -112t0.5 -111.5t8 -86.5q5 -26 13 -34.5t25 -8.5
q31 0 33 65q1 26 -7.5 35t-31.5 4v37t-1 33q-1 17 -1 33q77 5 158 3q-3 -21 -4.5 -45t-2.5 -47.5t-1 -44.5q0 -20 2 -34q3 -29 30 -24q-2 -18 -3 -38q-2 -17 -2.5 -38.5t-1.5 -42.5q-48 -11 -75 -0.5t-36 41.5q-7 -31 -30 -48.5t-70 -17.5q-53 0 -82.5 33.5t-40.5 95.5
q-8 44 -11.5 104.5t-3 125.5t6 128t16.5 112q9 42 23 71t35 47.5t49 26.5t66 8zM159 854q1 -17 7.5 -25.5t26.5 -8.5t25.5 11t4.5 36h44q19 0 31 1q13 0 22 1q-1 -63 -23.5 -88t-70.5 -28q-16 -1 -35 -1t-30 2q-25 3 -41 9t-25.5 18t-13 29.5t-3.5 42.5q37 -2 59 0
q12 0 22 1z" />
    <glyph glyph-name="gcircumflex" unicode="&#x11d;" 
d="M214 727q36 0 60.5 -6.5t39 -19.5t21 -33.5t8.5 -48.5q3 -50 0 -102.5t2 -110.5q-20 2 -40 2q-18 0 -39.5 -1t-44.5 -3q1 16 2 36t1 40q0 21 -0.5 39t-1.5 32q-1 23 -22 23q-23 0 -29 -29q-7 -34 -11.5 -88t-6 -112t0.5 -111.5t8 -86.5q5 -26 13 -34.5t25 -8.5
q31 0 33 65q1 26 -7.5 35t-31.5 4v37t-1 33q-1 17 -1 33q77 5 158 3q-3 -21 -4.5 -45t-2.5 -47.5t-1 -44.5q0 -20 2 -34q3 -29 30 -24q-2 -18 -3 -38q-2 -17 -2.5 -38.5t-1.5 -42.5q-48 -11 -75 -0.5t-36 41.5q-7 -31 -30 -48.5t-70 -17.5q-53 0 -82.5 33.5t-40.5 95.5
q-8 44 -11.5 104.5t-3 125.5t6 128t16.5 112q9 42 23 71t35 47.5t49 26.5t66 8zM65 792q9 9 22 23q11 12 28 31t40 45q10 -1 23 -1h27t37 1q5 -8 16 -21q10 -11 27 -31t45 -50q-8 -4 -19 -10q-10 -5 -25.5 -14.5t-36.5 -22.5q-6 8 -14 19q-7 9 -16.5 21t-21.5 28
q-5 -4 -14 -13q-8 -8 -19.5 -21t-29.5 -33q-6 5 -16 12q-8 6 -21.5 15t-31.5 22z" />
    <glyph glyph-name="gcommaaccent" unicode="&#x123;" 
d="M214 727q36 0 60.5 -6.5t39 -19.5t21 -33.5t8.5 -48.5q3 -50 0 -102.5t2 -110.5q-20 2 -40 2q-18 0 -39.5 -1t-44.5 -3q1 16 2 36t1 40q0 21 -0.5 39t-1.5 32q-1 23 -22 23q-23 0 -29 -29q-7 -34 -11.5 -88t-6 -112t0.5 -111.5t8 -86.5q5 -26 13 -34.5t25 -8.5
q31 0 33 65q1 26 -7.5 35t-31.5 4v37t-1 33q-1 17 -1 33q77 5 158 3q-3 -21 -4.5 -45t-2.5 -47.5t-1 -44.5q0 -20 2 -34q3 -29 30 -24q-2 -18 -3 -38q-2 -17 -2.5 -38.5t-1.5 -42.5q-48 -11 -75 -0.5t-36 41.5q-7 -31 -30 -48.5t-70 -17.5q-53 0 -82.5 33.5t-40.5 95.5
q-8 44 -11.5 104.5t-3 125.5t6 128t16.5 112q9 42 23 71t35 47.5t49 26.5t66 8zM228 -299q-23 5 -38.5 11t-25.5 11q-11 5 -19 11q15 22 22.5 44t5.5 39q-2 9 -9 18t-21 12q4 11 9 26q4 13 9.5 32.5t10.5 45.5q27 -3 43.5 -8.5t26.5 -12.5q19 -12 26.5 -33t8.5 -44
q2 -42 -13.5 -83t-35.5 -69z" />
    <glyph glyph-name="hcircumflex" unicode="&#x125;" horiz-adv-x="379" 
d="M359 698q-3 -78 -4.5 -172.5t-1.5 -191.5q0 -96 1.5 -187t3.5 -160h-40q-18 0 -41.5 -0.5t-49.5 -2.5q1 34 2 69.5t1 68.5q0 34 -1 63t-3 52q-2 17 -9.5 26.5t-25.5 10.5q-27 1 -29 -26q-2 -54 -0.5 -122t4.5 -132q-22 1 -47 3q-21 1 -47 2t-52 1q3 63 5 151t3 185t0 195
t-2 180q25 0 49 0.5t44 1.5q23 1 44 3q-2 -38 -3.5 -78.5t-2 -78.5t0 -71.5t2.5 -58.5q2 -24 15.5 -36t53.5 -8q1 24 1.5 63t0 83t-1.5 89.5t-3 82.5q20 -2 42 -3q19 -1 42.5 -1.5t48.5 -0.5zM57 791q9 9 22 23q11 12 28 31t40 45q10 -1 23 -1h27t37 1q5 -8 16 -21
q10 -11 27 -31t45 -50q-8 -4 -19 -10q-10 -5 -25.5 -14.5t-36.5 -22.5q-6 8 -14 19q-7 9 -16.5 21t-21.5 28q-5 -4 -14 -13q-8 -8 -19.5 -21t-29.5 -33q-6 5 -16 12q-8 6 -21.5 15t-31.5 22z" />
    <glyph glyph-name="imacron" unicode="&#x12b;" horiz-adv-x="193" 
d="M35 512q24 -2 47.5 -2.5t42.5 -0.5h41q0 -54 -0.5 -119.5t0 -133.5t2 -133.5t4.5 -119.5q-26 -1 -52 -1.5t-46 -1.5q-24 -1 -46 -2q2 56 4 122.5t3 134.5t1 134q0 67 -1 123zM106 735q42 0 64 -26t22 -65q0 -44 -26 -70.5t-71 -26.5q-44 0 -67 25t-23 64q0 45 27 72
t74 27zM36 870q26 0 67.5 0.5t103.5 2.5q-1 -11 -1 -21v-23q0 -26 -18 -36.5t-49 -9.5q-40 1 -76.5 0t-75.5 -3q0 8 1 20q0 11 0.5 28t-0.5 42h48z" />
    <glyph glyph-name="iogonek" unicode="&#x12f;" horiz-adv-x="193" 
d="M37 512q24 -2 47.5 -2.5t42.5 -0.5h41q0 -54 -0.5 -119.5t0 -133.5t2 -133.5t4.5 -119.5q-26 -1 -52 -1.5t-46 -1.5q-24 -1 -46 -2q2 56 4 122.5t3 134.5t1 134q0 67 -1 123zM108 735q42 0 64 -26t22 -65q0 -44 -26 -70.5t-71 -26.5q-44 0 -67 25t-23 64q0 45 27 72
t74 27zM69 16h16h21t31 1q-4 -17 -5.5 -31t0.5 -30q1 -8 5 -13t16 -7q8 -1 20 1t23 7q1 -13 5 -31q3 -15 8 -36t13 -46q-26 -11 -60.5 -15.5t-59.5 0.5q-31 7 -44.5 26.5t-13.5 50.5q0 12 2 28t6 33t8 33t9 29z" />
    <glyph glyph-name="jcircumflex" unicode="&#x135;" horiz-adv-x="294" 
d="M128 697l54 2t48 3q25 2 48 4q-2 -56 -1 -125t2.5 -141t2 -141t-2.5 -123q-5 -103 -42.5 -146.5t-117.5 -43.5q-58 0 -114 17q2 26 4 52.5t4 46.5l5 45q39 -15 76 -15q24 0 36 12t15 36q5 40 5 106q0 67 -3 141.5t-8 146.5t-11 123zM69 781q9 9 22 23q11 12 28 31t40 45
q10 -1 23 -1h27t37 1q5 -8 16 -21q10 -11 27 -31t45 -50q-8 -4 -19 -10q-10 -5 -25.5 -14.5t-36.5 -22.5q-6 8 -14 19q-7 9 -16.5 21t-21.5 28q-5 -4 -14 -13q-8 -8 -19.5 -21t-29.5 -33q-6 5 -16 12q-8 6 -21.5 15t-31.5 22z" />
    <glyph glyph-name="kcommaaccent" unicode="&#x137;" 
d="M163 715q-3 -31 -4.5 -72t-2.5 -82t-0.5 -77.5t2.5 -59.5q5 -1 9 -2t8.5 -1.5t9.5 0.5q17 1 24 11.5t9 33.5q1 22 2 50.5t1.5 59.5t-0.5 62t-2 60q21 -2 45 -3q20 -2 44.5 -2.5t49.5 0.5q-3 -25 -4.5 -57t-2 -64.5t-1.5 -63t-3 -53.5q-4 -34 -24 -59t-63 -33
q44 -8 65.5 -31.5t26.5 -71.5q3 -31 4 -67.5t2 -73.5t2.5 -71.5t5.5 -60.5q-22 0 -47 -1q-21 -1 -47 -2.5t-52 -3.5q2 34 2 75t-0.5 80.5t-2 74t-3.5 57.5q-2 17 -8 29t-24 13q-26 1 -28 -27q-2 -27 -1.5 -63.5t1.5 -75.5t3.5 -77.5t5.5 -70.5q-22 1 -47 2q-21 1 -46.5 1.5
t-51.5 0.5q4 63 6 150.5t2 184.5t-2 194.5t-5 179.5q28 0 53.5 1t45.5 3q23 2 43 3zM189 -294q-23 5 -38.5 11t-25.5 11q-11 5 -19 11q15 22 22.5 44t5.5 39q-2 9 -9 18t-21 12q4 11 9 26q4 13 9.5 32.5t10.5 45.5q27 -3 43.5 -8.5t26.5 -12.5q19 -12 26.5 -33t8.5 -44
q2 -42 -13.5 -83t-35.5 -69z" />
    <glyph glyph-name="lacute" unicode="&#x13a;" horiz-adv-x="302" 
d="M171 696q-9 -63 -14.5 -137t-8.5 -145t-2.5 -132.5t5.5 -99.5q3 -26 13.5 -36.5t36.5 -10.5q49 0 96 10v-13t-0.5 -34t-1.5 -46.5t-3 -51.5q-28 -8 -58 -12t-61 -4q-34 0 -58.5 8t-42 26t-28 47t-16.5 72q-6 42 -8.5 110.5t-1.5 148t5 161t12 150.5q26 -3 50.5 -4.5
t43.5 -3.5q22 -2 42 -3zM237 872q-4 -14 -10.5 -29.5t-15.5 -31.5t-18.5 -30t-19.5 -24q-30 -32 -73 -23q-10 2 -25 9.5t-29 18.5q11 20 20 34.5t14 24.5q6 11 10 19q8 -6 19.5 -7t20.5 7q10 8 20 24.5t17 36.5q6 -4 17 -8q9 -4 22 -9.5t31 -11.5z" />
    <glyph glyph-name="lcaron" unicode="&#x13e;" horiz-adv-x="340" 
d="M171 696q-9 -63 -14.5 -137t-8.5 -145t-2.5 -132.5t5.5 -99.5q3 -26 13.5 -36.5t36.5 -10.5q49 0 96 10v-13t-0.5 -34t-1.5 -46.5t-3 -51.5q-28 -8 -58 -12t-61 -4q-34 0 -58.5 8t-42 26t-28 47t-16.5 72q-6 42 -8.5 110.5t-1.5 148t5 161t12 150.5q26 -3 50.5 -4.5
t43.5 -3.5q22 -2 42 -3zM274 457q-23 5 -38.5 11t-25.5 11q-11 5 -19 11q15 22 22.5 44t5.5 39q-2 9 -9 18t-21 12q4 11 9 26q4 13 9.5 32.5t10.5 45.5q27 -3 43.5 -8.5t26.5 -12.5q19 -12 26.5 -33t8.5 -44q2 -42 -13.5 -83t-35.5 -69z" />
    <glyph glyph-name="lcommaaccent" unicode="&#x13c;" horiz-adv-x="302" 
d="M171 696q-9 -63 -14.5 -137t-8.5 -145t-2.5 -132.5t5.5 -99.5q3 -26 13.5 -36.5t36.5 -10.5q49 0 96 10v-13t-0.5 -34t-1.5 -46.5t-3 -51.5q-28 -8 -58 -12t-61 -4q-34 0 -58.5 8t-42 26t-28 47t-16.5 72q-6 42 -8.5 110.5t-1.5 148t5 161t12 150.5q26 -3 50.5 -4.5
t43.5 -3.5q22 -2 42 -3zM152 -290q-23 5 -38.5 11t-25.5 11q-11 5 -19 11q15 22 22.5 44t5.5 39q-2 9 -9 18t-21 12q4 11 9 26q4 13 9.5 32.5t10.5 45.5q27 -3 43.5 -8.5t26.5 -12.5q19 -12 26.5 -33t8.5 -44q2 -42 -13.5 -83t-35.5 -69z" />
    <glyph glyph-name="nacute" unicode="&#x144;" horiz-adv-x="408" 
d="M384 2q-14 -7 -40.5 -11t-49.5 -4q-54 0 -76.5 20.5t-30.5 67.5q-10 54 -17.5 108.5t-14.5 110.5t-14.5 114t-17.5 121q0 -60 1 -128.5t3 -139t5 -138t6 -125.5h-11h-27t-39 0.5t-45 1.5q3 69 5 162t3 191t1.5 189.5t-0.5 157.5q14 2 38.5 3.5t51 2t51 1t39.5 0.5
q11 -72 20 -138.5t18 -134.5t20 -141t26 -159q-2 65 -4 142t-5.5 153t-8 146t-9.5 122h44t37.5 -1t26.5 -1h10q-1 -68 -1.5 -156t0 -181.5t1.5 -186t4 -169.5zM320 872q-4 -14 -10.5 -29.5t-15.5 -31.5t-18.5 -30t-19.5 -24q-30 -32 -73 -23q-10 2 -25 9.5t-29 18.5
q11 20 20 34.5t14 24.5q6 11 10 19q8 -6 19.5 -7t20.5 7q10 8 20 24.5t17 36.5q6 -4 17 -8q9 -4 22 -9.5t31 -11.5z" />
    <glyph glyph-name="ncaron" unicode="&#x148;" horiz-adv-x="408" 
d="M388 2q-14 -7 -40.5 -11t-49.5 -4q-54 0 -76.5 20.5t-30.5 67.5q-10 54 -17.5 108.5t-14.5 110.5t-14.5 114t-17.5 121q0 -60 1 -128.5t3 -139t5 -138t6 -125.5h-11h-27t-39 0.5t-45 1.5q3 69 5 162t3 191t1.5 189.5t-0.5 157.5q14 2 38.5 3.5t51 2t51 1t39.5 0.5
q11 -72 20 -138.5t18 -134.5t20 -141t26 -159q-2 65 -4 142t-5.5 153t-8 146t-9.5 122h44t37.5 -1t26.5 -1h10q-1 -68 -1.5 -156t0 -181.5t1.5 -186t4 -169.5zM342 831q-10 -9 -23 -23q-22 -23 -67 -76q-10 1 -23 1h-28q-16 0 -36 -1q-5 8 -16 21q-10 11 -27 30.5t-45 50.5
q8 4 19 10q18 10 62 37q6 -8 14 -19q7 -9 16 -21.5t22 -27.5l13 13q8 8 20 20.5t30 33.5q6 -5 16 -12q8 -6 21 -15.5t32 -21.5z" />
    <glyph glyph-name="ncommaaccent" unicode="&#x146;" horiz-adv-x="408" 
d="M384 2q-14 -7 -40.5 -11t-49.5 -4q-54 0 -76.5 20.5t-30.5 67.5q-10 54 -17.5 108.5t-14.5 110.5t-14.5 114t-17.5 121q0 -60 1 -128.5t3 -139t5 -138t6 -125.5h-11h-27t-39 0.5t-45 1.5q3 69 5 162t3 191t1.5 189.5t-0.5 157.5q14 2 38.5 3.5t51 2t51 1t39.5 0.5
q11 -72 20 -138.5t18 -134.5t20 -141t26 -159q-2 65 -4 142t-5.5 153t-8 146t-9.5 122h44t37.5 -1t26.5 -1h10q-1 -68 -1.5 -156t0 -181.5t1.5 -186t4 -169.5zM205 -287q-23 5 -38.5 11t-25.5 11q-11 5 -19 11q15 22 22.5 44t5.5 39q-2 9 -9 18t-21 12q4 11 9 26
q4 13 9.5 32.5t10.5 45.5q27 -3 43.5 -8.5t26.5 -12.5q19 -12 26.5 -33t8.5 -44q2 -42 -13.5 -83t-35.5 -69z" />
    <glyph glyph-name="ohungarumlaut" unicode="&#x151;" horiz-adv-x="367" 
d="M188 588q-14 0 -19.5 -6t-8.5 -25q-4 -24 -6 -58.5t-3 -74t-0.5 -81.5t2.5 -80t4.5 -70t6.5 -51q3 -15 11 -25t24 -10q14 0 20 5.5t8 19.5t4 44t2.5 69t0.5 82q0 44 -1 84t-2.5 73.5t-3.5 51.5q-3 29 -11 40.5t-28 11.5zM172 729q46 0 78 -10t52 -31t31 -53t16 -75
q3 -24 3.5 -61.5t0 -81t-2 -90.5t-3.5 -89.5t-4.5 -77.5t-5.5 -56q-5 -36 -14.5 -59.5t-26.5 -38t-43 -20.5t-62 -6q-75 0 -110 34t-46 94q-9 46 -13.5 107.5t-5.5 127t2 129.5t11 116q6 39 16 66t27 43.5t41.5 24t58.5 7.5zM186 794q8 12 19 30q10 16 23.5 40t33.5 59
q8 -6 19 -14q10 -7 24.5 -17t34.5 -23q-11 -11 -25 -28q-13 -14 -31 -35.5t-43 -51.5q-5 5 -13 11l-17.5 12.5t-24.5 16.5zM79 798q5 13 14 33q7 17 18 43t25 63q9 -5 21 -11q11 -5 26.5 -13t38.5 -18q-9 -13 -21 -31q-11 -16 -26 -40t-34 -57l-15 9q-8 4 -19.5 9.5
t-27.5 12.5z" />
    <glyph glyph-name="omacron" unicode="&#x14d;" horiz-adv-x="367" 
d="M188 588q-14 0 -19.5 -6t-8.5 -25q-4 -24 -6 -58.5t-3 -74t-0.5 -81.5t2.5 -80t4.5 -70t6.5 -51q3 -15 11 -25t24 -10q14 0 20 5.5t8 19.5t4 44t2.5 69t0.5 82q0 44 -1 84t-2.5 73.5t-3.5 51.5q-3 29 -11 40.5t-28 11.5zM172 729q46 0 78 -10t52 -31t31 -53t16 -75
q3 -24 3.5 -61.5t0 -81t-2 -90.5t-3.5 -89.5t-4.5 -77.5t-5.5 -56q-5 -36 -14.5 -59.5t-26.5 -38t-43 -20.5t-62 -6q-75 0 -110 34t-46 94q-9 46 -13.5 107.5t-5.5 127t2 129.5t11 116q6 39 16 66t27 43.5t41.5 24t58.5 7.5zM123 864q26 0 67.5 0.5t103.5 2.5q-1 -11 -1 -21
v-23q0 -26 -18 -36.5t-49 -9.5q-40 1 -76.5 0t-75.5 -3q0 8 1 20q0 11 0.5 28t-0.5 42h48z" />
    <glyph glyph-name="racute" unicode="&#x155;" horiz-adv-x="386" 
d="M161 563q-2 -46 -2 -84v-76q35 -5 53.5 1.5t26.5 25.5q3 8 5 22.5t2.5 31t-0.5 31t-4 22.5q-14 41 -81 26zM226 235q-5 24 -22.5 36t-43.5 14q2 -56 4.5 -127t7.5 -173q-35 2 -60.5 3.5t-43.5 1.5h-36q3 90 2.5 188.5t-2.5 192.5t-5.5 177.5t-6.5 144.5q47 14 102.5 22.5
t97.5 8.5t70.5 -7.5t46 -28.5t25.5 -59.5t8 -101.5q0 -51 -6 -86t-18.5 -57t-33 -32.5t-48.5 -13.5q19 -3 31.5 -9.5t23.5 -16.5q17 -16 23.5 -52t4.5 -98q-1 -43 34 -40q-4 -38 -5.5 -71t-0.5 -70q-62 -10 -99.5 5t-45.5 60q-4 24 -4 49q0 26 1.5 51t2 48t-3.5 41zM309 889
q-4 -14 -10.5 -29.5t-15.5 -31.5t-18.5 -30t-19.5 -24q-30 -32 -73 -23q-10 2 -25 9.5t-29 18.5q11 20 20 34.5t14 24.5q6 11 10 19q8 -6 19.5 -7t20.5 7q10 8 20 24.5t17 36.5q6 -4 17 -8q9 -4 22 -9.5t31 -11.5z" />
    <glyph glyph-name="rcaron" unicode="&#x159;" horiz-adv-x="386" 
d="M161 563q-2 -46 -2 -84v-76q35 -5 53.5 1.5t26.5 25.5q3 8 5 22.5t2.5 31t-0.5 31t-4 22.5q-14 41 -81 26zM226 235q-5 24 -22.5 36t-43.5 14q2 -56 4.5 -127t7.5 -173q-35 2 -60.5 3.5t-43.5 1.5h-36q3 90 2.5 188.5t-2.5 192.5t-5.5 177.5t-6.5 144.5q47 14 102.5 22.5
t97.5 8.5t70.5 -7.5t46 -28.5t25.5 -59.5t8 -101.5q0 -51 -6 -86t-18.5 -57t-33 -32.5t-48.5 -13.5q19 -3 31.5 -9.5t23.5 -16.5q17 -16 23.5 -52t4.5 -98q-1 -43 34 -40q-4 -38 -5.5 -71t-0.5 -70q-62 -10 -99.5 5t-45.5 60q-4 24 -4 49q0 26 1.5 51t2 48t-3.5 41zM326 848
q-10 -9 -23 -23q-22 -23 -67 -76q-10 1 -23 1h-28q-16 0 -36 -1q-5 8 -16 21q-10 11 -27 30.5t-45 50.5q8 4 19 10q18 10 62 37q6 -8 14 -19q7 -9 16 -21.5t22 -27.5l13 13q8 8 20 20.5t30 33.5q6 -5 16 -12q8 -6 21 -15.5t32 -21.5z" />
    <glyph glyph-name="rcommaaccent" unicode="&#x157;" horiz-adv-x="386" 
d="M161 563q-2 -46 -2 -84v-76q35 -5 53.5 1.5t26.5 25.5q3 8 5 22.5t2.5 31t-0.5 31t-4 22.5q-14 41 -81 26zM226 235q-5 24 -22.5 36t-43.5 14q2 -56 4.5 -127t7.5 -173q-35 2 -60.5 3.5t-43.5 1.5h-36q3 90 2.5 188.5t-2.5 192.5t-5.5 177.5t-6.5 144.5q47 14 102.5 22.5
t97.5 8.5t70.5 -7.5t46 -28.5t25.5 -59.5t8 -101.5q0 -51 -6 -86t-18.5 -57t-33 -32.5t-48.5 -13.5q19 -3 31.5 -9.5t23.5 -16.5q17 -16 23.5 -52t4.5 -98q-1 -43 34 -40q-4 -38 -5.5 -71t-0.5 -70q-62 -10 -99.5 5t-45.5 60q-4 24 -4 49q0 26 1.5 51t2 48t-3.5 41z
M221 -297q-23 5 -38.5 11t-25.5 11q-11 5 -19 11q15 22 22.5 44t5.5 39q-2 9 -9 18t-21 12q4 11 9 26q4 13 9.5 32.5t10.5 45.5q27 -3 43.5 -8.5t26.5 -12.5q19 -12 26.5 -33t8.5 -44q2 -42 -13.5 -83t-35.5 -69z" />
    <glyph glyph-name="sacute" unicode="&#x15b;" horiz-adv-x="345" 
d="M27 87q-2 23 -0.5 55.5t-0.5 70.5q32 -3 61 -3t70 4q-3 -26 -3.5 -49.5t3.5 -49.5q3 -19 11 -23.5t16 -4.5q11 0 19 5.5t9 22.5q2 13 1.5 36.5t-3.5 40.5q-3 18 -14.5 30t-36.5 21q-50 18 -87 41t-51 67q-5 16 -8 44t-3.5 61t0.5 67t4 62q5 44 18.5 71t36.5 42t56 20
t77 5q39 0 63 -6.5t38 -21.5t19 -39.5t5 -60.5q0 -48 1 -88.5t6 -91.5q-28 2 -52.5 2.5t-44.5 -0.5q-23 -1 -43 -2q3 36 3 66q0 31 -2 63q-2 19 -7 26t-16 7q-8 0 -14 -6t-9 -21q-5 -24 -7 -59.5t1 -67.5q2 -23 12.5 -37t31.5 -23q36 -15 60.5 -27.5t40.5 -26.5t24.5 -30.5
t13.5 -39.5q7 -33 8 -74t-2 -88q-4 -59 -38.5 -82t-97.5 -23q-47 0 -78 7t-50.5 21t-28.5 35.5t-12 51.5zM290 888q-4 -14 -10.5 -29.5t-15.5 -31.5t-18.5 -30t-19.5 -24q-30 -32 -73 -23q-10 2 -25 9.5t-29 18.5q11 20 20 34.5t14 24.5q6 11 10 19q8 -6 19.5 -7t20.5 7
q10 8 20 24.5t17 36.5q6 -4 17 -8q9 -4 22 -9.5t31 -11.5z" />
    <glyph glyph-name="scedilla" unicode="&#x15f;" horiz-adv-x="345" 
d="M28 87q-2 23 -0.5 55.5t-0.5 70.5q32 -3 61 -3t70 4q-3 -26 -3.5 -49.5t3.5 -49.5q3 -19 11 -23.5t16 -4.5q11 0 19 5.5t9 22.5q2 13 1.5 36.5t-3.5 40.5q-3 18 -14.5 30t-36.5 21q-50 18 -87 41t-51 67q-5 16 -8 44t-3.5 61t0.5 67t4 62q5 44 18.5 71t36.5 42t56 20
t77 5q39 0 63 -6.5t38 -21.5t19 -39.5t5 -60.5q0 -48 1 -88.5t6 -91.5q-28 2 -52.5 2.5t-44.5 -0.5q-23 -1 -43 -2q3 36 3 66q0 31 -2 63q-2 19 -7 26t-16 7q-8 0 -14 -6t-9 -21q-5 -24 -7 -59.5t1 -67.5q2 -23 12.5 -37t31.5 -23q36 -15 60.5 -27.5t40.5 -26.5t24.5 -30.5
t13.5 -39.5q7 -33 8 -74t-2 -88q-4 -59 -38.5 -82t-97.5 -23q-47 0 -78 7t-50.5 21t-28.5 35.5t-12 51.5zM105 -110q7 6 16 13q8 6 18 14t24 17q23 16 49.5 14t43.5 -21q6 -8 11.5 -15t10.5 -13q5 -7 9 -14q-29 -20 -51 -36.5t-37 -27.5q-18 -13 -30 -23q-14 20 -25 37
t-20 29q-11 14 -19 26z" />
    <glyph glyph-name="scedilla" unicode="&#xf6c2;" horiz-adv-x="345" 
d="M28 87q-2 23 -0.5 55.5t-0.5 70.5q32 -3 61 -3t70 4q-3 -26 -3.5 -49.5t3.5 -49.5q3 -19 11 -23.5t16 -4.5q11 0 19 5.5t9 22.5q2 13 1.5 36.5t-3.5 40.5q-3 18 -14.5 30t-36.5 21q-50 18 -87 41t-51 67q-5 16 -8 44t-3.5 61t0.5 67t4 62q5 44 18.5 71t36.5 42t56 20
t77 5q39 0 63 -6.5t38 -21.5t19 -39.5t5 -60.5q0 -48 1 -88.5t6 -91.5q-28 2 -52.5 2.5t-44.5 -0.5q-23 -1 -43 -2q3 36 3 66q0 31 -2 63q-2 19 -7 26t-16 7q-8 0 -14 -6t-9 -21q-5 -24 -7 -59.5t1 -67.5q2 -23 12.5 -37t31.5 -23q36 -15 60.5 -27.5t40.5 -26.5t24.5 -30.5
t13.5 -39.5q7 -33 8 -74t-2 -88q-4 -59 -38.5 -82t-97.5 -23q-47 0 -78 7t-50.5 21t-28.5 35.5t-12 51.5zM105 -110q7 6 16 13q8 6 18 14t24 17q23 16 49.5 14t43.5 -21q6 -8 11.5 -15t10.5 -13q5 -7 9 -14q-29 -20 -51 -36.5t-37 -27.5q-18 -13 -30 -23q-14 20 -25 37
t-20 29q-11 14 -19 26z" />
    <glyph glyph-name="scircumflex" unicode="&#x15d;" horiz-adv-x="345" 
d="M27 87q-2 23 -0.5 55.5t-0.5 70.5q32 -3 61 -3t70 4q-3 -26 -3.5 -49.5t3.5 -49.5q3 -19 11 -23.5t16 -4.5q11 0 19 5.5t9 22.5q2 13 1.5 36.5t-3.5 40.5q-3 18 -14.5 30t-36.5 21q-50 18 -87 41t-51 67q-5 16 -8 44t-3.5 61t0.5 67t4 62q5 44 18.5 71t36.5 42t56 20
t77 5q39 0 63 -6.5t38 -21.5t19 -39.5t5 -60.5q0 -48 1 -88.5t6 -91.5q-28 2 -52.5 2.5t-44.5 -0.5q-23 -1 -43 -2q3 36 3 66q0 31 -2 63q-2 19 -7 26t-16 7q-8 0 -14 -6t-9 -21q-5 -24 -7 -59.5t1 -67.5q2 -23 12.5 -37t31.5 -23q36 -15 60.5 -27.5t40.5 -26.5t24.5 -30.5
t13.5 -39.5q7 -33 8 -74t-2 -88q-4 -59 -38.5 -82t-97.5 -23q-47 0 -78 7t-50.5 21t-28.5 35.5t-12 51.5zM42 788q9 9 22 23q11 12 28 31t40 45q10 -1 23 -1h27t37 1q5 -8 16 -21q10 -11 27 -31t45 -50q-8 -4 -19 -10q-10 -5 -25.5 -14.5t-36.5 -22.5q-6 8 -14 19
q-7 9 -16.5 21t-21.5 28q-5 -4 -14 -13q-8 -8 -19.5 -21t-29.5 -33q-6 5 -16 12q-8 6 -21.5 15t-31.5 22z" />
    <glyph glyph-name="scommaaccent" unicode="&#x219;" horiz-adv-x="345" 
d="M27 87q-2 23 -0.5 55.5t-0.5 70.5q32 -3 61 -3t70 4q-3 -26 -3.5 -49.5t3.5 -49.5q3 -19 11 -23.5t16 -4.5q11 0 19 5.5t9 22.5q2 13 1.5 36.5t-3.5 40.5q-3 18 -14.5 30t-36.5 21q-50 18 -87 41t-51 67q-5 16 -8 44t-3.5 61t0.5 67t4 62q5 44 18.5 71t36.5 42t56 20
t77 5q39 0 63 -6.5t38 -21.5t19 -39.5t5 -60.5q0 -48 1 -88.5t6 -91.5q-28 2 -52.5 2.5t-44.5 -0.5q-23 -1 -43 -2q3 36 3 66q0 31 -2 63q-2 19 -7 26t-16 7q-8 0 -14 -6t-9 -21q-5 -24 -7 -59.5t1 -67.5q2 -23 12.5 -37t31.5 -23q36 -15 60.5 -27.5t40.5 -26.5t24.5 -30.5
t13.5 -39.5q7 -33 8 -74t-2 -88q-4 -59 -38.5 -82t-97.5 -23q-47 0 -78 7t-50.5 21t-28.5 35.5t-12 51.5zM175 -302q-23 5 -38.5 11t-25.5 11q-11 5 -19 11q15 22 22.5 44t5.5 39q-2 9 -9 18t-21 12q4 11 9 26q4 13 9.5 32.5t10.5 45.5q27 -3 43.5 -8.5t26.5 -12.5
q19 -12 26.5 -33t8.5 -44q2 -42 -13.5 -83t-35.5 -69z" />
    <glyph glyph-name="tcaron" unicode="&#x165;" horiz-adv-x="331" 
d="M316 611q-2 -26 -2.5 -50.5t-0.5 -43.5v-41q-36 3 -63.5 4.5t-43.5 1.5q-2 -42 -3 -83.5t-1 -79.5q0 -37 1.5 -69.5t4.5 -55.5t15 -34.5t39 -11.5q16 0 29.5 4t24.5 9q-1 1 2 -39t5 -112q-20 -9 -49 -17.5t-61 -8.5q-42 0 -70 10t-44 35t-21.5 67.5t-3.5 107.5
q5 125 5 248q0 124 -5 253q26 1 52.5 2t47.5 3q25 2 47 4q-2 -23 -4.5 -51t-4.5 -59q17 1 44.5 2.5t59.5 4.5zM284 850q-10 -9 -23 -23q-22 -23 -67 -76q-10 1 -23 1h-28q-16 0 -36 -1q-5 8 -16 21q-10 11 -27 30.5t-45 50.5q8 4 19 10q18 10 62 37q6 -8 14 -19
q7 -9 16 -21.5t22 -27.5l13 13q8 8 20 20.5t30 33.5q6 -5 16 -12q8 -6 21 -15.5t32 -21.5z" />
    <glyph glyph-name="tcommaaccent" unicode="&#x163;" horiz-adv-x="275" 
d="M258 611q-2 -26 -2.5 -50.5t-0.5 -43.5v-41q-36 3 -63.5 4.5t-43.5 1.5q-2 -42 -3 -83.5t-1 -79.5q0 -37 1.5 -69.5t4.5 -55.5t15 -34.5t39 -11.5q16 0 29.5 4t24.5 9q-1 1 2 -39t5 -112q-20 -9 -49 -17.5t-61 -8.5q-42 0 -70 10t-44 35t-21.5 67.5t-3.5 107.5
q5 125 5 248q0 124 -5 253q26 1 52.5 2t47.5 3q25 2 47 4q-2 -23 -4.5 -51t-4.5 -59q17 1 44.5 2.5t59.5 4.5zM140 -290q-23 5 -38.5 11t-25.5 11q-11 5 -19 11q15 22 22.5 44t5.5 39q-2 9 -9 18t-21 12q4 11 9 26q4 13 9.5 32.5t10.5 45.5q27 -3 43.5 -8.5t26.5 -12.5
q19 -12 26.5 -33t8.5 -44q2 -42 -13.5 -83t-35.5 -69z" />
    <glyph glyph-name="tcommaaccent" unicode="&#x21b;" horiz-adv-x="275" 
d="M258 611q-2 -26 -2.5 -50.5t-0.5 -43.5v-41q-36 3 -63.5 4.5t-43.5 1.5q-2 -42 -3 -83.5t-1 -79.5q0 -37 1.5 -69.5t4.5 -55.5t15 -34.5t39 -11.5q16 0 29.5 4t24.5 9q-1 1 2 -39t5 -112q-20 -9 -49 -17.5t-61 -8.5q-42 0 -70 10t-44 35t-21.5 67.5t-3.5 107.5
q5 125 5 248q0 124 -5 253q26 1 52.5 2t47.5 3q25 2 47 4q-2 -23 -4.5 -51t-4.5 -59q17 1 44.5 2.5t59.5 4.5zM140 -290q-23 5 -38.5 11t-25.5 11q-11 5 -19 11q15 22 22.5 44t5.5 39q-2 9 -9 18t-21 12q4 11 9 26q4 13 9.5 32.5t10.5 45.5q27 -3 43.5 -8.5t26.5 -12.5
q19 -12 26.5 -33t8.5 -44q2 -42 -13.5 -83t-35.5 -69z" />
    <glyph glyph-name="ubreve" unicode="&#x16d;" horiz-adv-x="359" 
d="M15 696q15 -2 34 -3.5t38 -2.5t36.5 -1.5t30.5 -0.5q-9 -129 -10.5 -253.5t3.5 -249.5q2 -34 9.5 -48.5t24.5 -13.5q17 0 25 14t8 36q-1 72 -2.5 140t-4.5 134t-7 131.5t-10 134.5q65 -2 106 0q23 1 42 2q-4 -71 -3 -143.5t3 -145t4.5 -143t1.5 -135.5q-1 -50 -11 -84
t-31 -54.5t-53 -29t-76 -8.5q-47 0 -77.5 12t-48.5 37.5t-25 66t-6 97.5q2 115 3 242.5t-4 268.5zM141 842q1 -17 7.5 -25.5t26.5 -8.5t25.5 11t4.5 36h44q19 0 31 1q13 0 22 1q-1 -63 -23.5 -88t-70.5 -28q-16 -1 -35 -1t-30 2q-25 3 -41 9t-25.5 18t-13 29.5t-3.5 42.5
q37 -2 59 0q12 0 22 1z" />
    <glyph glyph-name="uhungarumlaut" unicode="&#x171;" horiz-adv-x="359" 
d="M14 696q15 -2 34 -3.5t38 -2.5t36.5 -1.5t30.5 -0.5q-9 -129 -10.5 -253.5t3.5 -249.5q2 -34 9.5 -48.5t24.5 -13.5q17 0 25 14t8 36q-1 72 -2.5 140t-4.5 134t-7 131.5t-10 134.5q65 -2 106 0q23 1 42 2q-4 -71 -3 -143.5t3 -145t4.5 -143t1.5 -135.5q-1 -50 -11 -84
t-31 -54.5t-53 -29t-76 -8.5q-47 0 -77.5 12t-48.5 37.5t-25 66t-6 97.5q2 115 3 242.5t-4 268.5zM177 780q8 12 19 30q10 16 23.5 40t33.5 59q8 -6 19 -14q10 -7 24.5 -17t34.5 -23q-11 -11 -25 -28q-13 -14 -31 -35.5t-43 -51.5q-5 5 -13 11l-17.5 12.5t-24.5 16.5z
M70 784q5 13 14 33q7 17 18 43t25 63q9 -5 21 -11q11 -5 26.5 -13t38.5 -18q-9 -13 -21 -31q-11 -16 -26 -40t-34 -57l-15 9q-8 4 -19.5 9.5t-27.5 12.5z" />
    <glyph glyph-name="umacron" unicode="&#x16b;" horiz-adv-x="359" 
d="M15 696q15 -2 34 -3.5t38 -2.5t36.5 -1.5t30.5 -0.5q-9 -129 -10.5 -253.5t3.5 -249.5q2 -34 9.5 -48.5t24.5 -13.5q17 0 25 14t8 36q-1 72 -2.5 140t-4.5 134t-7 131.5t-10 134.5q65 -2 106 0q23 1 42 2q-4 -71 -3 -143.5t3 -145t4.5 -143t1.5 -135.5q-1 -50 -11 -84
t-31 -54.5t-53 -29t-76 -8.5q-47 0 -77.5 12t-48.5 37.5t-25 66t-6 97.5q2 115 3 242.5t-4 268.5zM118 850q26 0 67.5 0.5t103.5 2.5q-1 -11 -1 -21v-23q0 -26 -18 -36.5t-49 -9.5q-40 1 -76.5 0t-75.5 -3q0 8 1 20q0 11 0.5 28t-0.5 42h48z" />
    <glyph glyph-name="uogonek" unicode="&#x173;" horiz-adv-x="359" 
d="M15 696q15 -2 34 -3.5t38 -2.5t36.5 -1.5t30.5 -0.5q-9 -129 -10.5 -253.5t3.5 -249.5q2 -34 9.5 -48.5t24.5 -13.5q17 0 25 14t8 36q-1 72 -2.5 140t-4.5 134t-7 131.5t-10 134.5q65 -2 106 0q23 1 42 2q-4 -71 -3 -143.5t3 -145t4.5 -143t1.5 -135.5q-1 -50 -11 -84
t-31 -54.5t-53 -29t-76 -8.5q-47 0 -77.5 12t-48.5 37.5t-25 66t-6 97.5q2 115 3 242.5t-4 268.5zM143 -11h16h21t31 1q-4 -17 -5.5 -31t0.5 -30q1 -8 5 -13t16 -7q8 -1 20 1t23 7q1 -13 5 -31q3 -15 8 -36t13 -46q-26 -11 -60.5 -15.5t-59.5 0.5q-31 7 -44.5 26.5
t-13.5 50.5q0 12 2 28t6 33t8 33t9 29z" />
    <glyph glyph-name="uring" unicode="&#x16f;" horiz-adv-x="359" 
d="M14 696q15 -2 34 -3.5t38 -2.5t36.5 -1.5t30.5 -0.5q-9 -129 -10.5 -253.5t3.5 -249.5q2 -34 9.5 -48.5t24.5 -13.5q17 0 25 14t8 36q-1 72 -2.5 140t-4.5 134t-7 131.5t-10 134.5q65 -2 106 0q23 1 42 2q-4 -71 -3 -143.5t3 -145t4.5 -143t1.5 -135.5q-1 -50 -11 -84
t-31 -54.5t-53 -29t-76 -8.5q-47 0 -77.5 12t-48.5 37.5t-25 66t-6 97.5q2 115 3 242.5t-4 268.5zM169 740q-46 0 -65.5 21t-19.5 57q0 45 22.5 66t73.5 21t70.5 -18.5t19.5 -59.5q0 -51 -22.5 -69t-78.5 -18zM182 847q-21 0 -29.5 -8t-8.5 -27q0 -14 7 -22t27 -8
q17 0 26.5 7.5t9.5 27.5q0 14 -6 22t-26 8z" />
    <glyph glyph-name="zacute" unicode="&#x17a;" horiz-adv-x="315" 
d="M25 536q0 13 -1 35q-1 19 -2.5 48.5t-4.5 74.5q133 16 273 -5q1 0 2 -7t2.5 -18t2 -24.5t-0.5 -26.5q-2 -34 -9 -63t-20 -70q-23 -76 -48.5 -147t-57.5 -153q-9 -23 -4.5 -33.5t27.5 -12.5q20 -2 40 -1t37 3q18 2 36 5l5 -138q-75 -8 -150 -8q-74 0 -143 9l-2 24
q-2 22 0 51t7 53t15 50q16 41 30.5 78.5t28.5 75t28 77.5t29 86q9 28 3.5 37t-23.5 10t-36 -0.5t-32 -3.5q-17 -3 -32 -6zM274 867q-4 -14 -10.5 -29.5t-15.5 -31.5t-18.5 -30t-19.5 -24q-30 -32 -73 -23q-10 2 -25 9.5t-29 18.5q11 20 20 34.5t14 24.5q6 11 10 19
q8 -6 19.5 -7t20.5 7q10 8 20 24.5t17 36.5q6 -4 17 -8q9 -4 22 -9.5t31 -11.5z" />
    <glyph glyph-name="zdotaccent" unicode="&#x17c;" horiz-adv-x="315" 
d="M25 536q0 13 -1 35q-1 19 -2.5 48.5t-4.5 74.5q133 16 273 -5q1 0 2 -7t2.5 -18t2 -24.5t-0.5 -26.5q-2 -34 -9 -63t-20 -70q-23 -76 -48.5 -147t-57.5 -153q-9 -23 -4.5 -33.5t27.5 -12.5q20 -2 40 -1t37 3q18 2 36 5l5 -138q-75 -8 -150 -8q-74 0 -143 9l-2 24
q-2 22 0 51t7 53t15 50q16 41 30.5 78.5t28.5 75t28 77.5t29 86q9 28 3.5 37t-23.5 10t-36 -0.5t-32 -3.5q-17 -3 -32 -6zM164 870q32 0 48.5 -19.5t16.5 -49.5q0 -34 -19.5 -54t-53.5 -20q-33 0 -51 19t-18 49q0 34 20.5 54.5t56.5 20.5z" />
    <glyph glyph-name="commaaccent" unicode="&#xf6c3;" horiz-adv-x="185" 
d="M93 -88q-23 5 -38.5 11t-25.5 11q-11 5 -19 11q15 22 22.5 44t5.5 39q-2 9 -9 18t-21 12q4 11 9 26q4 13 9.5 32.5t10.5 45.5q27 -3 43.5 -8.5t26.5 -12.5q19 -12 26.5 -33t8.5 -44q2 -42 -13.5 -83t-35.5 -69z" />
    <glyph glyph-name="Dcroat" unicode="&#x110;" horiz-adv-x="397" 
d="M40 699q29 11 68 17t74 6q40 0 70 -7t52.5 -24.5t37.5 -47.5t24 -75q7 -38 11 -90.5t4.5 -108t-2 -109.5t-7.5 -95q-7 -52 -18.5 -86.5t-32 -55t-51 -29t-74.5 -8.5q-37 0 -77.5 6t-74.5 17q1 54 1.5 123.5t0.5 145.5q-11 0 -21.5 -0.5t-19.5 -0.5q0 11 1 28
q0 14 0.5 36.5t-0.5 54.5h39q-1 83 -2 161t-3 142zM216 401q-1 -15 -1 -33v-39t2 -51h-48q1 -47 1.5 -89t2.5 -74q20 -2 33 -0.5t21 8t12.5 19t6.5 33.5q4 35 6 84.5t1.5 100.5t-3.5 97t-9 75q-5 26 -20 36t-49 7q-1 -37 -1.5 -82t-1.5 -94q13 0 24.5 0.5t22.5 1.5z" />
    <glyph glyph-name="dcroat" unicode="&#x111;" horiz-adv-x="397" 
d="M40 699q29 11 68 17t74 6q40 0 70 -7t52.5 -24.5t37.5 -47.5t24 -75q7 -38 11 -90.5t4.5 -108t-2 -109.5t-7.5 -95q-7 -52 -18.5 -86.5t-32 -55t-51 -29t-74.5 -8.5q-37 0 -77.5 6t-74.5 17q1 54 1.5 123.5t0.5 145.5q-11 0 -21.5 -0.5t-19.5 -0.5q0 11 1 28
q0 14 0.5 36.5t-0.5 54.5h39q-1 83 -2 161t-3 142zM216 401q-1 -15 -1 -33v-39t2 -51h-48q1 -47 1.5 -89t2.5 -74q20 -2 33 -0.5t21 8t12.5 19t6.5 33.5q4 35 6 84.5t1.5 100.5t-3.5 97t-9 75q-5 26 -20 36t-49 7q-1 -37 -1.5 -82t-1.5 -94q13 0 24.5 0.5t22.5 1.5z" />
    <glyph glyph-name="germandbls" unicode="&#xdf;" horiz-adv-x="697" 
d="M28 87q-2 23 -0.5 55.5t-0.5 70.5q32 -3 61 -3t70 4q-3 -26 -3.5 -49.5t3.5 -49.5q3 -19 11 -23.5t16 -4.5q11 0 19 5.5t9 22.5q2 13 1.5 36.5t-3.5 40.5q-3 18 -14.5 30t-36.5 21q-50 18 -87 41t-51 67q-5 16 -8 44t-3.5 61t0.5 67t4 62q5 44 18.5 71t36.5 42t56 20
t77 5q39 0 63 -6.5t38 -21.5t19 -39.5t5 -60.5q0 -48 1 -88.5t6 -91.5q-28 2 -52.5 2.5t-44.5 -0.5q-23 -1 -43 -2q3 36 3 66q0 31 -2 63q-2 19 -7 26t-16 7q-8 0 -14 -6t-9 -21q-5 -24 -7 -59.5t1 -67.5q2 -23 12.5 -37t31.5 -23q36 -15 60.5 -27.5t40.5 -26.5t24.5 -30.5
t13.5 -39.5q7 -33 8 -74t-2 -88q-4 -59 -38.5 -82t-97.5 -23q-47 0 -78 7t-50.5 21t-28.5 35.5t-12 51.5zM380 87q-2 23 -0.5 55.5t-0.5 70.5q32 -3 61 -3t70 4q-3 -26 -3.5 -49.5t3.5 -49.5q3 -19 11 -23.5t16 -4.5q11 0 19 5.5t9 22.5q2 13 1.5 36.5t-3.5 40.5
q-3 18 -14.5 30t-36.5 21q-50 18 -87 41t-51 67q-5 16 -8 44t-3.5 61t0.5 67t4 62q5 44 18.5 71t36.5 42t56 20t77 5q39 0 63 -6.5t38 -21.5t19 -39.5t5 -60.5q0 -48 1 -88.5t6 -91.5q-28 2 -52.5 2.5t-44.5 -0.5q-23 -1 -43 -2q3 36 3 66q0 31 -2 63q-2 19 -7 26t-16 7
q-8 0 -14 -6t-9 -21q-5 -24 -7 -59.5t1 -67.5q2 -23 12.5 -37t31.5 -23q36 -15 60.5 -27.5t40.5 -26.5t24.5 -30.5t13.5 -39.5q7 -33 8 -74t-2 -88q-4 -59 -38.5 -82t-97.5 -23q-47 0 -78 7t-50.5 21t-28.5 35.5t-12 51.5z" />
    <glyph glyph-name="infinity" unicode="&#x221e;" horiz-adv-x="216" 
d="M13 355q3 44 22.5 60t51.5 18q13 1 29 0.5t26 -1.5q58 -3 62 -65q0 -6 0.5 -17t0.5 -24q0 -12 -0.5 -24t-1.5 -21q-6 -60 -70 -63q-10 -1 -27 -0.5t-27 1.5q-29 2 -45.5 14.5t-18.5 44.5q-2 20 -2.5 41.5t0.5 35.5z" />
    <glyph glyph-name="plusminus" unicode="&#xb1;" horiz-adv-x="216" 
d="M13 355q3 44 22.5 60t51.5 18q13 1 29 0.5t26 -1.5q58 -3 62 -65q0 -6 0.5 -17t0.5 -24q0 -12 -0.5 -24t-1.5 -21q-6 -60 -70 -63q-10 -1 -27 -0.5t-27 1.5q-29 2 -45.5 14.5t-18.5 44.5q-2 20 -2.5 41.5t0.5 35.5z" />
    <glyph glyph-name="lessequal" unicode="&#x2264;" horiz-adv-x="216" 
d="M13 355q3 44 22.5 60t51.5 18q13 1 29 0.5t26 -1.5q58 -3 62 -65q0 -6 0.5 -17t0.5 -24q0 -12 -0.5 -24t-1.5 -21q-6 -60 -70 -63q-10 -1 -27 -0.5t-27 1.5q-29 2 -45.5 14.5t-18.5 44.5q-2 20 -2.5 41.5t0.5 35.5z" />
    <glyph glyph-name="greaterequal" unicode="&#x2265;" horiz-adv-x="216" 
d="M13 355q3 44 22.5 60t51.5 18q13 1 29 0.5t26 -1.5q58 -3 62 -65q0 -6 0.5 -17t0.5 -24q0 -12 -0.5 -24t-1.5 -21q-6 -60 -70 -63q-10 -1 -27 -0.5t-27 1.5q-29 2 -45.5 14.5t-18.5 44.5q-2 20 -2.5 41.5t0.5 35.5z" />
    <glyph glyph-name="mu" unicode="&#xb5;" horiz-adv-x="216" 
d="M13 355q3 44 22.5 60t51.5 18q13 1 29 0.5t26 -1.5q58 -3 62 -65q0 -6 0.5 -17t0.5 -24q0 -12 -0.5 -24t-1.5 -21q-6 -60 -70 -63q-10 -1 -27 -0.5t-27 1.5q-29 2 -45.5 14.5t-18.5 44.5q-2 20 -2.5 41.5t0.5 35.5z" />
    <glyph glyph-name="mu" unicode="&#x3bc;" horiz-adv-x="216" 
d="M13 355q3 44 22.5 60t51.5 18q13 1 29 0.5t26 -1.5q58 -3 62 -65q0 -6 0.5 -17t0.5 -24q0 -12 -0.5 -24t-1.5 -21q-6 -60 -70 -63q-10 -1 -27 -0.5t-27 1.5q-29 2 -45.5 14.5t-18.5 44.5q-2 20 -2.5 41.5t0.5 35.5z" />
    <glyph glyph-name="partialdiff" unicode="&#x2202;" horiz-adv-x="216" 
d="M13 355q3 44 22.5 60t51.5 18q13 1 29 0.5t26 -1.5q58 -3 62 -65q0 -6 0.5 -17t0.5 -24q0 -12 -0.5 -24t-1.5 -21q-6 -60 -70 -63q-10 -1 -27 -0.5t-27 1.5q-29 2 -45.5 14.5t-18.5 44.5q-2 20 -2.5 41.5t0.5 35.5z" />
    <glyph glyph-name="summation" unicode="&#x2211;" horiz-adv-x="216" 
d="M13 355q3 44 22.5 60t51.5 18q13 1 29 0.5t26 -1.5q58 -3 62 -65q0 -6 0.5 -17t0.5 -24q0 -12 -0.5 -24t-1.5 -21q-6 -60 -70 -63q-10 -1 -27 -0.5t-27 1.5q-29 2 -45.5 14.5t-18.5 44.5q-2 20 -2.5 41.5t0.5 35.5z" />
    <glyph glyph-name="product" unicode="&#x220f;" horiz-adv-x="216" 
d="M13 355q3 44 22.5 60t51.5 18q13 1 29 0.5t26 -1.5q58 -3 62 -65q0 -6 0.5 -17t0.5 -24q0 -12 -0.5 -24t-1.5 -21q-6 -60 -70 -63q-10 -1 -27 -0.5t-27 1.5q-29 2 -45.5 14.5t-18.5 44.5q-2 20 -2.5 41.5t0.5 35.5z" />
    <glyph glyph-name="pi" unicode="&#x3c0;" horiz-adv-x="216" 
d="M13 355q3 44 22.5 60t51.5 18q13 1 29 0.5t26 -1.5q58 -3 62 -65q0 -6 0.5 -17t0.5 -24q0 -12 -0.5 -24t-1.5 -21q-6 -60 -70 -63q-10 -1 -27 -0.5t-27 1.5q-29 2 -45.5 14.5t-18.5 44.5q-2 20 -2.5 41.5t0.5 35.5z" />
    <glyph glyph-name="integral" unicode="&#x222b;" horiz-adv-x="216" 
d="M13 355q3 44 22.5 60t51.5 18q13 1 29 0.5t26 -1.5q58 -3 62 -65q0 -6 0.5 -17t0.5 -24q0 -12 -0.5 -24t-1.5 -21q-6 -60 -70 -63q-10 -1 -27 -0.5t-27 1.5q-29 2 -45.5 14.5t-18.5 44.5q-2 20 -2.5 41.5t0.5 35.5z" />
    <glyph glyph-name="Omega" unicode="&#x3a9;" horiz-adv-x="216" 
d="M13 355q3 44 22.5 60t51.5 18q13 1 29 0.5t26 -1.5q58 -3 62 -65q0 -6 0.5 -17t0.5 -24q0 -12 -0.5 -24t-1.5 -21q-6 -60 -70 -63q-10 -1 -27 -0.5t-27 1.5q-29 2 -45.5 14.5t-18.5 44.5q-2 20 -2.5 41.5t0.5 35.5z" />
    <glyph glyph-name="Omega" unicode="&#x2126;" horiz-adv-x="216" 
d="M13 355q3 44 22.5 60t51.5 18q13 1 29 0.5t26 -1.5q58 -3 62 -65q0 -6 0.5 -17t0.5 -24q0 -12 -0.5 -24t-1.5 -21q-6 -60 -70 -63q-10 -1 -27 -0.5t-27 1.5q-29 2 -45.5 14.5t-18.5 44.5q-2 20 -2.5 41.5t0.5 35.5z" />
    <glyph glyph-name="divide" unicode="&#xf7;" horiz-adv-x="216" 
d="M13 355q3 44 22.5 60t51.5 18q13 1 29 0.5t26 -1.5q58 -3 62 -65q0 -6 0.5 -17t0.5 -24q0 -12 -0.5 -24t-1.5 -21q-6 -60 -70 -63q-10 -1 -27 -0.5t-27 1.5q-29 2 -45.5 14.5t-18.5 44.5q-2 20 -2.5 41.5t0.5 35.5z" />
    <glyph glyph-name="lozenge" unicode="&#x25ca;" horiz-adv-x="216" 
d="M13 355q3 44 22.5 60t51.5 18q13 1 29 0.5t26 -1.5q58 -3 62 -65q0 -6 0.5 -17t0.5 -24q0 -12 -0.5 -24t-1.5 -21q-6 -60 -70 -63q-10 -1 -27 -0.5t-27 1.5q-29 2 -45.5 14.5t-18.5 44.5q-2 20 -2.5 41.5t0.5 35.5z" />
    <glyph glyph-name="logicalnot" unicode="&#xac;" horiz-adv-x="216" 
d="M13 355q3 44 22.5 60t51.5 18q13 1 29 0.5t26 -1.5q58 -3 62 -65q0 -6 0.5 -17t0.5 -24q0 -12 -0.5 -24t-1.5 -21q-6 -60 -70 -63q-10 -1 -27 -0.5t-27 1.5q-29 2 -45.5 14.5t-18.5 44.5q-2 20 -2.5 41.5t0.5 35.5z" />
    <glyph glyph-name="radical" unicode="&#x221a;" horiz-adv-x="216" 
d="M13 355q3 44 22.5 60t51.5 18q13 1 29 0.5t26 -1.5q58 -3 62 -65q0 -6 0.5 -17t0.5 -24q0 -12 -0.5 -24t-1.5 -21q-6 -60 -70 -63q-10 -1 -27 -0.5t-27 1.5q-29 2 -45.5 14.5t-18.5 44.5q-2 20 -2.5 41.5t0.5 35.5z" />
    <glyph glyph-name="approxequal" unicode="&#x2248;" horiz-adv-x="216" 
d="M13 355q3 44 22.5 60t51.5 18q13 1 29 0.5t26 -1.5q58 -3 62 -65q0 -6 0.5 -17t0.5 -24q0 -12 -0.5 -24t-1.5 -21q-6 -60 -70 -63q-10 -1 -27 -0.5t-27 1.5q-29 2 -45.5 14.5t-18.5 44.5q-2 20 -2.5 41.5t0.5 35.5z" />
    <glyph glyph-name="notequal" unicode="&#x2260;" horiz-adv-x="216" 
d="M13 355q3 44 22.5 60t51.5 18q13 1 29 0.5t26 -1.5q58 -3 62 -65q0 -6 0.5 -17t0.5 -24q0 -12 -0.5 -24t-1.5 -21q-6 -60 -70 -63q-10 -1 -27 -0.5t-27 1.5q-29 2 -45.5 14.5t-18.5 44.5q-2 20 -2.5 41.5t0.5 35.5z" />
    <glyph glyph-name="Delta" unicode="&#x394;" horiz-adv-x="216" 
d="M13 355q3 44 22.5 60t51.5 18q13 1 29 0.5t26 -1.5q58 -3 62 -65q0 -6 0.5 -17t0.5 -24q0 -12 -0.5 -24t-1.5 -21q-6 -60 -70 -63q-10 -1 -27 -0.5t-27 1.5q-29 2 -45.5 14.5t-18.5 44.5q-2 20 -2.5 41.5t0.5 35.5z" />
    <glyph glyph-name="Delta" unicode="&#x2206;" horiz-adv-x="216" 
d="M13 355q3 44 22.5 60t51.5 18q13 1 29 0.5t26 -1.5q58 -3 62 -65q0 -6 0.5 -17t0.5 -24q0 -12 -0.5 -24t-1.5 -21q-6 -60 -70 -63q-10 -1 -27 -0.5t-27 1.5q-29 2 -45.5 14.5t-18.5 44.5q-2 20 -2.5 41.5t0.5 35.5z" />
    <glyph glyph-name="apple" horiz-adv-x="216" 
d="M13 355q3 44 22.5 60t51.5 18q13 1 29 0.5t26 -1.5q58 -3 62 -65q0 -6 0.5 -17t0.5 -24q0 -12 -0.5 -24t-1.5 -21q-6 -60 -70 -63q-10 -1 -27 -0.5t-27 1.5q-29 2 -45.5 14.5t-18.5 44.5q-2 20 -2.5 41.5t0.5 35.5z" />
    <glyph glyph-name="uni00A0" unicode="&#xa0;" horiz-adv-x="150" 
 />
    <glyph glyph-name="G" unicode="G" horiz-adv-x="375" 
d="M211 727q36 0 60.5 -6.5t39 -19.5t21 -33.5t8.5 -48.5q3 -50 0 -102.5t2 -110.5q-20 2 -40 2q-18 0 -39.5 -1t-44.5 -3q1 16 2 36t1 40q0 21 -0.5 39t-1.5 32q-1 23 -22 23q-23 0 -29 -29q-7 -34 -11.5 -88t-6 -112t0.5 -111.5t8 -86.5q5 -26 13 -34.5t25 -8.5
q31 0 33 65q1 26 -7.5 35t-31.5 4v37t-1 33q-1 17 -1 33q77 5 158 3q-3 -21 -4.5 -45t-2.5 -47.5t-1 -44.5q0 -20 2 -34q3 -29 30 -24q-2 -18 -3 -38q-2 -17 -2.5 -38.5t-1.5 -42.5q-48 -11 -75 -0.5t-36 41.5q-7 -31 -30 -48.5t-70 -17.5q-53 0 -82.5 33.5t-40.5 95.5
q-8 44 -11.5 104.5t-3 125.5t6 128t16.5 112q9 42 23 71t35 47.5t49 26.5t66 8z" />
    <glyph glyph-name="O" unicode="O" horiz-adv-x="367" 
d="M188 588q-14 0 -19.5 -6t-8.5 -25q-4 -24 -6 -58.5t-3 -74t-0.5 -81.5t2.5 -80t4.5 -70t6.5 -51q3 -15 11 -25t24 -10q14 0 20 5.5t8 19.5t4 44t2.5 69t0.5 82q0 44 -1 84t-2.5 73.5t-3.5 51.5q-3 29 -11 40.5t-28 11.5zM172 729q46 0 78 -10t52 -31t31 -53t16 -75
q3 -24 3.5 -61.5t0 -81t-2 -90.5t-3.5 -89.5t-4.5 -77.5t-5.5 -56q-5 -36 -14.5 -59.5t-26.5 -38t-43 -20.5t-62 -6q-75 0 -110 34t-46 94q-9 46 -13.5 107.5t-5.5 127t2 129.5t11 116q6 39 16 66t27 43.5t41.5 24t58.5 7.5z" />
    <glyph glyph-name="H" unicode="H" horiz-adv-x="379" 
d="M359 698q-3 -78 -4.5 -172.5t-1.5 -191.5q0 -96 1.5 -187t3.5 -160h-40q-18 0 -41.5 -0.5t-49.5 -2.5q1 34 2 69.5t1 68.5q0 34 -1 63t-3 52q-2 17 -9.5 26.5t-25.5 10.5q-27 1 -29 -26q-2 -54 -0.5 -122t4.5 -132q-22 1 -47 3q-21 1 -47 2t-52 1q3 63 5 151t3 185t0 195
t-2 180q25 0 49 0.5t44 1.5q23 1 44 3q-2 -38 -3.5 -78.5t-2 -78.5t0 -71.5t2.5 -58.5q2 -24 15.5 -36t53.5 -8q1 24 1.5 63t0 83t-1.5 89.5t-3 82.5q20 -2 42 -3q19 -1 42.5 -1.5t48.5 -0.5z" />
    </font>
</defs>
</svg>
