<?xml version="1.0" encoding="UTF-8"?><svg id="a" xmlns="http://www.w3.org/2000/svg" viewBox="0 0 76.41 76.26"><defs><style>.b{fill:#e16e26;}</style></defs><polygon class="b" points="38.21 3.75 40.61 0 42.52 4.02 45.37 .6 46.76 4.83 50.01 1.79 50.86 6.16 54.47 3.56 54.77 8 58.68 5.87 58.42 10.31 62.56 8.69 61.74 13.06 66.06 11.98 64.7 16.21 69.12 15.67 67.24 19.71 71.69 19.72 69.32 23.49 73.73 24.07 70.91 27.51 75.21 28.63 71.98 31.69 76.11 33.34 72.52 35.97 76.41 38.13 72.52 40.29 76.11 42.92 71.98 44.57 75.21 47.63 70.91 48.76 73.73 52.2 69.32 52.77 71.69 56.54 67.24 56.56 69.12 60.59 64.7 60.05 66.06 64.28 61.74 63.2 62.56 67.57 58.42 65.95 58.68 70.39 54.77 68.26 54.47 72.7 50.86 70.1 50.01 74.47 46.76 71.44 45.37 75.66 42.52 72.25 40.61 76.26 38.21 72.52 35.81 76.26 33.9 72.25 31.05 75.66 29.65 71.44 26.4 74.47 25.55 70.1 21.94 72.7 21.64 68.26 17.73 70.39 17.99 65.95 13.85 67.57 14.67 63.2 10.36 64.28 11.71 60.05 7.3 60.59 9.17 56.56 4.73 56.54 7.09 52.77 2.68 52.2 5.5 48.76 1.2 47.63 4.43 44.57 .3 42.92 3.89 40.29 0 38.13 3.89 35.97 .3 33.34 4.43 31.69 1.2 28.63 5.5 27.51 2.68 24.07 7.09 23.49 4.73 19.72 9.17 19.71 7.3 15.67 11.71 16.21 10.36 11.98 14.67 13.06 13.85 8.69 17.99 10.31 17.73 5.87 21.64 8 21.94 3.56 25.55 6.16 26.4 1.79 29.65 4.83 31.05 .6 33.9 4.02 35.81 0 38.21 3.75"/></svg>