<?xml version="1.0" encoding="UTF-8"?><svg xmlns="http://www.w3.org/2000/svg" xmlns:xlink="http://www.w3.org/1999/xlink" viewBox="0 0 304.77 298.55"><defs><style>.f{fill:#fff;}.g{fill:#e27026;}.h,.i{fill:url(#c);}.j,.k{fill:#ffdfb4;}.l{fill:#fdc475;}.i,.k{opacity:.75;}.m{fill:#9a6b38;}.n{fill:url(#d);}.o{fill:none;}.p{fill:#231f20;}</style><pattern id="c" x="0" y="0" width="26.39" height="26.25" patternTransform="translate(1536.36 1431.8)" patternUnits="userSpaceOnUse" viewBox="0 0 26.39 26.25"><g><rect class="o" y="0" width="26.39" height="26.25"/><path class="l" d="M8.84,11.57c.97,.97,.97,2.54,0,3.5-.97,.97-2.54,.97-3.5,0-.97-.97-.97-2.54,0-3.5,.97-.97,2.54-.97,3.5,0Z"/><path class="l" d="M15.24,4.85c.97,.97,.97,2.54,0,3.5-.97,.97-2.54,.97-3.5,0-.97-.97-.97-2.54,0-3.5,.97-.97,2.54-.97,3.5,0Z"/><path class="l" d="M4.53,26.25c0-1.37,1.11-2.48,2.48-2.48,1.37,0,2.48,1.11,2.48,2.48"/><path class="l" d="M17.47,26.25c0-1.37,1.11-2.48,2.48-2.48,1.37,0,2.48,1.11,2.48,2.48"/><path class="l" d="M22.42,0c0,1.37-1.11,2.48-2.47,2.48-1.37,0-2.48-1.11-2.48-2.48"/><path class="l" d="M9.49,0c0,1.37-1.11,2.48-2.48,2.48-1.37,0-2.48-1.11-2.48-2.48"/><path class="l" d="M15.42,18.15c.97,.97,.97,2.54,0,3.51-.97,.97-2.54,.97-3.51,0-.97-.97-.97-2.54,0-3.5,.97-.97,2.54-.97,3.5,0Z"/><path class="l" d="M21.82,11.44c.97,.97,.97,2.54,0,3.5-.97,.97-2.54,.97-3.51,0-.97-.97-.97-2.54,0-3.51,.97-.97,2.54-.97,3.51,0Z"/><path class="l" d="M26.39,21.98c-1.37,0-2.48-1.11-2.48-2.48,0-1.37,1.11-2.48,2.48-2.48"/><path class="l" d="M26.39,9.4c-1.37,0-2.48-1.11-2.48-2.48,0-1.37,1.11-2.48,2.48-2.48"/><path class="l" d="M0,4.44c1.37,0,2.48,1.11,2.48,2.48,0,1.37-1.11,2.48-2.47,2.48"/><path class="l" d="M0,17.03c1.37,0,2.48,1.11,2.48,2.48,0,1.37-1.11,2.48-2.47,2.48"/></g></pattern><pattern id="d" x="0" y="0" width="26.39" height="26.25" patternTransform="translate(1536.36 1431.8)" patternUnits="userSpaceOnUse" viewBox="0 0 26.39 26.25"><g><rect class="o" y="0" width="26.39" height="26.25"/><path class="m" d="M8.84,11.57c.97,.97,.97,2.54,0,3.5-.97,.97-2.54,.97-3.5,0-.97-.97-.97-2.54,0-3.5,.97-.97,2.54-.97,3.5,0Z"/><path class="m" d="M15.24,4.85c.97,.97,.97,2.54,0,3.5-.97,.97-2.54,.97-3.5,0-.97-.97-.97-2.54,0-3.5,.97-.97,2.54-.97,3.5,0Z"/><path class="m" d="M4.53,26.25c0-1.37,1.11-2.48,2.48-2.48,1.37,0,2.48,1.11,2.48,2.48"/><path class="m" d="M17.47,26.25c0-1.37,1.11-2.48,2.48-2.48,1.37,0,2.48,1.11,2.48,2.48"/><path class="m" d="M22.42,0c0,1.37-1.11,2.48-2.47,2.48-1.37,0-2.48-1.11-2.48-2.48"/><path class="m" d="M9.49,0c0,1.37-1.11,2.48-2.48,2.48-1.37,0-2.48-1.11-2.48-2.48"/><path class="m" d="M15.42,18.15c.97,.97,.97,2.54,0,3.51-.97,.97-2.54,.97-3.51,0-.97-.97-.97-2.54,0-3.5,.97-.97,2.54-.97,3.5,0Z"/><path class="m" d="M21.82,11.44c.97,.97,.97,2.54,0,3.5-.97,.97-2.54,.97-3.51,0-.97-.97-.97-2.54,0-3.51,.97-.97,2.54-.97,3.51,0Z"/><path class="m" d="M26.39,21.98c-1.37,0-2.48-1.11-2.48-2.48,0-1.37,1.11-2.48,2.48-2.48"/><path class="m" d="M26.39,9.4c-1.37,0-2.48-1.11-2.48-2.48,0-1.37,1.11-2.48,2.48-2.48"/><path class="m" d="M0,4.44c1.37,0,2.48,1.11,2.48,2.48,0,1.37-1.11,2.48-2.47,2.48"/><path class="m" d="M0,17.03c1.37,0,2.48,1.11,2.48,2.48,0,1.37-1.11,2.48-2.47,2.48"/></g></pattern></defs><g id="a"/><g id="b"><path class="f" d="M41.56,192.3s-5.4-16.8,5.1-25.05c0,0,11.7-12.6,30.9-18.3,0,0,11.55-2.85,16.8-8.7,0,0,9-6.6,10.8-15.45,0,0-27.3-13.5-18.15-38.25,0,0-24.45-44.1,13.8-61.2,38.25-17.1,61.65,12.75,62.55,13.5,0,0,11.34-8.81,14.1,6.75,0,0,5.55,3,4.2,11.1,0,0,1.65,9.3,3.15,12.9,0,0,3.6,5.25,6.6,11.4,0,0,2.4,4.8,3,8.25,0,0,.15,3.45,4.2,9.9,0,0,5.7,7.05,10.2,18.75,0,0,1.05,5.1,3.45,9,0,0,2.85,2.55,3,4.35,0,0,17.7,3.15,21.3,38.1,0,0,7.65,11.7,9.75,22.5,0,0-2.02,21.07-27.45,47.18,0,0-72.68,74.7-154.57-4.28,0,0-13.95-16.72-22.73-42.45Z"/><path class="f" d="M144.24,274.65c-60.84,0-110.34-50.26-110.34-112.04S83.4,50.57,144.24,50.57s110.34,50.26,110.34,112.04-49.5,112.04-110.34,112.04Zm0-220.07c-58.63,0-106.34,48.47-106.34,108.04s47.7,108.04,106.34,108.04,106.34-48.47,106.34-108.04-47.7-108.04-106.34-108.04Z"/><polygon class="k" points="147.71 30.66 135.05 24.96 126.65 24.14 115.17 24.86 103.18 28.98 92.8 37.24 87.47 48.16 84.68 57.35 85.47 69.6 90.12 80.91 94.22 86.34 91.04 89.84 90.52 97.66 93.39 105.74 99.38 111.47 103.55 115.64 106.42 116.94 109.8 116.94 118.93 126.59 134.06 136.75 148.66 139.36 160.13 135.45 166.38 126.59 169.25 118.77 176.29 128.41 183.85 137.54 188.28 141.71 202.09 154.22 209.65 165.95 212 155 211.74 146.4 211.21 137.8 210.69 133.89 209.13 131.54 206.52 128.15 201.31 115.64 195.58 103.91 192.19 98.44 190.1 92.18 187.5 85.93 185.67 81.76 183.58 78.11 181.76 75.5 179.68 70.29 179.16 65.86 178.11 60.91 176.81 58.3 175.51 57 175.77 53.87 175.77 51 174.72 49.18 172.38 48.92 170.56 47.87 170.81 42.92 170.03 41.1 168.47 40.58 166.12 42.92 163.51 47.09 160.91 43.18 158.04 40.31 156.1 37.06 147.71 30.66"/><polygon class="i" points="146.81 30.66 134.15 24.96 125.75 24.14 114.27 24.86 102.29 28.98 91.9 37.24 86.58 48.16 83.78 57.35 84.58 69.6 89.22 80.91 93.32 86.34 90.14 89.84 89.62 97.66 92.49 105.74 98.48 111.47 102.65 115.64 105.52 116.94 108.91 116.94 118.04 126.59 133.16 136.75 147.77 139.36 159.23 135.45 165.49 126.59 168.36 118.77 175.39 128.41 182.95 137.54 187.38 141.71 201.2 154.22 208.76 165.95 211.1 155 210.84 146.4 210.32 137.8 209.8 133.89 208.23 131.54 205.63 128.15 200.41 115.64 194.68 103.91 191.29 98.44 189.2 92.18 186.6 85.93 184.77 81.76 182.69 78.11 180.87 75.5 178.78 70.29 178.26 65.86 177.22 60.91 175.91 58.3 174.61 57 174.87 53.87 174.87 51 173.83 49.18 171.48 48.92 169.66 47.87 169.92 42.92 169.14 41.1 167.57 40.58 165.23 42.92 162.62 47.09 160.01 43.18 157.15 40.31 155.2 37.06 146.81 30.66"/><path class="f" d="M157.92,70.87c0,2.19,1.87,3.96,4.19,3.96s4.19-1.77,4.19-3.96c0-2.19-1.88-3.96-4.19-3.96s-4.19,1.77-4.19,3.96Z"/><path class="f" d="M128.45,72.37c0,2.19,2.1,3.96,4.71,3.96s4.71-1.77,4.71-3.96-2.11-3.96-4.71-3.96-4.71,1.77-4.71,3.96Z"/><path d="M234.51,173.25c5.87,14,4.84,12.89,7.85,29.75,0,0-2.9,8.5-4.7,10.6,0,0-29.4,56.1-92.17,56.32,0,0-62.1,5.85-96.08-59.4,0,0-14.62-31.5,4.28-42.3,0,0,5.4-6.75,29.47-14.18,0,0,6.3-.9,10.58-6.07,0,0,14.17-8.55,17.32-27.23l2.25,2.25s31.2,34.95,50.1,12.3c0,0,11.7,12.3,29.1,19.35,0,0,1.8,.41,2.81,1.88,0,0,2.59,2.14,3.04,5.85,0,0,1.69,17.78,10.12,29.25,0,0,7.31,16.2,12.15,16.2,0,0,3.26,2.59,7.43-10.46,0,0,5.81-15.04,6.45-24.11Z"/><path class="p" d="M213.96,177.31c0,1.33-1.02,2.41-2.28,2.41-1.26,0-2.28-1.08-2.28-2.41s1.02-2.4,2.28-2.4c1.26,0,2.28,1.08,2.28,2.4Z"/><path class="j" d="M113.28,124.51s.22-1.96,2.28,.22c0,0,15.35,16.75,30.26,18.82,0,0,7.51,.11,10.23-1.85,0,0,2.4-.98,.76,2.5,0,0-5.22,15.78-8.16,19.15,0,0-1.3,2.07-3.92-.54,0,0-16.43-10.01-22.42-18.6,0,0-8.39-13.92-9.25-15.45,0,0-1.3-1.52,.22-4.24Z"/><path class="h" d="M113.73,124.51s.22-1.96,2.28,.22c0,0,15.35,16.75,30.26,18.82,0,0,7.51,.11,10.23-1.85,0,0,2.4-.98,.76,2.5,0,0-5.22,15.78-8.16,19.15,0,0-1.3,2.07-3.92-.54,0,0-16.43-10.01-22.42-18.6,0,0-8.39-13.92-9.26-15.45,0,0-1.3-1.52,.22-4.24Z"/><path class="f" d="M110.34,132.88s.98-3.8,2.18-.98c0,0,4.35,12.73,17.41,24.48,0,0,9.8,6.85,13.6,8.81,0,0,3.26,.22,.55,4.24,0,0-7.95,8.81-10.89,21.11,0,0-.32,3.7-2.4-.32,0,0-19.68-43.74-20.46-57.33Z"/><path class="f" d="M160.73,139.72s.63-2.03,1.72-.63c0,0,2.34-1.25,3.58,10.6,0,0,3.27,18.71,1.09,34.62,0,0-.15,3.12-2.49-1.4,0,0-9.36-13.25-13.88-15.91,0,0-2.19-.31,.31-2.81,0,0,8.89-17.31,9.67-24.48Z"/><path class="f" d="M139.36,181.97s.78-4.68,2.18,.15c0,0,2.97,7.64,4.37,8.42,0,0,2.03,1.09-.31,4.21,0,0-4.37,6.55-4.99,9.82,0,0-.94,2.65-3.12-1.87,0,0-4.21-5.77-2.96-8.73l4.84-12.01Z"/><path class="f" d="M159.22,184.12s-.43-5.8,1.72-1.93c0,0,4.08,6.44,5.37,7.95,0,0,.86,1.72,.65,5.16,0,0-.42,6.87-1.5,5.8,0,0-6.23-8.38-7.3-9.24,0,0-1.51-1.07-.22-3.44l1.29-4.29Z"/><g><path class="g" d="M144.18,204.95s1.3-4.08,5.59-.86l15.04,6.23s1.72,1.72,0,3.87c0,0-18.04-6.66-20.41-6.87,0,0-1.5-1.5-.22-2.36Z"/><path class="g" d="M143.97,210.11l19.98,7.95s.55,.59-.2,1.45c0,0-5.21,9.38-7.14,7.44,0,0-7.2-5.4-10.2-9.45,0,0-5.44-5.89-2.44-7.39Z"/><path class="g" d="M147.2,197.22s.22-1.72,2.15-.43c0,0,14.39,3.87,15.67,6.45,0,0,2.37,2.79-1.5,2.14,0,0-11.82-4.94-15.68-5.58,0,0-2.36-1.07-.64-2.58Z"/><path class="g" d="M145.9,170.58s.86-.86,2.37,.22c0,0,4.72,.86,5.8,2.58,0,0,4.08,3.01,1.07,3.01l-9.45-3.23s-1.93-.86,.21-2.58Z"/><path class="g" d="M144.62,177.45l10.53,3.65s3.01,2.58,.43,3.65c0,0-7.09-3.01-9.45-2.79,0,0-3,.43-3-3.22,0,0-.43-1.5,1.5-1.29Z"/><path class="g" d="M148.06,186.91l6.02,1.29s1.72,.86-.86,1.72c0,0-3.44,1.07-4.51,.64,0,0-3.22-3.43-.65-3.65Z"/><path class="g" d="M150.63,192.49s3.87-1.72,4.73-.64c0,0,2.79,3.22,1.07,3.01,0,0-5.59-.86-5.8-2.36Z"/></g><path d="M122.12,55.41s3.36-.67,6.53,.34c0,0,3.1,.87,4.98,1.82,0,0,.41,.14,.81,.61,0,0,.41,.33,1.21,.6,0,0,3.5,.81,2.69,2.22,0,0-.34,1.34-4.04-.14,0,0-3.91-1.21-5.32-1.81,0,0-1.21-.07-1.96-.27,0,0-3.64-1.42-5.39,.74,0,0-1.55,1.28-2.29,2.69,0,0-.61,2.49-1.48,1.82,0,0-1.28-.07-.34-3.36,0,0,.07-.47,.47-1.28,0,0,.48-.6,.61-1.48,0,0,.61-2.02,3.51-2.49Z"/><path d="M131.07,67.25s2.29-1.21,5.73,.74c0,0,2.01,1.15,2.83,1.82,0,0,.6,.47,.74,1.35,0,0,.13,.54,.4,.88,0,0,.67,.94,0,1.41,0,0-.4,.87-1.55,0,0,0-.94-.4-1.82-2.09,0,0-1.82-2.62-5.12-2.02,0,0-3.77,.47-3.84,4.37v2.49l-.4,.74s-1.62-.41-2.02,.27c0,0,1.15,2.43-2.49,1.82,0,0-3.84-.74-3.97-2.36,0,0-.14-.41,1.14,.07,0,0,3.17,1.08,4.11,.54,0,0,1.01-.07-.81-.74,0,0-3.16-1.55-2.62-2.49,0,0,.2-.4,1.48,.27,0,0,.87,.27,2.02,.74,0,0,1.35,.27,1.75-.27,0,0,.61-.2,.27-1.82,0,0-.87-2.09,1.82-4.24,0,0,1.35-1.21,2.36-1.48Z"/><path d="M140.04,91.21s1.51,1.26-5.16,2.77c0,0-7.56,2.27-7.31,7.05,0,0,1.27,1.64,.63,2.27,0,0-2.02,.5-3.78-4.16,0,0-.25-2.52,2.52-4.15,0,0,10.46-5.92,13.1-3.78Z"/><path d="M146.47,82.78s.76,.5-1.64,2.39c0,0-2.77,2.26-.63,5.04,0,0,.63,1.38-1.51,.88,0,0-2.78-2.14-.76-5.16,0,0,2.9-3.02,4.53-3.15Z"/><path d="M154.53,85.05s.88,.13-.38,1.51c0,0-.75,.75-.75,1.64,0,0-1.39,2.77-3.27,2.27,0,0-1.76-1.26-.25-3.15,0,0,4.16-3.78,4.66-2.27Z"/><path d="M157.3,62.76s1.51,0-1.01,2.9c0,0-4.16,6.8,2.77,11.46,0,0,10.07,3.91,3.52,10.71,0,0-3.78,3.15-4.66,1.64,0,0-.38-.51,2.26-3.28,0,0,2.9-4.66-1.51-6.29,0,0-8.56-5.79-5.29-12.34,0,0,3.02-6.04,3.9-4.79Z"/><path d="M164.98,88.07s3.4-1.77,7.56,1.26c0,0,3.4,2.65-.89,5.16,0,0-.76,.76-1.01-2.39,0,0-.51-2.27-3.15-2.27,0,0-3.02-.88-2.52-1.76Z"/><path d="M159.95,55.07s2.77-3.52,5.66,.25c0,0,3.65,3.4,2.52,4.28,0,0-1.51-.13-2.02-.88,0,0-2.26-.38-2.89-1.14,0,0-1.39-.88-2.14,.38,0,0-1.39,2.27-2.02,1.26,0,0-1.01-2.39,.88-4.16Z"/><path d="M206.11,177.69s13.68-17.99,6.59-42.56c0,0,.25-1.52-1.52-2.53,0,0-5.07-8.36-5.32-11.65,0,0-4.56-12.92-8.36-16.97,0,0-5.07-7.86-7.85-16.97,0,0-1.52-6.08-5.32-9.88,0,0-4.05-7.09-3.8-15.96,0,0-.25-2.03-3.04-3.29,0,0,1.52-11.15-3.55-9.37,0,0-1.77-1.02-.76-3.04,0,0-1.27-9.63-5.82-3.3,0,0-2.03,.76-2.53,4.05l1.52,4.56s.76-6.84,2.79-6.33c0,0,1.77,2.79,.25,8.62,0,0,1.77,5.32,1.77,6.33,0,0-.25-8.11,2.03-9.12,0,0,2.79-.51,1.52,7.09,0,0-1.27,3.04-3.04,4.05l1.26,13.17s2.28,3.04,3.29,5.32c0,0,6.33,11.4,6.33,14.69,0,0-.76,2.79,1.01,2.28,0,0,1.52-1.77-.26-6.84,0,0-1.01-6.08-6.33-12.92,0,0-4.3-15.2-.76-16.21,0,0,1.77,0,2.53,8.11,0,0,1.52,8.11,5.82,12.92,0,0,7.86,16.98,7.86,20.02,0,0,6.59,9.88,7.6,12.67,0,0,5.07,16.21,8.11,17.73,0,0,3.8,3.04,3.54,10.64,0,0,1.78,22.04-5.57,29.9h-1.52l1.52,4.81Z"/><path d="M218.52,138.93s-1.52-.25-.25,3.29c0,0,3.29,20.78-5.83,41.8,0,0,.26,2.02-1.01,2.02,0,0-3.3-2.02-4.82-7.35l-1.26-6.58s-2.03-10.13-1.77-13.68c0,0,.76-7.09-3.8-10.38,0,0-14.44-11.15-14.44-25.08,0,0,0-20.52-2.53-19.26,0,0-.51-.5,0,4.56,0,0-1.01,20.01,1.52,25.84,0,0,2.03,6.08-2.79-.25,0,0-9.91-12.3-8.39-18.12l-2.78,6.7s7.37,11.42,15.22,19.53c0,0,11.66,8.61,12.92,11.15,0,0,1.78,1.77,1.78,7.35,0,0,1.77,18.74,9.37,29.64,0,0,7.6,19,12.67,15.46,0,0,7.96-15.94,11.23-37.93,0,0,0-11.23-9.36-24.79,0,0-5.27-4.54-5.68-3.91Z"/><path class="p" d="M202.05,150.83s7.6,10.39,7.85,14.19v2.78s-3.29-9.63-7.6-8.86l-.25-8.11Z"/><path d="M148.41,121.32h-3.74c-1.87-2.81-6.55-.94-6.55-5.61,7.49,3.74,15.91,3.74,23.4-1.87-.94,5.61-8.42,7.49-13.1,7.49Z"/><path d="M151.03,102.14s8.17-.47,16.23-6.35c0,0,1.24-1.94,1.83-1.12,0,0,.65,.88-1.24,2.29,0,0-1.53,.77-1.58,3.53,0,0-1.65,6.94-5.12,10.47,0,0-3.05,4.88-11.17,4.82,0,0-7.12,.82-12.94-6.59,0,0-2.6-4.35-3.3-6.12,0,0-.3-1-1.18-1.18,0,0-1.71-1-.82-1.94,0,0,.12-.53,3.88,.83,0,0,9.42,2.53,15.42,1.35Z"/><path class="f" d="M150.8,104.26s5.12-.65,7.29-2.06c0,0,3.64-2,3.88-.71,0,0-.23,3.82-4,5.06,0,0-10.82,3.59-16,.06,0,0-3.12-1.94-1.71-2.47,0,0,3.12-.35,5.35,.3,0,0,4.24,.23,5.18-.18Z"/><path d="M132.08,71.22s1.75-.54,2.9,1.35c0,0,1.34,2.49-.07,2.83,0,0-2.96,.94-4.58,.07,0,0-2.28-1.89,1.75-4.24Z"/><path d="M161.83,69.69s1.51-.25,2.14,1.76c0,0,1.51,2.14-1.39,2.52,0,0-3.78,.25-3.65-.63,0,0,.63-3.4,2.89-3.65Z"/><path d="M161.71,65.4s5.92-.38,7.68,7.05c0,0-.51,1.25-1.89,1.25,0,0-1.51,.25-1.26-1.76,0,0-.88-4.91-5.03-4.54,0,0-2.9,.13-3.15,4.54,0,0-.12,1.51-1.01,1.01,0,0-1.64-.12,.88-4.4,0,0,1.38-3.28,3.78-3.15Z"/><g><path class="n" d="M143.91,204.95s1.3-4.08,5.59-.86l15.04,6.23s1.72,1.72,0,3.87c0,0-18.04-6.66-20.41-6.87,0,0-1.5-1.5-.22-2.36Z"/><path class="n" d="M143.7,210.11l19.98,7.95s1.47-.29-1.57,4.49c0,0-3.64,5.84-5.23,4.73,0,0-5.28-3.62-6.78-5.72,0,0-9.41-9.94-6.4-11.44Z"/><path class="n" d="M146.93,197.22s.22-1.72,2.15-.43c0,0,14.39,3.87,15.67,6.45,0,0,2.37,2.79-1.5,2.14,0,0-11.82-4.94-15.68-5.58,0,0-2.36-1.07-.64-2.58Z"/><path class="n" d="M145.63,170.58s.86-.86,2.37,.22c0,0,4.73,.86,5.8,2.58,0,0,4.08,3.01,1.07,3.01l-9.46-3.23s-1.93-.86,.21-2.58Z"/><path class="n" d="M144.35,177.45l10.53,3.65s3.01,2.58,.43,3.65c0,0-7.09-3.01-9.46-2.79,0,0-3,.43-3-3.22,0,0-.43-1.5,1.5-1.29Z"/><path class="n" d="M147.79,186.91l6.02,1.29s1.72,.86-.86,1.72c0,0-3.44,1.07-4.51,.64,0,0-3.22-3.43-.65-3.65Z"/><path class="n" d="M150.36,192.49s3.87-1.72,4.73-.64c0,0,2.79,3.22,1.07,3.01,0,0-5.58-.86-5.8-2.36Z"/></g><g><path d="M102.55,97.32s.89-1.41,1.27,.76c0,0-.51,1.28,1.28,2.17,0,0,3.95,2.93,2.29,5.74,0,0-1.02,1.4-1.91-.76,0,0-1.15-2.43-2.29-2.17,0,0-2.55-1.02-.64-5.74Z"/><path d="M103.07,93.62s-1.02,1.53-2.94-.38c0,0-2.29-2.68-3.57-.38,0,0-1.91,3.95,1.15,8.42,0,0,4.08,4.08,2.81,4.72,0,0-2.68-.38-5.36-4.98,0,0-3.57-7.14-.89-9.06,0,0,2.3-2.55,6.25-1.02,0,0,3.31,1.15,2.55,2.68Z"/></g><path d="M100.51,86.77s.26-.34-.64-.56c0,0-2.32-.71-5.14-.11,0,0-15.26-19.31-4.01-43.73,0,0,16.2-30.26,53.66-12.49,0,0,4.95,1.69,11.36,8.78,0,0,.75,.9,.94,1.24,0,0,.3,3.26,3.45,6.52,0,0,3.77,3.82,5.62,7.71,0,0,6,8.19,4.65,17.57,0,0-2.85,8.1,3.82,15.9,0,0,3.68,5.55,1.73,13.5,0,0-1.2,3.6-3.56,7.48,0,0-2.96,4.07-4.99,13.67,0,0-3.68,13.88-16.73,16.28,0,0-16.95,4.65-38.32-18.68,0,0-2.25-2.03-1.01-4.12,0,0,1.09-2.18-.04-2.25,0,0-.68-.53-1.09,1.72,0,0-1.05,3.26-3.6,1.58,0,0-1.46-.53-4.09-3.75,0,0-.86-2.29-3.34-3.41,0,0-5.21-2.48-6.71-9.34,0,0-1.95-5.48,0-9.38,0,0,1.2-2.33,3.15-3.15,0,0-1.8-.56-2.21-.82,0,0-.07,.45-.49,.86,0,0-2.18,1.35-3.22,5.02,0,0-1.8,5.85,1.99,13.01,0,0,1.05,2.59,6.34,7.8,0,0,2.51,4.57,7.12,6.19,0,0,1.39,.3,2.44-.45,0,0,1.35-.64,2.21,.6,0,0,14.49,17.14,31.54,22.76,0,0,9.96,3.71,20.31-5.01,0,0,4.78-2.31,8.89-14.4,0,0,2.7-8.38,5.91-13.22,0,0,2.48-3.99,3.38-8.77,0,0,1.74-6.19-2.36-14.68,0,0-.9-2.47-3.43-5.4,0,0-1.69-2.59-1.07-7.2,0,0,1.63-12.6-4.78-20.7,0,0-7.82-18.17-23.12-25.52,0,0-13.2-9.52-32.93-3.9,0,0-14.55,1.8-24.07,16.35,0,0-13.31,21.56,4.69,45.86l.58,.69,2.4,.87s1.45-.53,2.43-.6c0,0,2.04-.05,2.35-.32Z"/><polygon class="f" points="104.98 37.73 89.49 20.97 100.65 40.87 79.92 50.42 102.3 45.96 104.98 68.63 107.65 45.96 130.05 50.42 109.31 40.87 120.47 20.97 104.98 37.73"/><path class="f" d="M176.93,151.95s0-2.02,1.2-.6c0,0,8.48,21.22,13.12,41.02,0,0,.75,1.73-1.05,3.15l-10.88,8.48s-1.88,1.35-1.35,2.62c0,0,1.27,4.95,3.23,14.32,0,0,1.05,2.62,.07,3.75,0,0-.82,1.35-12.25,33.9,0,0-24.12-13.73-51.43-43.65l7.65-13.27s1.91-2.81-1.57-3.21l-12.88-2.02s-1.69,.51-2.59-1.97c0,0-6.13-20.18-8.31-37.88,0,0-1.12-5.1,.22-5.18,0,0,.9-1.5,1.35,4.88l7.88,36.38s.75,1.88,2.32,2.1l15.75,2.17s2.4,.08,1.2,1.65l-7.8,14.77s-.75,1.2-.08,1.95c0,0,14.25,14.93,47.1,38.9,0,0,2.07-5.48,10.12-31.18l-2.25-11.65c-.19-.4-.86-3.82-.98-4.25-.45-1.73-.63-1.71,.62-2.72l13.33-9.96s1.52-.79,.17-4.95c0,0-9.02-30.75-11.94-37.58Z"/></g><g id="e"><g><rect class="o" x="57.17" y="174.74" width="9.48" height="58.12"/><polygon class="g" points="57.17 240.76 61.44 174.92 66.65 240.6 57.17 240.76"/><polygon class="g" points="66.65 232.76 62.39 297.9 57.17 232.92 66.65 232.76"/><polygon class="g" points="58.12 241.15 0 236.88 57.96 231.67 58.12 241.15"/><polygon class="g" points="64.86 231.67 122.98 235.94 65.02 241.15 64.86 231.67"/><g><polygon class="g" points="59.81 236.82 48.29 223.47 61.8 234.76 59.81 236.82"/><polygon class="g" points="63.27 236.24 74.79 249.59 61.28 238.3 63.27 236.24"/><polygon class="g" points="61.74 238.36 48.41 249.89 59.68 236.36 61.74 238.36"/><polygon class="g" points="61.16 234.88 74.5 223.35 63.22 236.88 61.16 234.88"/></g></g><g><rect class="o" x="98.45" y="193.73" width="3.88" height="23.64"/><polygon class="g" points="98.45 220.59 100.19 193.8 102.33 220.52 98.45 220.59"/><polygon class="g" points="102.33 217.33 100.58 243.83 98.45 217.4 102.33 217.33"/><polygon class="g" points="98.84 220.74 75.04 219.01 98.77 216.89 98.84 220.74"/><polygon class="g" points="101.6 216.89 125.39 218.62 101.66 220.74 101.6 216.89"/><g><polygon class="g" points="99.53 218.99 94.81 213.55 100.34 218.15 99.53 218.99"/><polygon class="g" points="100.95 218.75 105.66 224.18 100.13 219.59 100.95 218.75"/><polygon class="g" points="100.32 219.61 94.86 224.3 99.48 218.8 100.32 219.61"/><polygon class="g" points="100.08 218.2 105.54 213.51 100.92 219.01 100.08 218.2"/></g></g><g><rect class="o" x="42.66" y="248.44" width="3.88" height="23.64"/><polygon class="g" points="42.66 275.3 44.41 248.52 46.54 275.24 42.66 275.3"/><polygon class="g" points="46.54 272.05 44.8 298.55 42.66 272.11 46.54 272.05"/><polygon class="g" points="43.05 275.46 19.25 273.72 42.98 271.6 43.05 275.46"/><polygon class="g" points="45.81 271.6 69.61 273.34 45.87 275.46 45.81 271.6"/><g><polygon class="g" points="43.74 273.7 39.02 268.26 44.56 272.86 43.74 273.7"/><polygon class="g" points="45.16 273.46 49.87 278.89 44.34 274.3 45.16 273.46"/><polygon class="g" points="44.53 274.32 39.07 279.01 43.69 273.51 44.53 274.32"/><polygon class="g" points="44.29 272.91 49.75 268.22 45.14 273.72 44.29 272.91"/></g></g><polygon class="g" points="265.69 15.04 304.77 64.58 235 75.41 239.02 81.79 217.79 69.41 218.65 48.59 222.88 54.97 265.69 15.04"/><g><polygon class="g" points="229.85 13.56 215.47 0 199.65 41.08 197.42 36.38 197.88 47.35 229.85 13.56"/><polygon class="g" points="229.57 13.29 243.95 26.85 203.88 45.07 208.7 47.02 197.72 47.2 229.57 13.29"/></g></g></svg>