<svg id="Layer_1" data-name="Layer 1" xmlns="http://www.w3.org/2000/svg" xmlns:xlink="http://www.w3.org/1999/xlink" viewBox="0 0 220.67 254.58"><defs><style>.cls-1,.cls-5{fill:none;}.cls-2{fill:#fdc475;}.cls-3{fill:#9a6b38;}.cls-4{fill:#fff;}.cls-5{stroke:#fff;stroke-miterlimit:10;stroke-width:4px;}.cls-6,.cls-9{fill:#ffdfb4;}.cls-6,.cls-7{opacity:0.75;}.cls-10,.cls-7{fill:url(#New_Pattern_Swatch_14);}.cls-8{fill:#231f20;}.cls-11{fill:#e27026;}.cls-12{fill:url(#New_Pattern_Swatch_15);}</style><pattern id="New_Pattern_Swatch_14" data-name="New Pattern Swatch 14" width="26.39" height="26.25" patternTransform="translate(1502.45 1411.73)" patternUnits="userSpaceOnUse" viewBox="0 0 26.39 26.25"><rect class="cls-1" width="26.39" height="26.25"/><path class="cls-2" d="M8.84,11.57a2.47,2.47,0,1,1-3.5,0A2.47,2.47,0,0,1,8.84,11.57Z"/><path class="cls-2" d="M15.24,4.85a2.48,2.48,0,1,1-3.5,0A2.48,2.48,0,0,1,15.24,4.85Z"/><path class="cls-2" d="M4.53,26.25a2.48,2.48,0,0,1,5,0"/><path class="cls-2" d="M17.47,26.25a2.48,2.48,0,1,1,5,0"/><path class="cls-2" d="M22.42,0A2.48,2.48,0,0,1,20,2.48,2.48,2.48,0,0,1,17.47,0"/><path class="cls-2" d="M9.49,0a2.48,2.48,0,0,1-5,0"/><path class="cls-2" d="M15.42,18.15a2.48,2.48,0,1,1-3.5,0A2.48,2.48,0,0,1,15.42,18.15Z"/><path class="cls-2" d="M21.82,11.44a2.47,2.47,0,1,1-3.5,0A2.47,2.47,0,0,1,21.82,11.44Z"/><path class="cls-2" d="M26.39,22a2.48,2.48,0,1,1,0-4.95"/><path class="cls-2" d="M26.39,9.4a2.48,2.48,0,0,1,0-5"/><path class="cls-2" d="M0,4.44a2.48,2.48,0,0,1,0,5"/><path class="cls-2" d="M0,17a2.48,2.48,0,0,1,2.48,2.48A2.47,2.47,0,0,1,0,22"/></pattern><pattern id="New_Pattern_Swatch_15" data-name="New Pattern Swatch 15" width="26.39" height="26.25" patternTransform="translate(1502.45 1411.73)" patternUnits="userSpaceOnUse" viewBox="0 0 26.39 26.25"><rect class="cls-1" width="26.39" height="26.25"/><path class="cls-3" d="M8.84,11.57a2.47,2.47,0,1,1-3.5,0A2.47,2.47,0,0,1,8.84,11.57Z"/><path class="cls-3" d="M15.24,4.85a2.48,2.48,0,1,1-3.5,0A2.48,2.48,0,0,1,15.24,4.85Z"/><path class="cls-3" d="M4.53,26.25a2.48,2.48,0,0,1,5,0"/><path class="cls-3" d="M17.47,26.25a2.48,2.48,0,1,1,5,0"/><path class="cls-3" d="M22.42,0A2.48,2.48,0,0,1,20,2.48,2.48,2.48,0,0,1,17.47,0"/><path class="cls-3" d="M9.49,0a2.48,2.48,0,0,1-5,0"/><path class="cls-3" d="M15.42,18.15a2.48,2.48,0,1,1-3.5,0A2.48,2.48,0,0,1,15.42,18.15Z"/><path class="cls-3" d="M21.82,11.44a2.47,2.47,0,1,1-3.5,0A2.47,2.47,0,0,1,21.82,11.44Z"/><path class="cls-3" d="M26.39,22a2.48,2.48,0,1,1,0-4.95"/><path class="cls-3" d="M26.39,9.4a2.48,2.48,0,0,1,0-5"/><path class="cls-3" d="M0,4.44a2.48,2.48,0,0,1,0,5"/><path class="cls-3" d="M0,17a2.48,2.48,0,0,1,2.48,2.48A2.47,2.47,0,0,1,0,22"/></pattern></defs><path class="cls-4" d="M7.65,172.23s-5.4-16.8,5.1-25a74.88,74.88,0,0,1,30.9-18.3s11.55-2.85,16.8-8.7c0,0,9-6.6,10.8-15.45,0,0-27.3-13.5-18.15-38.25,0,0-24.45-44.1,13.8-61.2S128.55,18,129.45,18.78c0,0,11.34-8.81,14.1,6.75,0,0,5.55,3,4.2,11.1,0,0,1.65,9.3,3.15,12.9a101.35,101.35,0,0,1,6.6,11.4,38.27,38.27,0,0,1,3,8.25s.15,3.45,4.2,9.9a75.48,75.48,0,0,1,10.2,18.75,32.35,32.35,0,0,0,3.45,9s2.85,2.55,3,4.35c0,0,17.7,3.15,21.3,38.1,0,0,7.65,11.7,9.75,22.5,0,0-2,21.07-27.45,47.17,0,0-72.68,74.7-154.58-4.27A146,146,0,0,1,7.65,172.23Z"/><ellipse class="cls-5" cx="110.34" cy="142.54" rx="108.34" ry="110.04"/><polygon class="cls-6" points="113.8 10.59 101.14 4.89 92.74 4.07 81.26 4.79 69.28 8.92 58.89 17.17 53.56 28.09 50.77 37.28 51.57 49.53 56.21 60.84 60.31 66.28 57.13 69.77 56.61 77.59 59.48 85.67 65.47 91.4 69.64 95.57 72.51 96.88 75.9 96.88 85.03 106.52 100.15 116.69 114.75 119.29 126.22 115.38 132.48 106.52 135.34 98.7 142.38 108.34 149.94 117.47 154.37 121.64 168.19 134.15 175.75 145.88 178.09 134.93 177.83 126.33 177.31 117.73 176.78 113.82 175.22 111.47 172.62 108.08 167.4 95.57 161.67 83.84 158.28 78.37 156.19 72.12 153.59 65.86 151.76 61.69 149.68 58.04 147.85 55.43 145.77 50.22 145.25 45.79 144.21 40.84 142.9 38.23 141.6 36.93 141.86 33.8 141.86 30.93 140.82 29.11 138.47 28.85 136.65 27.81 136.91 22.85 136.13 21.03 134.56 20.51 132.22 22.85 129.61 27.02 127 23.11 124.14 20.25 122.19 16.99 113.8 10.59"/><polygon class="cls-7" points="112.9 10.59 100.25 4.89 91.84 4.07 80.36 4.79 68.38 8.92 57.99 17.17 52.67 28.09 49.87 37.28 50.67 49.53 55.31 60.84 59.42 66.28 56.23 69.77 55.71 77.59 58.58 85.67 64.57 91.4 68.75 95.57 71.61 96.88 75 96.88 84.13 106.52 99.25 116.69 113.86 119.29 125.32 115.38 131.58 106.52 134.45 98.7 141.48 108.34 149.04 117.47 153.47 121.64 167.29 134.15 174.85 145.88 177.19 134.93 176.93 126.33 176.41 117.73 175.89 113.82 174.32 111.47 171.72 108.08 166.5 95.57 160.77 83.84 157.38 78.37 155.3 72.12 152.69 65.86 150.87 61.69 148.78 58.04 146.96 55.43 144.87 50.22 144.35 45.79 143.31 40.84 142.01 38.23 140.7 36.93 140.96 33.8 140.96 30.93 139.92 29.11 137.58 28.85 135.75 27.81 136.01 22.85 135.23 21.03 133.67 20.51 131.32 22.85 128.71 27.02 126.11 23.11 123.24 20.25 121.29 16.99 112.9 10.59"/><path class="cls-4" d="M124,50.8a4.19,4.19,0,1,0,4.19-4A4.07,4.07,0,0,0,124,50.8Z"/><path class="cls-4" d="M94.54,52.3c0,2.18,2.11,4,4.71,4s4.71-1.78,4.71-4-2.11-4-4.71-4S94.54,50.11,94.54,52.3Z"/><path d="M200.61,153.18c5.87,14,4.84,12.89,7.85,29.75,0,0-2.9,8.5-4.7,10.6,0,0-29.4,56.1-92.18,56.32,0,0-62.1,5.85-96.07-59.4,0,0-14.63-31.5,4.27-42.3,0,0,5.4-6.75,29.48-14.17a18.45,18.45,0,0,0,10.57-6.08,41.26,41.26,0,0,0,17.33-27.22l2.25,2.25s31.2,34.95,50.1,12.3a92.26,92.26,0,0,0,29.1,19.35,5.17,5.17,0,0,1,2.81,1.87,9.63,9.63,0,0,1,3,5.85s1.68,17.78,10.12,29.25c0,0,7.31,16.2,12.15,16.2,0,0,3.26,2.59,7.43-10.46C194.16,177.29,200,162.25,200.61,153.18Z"/><path class="cls-8" d="M180.05,157.24a2.28,2.28,0,1,1-2.28-2.41A2.34,2.34,0,0,1,180.05,157.24Z"/><path class="cls-9" d="M79.38,104.44s.21-2,2.28.22c0,0,15.35,16.75,30.26,18.81,0,0,7.51.12,10.22-1.84,0,0,2.4-1,.77,2.5,0,0-5.22,15.77-8.16,19.14,0,0-1.31,2.07-3.92-.54,0,0-16.43-10-22.42-18.6,0,0-8.39-13.92-9.25-15.45C79.16,108.68,77.85,107.16,79.38,104.44Z"/><path class="cls-10" d="M79.83,104.44s.21-2,2.28.22c0,0,15.35,16.75,30.26,18.81,0,0,7.51.12,10.22-1.84,0,0,2.4-1,.77,2.5,0,0-5.22,15.77-8.16,19.14,0,0-1.31,2.07-3.92-.54,0,0-16.43-10-22.42-18.6,0,0-8.39-13.92-9.26-15.45C79.6,108.68,78.3,107.16,79.83,104.44Z"/><path class="cls-4" d="M76.44,112.81s1-3.8,2.18-1c0,0,4.35,12.73,17.41,24.48,0,0,9.8,6.86,13.6,8.82,0,0,3.26.21.55,4.24a53.58,53.58,0,0,0-10.89,21.1s-.32,3.7-2.39-.32C96.9,170.15,77.22,126.41,76.44,112.81Z"/><path class="cls-4" d="M126.82,119.65s.63-2,1.72-.63c0,0,2.34-1.24,3.58,10.61,0,0,3.28,18.71,1.09,34.61,0,0-.15,3.12-2.49-1.4,0,0-9.35-13.25-13.88-15.91,0,0-2.18-.3.31-2.8C117.15,144.13,126,126.82,126.82,119.65Z"/><path class="cls-4" d="M105.46,161.9s.78-4.68,2.18.16c0,0,3,7.64,4.37,8.42,0,0,2,1.09-.31,4.21,0,0-4.38,6.55-5,9.83,0,0-.94,2.65-3.13-1.88,0,0-4.21-5.76-3-8.73Z"/><path class="cls-4" d="M125.32,164.05s-.43-5.8,1.71-1.94c0,0,4.08,6.45,5.37,7.95a10.76,10.76,0,0,1,.65,5.15s-.43,6.88-1.5,5.81c0,0-6.23-8.38-7.31-9.24,0,0-1.5-1.07-.22-3.44Z"/><path class="cls-11" d="M110.28,184.88s1.29-4.08,5.59-.86l15,6.23a2.84,2.84,0,0,1,0,3.87s-18-6.66-20.41-6.88C110.49,187.24,109,185.74,110.28,184.88Z"/><path class="cls-11" d="M110.06,190l20,7.94s.54.59-.21,1.46c0,0-5.21,9.38-7.14,7.44,0,0-7.2-5.4-10.2-9.45C112.5,197.43,107.06,191.54,110.06,190Z"/><path class="cls-11" d="M113.29,177.15s.21-1.72,2.15-.43c0,0,14.39,3.87,15.67,6.45,0,0,2.37,2.78-1.5,2.14,0,0-11.81-4.94-15.68-5.58C113.93,179.73,111.57,178.65,113.29,177.15Z"/><path class="cls-11" d="M112,150.51s.87-.86,2.37.22c0,0,4.73.86,5.8,2.57,0,0,4.08,3,1.07,3l-9.45-3.23S109.85,152.23,112,150.51Z"/><path class="cls-11" d="M110.71,157.39,121.23,161s3,2.58.43,3.65c0,0-7.09-3-9.45-2.79,0,0-3,.43-3-3.22C109.21,158.68,108.77,157.17,110.71,157.39Z"/><path class="cls-11" d="M114.15,166.84l6,1.28s1.72.86-.86,1.73c0,0-3.43,1.07-4.51.64C114.79,170.49,111.57,167.05,114.15,166.84Z"/><path class="cls-11" d="M116.72,172.42s3.87-1.71,4.73-.64c0,0,2.79,3.22,1.07,3C122.52,174.78,116.94,173.93,116.72,172.42Z"/><path d="M88.21,35.34a14.8,14.8,0,0,1,6.53.34,35.46,35.46,0,0,1,5,1.81,2.08,2.08,0,0,1,.81.61,3.91,3.91,0,0,0,1.21.61s3.5.8,2.7,2.22c0,0-.34,1.34-4-.14,0,0-3.91-1.21-5.32-1.81a12.34,12.34,0,0,1-2-.27s-3.63-1.42-5.38.74a10.46,10.46,0,0,0-2.29,2.69S84.84,44.63,84,44c0,0-1.28-.06-.34-3.36a4.89,4.89,0,0,1,.47-1.28,3.52,3.52,0,0,0,.61-1.48S85.31,35.81,88.21,35.34Z"/><path d="M97.16,47.18s2.29-1.21,5.73.74a29.75,29.75,0,0,1,2.83,1.82,2.27,2.27,0,0,1,.74,1.35,2.57,2.57,0,0,0,.4.87s.67.94,0,1.42c0,0-.4.87-1.55,0a4.43,4.43,0,0,1-1.82-2.09,5.29,5.29,0,0,0-5.12-2,4.42,4.42,0,0,0-3.83,4.37v2.5l-.4.74s-1.62-.41-2,.26c0,0,1.14,2.43-2.5,1.82,0,0-3.84-.74-4-2.35,0,0-.14-.41,1.14.06,0,0,3.17,1.08,4.11.54,0,0,1-.07-.81-.74,0,0-3.16-1.55-2.62-2.49,0,0,.2-.4,1.48.27,0,0,.87.27,2,.74,0,0,1.35.27,1.75-.27,0,0,.61-.2.27-1.82,0,0-.87-2.08,1.82-4.23A7.72,7.72,0,0,1,97.16,47.18Z"/><path d="M106.13,71.15s1.52,1.26-5.16,2.77c0,0-7.56,2.27-7.31,7,0,0,1.27,1.64.63,2.27,0,0-2,.5-3.78-4.16A4.59,4.59,0,0,1,93,74.93S103.49,69,106.13,71.15Z"/><path d="M112.56,62.71s.76.5-1.64,2.4c0,0-2.77,2.26-.63,5,0,0,.63,1.38-1.51.88a3.76,3.76,0,0,1-.75-5.16S110.92,62.84,112.56,62.71Z"/><path d="M120.62,65s.88.13-.38,1.51a2.68,2.68,0,0,0-.75,1.64s-1.39,2.76-3.28,2.26a2.08,2.08,0,0,1-.25-3.15S120.12,63.47,120.62,65Z"/><path d="M123.39,42.69s1.51,0-1,2.9c0,0-4.15,6.8,2.78,11.45,0,0,10.07,3.91,3.52,10.71,0,0-3.78,3.15-4.66,1.64,0,0-.38-.51,2.27-3.28,0,0,2.89-4.66-1.51-6.29,0,0-8.57-5.8-5.29-12.34C119.49,47.48,122.51,41.43,123.39,42.69Z"/><path d="M131.07,68s3.4-1.76,7.56,1.26c0,0,3.4,2.65-.88,5.16,0,0-.76.76-1-2.39a3.09,3.09,0,0,0-3.15-2.27S130.57,68.88,131.07,68Z"/><path d="M126,35s2.77-3.53,5.66.25c0,0,3.65,3.4,2.52,4.28,0,0-1.51-.13-2-.88,0,0-2.26-.38-2.89-1.13,0,0-1.39-.88-2.14.37,0,0-1.39,2.27-2,1.26A3.84,3.84,0,0,1,126,35Z"/><path d="M172.2,157.62a50.82,50.82,0,0,0,6.59-42.56,2.59,2.59,0,0,0-1.52-2.53s-5.07-8.37-5.32-11.66c0,0-4.56-12.92-8.36-17a77.33,77.33,0,0,1-7.86-17s-1.51-6.09-5.32-9.88a33.68,33.68,0,0,1-3.8-16s-.25-2-3-3.3c0,0,1.52-11.14-3.54-9.37a2.21,2.21,0,0,1-.76-3s-1.27-9.63-5.83-3.3c0,0-2,.77-2.53,4.06l1.52,4.56s.75-6.84,2.78-6.34c0,0,1.78,2.79.26,8.62a52.35,52.35,0,0,1,1.77,6.33s-.25-8.11,2-9.12c0,0,2.79-.51,1.52,7.1,0,0-1.27,3-3,4.05L139,54.51a35.64,35.64,0,0,1,3.3,5.32s6.33,11.4,6.33,14.7c0,0-.76,2.78,1,2.27,0,0,1.52-1.77-.25-6.83a31.88,31.88,0,0,0-6.33-12.92s-4.31-15.2-.76-16.22c0,0,1.77,0,2.53,8.11,0,0,1.52,8.11,5.82,12.92,0,0,7.86,17,7.86,20,0,0,6.59,9.88,7.6,12.67,0,0,5.07,16.21,8.11,17.73,0,0,3.8,3,3.54,10.64,0,0,1.78,22-5.57,29.9h-1.52Z"/><path d="M184.61,118.86s-1.51-.26-.25,3.29c0,0,3.29,20.78-5.83,41.8,0,0,.26,2-1,2,0,0-3.29-2-4.81-7.35l-1.27-6.58s-2-10.14-1.77-13.68c0,0,.76-7.1-3.8-10.39,0,0-14.45-11.15-14.45-25.08,0,0,0-20.52-2.53-19.26,0,0-.5-.5,0,4.57,0,0-1,20,1.52,25.83,0,0,2,6.09-2.78-.25,0,0-9.91-12.3-8.4-18.12l-2.77,6.7s7.37,11.42,15.22,19.53c0,0,11.65,8.61,12.92,11.15,0,0,1.78,1.77,1.78,7.34,0,0,1.77,18.75,9.37,29.64,0,0,7.6,19,12.67,15.46a139.87,139.87,0,0,0,11.23-37.93s0-11.23-9.36-24.79C190.29,122.77,185,118.23,184.61,118.86Z"/><path class="cls-8" d="M168.15,130.76s7.6,10.39,7.85,14.19v2.79s-3.29-9.63-7.6-8.87Z"/><path d="M114.5,101.25h-3.74c-1.87-2.81-6.55-.94-6.55-5.62,7.49,3.74,15.91,3.74,23.39-1.87C126.67,99.37,119.18,101.25,114.5,101.25Z"/><path d="M117.13,82.07a33.62,33.62,0,0,0,16.22-6.35s1.24-1.94,1.83-1.12c0,0,.64.88-1.24,2.3,0,0-1.53.76-1.58,3.52,0,0-1.65,6.94-5.12,10.47,0,0-3.06,4.89-11.17,4.83,0,0-7.12.82-12.95-6.59,0,0-2.59-4.35-3.29-6.12a1.78,1.78,0,0,0-1.19-1.18s-1.7-1-.82-1.94c0,0,.12-.52,3.88.83C101.7,80.72,111.12,83.25,117.13,82.07Z"/><path class="cls-4" d="M116.89,84.19s5.12-.65,7.29-2.06c0,0,3.65-2,3.88-.71a5.93,5.93,0,0,1-4,5.06s-10.82,3.59-16,.06c0,0-3.12-1.94-1.7-2.47a16.55,16.55,0,0,1,5.35.3S116,84.6,116.89,84.19Z"/><path d="M98.17,51.16a2.59,2.59,0,0,1,2.9,1.34s1.35,2.49-.07,2.83c0,0-3,.94-4.58.07C96.42,55.4,94.14,53.51,98.17,51.16Z"/><path d="M127.92,49.62s1.52-.26,2.15,1.76c0,0,1.51,2.14-1.39,2.52,0,0-3.78.25-3.65-.63C125,53.27,125.66,49.87,127.92,49.62Z"/><path d="M127.8,45.33s5.92-.37,7.68,7.06a2.09,2.09,0,0,1-1.89,1.25s-1.51.26-1.26-1.76c0,0-.88-4.91-5-4.53,0,0-2.9.13-3.15,4.53,0,0-.13,1.51-1,1,0,0-1.64-.13.88-4.41C124,48.48,125.4,45.21,127.8,45.33Z"/><path class="cls-12" d="M110,184.88s1.29-4.08,5.59-.86l15,6.23a2.84,2.84,0,0,1,0,3.87s-18-6.66-20.4-6.88C110.23,187.24,108.73,185.74,110,184.88Z"/><path class="cls-12" d="M109.8,190l20,7.94s1.47-.29-1.57,4.49c0,0-3.64,5.85-5.23,4.73,0,0-5.28-3.62-6.78-5.72C116.2,201.48,106.79,191.54,109.8,190Z"/><path class="cls-12" d="M113,177.15s.22-1.72,2.15-.43c0,0,14.39,3.87,15.68,6.45,0,0,2.36,2.78-1.5,2.14,0,0-11.82-4.94-15.69-5.58C113.66,179.73,111.3,178.65,113,177.15Z"/><path class="cls-12" d="M111.73,150.51s.86-.86,2.36.22c0,0,4.73.86,5.81,2.57,0,0,4.08,3,1.07,3l-9.46-3.23S109.58,152.23,111.73,150.51Z"/><path class="cls-12" d="M110.44,157.39,121,161s3,2.58.43,3.65c0,0-7.1-3-9.46-2.79,0,0-3,.43-3-3.22C108.94,158.68,108.51,157.17,110.44,157.39Z"/><path class="cls-12" d="M113.88,166.84l6,1.28s1.71.86-.87,1.73c0,0-3.43,1.07-4.5.64C114.53,170.49,111.3,167.05,113.88,166.84Z"/><path class="cls-12" d="M116.46,172.42s3.86-1.71,4.73-.64c0,0,2.79,3.22,1.06,3C122.25,174.78,116.67,173.93,116.46,172.42Z"/><path d="M68.65,77.25s.89-1.41,1.27.76c0,0-.51,1.28,1.28,2.17,0,0,4,2.94,2.29,5.74,0,0-1,1.41-1.91-.76,0,0-1.15-2.43-2.3-2.17C69.28,83,66.73,82,68.65,77.25Z"/><path d="M69.16,73.55s-1,1.53-2.94-.39c0,0-2.29-2.68-3.57-.38A8.75,8.75,0,0,0,63.8,81.2s4.08,4.08,2.81,4.72c0,0-2.68-.38-5.37-5,0,0-3.56-7.15-.89-9.06a5.65,5.65,0,0,1,6.26-1S69.92,72,69.16,73.55Z"/><path d="M66.6,66.7s.26-.33-.64-.56A11.28,11.28,0,0,0,60.82,66s-15.26-19.31-4-43.73c0,0,16.2-30.26,53.66-12.48,0,0,5,1.68,11.37,8.77a12.91,12.91,0,0,1,.93,1.24,11.93,11.93,0,0,0,3.45,6.52,34.57,34.57,0,0,1,5.63,7.71s6,8.19,4.65,17.57a17,17,0,0,0,3.82,15.9A18,18,0,0,1,142.05,81a41.21,41.21,0,0,1-3.56,7.48s-3,4.07-5,13.67c0,0-3.68,13.87-16.73,16.27,0,0-17,4.65-38.32-18.67,0,0-2.25-2-1-4.13,0,0,1.08-2.17,0-2.25,0,0-.68-.52-1.09,1.73,0,0-1,3.26-3.6,1.57,0,0-1.46-.52-4.09-3.75a6.76,6.76,0,0,0-3.33-3.41,13.74,13.74,0,0,1-6.72-9.34s-2-5.47,0-9.37a7.56,7.56,0,0,1,3.15-3.15,16.73,16.73,0,0,1-2.21-.83,1.74,1.74,0,0,1-.49.87,8.83,8.83,0,0,0-3.22,5s-1.8,5.85,2,13c0,0,1.05,2.59,6.33,7.8,0,0,2.52,4.58,7.13,6.19a3.41,3.41,0,0,0,2.44-.45,1.78,1.78,0,0,1,2.21.6S90.39,117,107.44,122.65c0,0,10,3.72,20.3-5,0,0,4.78-2.31,8.89-14.4,0,0,2.7-8.38,5.91-13.22a29,29,0,0,0,3.37-8.78s1.75-6.18-2.36-14.68a19.45,19.45,0,0,0-3.43-5.4s-1.69-2.58-1.07-7.2c0,0,1.63-12.6-4.78-20.7,0,0-7.82-18.17-23.12-25.52,0,0-13.2-9.52-32.93-3.9A36.73,36.73,0,0,0,54.15,20.2S40.84,41.77,58.84,66.07l.57.69,2.41.87A11.27,11.27,0,0,1,64.25,67,7.91,7.91,0,0,0,66.6,66.7Z"/><polygon class="cls-4" points="71.07 17.66 55.58 0.9 66.74 20.8 46.01 30.35 68.4 25.89 71.07 48.56 73.75 25.89 96.14 30.35 75.4 20.8 86.56 0.9 71.07 17.66"/><path class="cls-4" d="M143,131.88s0-2,1.2-.6c0,0,8.48,21.22,13.13,41a2.71,2.71,0,0,1-1,3.15l-10.88,8.48s-1.87,1.35-1.35,2.62c0,0,1.28,4.95,3.23,14.33,0,0,1,2.62.07,3.75,0,0-.82,1.35-12.25,33.9,0,0-24.12-13.73-51.42-43.65l7.65-13.28s1.91-2.81-1.58-3.2l-12.88-2s-1.68.51-2.58-2c0,0-6.14-20.17-8.31-37.87,0,0-1.13-5.1.22-5.18,0,0,.9-1.5,1.35,4.88l7.88,36.37s.75,1.88,2.32,2.1l15.75,2.18s2.4.07,1.2,1.65l-7.8,14.77s-.75,1.2-.07,1.95c0,0,14.25,14.93,47.1,38.9,0,0,2.07-5.47,10.12-31.17l-2.25-11.65c-.19-.4-.86-3.82-1-4.25-.45-1.73-.63-1.72.62-2.72l13.33-10s1.52-.78.17-5C155,169.45,146,138.7,143,131.88Z"/></svg>