<?xml version="1.0" encoding="UTF-8"?><svg id="a" xmlns="http://www.w3.org/2000/svg" xmlns:xlink="http://www.w3.org/1999/xlink" viewBox="0 0 425.07 424.07"><defs><style>.a`{fill:url(#t);}.aa{fill:url(#r);}.ab{fill:url(#y);}.ac{opacity:.5;}.ad{fill:url(#l);}.ae{fill:url(#c);}.af{fill:url(#u);}.ag{fill:url(#v);}.ah{fill:url(#m);}.ai{fill:url(#f);}.aj{fill:url(#p);}.ak{fill:url(#g);}.al{fill:url(#b);}.am{fill:url(#i);}.an{fill:url(#h);}.ao{fill:url(#d);}.ap{fill:url(#e);}.aq{fill:url(#x);}.ar{fill:url(#s);}.as{fill:url(#n);}.at{fill:url(#w);}.au{fill:url(#j);}.av{fill:url(#o);}.aw{fill:url(#q);}.ax{fill:url(#k);}</style><radialGradient id="b" cx="213.04" cy="98.92" fx="213.04" fy="98.92" r="72.45" gradientTransform="matrix(1, 0, 0, 1, 0, 0)" gradientUnits="userSpaceOnUse"><stop offset="0" stop-color="#fff"/><stop offset=".11" stop-color="#f0f0ef"/><stop offset=".32" stop-color="#c8c9c7"/><stop offset=".61" stop-color="#898a86"/><stop offset=".97" stop-color="#33342e"/><stop offset="1" stop-color="#2b2c26"/></radialGradient><radialGradient id="c" cy="325.16" fy="325.16" xlink:href="#b"/><radialGradient id="d" cx="99.92" cy="212.04" fx="99.92" fy="212.04" xlink:href="#b"/><radialGradient id="e" cx="326.16" cy="212.04" fx="326.16" fy="212.04" xlink:href="#b"/><radialGradient id="f" cx="125.98" cy="124.98" fx="125.98" fy="124.98" r="81.77" xlink:href="#b"/><radialGradient id="g" cx="300.1" cy="299.1" fx="300.1" fy="299.1" r="81.77" xlink:href="#b"/><radialGradient id="h" cx="125.98" cy="299.1" fx="125.98" fy="299.1" r="81.77" xlink:href="#b"/><radialGradient id="i" cx="300.1" cy="124.98" fx="300.1" fy="124.98" r="81.77" xlink:href="#b"/><radialGradient id="j" cx="212.04" fx="212.04" xlink:href="#b"/><radialGradient id="k" cx="212.04" cy="325.16" fx="212.04" fy="325.16" xlink:href="#b"/><radialGradient id="l" cx="98.92" cy="212.04" fx="98.92" fy="212.04" xlink:href="#b"/><radialGradient id="m" cx="325.16" cy="212.04" fx="325.16" fy="212.04" xlink:href="#b"/><radialGradient id="n" cx="124.98" cy="124.98" fx="124.98" fy="124.98" r="81.77" xlink:href="#b"/><radialGradient id="o" cx="299.1" cy="299.1" fx="299.1" fy="299.1" r="81.77" xlink:href="#b"/><radialGradient id="p" cx="124.98" cy="299.1" fx="124.98" fy="299.1" r="81.77" xlink:href="#b"/><radialGradient id="q" cx="299.1" cy="124.98" fx="299.1" fy="124.98" r="81.77" xlink:href="#b"/><radialGradient id="r" cx="160.51" cy="103.7" fx="160.51" fy="103.7" r="78.75" xlink:href="#b"/><radialGradient id="s" cx="265.57" cy="320.37" fx="265.57" fy="320.37" r="78.75" xlink:href="#b"/><radialGradient id="t" cx="104.7" cy="264.57" fx="104.7" fy="264.57" r="78.75" xlink:href="#b"/><radialGradient id="u" cx="321.37" cy="159.51" fx="321.37" fy="159.51" r="78.75" xlink:href="#b"/><radialGradient id="v" cx="104.7" cy="159.51" fx="104.7" fy="159.51" r="78.75" xlink:href="#b"/><radialGradient id="w" cx="321.37" cy="264.57" fx="321.37" fy="264.57" r="78.75" xlink:href="#b"/><radialGradient id="x" cx="160.51" cy="320.37" fx="160.51" fy="320.37" r="78.75" xlink:href="#b"/><radialGradient id="y" cx="265.57" cy="103.7" fx="265.57" fy="103.7" r="78.75" xlink:href="#b"/></defs><g class="ac"><g><polygon class="al" points="239.77 0 186.31 0 206.31 197.83 219.77 197.83 239.77 0"/><polygon class="ae" points="186.31 424.07 239.77 424.07 219.77 226.24 206.31 226.24 186.31 424.07"/><polygon class="ao" points="1 185.31 1 238.77 198.83 218.77 198.83 205.31 1 185.31"/><polygon class="ap" points="425.07 238.77 425.07 185.31 227.24 205.31 227.24 218.77 425.07 238.77"/></g><g><polygon class="ai" points="82 43.2 44.2 81 198.23 206.75 207.75 197.23 82 43.2"/><polygon class="ak" points="344.07 380.87 381.87 343.07 227.84 217.32 218.32 226.84 344.07 380.87"/><polygon class="an" points="44.2 343.07 82 380.87 207.75 226.84 198.23 217.32 44.2 343.07"/><polygon class="am" points="381.87 81 344.07 43.2 218.32 197.23 227.84 206.75 381.87 81"/></g><g><polygon class="au" points="238.77 0 185.31 0 205.31 197.83 218.77 197.83 238.77 0"/><polygon class="ax" points="185.31 424.07 238.77 424.07 218.77 226.24 205.31 226.24 185.31 424.07"/><polygon class="ad" points="0 185.31 0 238.77 197.83 218.77 197.83 205.31 0 185.31"/><polygon class="ah" points="424.07 238.77 424.07 185.31 226.24 205.31 226.24 218.77 424.07 238.77"/></g><g><polygon class="as" points="81 43.2 43.2 81 197.23 206.75 206.75 197.23 81 43.2"/><polygon class="av" points="343.07 380.87 380.87 343.07 226.84 217.32 217.32 226.84 343.07 380.87"/><polygon class="aj" points="43.2 343.07 81 380.87 206.75 226.84 197.23 217.32 43.2 343.07"/><polygon class="aw" points="380.87 81 343.07 43.2 217.32 197.23 226.84 206.75 380.87 81"/></g><g><polygon class="aa" points="156.59 5.91 107.2 26.37 201.38 201.49 213.82 196.34 156.59 5.91"/><polygon class="ar" points="269.49 418.16 318.87 397.71 224.69 222.59 212.26 227.74 269.49 418.16"/><polygon class="a`" points="6.91 268.49 27.37 317.87 202.49 223.69 197.34 211.26 6.91 268.49"/><polygon class="af" points="419.16 155.59 398.71 106.2 223.59 200.38 228.74 212.82 419.16 155.59"/></g><g><polygon class="ag" points="27.37 106.2 6.91 155.59 197.34 212.82 202.49 200.38 27.37 106.2"/><polygon class="at" points="398.71 317.87 419.16 268.49 228.74 211.26 223.59 223.69 398.71 317.87"/><polygon class="aq" points="107.2 397.71 156.59 418.16 213.82 227.74 201.38 222.59 107.2 397.71"/><polygon class="ab" points="318.87 26.37 269.49 5.91 212.26 196.34 224.69 201.49 318.87 26.37"/></g></g></svg>