<?xml version="1.0" encoding="UTF-8"?><svg id="a" xmlns="http://www.w3.org/2000/svg" viewBox="0 0 424.42 424.42"><defs><style>.c{fill:#fff;isolation:isolate;opacity:.15;}</style></defs><polygon id="b" class="c" points="212.21 126.27 245.82 0 238.77 130.47 309.75 20.77 262.72 142.68 364.13 60.28 281.74 161.69 403.64 114.67 293.94 185.65 424.42 178.6 298.15 212.21 424.42 245.82 293.94 238.77 403.64 309.75 281.74 262.72 364.13 364.13 262.72 281.74 309.75 403.64 238.77 293.94 245.82 424.42 212.21 298.15 178.6 424.42 185.65 293.94 114.67 403.64 161.69 281.74 60.28 364.13 142.68 262.72 20.77 309.75 130.47 238.77 0 245.82 126.27 212.21 0 178.6 130.47 185.65 20.77 114.67 142.68 161.69 60.28 60.28 161.69 142.68 114.67 20.77 185.65 130.47 178.6 0 212.21 126.27"/></svg>