<?xml version="1.0" encoding="UTF-8"?><svg id="a" xmlns="http://www.w3.org/2000/svg" xmlns:xlink="http://www.w3.org/1999/xlink" viewBox="0 0 424 424.09"><defs><style>.d{fill:url(#c);opacity:.35;}.e{fill:url(#b);opacity:.05;}</style><radialGradient id="b" cx="212.71" cy="212.21" fx="212.71" fy="212.21" r="211.29" gradientTransform="matrix(1, 0, 0, 1, 0, 0)" gradientUnits="userSpaceOnUse"><stop offset="0" stop-color="#fff"/><stop offset="1" stop-color="#282923"/></radialGradient><radialGradient id="c" cx="211.46" cy="212.05" fx="211.46" fy="212.05" r="211.75" xlink:href="#b"/></defs><circle class="e" cx="212.71" cy="212.21" r="211.29"/><polygon class="d" points="205.4 175.96 192.28 0 231.14 0 219.7 176.64 275.38 8.75 311.05 23.38 233.33 180.84 348.39 48.45 375.81 75.53 244.43 189.93 400.54 112.71 414.84 148.04 248.13 204.22 422.92 192.62 422.92 230.97 248.13 218.19 415.68 275.55 400.88 310.88 243.42 231.98 375.64 348.39 348.39 375.48 233.16 242.75 310.71 400.21 275.38 415.35 219.87 248.13 231.48 424.09 192.79 424.09 205.07 249.31 148.88 415.51 113.38 400.71 192.45 242.07 75.87 375.48 48.28 348.56 183.03 231.48 23.38 310.21 8.58 274.54 175.79 218.36 0 230.64 0 192.95 175.29 203.89 8.92 148.71 23.89 113.55 181.01 190.93 48.79 76.04 75.7 48.62 192.28 181.51 112.88 23.21 148.88 8.58 205.4 175.96"/></svg>