<?xml version="1.0" encoding="utf-8"?>
<!-- Generator: Adobe Illustrator 26.3.1, SVG Export Plug-In . SVG Version: 6.00 Build 0)  -->
<svg version="1.1" id="a" xmlns="http://www.w3.org/2000/svg" xmlns:xlink="http://www.w3.org/1999/xlink" x="0px" y="0px"
	 viewBox="0 0 136.4 136.4" style="enable-background:new 0 0 136.4 136.4;" xml:space="preserve">
<style type="text/css">
	.st0{opacity:0.2;fill:#666666;}
	.st1{fill:#0071BC;}
	.st2{fill:#29ABE2;}
	.st3{fill:#B3B3B3;}
	.st4{fill:#E6E6E6;}
	.st5{fill:#FFFFFF;}
</style>
<circle class="st0" cx="68.2" cy="68.2" r="68.2"/>
<g>
	<polygon class="st1" points="39.7,105.8 33.4,34.6 103.2,34.6 96.8,105.8 68.2,113.7 	"/>
	<polygon class="st2" points="68.3,107.7 91.4,101.3 96.8,40.5 68.3,40.5 	"/>
	<polygon class="st3" points="47.9,66.7 48.7,75.4 68.3,66.7 68.3,58 	"/>
	<polygon class="st4" points="90.1,48.6 68.3,58 68.3,66.7 89.3,57.4 	"/>
	<polygon class="st4" points="68.3,89.5 68.3,89.5 58.5,86.9 57.9,80 49.1,80 50.3,93.7 68.3,98.6 68.3,98.6 	"/>
	<polygon class="st5" points="68.3,66.7 68.3,75.4 79,75.4 78,86.8 68.3,89.5 68.3,98.6 86.2,93.7 88.5,66.7 	"/>
	<polygon class="st4" points="68.3,66.7 47.9,66.7 48.7,75.4 68.3,75.4 	"/>
	<polygon class="st4" points="68.3,57.4 68.3,48.6 68.2,48.6 46.4,48.6 47.1,57.4 	"/>
	<polygon class="st5" points="68.3,48.6 68.3,57.2 68.3,57.4 89.3,57.4 90.1,48.6 	"/>
</g>
</svg>
