<?xml version="1.0" encoding="utf-8"?>
<!-- Generator: Adobe Illustrator 26.3.1, SVG Export Plug-In . SVG Version: 6.00 Build 0)  -->
<svg version="1.1" id="a" xmlns="http://www.w3.org/2000/svg" xmlns:xlink="http://www.w3.org/1999/xlink" x="0px" y="0px"
	 viewBox="0 0 136.4 136.4" style="enable-background:new 0 0 136.4 136.4;" xml:space="preserve">
<style type="text/css">
	.st0{opacity:0.2;fill:#666666;}
	.st1{fill:#E54F26;}
	.st2{fill:#F16529;}
	.st3{fill:#FFFFFF;}
	.st4{fill:#EBEAEA;}
</style>
<circle class="st0" cx="68.2" cy="68.2" r="68.2"/>
<polygon class="st1" points="102.7,34.8 67.9,34.8 67.9,34.8 33.1,34.8 39.6,105.6 67.9,113.6 67.9,113.6 67.9,113.6 67.9,113.6 
	67.9,113.6 96.2,105.6 "/>
<polygon class="st2" points="67.9,40.6 67.9,107.6 67.9,107.6 90.8,101.1 96.4,40.6 "/>
<polygon class="st3" points="89.8,49.3 46,49.3 48.4,75.8 48.5,75.6 78.4,75.6 77.4,86.8 67.9,89.6 58.2,86.8 57.6,80 48.8,80 
	50.1,93.6 67.9,98.6 85.7,93.6 88.2,66.9 56.4,66.9 55.6,58.1 89,58.1 "/>
<path class="st4" d="M67.9,49.3H46l2.5,26.5l0-0.2h19.4v-8.7H56.4L55.6,58h12.3V49.3L67.9,49.3z M57.6,80h-8.8l1.3,13.6l17.8,5.1v-9
	l-9.7-2.8L57.6,80L57.6,80z"/>
</svg>
