<?xml version="1.0" encoding="utf-8"?>
<!-- Generator: Adobe Illustrator 26.3.1, SVG Export Plug-In . SVG Version: 6.00 Build 0)  -->
<svg version="1.1" id="a" xmlns="http://www.w3.org/2000/svg" xmlns:xlink="http://www.w3.org/1999/xlink" x="0px" y="0px"
	 viewBox="0 0 136.4 136.4" style="enable-background:new 0 0 136.4 136.4;" xml:space="preserve">
<style type="text/css">
	.st0{opacity:0.2;fill:#666666;}
	.st1{fill:#563D7C;}
	.st2{fill:#FFFFFF;}
	.st3{fill:none;}
</style>
<circle class="st0" cx="68.2" cy="68.2" r="68.2"/>
<g id="b">
	<path id="c" class="st1" d="M106.3,93.3c0,6.7-5.5,12.2-12.2,12.2H45.2c-6.7,0-12.2-5.5-12.2-12.2V44.4c0-6.7,5.5-12.2,12.2-12.2
		H94c6.7,0,12.2,5.5,12.2,12.2V93.3z"/>
	<g id="d">
		<path class="st2" d="M52.9,48.1h20.8c3.8,0,6.9,0.9,9.2,2.6s3.5,4.4,3.5,8c0,2.2-0.5,4-1.6,5.5c-1.1,1.5-2.6,2.7-4.5,3.6v0.1
			c2.6,0.6,4.6,1.8,6,3.7c1.3,1.9,2,4.4,2,7.3c0,1.7-0.3,3.2-0.9,4.7c-0.6,1.5-1.5,2.7-2.8,3.8s-2.9,1.9-4.9,2.5s-4.4,0.9-7.1,0.9
			H52.9L52.9,48.1L52.9,48.1L52.9,48.1z M60.4,66h12.2c1.8,0,3.3-0.5,4.5-1.5s1.8-2.5,1.8-4.4c0-2.2-0.5-3.7-1.6-4.5
			s-2.6-1.3-4.7-1.3H60.4V66L60.4,66z M60.4,84.8h13.2c2.3,0,4.1-0.6,5.3-1.8c1.3-1.2,1.9-2.8,1.9-5s-0.6-3.7-1.9-4.9
			s-3-1.7-5.3-1.7H60.4C60.4,71.4,60.4,84.8,60.4,84.8z"/>
	</g>
</g>
<rect x="19.1" y="23.1" class="st3" width="94.7" height="94.7"/>
</svg>
