<?xml version="1.0" encoding="utf-8"?>
<!-- Generator: Adobe Illustrator 26.3.1, SVG Export Plug-In . SVG Version: 6.00 Build 0)  -->
<svg version="1.1" id="a" xmlns="http://www.w3.org/2000/svg" xmlns:xlink="http://www.w3.org/1999/xlink" x="0px" y="0px"
	 viewBox="0 0 136.4 136.4" style="enable-background:new 0 0 136.4 136.4;" xml:space="preserve">
<style type="text/css">
	.st0{opacity:0.2;fill:#666666;}
	.st1{fill:#8DF108;}
	.st2{fill:#3B4936;}
	.st3{fill:#FDB43E;}
	.st4{fill:#5A4822;}
	.st5{fill:#E5429D;}
	.st6{fill:#4E313F;}
	.st7{fill:#FCAD2F;}
	.st8{fill:#E43896;}
	.st9{fill:#8BEF07;}
	.st10{fill:#24D4FE;}
	.st11{fill:#022731;}
</style>
<circle class="st0" cx="68" cy="68.5" r="68.2"/>
<g>
	<rect x="67.2" y="69.5" class="st1" width="42.1" height="42.2"/>
	<rect x="68.8" y="71.4" class="st2" width="38.5" height="38.7"/>
</g>
<g>
	<rect x="67.2" y="27.3" class="st3" width="42.1" height="42.2"/>
	<rect x="68.8" y="29.1" class="st4" width="38.5" height="38.7"/>
</g>
<g>
	<rect x="25.1" y="69.5" class="st5" width="42.1" height="42.2"/>
	<rect x="26.8" y="71.4" class="st6" width="38.5" height="38.7"/>
</g>
<path class="st7" d="M79.2,57.2l5.4-16.8l3.9,0.1L94,57.2l-3.3-0.1l-1.6-4.7l-5.3,0.1l-1.4,4.6L79.2,57.2L79.2,57.2z M84.3,50h4.3
	l-2.1-7L84.3,50z"/>
<circle class="st7" cx="96.7" cy="41.5" r="1.7"/>
<rect x="95" y="44.8" class="st7" width="3.2" height="12.5"/>
<rect x="38.4" y="82.9" class="st8" width="3" height="17"/>
<path class="st8" d="M51.9,82.1h2.9v17.7h-2.5l-0.1-1.8c0,0-0.9,2-3.7,2.2c0,0-5,0.2-4.9-6.4s5-6.3,5-6.3s2.8,0.3,3.2,1.5L51.9,82.1
	L51.9,82.1z M49.3,89.7c-1.4,0-2.6,1.7-2.6,3.9s1.2,3.9,2.6,3.9s2.6-1.7,2.6-3.9S50.8,89.7,49.3,89.7z"/>
<path class="st9" d="M74.1,99.8V83.3c0,0,8.7-2,11.4,2.4c0,0,3.5,5.1-0.1,11.1C85.4,96.8,83,101.1,74.1,99.8z M84,91.5
	c0.1-7.9-7.1-6.1-7.1-6.1v12C84.7,97.9,84,91.5,84,91.5z"/>
<polygon class="st9" points="87.4,87.7 90.1,87.7 91.9,97 94.1,87.8 96.3,87.8 98.5,97.1 100.5,87.7 103,87.7 99.8,99.9 97.3,99.9 
	95.2,91.3 93,99.9 90.5,99.9 "/>
<g>
	<rect x="25.1" y="27.3" class="st10" width="42.1" height="42.2"/>
	<rect x="26.8" y="29.1" class="st11" width="38.5" height="38.7"/>
</g>
<path class="st10" d="M36.4,40.6c0,0,8-1.8,10.2,1.5c0,0,2.4,3.3,0.1,6.3c0,0-1.1,2.8-7.2,2.3v6.4h-3.2L36.4,40.6L36.4,40.6z
	 M39.6,48.4c5.2,0.2,5-3.1,5-3.1c0-3.8-5-2.6-5-2.6L39.6,48.4L39.6,48.4z"/>
<path class="st10" d="M56.1,45.5l-0.6,1.9c0,0-3.4-1.5-4,0.1c0,0-0.9,1,1.3,2c0,0,4.9,1.1,3.6,5.2c0,0-1.3,4.3-8.4,1.8l0.6-2.4
	c0,0,4.5,2.2,4.9-0.3c0,0,0.9-1.1-2.5-2.2c0,0-3.8-1.3-2.5-4.6C48.6,47,50.7,42.6,56.1,45.5L56.1,45.5z"/>
</svg>
