<?xml version="1.0" encoding="utf-8"?>
<!-- Generator: Adobe Illustrator 26.3.1, SVG Export Plug-In . SVG Version: 6.00 Build 0)  -->
<svg version="1.1" id="a" xmlns="http://www.w3.org/2000/svg" xmlns:xlink="http://www.w3.org/1999/xlink" x="0px" y="0px"
	 viewBox="0 0 136.4 136.4" style="enable-background:new 0 0 136.4 136.4;" xml:space="preserve">
<style type="text/css">
	.st0{opacity:0.2;fill:#666666;}
	.st1{fill:#006CFF;}
	.st2{fill:#FFFFFF;}
</style>
<circle class="st0" cx="68.2" cy="68.2" r="68.2"/>
<ellipse class="st1" cx="68.2" cy="68.6" rx="49.1" ry="26.2"/>
<ellipse class="st2" cx="68.1" cy="68.5" rx="46.7" ry="23.9"/>
<path class="st1" d="M57.8,75.6l5.3-26.4h4.9l-1.2,7.2c0,0,7.2-0.8,10,1.2c0,0,2.9,2.1,1.3,5.5l-2.5,12.7h-5.1l2.4-12.1
	c0,0,0.8-2.9-2.4-3.1h-4.5l-3.1,15.2L57.8,75.6L57.8,75.6z"/>
<path class="st1" d="M84.2,56.3h10.8c0,0,7.2,0.2,6.8,6.7c0,0-0.2,7.9-4.2,10.3c0,0-3.1,2.4-7.6,2.3l-4.7,0.1l-1.5,7.1l-5.2-0.1
	L84.2,56.3L84.2,56.3z M86,71.7c3.7,0.2,7.5-0.9,7.5-0.9c2.8-1,3-7.3,3-7.3c0.2-2.6-2.9-2.8-2.9-2.8l-5.1-0.1L86,71.7L86,71.7z"/>
<path class="st1" d="M39.2,56.3h10.8c0,0,7.2,0.2,6.8,6.7c0,0-0.2,7.9-4.2,10.3c0,0-3.1,2.4-7.6,2.3l-4.7,0.1l-1.5,7.1l-5.2-0.1
	L39.2,56.3L39.2,56.3z M41,71.7c3.7,0.2,7.5-0.9,7.5-0.9c2.8-1,3-7.3,3-7.3c0.2-2.6-2.9-2.8-2.9-2.8l-5-0.1L41,71.7L41,71.7z"/>
</svg>
