<?xml version="1.0" encoding="utf-8"?>
<!-- Generator: Adobe Illustrator 26.3.1, SVG Export Plug-In . SVG Version: 6.00 Build 0)  -->
<svg version="1.1" id="a" xmlns="http://www.w3.org/2000/svg" xmlns:xlink="http://www.w3.org/1999/xlink" x="0px" y="0px"
	 viewBox="0 0 136.4 136.4" style="enable-background:new 0 0 136.4 136.4;" xml:space="preserve">
<style type="text/css">
	.st0{opacity:0.2;fill:#666666;}
	.st1{fill:none;}
	.st2{fill:#E24329;}
	.st3{fill:#FC6D26;}
	.st4{fill:#FCA326;}
</style>
<circle class="st0" cx="68.2" cy="68.2" r="68.2"/>
<rect x="19.1" y="23.1" class="st1" width="94.7" height="94.7"/>
<g>
	<path class="st2" d="M103.1,63.9l-0.1-0.3l-10-26c-0.2-0.5-0.6-0.9-1-1.2c-0.5-0.3-1-0.4-1.6-0.4c-0.6,0-1.1,0.2-1.5,0.6
		c-0.4,0.3-0.7,0.8-0.9,1.3l-6.7,20.6H54.1l-6.7-20.6c-0.2-0.5-0.5-1-0.9-1.3S45.5,36,45,36s-1.1,0.1-1.6,0.4
		c-0.5,0.3-0.8,0.7-1,1.2l-10,26l-0.1,0.3c-3,7.7-0.4,16.4,6.2,21.4c0,0,0,0,0,0l0.1,0.1l15.2,11.4l7.5,5.7l4.6,3.5
		c1.1,0.8,2.6,0.8,3.7,0l4.6-3.5l7.5-5.7L97,85.4l0,0C103.6,80.4,106.1,71.6,103.1,63.9L103.1,63.9z"/>
	<path class="st3" d="M103.1,63.9l-0.1-0.3c-4.9,1-9.5,3.1-13.4,6c-0.1,0.1-11.9,9-21.9,16.6c7.5,5.6,14,10.6,14,10.6L97,85.4l0,0
		C103.6,80.4,106.1,71.6,103.1,63.9L103.1,63.9z"/>
	<path class="st4" d="M53.8,96.8l7.5,5.7l4.6,3.5c1.1,0.8,2.6,0.8,3.7,0l4.6-3.5l7.5-5.7c0,0-6.5-4.9-14-10.6
		C60.2,91.9,53.7,96.8,53.8,96.8L53.8,96.8z"/>
	<path class="st3" d="M45.8,69.7c-3.9-2.9-8.5-5-13.4-6l-0.1,0.3c-3,7.7-0.4,16.4,6.2,21.4c0,0,0,0,0,0l0.1,0.1l15.2,11.4
		c0,0,6.5-4.9,14-10.6C57.7,78.7,45.9,69.7,45.8,69.7L45.8,69.7z"/>
</g>
</svg>
