<?xml version="1.0" encoding="utf-8"?>
<!-- Generator: Adobe Illustrator 26.3.1, SVG Export Plug-In . SVG Version: 6.00 Build 0)  -->
<svg version="1.1" id="a" xmlns="http://www.w3.org/2000/svg" xmlns:xlink="http://www.w3.org/1999/xlink" x="0px" y="0px"
	 viewBox="0 0 136.4 136.4" style="enable-background:new 0 0 136.4 136.4;" xml:space="preserve">
<style type="text/css">
	.st0{opacity:0.2;fill:#666666;}
	.st1{fill:#E5C62E;}
	.st2{fill:#FDDB21;}
	.st3{fill:#FFFFFF;}
</style>
<circle class="st0" cx="68.2" cy="68.2" r="68.2"/>
<polygon class="st1" points="33.9,35.9 103.9,35.9 98.3,105.5 69.1,114.2 40.4,105.9 "/>
<polygon class="st2" points="69.6,41.5 96.5,41.5 91.8,100.8 68.6,108.2 "/>
<polygon class="st3" points="58.4,49.6 66,49.6 66,98.5 44.7,92.9 44.7,84.6 58.4,88.2 "/>
<path class="st3" d="M72.2,49.8h21.4l-0.3,7.6H79.8l-0.3,12.9l12.1-1.2L90,93.6l-17.7,5.1v-8.4l10.9-2.7l0.5-10.1l-11.4,1.8
	C72.4,79.3,72.2,49.3,72.2,49.8L72.2,49.8z"/>
</svg>
