<?xml version="1.0" encoding="utf-8"?>
<!-- Generator: Adobe Illustrator 26.3.1, SVG Export Plug-In . SVG Version: 6.00 Build 0)  -->
<svg version="1.1" id="a" xmlns="http://www.w3.org/2000/svg" xmlns:xlink="http://www.w3.org/1999/xlink" x="0px" y="0px"
	 viewBox="0 0 136.4 136.4" style="enable-background:new 0 0 136.4 136.4;" xml:space="preserve">
<style type="text/css">
	.st0{opacity:0.2;fill:#666666;}
	.st1{fill:#FFDD00;}
	.st2{fill:#FFFFFF;}
	.st3{fill:#E95A0E;}
</style>
<circle class="st0" cx="68.2" cy="68.2" r="68.2"/>
<path class="st1" d="M116.1,82.1c0,0-9.9,28.5-44.4,27.9c0,0-40.2-2.4-40.5-27.1c0,0-0.3-9.4,7.1-13.3l1-0.8c0,0-11.6-2.5-10.6-17.3
	c0,0-1.9-22,23.4-21.5c0,0,24.6-2,22.7,20.4c0,0-0.5,7.6-2.9,9.6c0,0,37.5-5,42.4-1.2C114.2,58.8,123.1,62.4,116.1,82.1L116.1,82.1z
	"/>
<circle cx="50.5" cy="53.5" r="4.2"/>
<circle class="st2" cx="49.3" cy="52.7" r="1.4"/>
<path class="st3" d="M23.1,67.4c0,0-3.1-0.3-1-3c0,0,6.4-6.4,6.9-7.2c0,0,1.9-2.9,4,0l4.7,7.7c0,0,2.5,2.7-1.6,2.8L23.1,67.4
	L23.1,67.4z"/>
</svg>
