<?xml version="1.0" encoding="utf-8"?>
<!-- Generator: Adobe Illustrator 26.3.1, SVG Export Plug-In . SVG Version: 6.00 Build 0)  -->
<svg version="1.1" id="a" xmlns="http://www.w3.org/2000/svg" xmlns:xlink="http://www.w3.org/1999/xlink" x="0px" y="0px"
	 viewBox="0 0 136.4 136.4" style="enable-background:new 0 0 136.4 136.4;" xml:space="preserve">
<style type="text/css">
	.st0{opacity:0.2;fill:#666666;}
	.st1{fill:#FFFFFF;}
	.st2{fill:#2E8BC7;}
</style>
<circle class="st0" cx="68.2" cy="68.2" r="68.2"/>
<circle class="st1" cx="68" cy="68.5" r="40.8"/>
<g>
	<path class="st2" d="M32.9,68.4c0,13.6,7.9,25.3,19.3,30.8L35.8,54.5C33.9,58.7,32.9,63.4,32.9,68.4C32.9,68.4,32.9,68.4,32.9,68.4
		z M90.2,66.7c0-4.2-1.5-7.2-2.8-9.4c-1.7-2.8-3.4-5.2-3.4-8c0-3.2,2.4-6.1,5.8-6.1c0.2,0,0.3,0,0.4,0c-6.1-5.6-14.2-9-23.1-9
		c-12,0-22.5,6.1-28.6,15.4c0.8,0,1.6,0,2.2,0c3.6,0,9.1-0.4,9.1-0.4c1.8-0.1,2.1,2.6,0.2,2.8c0,0-1.9,0.2-3.9,0.3l12.5,37.1
		L66.1,67l-5.3-14.6c-1.8-0.1-3.6-0.3-3.6-0.3c-1.8-0.1-1.6-2.9,0.2-2.8c0,0,5.7,0.4,9,0.4c3.6,0,9.1-0.4,9.1-0.4
		c1.8-0.1,2.1,2.6,0.2,2.8c0,0-1.9,0.2-3.9,0.3l12.4,36.8l3.4-11.4C89.3,73.3,90.2,69.6,90.2,66.7L90.2,66.7L90.2,66.7z M67.7,71.4
		l-10.3,29.8c3.1,0.9,6.3,1.4,9.7,1.4c4,0,7.8-0.7,11.4-1.9c-0.1-0.2-0.2-0.3-0.2-0.5L67.7,71.4L67.7,71.4L67.7,71.4z M97.1,52
		c0.2,1.1,0.2,2.3,0.2,3.5c0,3.5-0.7,7.4-2.6,12.3L84.3,98c10.2-5.9,17-16.9,17-29.6C101.3,62.4,99.8,56.8,97.1,52L97.1,52L97.1,52z
		"/>
	<path class="st2" d="M28.1,68.4c0,22,17.9,39.9,39.9,39.9s39.9-17.9,39.9-39.9S90,28.5,68,28.5S28.1,46.4,28.1,68.4z M29.9,68.4
		c0-21,17.1-38.1,38.1-38.1s38.1,17.1,38.1,38.1S89,106.5,68,106.5S29.9,89.4,29.9,68.4z"/>
</g>
</svg>
