<?xml version="1.0" encoding="utf-8"?>
<!-- Generator: Adobe Illustrator 26.2.1, SVG Export Plug-In . SVG Version: 6.00 Build 0)  -->
<svg version="1.1" id="a" xmlns="http://www.w3.org/2000/svg" xmlns:xlink="http://www.w3.org/1999/xlink" x="0px" y="0px"
	 viewBox="0 0 116.9 116.9" style="enable-background:new 0 0 116.9 116.9;" xml:space="preserve">
<style type="text/css">
	.st0{fill:#282923;}
	.st1{fill:#FFFFFF;}
	.st2{fill:#E27026;}
</style>
<ellipse class="st0" cx="58.3" cy="58.7" rx="57.4" ry="57.7"/>
<g>
	<path class="st1" d="M58.3,3.1c30.5,0,55.4,24.8,55.4,55.4s-24.8,55.4-55.4,55.4S3,89,3,58.5S27.8,3.1,58.3,3.1 M58.3,0.1
		C26.1,0.1,0,26.3,0,58.5s26.1,58.4,58.4,58.4s58.4-26.1,58.4-58.4S90.6,0.1,58.3,0.1L58.3,0.1z"/>
</g>
<g transform="translate(16.91 77.55)">
	<g>
		<path class="st2" d="M35.6-30.8c-9,16.2-14.5,28.8-14,32.6c-2.1-0.7-4.4-1.7-6-2.8c-2-1.3-3.1-3-2.9-7.2
			c0.2-4.1,2.9-15.9,3.7-21.7C9.5-11.3,6,0.1,6.4,3.4C4.9,2.9,3.1,2.1,2,1.3C-0.1,0-0.7-1.9,0.1-5.5c2-8.7,12.7-32.8,13.1-36.5
			c2.9,0.8,6.6,2.5,8.5,3.9c1.9,1.5,2.4,3.6,2.2,7c-0.2,3.3-2.4,12.1-3.8,18.6c3.6-9.6,13.7-26.1,13.3-29.5c3.1,1,6,2.4,7.6,3.7
			c2.6,2.2,2.9,4.4,1.6,8.2C36-10.3,33.9,0.4,34.3,3.4c-1.5-0.5-3.3-1.2-4.7-2.1c-2.2-1.3-2.9-3.1-2.2-7
			C28.6-11.2,32.3-22.2,35.6-30.8L35.6-30.8z"/>
		<path class="st2" d="M74.6-30.8c-8.9,16.2-14.5,28.8-14,32.6c-2.1-0.7-4.4-1.7-6-2.8c-2-1.3-3.1-3-2.9-7.2
			c0.2-4.1,2.9-15.9,3.7-21.7c-6.9,18.6-10.4,30-10,33.3c-1.5-0.5-3.3-1.2-4.4-2c-2.1-1.4-2.7-3.2-1.8-6.9
			c2-8.7,12.7-32.8,13.1-36.5c2.9,0.8,6.6,2.5,8.5,3.9c1.9,1.5,2.4,3.6,2.2,7c-0.2,3.3-2.4,12.1-3.8,18.6
			c3.6-9.6,13.7-26.1,13.3-29.5c3.1,1,6,2.4,7.6,3.7c2.6,2.2,2.9,4.4,1.6,8.2C75-10.3,72.8,0.4,73.3,3.4c-1.6-0.5-3.3-1.2-4.7-2.1
			c-2.2-1.3-2.9-3.1-2.2-7C67.6-11.2,71.3-22.2,74.6-30.8L74.6-30.8z"/>
	</g>
</g>
</svg>
