<?xml version="1.0" encoding="UTF-8"?><svg id="a" xmlns="http://www.w3.org/2000/svg" viewBox="0 0 140.3 140.3"><defs><style>.b{fill:#fff;}.c{fill:#e47125;}</style></defs><circle class="c" cx="70.15" cy="70.15" r="70.15"/><path class="b" d="M40.05,54.94s-.79-2.58,2.58-2.8h10.32s2.02,.11,2.24,2.36v41.72s-.22,1.79-2.58,1.91h-10.21s-2.13,.11-2.47-2.8,.11-40.37,.11-40.37Z"/><path class="b" d="M61.47,94.87V54.16s.22-2.24,2.24-2.13h10.43s2.24-.34,2.13,3.03v2.36s4.26-7.51,16.71-5.94c0,0,14.47-.67,14.58,19.29v25.12s0,1.91-1.79,2.24h-11.44s-2.13-.34-1.91-2.36v-23.33s-1.01-8.52-8.07-8.86c0,0-6.62,.79-7.63,8.3v23.66s.45,2.8-2.02,2.8h-11.1s-2.13,.34-2.13-3.48Z"/><circle class="b" cx="47.11" cy="38.51" r="9.76"/></svg>