<svg id="Layer_1" data-name="Layer 1" xmlns="http://www.w3.org/2000/svg" viewBox="0 0 260.4 263.47"><defs><style>.cls-1,.cls-3{fill:none;}.cls-2{fill:#e27026;}.cls-3{stroke:#fff;stroke-miterlimit:10;}</style></defs><rect class="cls-1" x="58.89" y="135.96" width="9.76" height="59.87"/><polygon class="cls-2" points="58.89 203.96 63.28 136.14 68.65 203.79 58.89 203.96"/><polygon class="cls-2" points="68.65 195.71 64.26 262.81 58.89 195.88 68.65 195.71"/><polygon class="cls-2" points="59.87 204.35 0 199.96 59.7 194.59 59.87 204.35"/><polygon class="cls-2" points="66.81 194.59 126.67 198.98 66.97 204.35 66.81 194.59"/><polygon class="cls-2" points="61.6 199.9 49.74 186.14 63.66 197.77 61.6 199.9"/><polygon class="cls-2" points="65.17 199.29 77.03 213.05 63.12 201.42 65.17 199.29"/><polygon class="cls-2" points="63.6 201.48 49.86 213.35 61.48 199.42 63.6 201.48"/><polygon class="cls-2" points="62.99 197.9 76.73 186.02 65.12 199.96 62.99 197.9"/><rect class="cls-1" x="101.4" y="155.51" width="4" height="24.35"/><polygon class="cls-2" points="101.4 183.18 103.2 155.59 105.4 183.11 101.4 183.18"/><polygon class="cls-2" points="105.4 179.82 103.6 207.12 101.4 179.89 105.4 179.82"/><polygon class="cls-2" points="101.8 183.34 77.29 181.55 101.74 179.37 101.8 183.34"/><polygon class="cls-2" points="104.65 179.37 129.16 181.15 104.71 183.34 104.65 179.37"/><polygon class="cls-2" points="102.52 181.53 97.66 175.93 103.36 180.66 102.52 181.53"/><polygon class="cls-2" points="103.98 181.28 108.83 186.88 103.14 182.14 103.98 181.28"/><polygon class="cls-2" points="103.33 182.17 97.71 187 102.46 181.33 103.33 182.17"/><polygon class="cls-2" points="103.08 180.71 108.71 175.88 103.95 181.55 103.08 180.71"/><rect class="cls-1" x="43.94" y="211.87" width="4" height="24.35"/><polygon class="cls-2" points="43.94 239.53 45.74 211.94 47.94 239.47 43.94 239.53"/><polygon class="cls-2" points="47.94 236.18 46.14 263.47 43.94 236.25 47.94 236.18"/><polygon class="cls-2" points="44.34 239.69 19.83 237.91 44.27 235.72 44.34 239.69"/><polygon class="cls-2" points="47.18 235.72 71.7 237.51 47.25 239.69 47.18 235.72"/><polygon class="cls-2" points="45.05 237.88 40.2 232.28 45.89 237.02 45.05 237.88"/><polygon class="cls-2" points="46.52 237.64 51.37 243.23 45.67 238.5 46.52 237.64"/><polygon class="cls-2" points="45.87 238.52 40.24 243.36 45 237.69 45.87 238.52"/><polygon class="cls-2" points="45.62 237.07 51.25 232.24 46.49 237.91 45.62 237.07"/><ellipse class="cls-3" cx="151.57" cy="110.54" rx="108.34" ry="110.04"/></svg>