<svg id="Layer_1" data-name="Layer 1" xmlns="http://www.w3.org/2000/svg" viewBox="0 0 309.13 307.87"><defs><style>.cls-1{fill:none;}.cls-2{fill:#e27026;}</style></defs><rect class="cls-1" x="58.89" y="180.35" width="9.76" height="59.87"/><polygon class="cls-2" points="58.89 248.35 63.28 180.53 68.65 248.19 58.89 248.35"/><polygon class="cls-2" points="68.65 240.11 64.26 307.21 58.89 240.28 68.65 240.11"/><polygon class="cls-2" points="59.87 248.75 0 244.36 59.7 238.99 59.87 248.75"/><polygon class="cls-2" points="66.81 238.99 126.67 243.38 66.97 248.75 66.81 238.99"/><polygon class="cls-2" points="61.6 244.3 49.74 230.54 63.66 242.17 61.6 244.3"/><polygon class="cls-2" points="65.17 243.69 77.03 257.45 63.12 245.82 65.17 243.69"/><polygon class="cls-2" points="63.6 245.88 49.86 257.75 61.48 243.82 63.6 245.88"/><polygon class="cls-2" points="62.99 242.3 76.73 230.42 65.12 244.36 62.99 242.3"/><rect class="cls-1" x="101.4" y="199.91" width="4" height="24.35"/><polygon class="cls-2" points="101.4 227.57 103.2 199.99 105.4 227.51 101.4 227.57"/><polygon class="cls-2" points="105.4 224.22 103.6 251.52 101.4 224.29 105.4 224.22"/><polygon class="cls-2" points="101.8 227.74 77.29 225.95 101.74 223.77 101.8 227.74"/><polygon class="cls-2" points="104.65 223.77 129.16 225.55 104.71 227.74 104.65 223.77"/><polygon class="cls-2" points="102.52 225.93 97.66 220.33 103.36 225.06 102.52 225.93"/><polygon class="cls-2" points="103.98 225.68 108.83 231.28 103.14 226.54 103.98 225.68"/><polygon class="cls-2" points="103.33 226.57 97.71 231.4 102.46 225.73 103.33 226.57"/><polygon class="cls-2" points="103.08 225.11 108.71 220.28 103.95 225.95 103.08 225.11"/><rect class="cls-1" x="43.94" y="256.27" width="4" height="24.35"/><polygon class="cls-2" points="43.94 283.93 45.74 256.34 47.94 283.87 43.94 283.93"/><polygon class="cls-2" points="47.94 280.58 46.14 307.87 43.94 280.64 47.94 280.58"/><polygon class="cls-2" points="44.34 284.09 19.83 282.31 44.27 280.12 44.34 284.09"/><polygon class="cls-2" points="47.18 280.12 71.7 281.91 47.25 284.09 47.18 280.12"/><polygon class="cls-2" points="45.05 282.28 40.2 276.68 45.89 281.42 45.05 282.28"/><polygon class="cls-2" points="46.52 282.04 51.37 287.63 45.67 282.9 46.52 282.04"/><polygon class="cls-2" points="45.87 282.92 40.24 287.75 45 282.09 45.87 282.92"/><polygon class="cls-2" points="45.62 281.47 51.25 276.64 46.49 282.31 45.62 281.47"/><polygon class="cls-2" points="236.27 14.22 221.7 0 204.91 41.76 202.69 36.9 203.02 48.15 236.27 14.22"/><polygon class="cls-2" points="235.98 13.94 250.55 28.17 209.19 45.95 214.11 48.05 202.85 47.99 235.98 13.94"/><polygon class="cls-2" points="270.41 16.53 309.13 65.06 240.55 76.11 244.53 82.36 223.57 70.3 224.3 49.81 228.5 56.06 270.41 16.53"/></svg>